<?xml version="1.0" standalone="no"?>
<!DOCTYPE svg PUBLIC "-//W3C//DTD SVG 1.1//EN" "http://www.w3.org/Graphics/SVG/1.1/DTD/svg11.dtd" >
<svg>
<metadata>
Created by FontForge 20090622 at Tue Mar 14 19:06:37 2017
 By deploy user
Copyright (c) 2012, Eduardo Tunni (http://www.tipo.net.ar), with Reserved Font Name "Average"
</metadata>
<defs>
<font id="Average-Regular" horiz-adv-x="523" >
  <font-face 
    font-family="Average"
    font-weight="400"
    font-stretch="normal"
    units-per-em="1000"
    panose-1="2 0 5 3 4 0 0 2 0 3"
    ascent="800"
    descent="-200"
    x-height="455"
    cap-height="688"
    bbox="-131 -263 997 953"
    underline-thickness="50"
    underline-position="-50"
    unicode-range="U+0020-U+FB04"
  />
<missing-glyph horiz-adv-x="250" 
 />
    <glyph glyph-name="ff" unicode="ff" horiz-adv-x="625" 
d="M411 406h-234q0 -278 10 -358q1 -7 28.5 -14t47.5 -8l-3 -29q-48 3 -118.5 3t-118.5 -3l3 29q20 2 43.5 8.5t24.5 13.5q8 0 8 358l-69 -1l-3 11l23 39q14 -2 48 -4q0 66 20.5 116.5t55.5 78.5q68 56 161.5 56t150.5 -52q41 40 90.5 59.5t71.5 19.5q8 0 26.5 -23.5
t24.5 -46.5l-15 -19q-43 19 -86 19q-115 0 -115 -207l130 1l5 -12l-31 -39q-34 3 -104 4q0 -278 10 -358q1 -7 28.5 -14t47.5 -8l-3 -29q-48 3 -118.5 3t-118.5 -3l3 29q20 2 43.5 8.5t24.5 13.5q8 0 8 358zM308 661q-55 0 -90 -39q-41 -45 -41 -173q68 -2 116 -2t117 3
q0 86 38 149q-62 62 -140 62z" />
    <glyph glyph-name="fi" unicode="fi" horiz-adv-x="581" 
d="M486 450l-2 -221q0 -129 8 -168l2 -13q1 -7 25.5 -13.5t45.5 -8.5l-3 -29q-48 3 -117 3t-117 -3l3 29q21 2 45 8.5t25 13.5q8 35 8 140q0 170 -8 208q-50 15 -110.5 15t-113.5 -5q0 -278 10 -358q1 -7 28.5 -14t47.5 -8l-3 -29q-48 3 -118.5 3t-118.5 -3l3 29
q20 2 43.5 8.5t24.5 13.5q8 0 8 358l-69 -1l-3 11l23 39q14 -2 48 -4q0 59 16.5 107.5t42.5 79.5t60 52q62 40 138 40q47 0 82.5 -16t35.5 -42q0 -39 -49 -62q-49 60 -116 60q-134 0 -134 -218q256 0 290 7z" />
    <glyph glyph-name="fl" unicode="fl" horiz-adv-x="588" 
d="M260 -3q-48 3 -118.5 3t-118.5 -3l3 29q20 2 43.5 8.5t24.5 13.5q8 0 8 358l-69 -1l-3 11l23 39q14 -2 48 -4q0 66 23.5 118.5t61.5 84.5q79 67 181 67q40 0 82 -13l23 22l19 -9q-2 -125 -2 -366t11 -307q1 -7 26 -14t44 -8l-3 -29q-48 3 -116 3t-116 -3l3 29
q21 2 44.5 8.5t24.5 13.5q7 65 7 297.5t-6 296.5q-59 26 -104 26q-127 0 -127 -216l130 1l5 -12l-31 -39q-34 3 -104 4q0 -278 10 -358q1 -7 28.5 -14t47.5 -8z" />
    <glyph glyph-name="ffi" unicode="ffi" horiz-adv-x="891" 
d="M795 450l-2 -221q0 -129 7 -168l3 -13q1 -7 25.5 -13.5t45.5 -8.5l-3 -29q-48 3 -117 3t-117 -3l3 29q21 2 45 8.5t25 13.5q8 35 8 140q0 170 -8 208q-50 10 -136 10h-88q0 -278 10 -358q1 -7 28.5 -14t47.5 -8l-3 -29q-48 3 -118.5 3t-118.5 -3l3 29q20 2 43.5 8.5
t24.5 13.5q8 0 8 358h-234q0 -278 10 -358q1 -7 28.5 -14t47.5 -8l-3 -29q-48 3 -118.5 3t-118.5 -3l3 29q20 2 43.5 8.5t24.5 13.5q8 0 8 358h-69l-3 11l23 39q14 -2 48 -4q0 66 20.5 116.5t55.5 79.5q68 55 160 55t150 -45q73 72 180 72q47 0 82.5 -16t35.5 -42
q0 -39 -49 -62q-49 60 -116 60q-134 0 -134 -218q256 0 290 7zM308 662q-55 0 -90 -38q-41 -46 -41 -174q68 -2 116 -2t117 3q0 93 38 156q-60 55 -140 55z" />
    <glyph glyph-name="ffl" unicode="ffl" horiz-adv-x="897" 
d="M800 721q-2 -125 -2 -366t11 -307q1 -7 26 -14t44 -8l-3 -29q-48 3 -116 3t-116 -3l3 29q21 2 44.5 8.5t24.5 13.5q7 65 7 276t-6 319q-59 25 -103 25q-128 0 -128 -216l130 1l5 -12l-31 -39q-34 3 -104 4q0 -278 10 -358q1 -7 28.5 -14t47.5 -8l-3 -29q-48 3 -118.5 3
t-118.5 -3l3 29q20 2 43.5 8.5t24.5 13.5q8 0 8 358h-234q0 -278 10 -358q1 -7 28.5 -14t47.5 -8l-3 -29q-48 3 -118.5 3t-118.5 -3l3 29q20 2 43.5 8.5t24.5 13.5q8 0 8 358l-69 -1l-3 11l23 39q14 -2 48 -4q0 66 20.5 116.5t55.5 78.5q68 56 162.5 56t150.5 -53
q77 72 186 72q24 0 44 -4q21 3 61 13zM308 661q-55 0 -90 -39q-41 -45 -41 -173q68 -2 116 -2t117 3q0 87 39 149q-64 62 -141 62z" />
    <glyph glyph-name="fj" unicode="fj" horiz-adv-x="562" 
d="M401 396q-50 15 -110.5 15t-113.5 -5q0 -278 10 -358q1 -7 28.5 -14t47.5 -8l-3 -29q-48 3 -118.5 3t-118.5 -3l3 29q20 2 43.5 8.5t24.5 13.5q8 0 8 358l-69 -1l-3 11l23 39q14 -2 48 -4q0 59 16.5 107.5t42.5 79.5t60 52q62 40 138 40q47 0 82.5 -16t35.5 -42
q0 -39 -49 -62q-49 60 -116 60q-134 0 -134 -218q256 0 290 7l19 -9q-2 -152 -2 -396q0 -74 -15.5 -133t-37 -92t-46.5 -55t-41.5 -29.5t-24.5 -7.5t-26.5 23.5t-24.5 46.5l15 19q31 -19 60 -19q66 0 66 208q0 243 -6 347z" />
    <glyph glyph-name="fh" unicode="fh" horiz-adv-x="874" 
d="M260 -3q-48 3 -118.5 3t-118.5 -3l3 29q20 2 43.5 8.5t24.5 13.5q8 0 8 358l-69 -1l-3 11l23 39q14 -2 48 -4q0 87 41 150q78 120 226 120q38 0 76 -11l21 20l19 -9q-2 -117 -2 -319q109 57 200 57q50 0 76 -20t26 -75v-135q0 -129 8 -168l2 -13q1 -7 22.5 -13.5
t41.5 -8.5l-3 -29q-48 3 -110 3t-110 -3l3 29q19 2 40.5 8.5t22.5 13.5q8 35 8 181v96q0 39 -23 54t-69 15q-57 0 -111 -19q-22 -8 -24 -8q0 -297 11 -319q1 -7 22.5 -13.5t41.5 -8.5l-3 -29q-48 3 -110 3t-110 -3l3 29q19 2 40.5 8.5t22.5 13.5q7 65 7 301t-6 296
q-55 23 -97 23q-127 0 -127 -216l130 1l5 -12l-31 -39q-34 3 -104 4q0 -278 10 -358q1 -7 28.5 -14t47.5 -8z" />
    <glyph glyph-name="fk" unicode="fk" horiz-adv-x="833" 
d="M554 -3q-48 3 -110 3t-110 -3l3 29q19 2 40.5 8.5t22.5 13.5q9 65 9 299.5t-6 296.5q-59 24 -99 24q-127 0 -127 -216l130 1l5 -12l-31 -39q-34 3 -104 4q0 -278 10 -358q1 -7 28.5 -14t47.5 -8l-3 -29q-48 3 -118.5 3t-118.5 -3l3 29q20 2 43.5 8.5t24.5 13.5q8 0 8 358
l-69 -1l-3 11l23 39q14 -2 48 -4q0 87 40.5 150t99.5 91.5t113 28.5t91 -12l22 21l19 -9q-2 -125 -2 -369v-80l160 120q7 6 7 12q0 22 -60 23l3 29q62 -3 106 -3t105 3l3 -29q-61 -9 -106 -41l-124 -92l188 -251q7 -11 21 -13q27 -4 46 -4l-3 -29q-57 0 -129 -6l-185 258
l-31 -23q3 -114 8 -178q1 -7 22.5 -13.5t41.5 -8.5z" />
    <glyph glyph-name="fb" unicode="fb" horiz-adv-x="852" 
d="M566 37q72 0 114 58.5t42 132t-36 122.5t-101 49q-49 0 -112 -32q0 -241 9 -313q44 -17 84 -17zM305 668q-128 0 -128 -216l130 1l5 -12l-31 -39q-34 3 -104 4q0 -278 10 -358q1 -7 28.5 -14t47.5 -8l-3 -29q-48 3 -118.5 3t-118.5 -3l3 29q20 2 43.5 8.5t24.5 13.5
q8 0 8 358l-69 -1l-3 11l23 39q14 -2 48 -4q0 87 41 150q76 119 224 119q36 0 71 -9l19 19l19 -9q-2 -111 -2 -319q83 57 160.5 57t127.5 -67.5t50 -162.5t-65 -167t-190 -72q-83 0 -166 35q8 88 8 252t-0.5 219.5t-1.5 83.5q-2 52 -4 69q-50 19 -87 19z" />
    <glyph glyph-name=".notdef" horiz-adv-x="250" 
 />
    <glyph glyph-name=".null" horiz-adv-x="0" 
 />
    <glyph glyph-name="nonmarkingreturn" horiz-adv-x="333" 
 />
    <glyph glyph-name="space" unicode=" " horiz-adv-x="250" 
 />
    <glyph glyph-name="exclam" unicode="!" horiz-adv-x="236" 
d="M118 -9q-22 0 -37.5 15.5t-15.5 38.5t15.5 38.5t37.5 15.5t37.5 -15.5t15.5 -38.5t-15.5 -38.5t-37.5 -15.5zM172 691l-33 -523l-38 -9l-37 505q0 3 3.5 7t30.5 11.5t74 8.5z" />
    <glyph glyph-name="quotedbl" unicode="&#x22;" horiz-adv-x="290" 
d="M127 683l-32 -232q1 -13 -40 -13l-19 221q1 3 4.5 7t26.5 10.5t60 6.5zM266 683l-32 -232q1 -13 -40 -13l-19 221q0 7 15 13q29 11 76 11z" />
    <glyph glyph-name="numbersign" unicode="#" 
d="M24 223v61h96l26 101h-81v61h97l59 228h65l-59 -228h128l59 228h65l-59 -228h79v-61h-95l-26 -101h82v-61h-97l-60 -232h-65l60 232h-128l-60 -232h-65l60 232h-81zM211 385l-26 -101h128l26 101h-128z" />
    <glyph glyph-name="dollar" unicode="$" 
d="M89 152l-1 18l24 11q11 -64 30.5 -95.5t56.5 -41.5l31 250l-40 29q-58 41 -80.5 74t-22.5 96.5t49 105.5t129 42h9l15 121h45l-16 -127q42 -7 55 -7t38 5v-13q0 -54 11 -127l-24 -12q-14 50 -34.5 76t-51.5 34l-27 -217l58 -39q58 -40 84 -79t26 -90q0 -80 -54 -127.5
t-143 -47.5h-18l-14 -112h-45l14 117q-64 7 -119 29q15 68 15 127zM355 139q0 42 -15.5 65t-48.5 47l-19 14l-28 -226q111 0 111 100zM199 573.5q-27 -23.5 -27 -59t19 -61.5t53 -51l24 195q-42 0 -69 -23.5z" />
    <glyph glyph-name="percent" unicode="%" horiz-adv-x="784" 
d="M146 -1l412 680h48l-412 -680h-48zM197 638q-22 0 -34 -36t-12 -92.5t12 -92t34 -35.5t34 35.5t12 92t-12 92.5t-34 36zM314 509q0 -71 -30 -117t-87 -46t-87 46t-30 117t30 117.5t87 46.5t87 -46.5t30 -117.5zM547 283q-22 0 -34 -36t-12 -92.5t12 -92t34 -35.5t34 35.5
t12 92t-12 92.5t-34 36zM664 154q0 -71 -30 -117t-87 -46t-87 46t-30 117t30 117.5t87 46.5t87 -46.5t30 -117.5z" />
    <glyph glyph-name="ampersand" unicode="&#x26;" horiz-adv-x="739" 
d="M245 -10q-89 0 -142 48t-53 117t40.5 120.5t127.5 103.5q-71 119 -71 180t45.5 104.5t117 43.5t119 -30t47.5 -90t-60 -114q-44 -41 -103 -80q76 -121 173 -226q46 72 46 142q0 17 -19 27t-67 19l3 29q58 -6 131.5 -6t121.5 6l3 -29q-81 -16 -95 -52q-38 -96 -94 -168
q37 -35 86 -53.5t134 -19.5l3 -29q-150 -32 -203 -46q-45 45 -80 84q-98 -81 -211 -81zM183 76.5q40 -30.5 107.5 -30.5t137.5 57q-118 136 -187 242q-98 -76 -98 -165q0 -73 40 -103.5zM254 644q-21 -22 -21 -70.5t60 -150.5q94 66 94 155q0 42 -24.5 65t-56 23t-52.5 -22z
" />
    <glyph glyph-name="quotesingle" unicode="'" horiz-adv-x="152" 
d="M128 683l-32 -232q1 -13 -40 -13l-20 221q1 3 4.5 7t26.5 10.5t61 6.5z" />
    <glyph glyph-name="parenleft" unicode="(" horiz-adv-x="397" 
d="M164 291q0 -103 38.5 -211t114.5 -196l-31 -29q-115 94 -165.5 209.5t-50.5 226.5q0 242 216 418l31 -28q-153 -180 -153 -390z" />
    <glyph glyph-name="parenright" unicode=")" horiz-adv-x="397" 
d="M233 291q0 210 -153 390l31 28q216 -176 216 -418q0 -111 -50.5 -226.5t-165.5 -209.5l-31 29q76 88 114.5 196t38.5 211z" />
    <glyph glyph-name="asterisk" unicode="*" horiz-adv-x="457" 
d="M321 348h-70q-12 76 -35 146l-106 -124l-34 10l-23 66q70 35 130 78q-101 41 -135 56l-17 8v35l55 41q55 -56 115 -100l13 166l34 12l55 -41q-36 -70 -59 -140l162 38l21 -28l-21 -66q-77 12 -151 13l85 -141z" />
    <glyph glyph-name="plus" unicode="+" 
d="M231 541h61v-207h207v-61h-207v-207h-61v207h-207v61h207v207z" />
    <glyph glyph-name="comma" unicode="," horiz-adv-x="214" 
d="M73.5 77.5q16.5 13.5 43 13.5t47.5 -25t21 -65t-36 -82t-110 -66l-9 22q108 49 108 132q-14 -15 -34 -15t-33.5 14t-13.5 36t16.5 35.5z" />
    <glyph glyph-name="hyphen" unicode="-" horiz-adv-x="314" 
d="M257 241q-25 0 -84 -4q-89 -6 -133 -17l-14 -4l-8 16l39 52q12 0 77 4q111 7 142 16l12 4l8 -15z" />
    <glyph glyph-name="period" unicode="." horiz-adv-x="165" 
d="M82 -9q-22 0 -37 15.5t-15 38.5t15 38t37 15t37.5 -15t15.5 -38t-15.5 -38.5t-37.5 -15.5z" />
    <glyph glyph-name="slash" unicode="/" horiz-adv-x="290" 
d="M20 -140l185 841h65l-185 -841h-65z" />
    <glyph glyph-name="zero" unicode="0" 
d="M485 332q0 -97 -23.5 -172t-75 -122t-125.5 -47t-125.5 47t-75 122t-23.5 172t23.5 172t75 122t125.5 47t125.5 -47t75 -122t23.5 -172zM261 628q-63 0 -96 -83t-33 -213t33 -213t96 -83t96 83t33 213t-33 213t-96 83z" />
    <glyph glyph-name="one" unicode="1" horiz-adv-x="403" 
d="M263 663q-4 -106 -4 -261q0 -251 6 -312l2 -21q2 -17 20.5 -25t70.5 -18l-3 -29q-60 3 -144 3t-162 -3l-3 29q17 4 37.5 7.5t33 6.5t19.5 5.5t14 6.5q13 6 15 17q7 59 7 214q0 241 -6 297l-1 16l-121 21l-3 36q125 0 201 20z" />
    <glyph glyph-name="two" unicode="2" horiz-adv-x="517" 
d="M444 492q0 -56 -29 -117t-66.5 -106.5t-88.5 -92.5q-72 -64 -131 -105l2 -5q185 0 236 16t74 89l27 -12q-18 -55 -24 -159h-402l-12 40q37 28 101.5 91t106.5 114t76.5 116.5t34.5 125t-36 89t-94 29.5q-83 0 -156 -39l-14 28q94 79 200 79q81 0 138 -47.5t57 -133.5z
" />
    <glyph glyph-name="three" unicode="3" horiz-adv-x="480" 
d="M430 203q0 -94 -88 -170t-226 -76q-45 0 -91 10l3 48q45 -9 82 -9q106 0 165.5 55.5t59.5 128.5q0 58 -40.5 98.5t-113.5 40.5q-36 0 -75 -10l3 39q96 22 145.5 75.5t49.5 95t-23.5 63.5t-74 22t-128.5 -48l-14 28q87 80 183 80q64 0 106.5 -35t42.5 -83
q0 -104 -149 -181v-5q94 -14 138.5 -58.5t44.5 -108.5z" />
    <glyph glyph-name="four" unicode="4" 
d="M496 -3q-63 3 -149.5 3t-149.5 -3l-3 29q17 4 37.5 7.5t33 6.5t19.5 5.5t14 6.5q13 6 15 17q3 23 6 117h-287l-12 39l264 497l91 -9l-283 -472h228v185q0 2 2 5.5t23.5 10t61.5 8.5q0 -172 1 -208h81l6 -15l-38 -46q0 2 -48 4l6 -116q2 -18 18.5 -25.5t65.5 -17.5z" />
    <glyph glyph-name="five" unicode="5" horiz-adv-x="489" 
d="M383 598q-24 6 -65.5 6t-169.5 -12l-28 -153q158 -5 238.5 -69.5t80.5 -160t-87 -174t-223 -78.5q-46 0 -93 10l3 45q40 -5 67 -5q110 0 174 55t64 130.5t-69 129t-198 53.5l-12 39l47 243l305 33l7 -15z" />
    <glyph glyph-name="six" unicode="6" horiz-adv-x="486" 
d="M273 341q81 0 127 -49.5t46 -120.5t-52 -125.5t-147 -54.5t-156 70t-61 173q0 79 36.5 158t125 160t219.5 140l16 -35q-102 -47 -172 -125q-127 -140 -127 -308q0 -79 31 -130.5t82 -51.5t78.5 38t27.5 91t-28.5 89.5t-76.5 36.5q-25 0 -55 -12l-4 40q47 16 90 16z" />
    <glyph glyph-name="seven" unicode="7" horiz-adv-x="477" 
d="M321 600h-59q-63 0 -81.5 -4t-37 -9t-26 -12.5t-17.5 -18.5q-14 -15 -28 -60l-27 12q12 67 12 162q63 -4 231 -4t186 1l3 -29l-282 -671l-91 9l288 601q-3 23 -71 23z" />
    <glyph glyph-name="eight" unicode="8" horiz-adv-x="505" 
d="M329.5 599q-27.5 30 -75 30t-74 -27t-26.5 -68q0 -83 119 -151q39 22 61.5 62t22.5 82t-27.5 72zM163 76.5q31 -35.5 83 -35.5t86 36t34 85q0 97 -135 156q-47 -23 -73 -65t-26 -91.5t31 -85zM460 170q0 -75 -62.5 -127t-155.5 -52t-145 48t-52 111t38 112.5t110 73.5
q-131 79 -131 178q0 68 56.5 113.5t140 45.5t131.5 -41.5t48 -96t-33 -101t-96 -70.5q151 -78 151 -194z" />
    <glyph glyph-name="nine" unicode="9" horiz-adv-x="503" 
d="M228 295q-87 0 -137.5 56t-50.5 133t53.5 133t152 56t163 -73.5t64.5 -182.5q0 -130 -98.5 -261t-300.5 -222l-16 36q81 38 144.5 94t100.5 118q74 126 74 246q0 84 -35 138.5t-91.5 54.5t-88 -42.5t-31.5 -99.5t33 -99t93 -42q21 0 47 6l4 -37q-44 -12 -80 -12z" />
    <glyph glyph-name="colon" unicode=":" horiz-adv-x="196" 
d="M113 -9q-22 0 -37.5 15.5t-15.5 38.5t15.5 38.5t37.5 15.5t37.5 -15.5t15.5 -38.5t-15.5 -38.5t-37.5 -15.5zM113 295q-22 0 -37.5 15.5t-15.5 38.5t15.5 38.5t37.5 15.5t37.5 -15.5t15.5 -38.5t-15.5 -38.5t-37.5 -15.5z" />
    <glyph glyph-name="semicolon" unicode=";" horiz-adv-x="211" 
d="M113 295q-22 0 -37.5 15.5t-15.5 38.5t15.5 38.5t37.5 15.5t37.5 -15.5t15.5 -38.5t-15.5 -38.5t-37.5 -15.5zM70.5 77.5q16.5 13.5 43 13.5t47.5 -25t21 -65t-36 -82t-110 -66l-9 22q108 49 108 132q-14 -15 -34 -15t-33.5 14t-13.5 36t16.5 35.5z" />
    <glyph glyph-name="less" unicode="&#x3c;" 
d="M487 56l-450 247l450 247v-69l-336 -178l336 -178v-69z" />
    <glyph glyph-name="equal" unicode="=" 
d="M24 354v61h475v-61h-475zM24 192v61h475v-61h-475z" />
    <glyph glyph-name="greater" unicode="&#x3e;" 
d="M487 303l-450 -247v69l336 178l-336 178v69z" />
    <glyph glyph-name="question" unicode="?" horiz-adv-x="343" 
d="M148 -9q-22 0 -37.5 15.5t-15.5 38.5t15.5 38.5t37.5 15.5t37.5 -15.5t15.5 -38.5t-15.5 -38.5t-37.5 -15.5zM50 642q0 34 22 51q221 -98 221 -223q0 -50 -49 -93l-42 -37q-49 -44 -49 -91.5t15 -80.5l-38 -9q-53 79 -53 140q0 27 26.5 55t58 47.5t58 46t26.5 50.5
q0 36 -46.5 60t-131.5 26q-7 8 -12.5 27t-5.5 31z" />
    <glyph glyph-name="at" unicode="@" horiz-adv-x="781" 
d="M508 -40q-73 -28 -139.5 -28t-123.5 21t-103.5 61.5t-74 106.5t-27.5 141t26.5 139.5t74.5 118t124.5 86t168.5 32.5q148 0 227.5 -76.5t79.5 -181.5t-71.5 -181t-194.5 -76q-32 0 -45 13t-13 33.5t12 70.5h-4q-82 -116 -135 -116q-33 0 -52 27.5t-19 77.5q0 90 63 160.5
t162 70.5q35 0 61 -10l30 22h15q-29 -92 -47.5 -184t-18.5 -135q80 0 130.5 62t50.5 145q0 135 -113 201q-62 36 -149 36q-123 0 -200.5 -91.5t-77.5 -219t70.5 -218.5t190 -91t238.5 81l16 -23q-59 -47 -132 -75zM447 434q-67 0 -106 -65.5t-39 -127.5t25 -62q21 0 111 109
l36 141q-15 5 -27 5z" />
    <glyph glyph-name="A" unicode="A" horiz-adv-x="694" 
d="M250 -3q-63 3 -123.5 3t-123.5 -3l-3 29q46 9 65 19.5t25 29.5l199 609l87 10l233 -625q7 -17 23.5 -25.5t61.5 -17.5l-3 -29q-63 3 -137 3t-137 -3l-3 29q71 14 82 26q6 5 6 10.5t-55 179.5h-226l-54 -178q0 -13 20 -21t66 -17zM330 590h-4l-17.5 -57.5l-31.5 -104
l-42 -140.5h196z" />
    <glyph glyph-name="B" unicode="B" horiz-adv-x="626" 
d="M173 685h168q94 0 143 -46t49 -114q0 -46 -28 -87.5t-77 -65.5q79 -18 114 -62t35 -119t-63 -133t-157 -58h-184q-78 0 -141 -3l-3 29q51 10 69 18t20 25q8 59 8 214q0 251 -6 313l-2 20q-2 18 -18 25.5t-64 17.5l3 29q63 -3 134 -3zM439 525q0 118 -152 118
q-36 0 -46.5 -4t-14.5 -18q-11 -51 -11 -253q70 12 149 12q75 49 75 145zM327 36q63 0 109 42t46 115q0 145 -204 145q-30 0 -63 -3q0 -197 8 -248l3 -19q9 -32 101 -32z" />
    <glyph glyph-name="C" unicode="C" horiz-adv-x="700" 
d="M407 37q94 0 154 38.5t80 104.5l27 -12q-11 -36 -23 -134q-123 -46 -241 -46q-164 0 -260 89.5t-96 248.5t95 263.5t260 104.5q46 0 103 -7.5t78 -7.5t45 6v-15q0 -73 12 -141l-27 -12q-40 131 -212 131q-100 0 -172 -71q-36 -35 -56.5 -93t-20.5 -124.5t14 -120.5
t43 -100t80 -74t117 -28z" />
    <glyph glyph-name="D" unicode="D" horiz-adv-x="769" 
d="M173 685h178q116 0 207 -45q101 -52 140 -152q22 -55 22 -123q0 -161 -99 -263t-287 -102h-161q-78 0 -141 -3l-3 29q51 10 69 18t20 25q8 59 8 214q0 251 -6 313l-2 20q-2 18 -18 25.5t-64 17.5l3 29q63 -3 134 -3zM227 60q54 -12 115 -12t116 24.5t84 58t46 79.5
q27 68 27 140q0 293 -326 293q-36 0 -47.5 -4t-14.5 -17q-11 -65 -11 -220q0 -241 8 -319z" />
    <glyph glyph-name="E" unicode="E" horiz-adv-x="608" 
d="M215 327q0 -189 8 -240l3 -19q9 -32 101 -32q46 0 73.5 3.5t58.5 16.5q58 23 88 115l27 -12q-18 -55 -24 -159h-400q-57 0 -120 -3l-3 29q51 10 69 18t20 25q9 58 9 213q0 252 -6 314l-2 20q-2 18 -18 25.5t-64 17.5l3 29q63 -3 237 -3t256 6v-15q0 -79 12 -147l-27 -12
q-26 82 -62 104t-136 22q-45 0 -67 -4t-25 -18q-10 -65 -11 -254q127 0 152.5 6t33 22t17.5 68l35 -4q-8 -58 -8 -111t8 -112l-35 -5q-10 52 -17.5 68t-33 22t-152.5 6z" />
    <glyph glyph-name="F" unicode="F" horiz-adv-x="554" 
d="M216 327q0 -178 6 -238l2 -20q2 -18 19 -25.5t66 -17.5l-3 -29q-63 3 -137 3t-137 -3l-3 29q51 10 69 18t20 25q8 59 8 214q0 251 -6 313l-2 20q-2 18 -18 25.5t-64 17.5l3 29q63 -3 230.5 -3t249.5 6v-15q0 -79 12 -147l-27 -12q-26 82 -62 104t-136 22q-64 0 -75 -9
q-5 -5 -6 -13q-8 -63 -9 -254q135 0 160.5 6t33 22t17.5 68l35 -4q-8 -58 -8 -111t8 -112l-35 -5q-10 52 -17.5 68t-33 22t-160.5 6z" />
    <glyph glyph-name="G" unicode="G" horiz-adv-x="759" 
d="M407 37q110 0 178 36l-7 162q-2 18 -18 25.5t-64 17.5l3 29q63 -3 118.5 -3t118.5 3l3 -29q-15 -3 -24.5 -6t-15.5 -4.5t-9 -6.5t-4 -6q-2 -5 -2 -20l-7 -180q-158 -67 -273 -67q-164 0 -260 89.5t-96 256.5q0 98 41.5 178.5t127 131t201.5 50.5q48 0 107 -7.5t81 -7.5
t47 6v-15q0 -73 12 -141l-28 -12q-43 131 -223 131q-110 0 -185.5 -76t-75.5 -221q0 -122 57 -212q29 -46 80 -74t117 -28z" />
    <glyph glyph-name="H" unicode="H" horiz-adv-x="803" 
d="M500 688q63 -3 132 -3t132 3l3 -29q-48 -10 -64 -17.5t-18 -25.5q-8 -59 -8 -214q0 -251 6 -312l2 -21q2 -18 19 -25.5t66 -17.5l-3 -29q-63 3 -137 3t-137 -3l-3 29q51 10 69 18t20 25q8 53 8 259q-39 5 -145 5q-156 0 -212 -4l-14 -1q0 -185 6 -240l2 -19
q2 -18 19 -25.5t66 -17.5l-3 -29q-63 3 -137 3t-137 -3l-3 29q51 10 69 18t20 25q8 59 8 214q0 251 -6 313l-2 20q-2 18 -18 25.5t-64 17.5l3 29q63 -3 132 -3t132 3l3 -29q-48 -10 -64 -17.5t-18 -25.5q-7 -48 -8 -232q39 -5 144 -5q157 0 213 4l14 1q0 164 -6 215l-2 17
q-2 18 -18 25.5t-64 17.5z" />
    <glyph glyph-name="I" unicode="I" horiz-adv-x="342" 
d="M224 616q-8 -59 -8 -214q0 -251 6 -312l2 -21q2 -18 19 -25.5t66 -17.5l-3 -29q-63 3 -137 3t-137 -3l-3 29q51 10 69 18t20 25q8 59 8 214q0 251 -6 313l-2 20q-2 18 -18 25.5t-64 17.5l3 29q63 -3 132 -3t132 3l3 -29q-48 -10 -64 -17.5t-18 -25.5z" />
    <glyph glyph-name="J" unicode="J" horiz-adv-x="352" 
d="M29 -178q-9 0 -32.5 24.5t-29.5 48.5l16 20q29 -20 62 -20t48 12.5t29 52.5q25 76 25 339q0 191 -6 285l-2 32q-2 18 -18 25.5t-64 17.5l3 29q63 -3 132 -3t132 3l3 -29q-49 -10 -66 -17.5t-19 -25.5q-5 -186 -5 -401q0 -92 -22 -170t-55 -124.5t-68 -72.5t-63 -26z" />
    <glyph glyph-name="K" unicode="K" horiz-adv-x="696" 
d="M306 -3q-63 3 -137 3t-137 -3l-3 29q51 10 69 18t20 25q8 59 8 214q0 251 -6 313l-2 20q-2 18 -18 25.5t-64 17.5l3 29q63 -3 132 -3t132 3l3 -29q-48 -10 -64 -17.5t-18 -25.5q-8 -56 -8 -251l264 253q4 3 4 7q0 19 -74 34l3 29q63 -3 123.5 -3t123.5 3l3 -29
q-80 -16 -114 -48l-215 -204l278 -364q23 -12 83 -17l-3 -29l-167 -6l-256 355l-53 -50q0 -157 6 -210l2 -17q2 -18 19 -25.5t66 -17.5z" />
    <glyph glyph-name="L" unicode="L" horiz-adv-x="580" 
d="M255.5 45q30.5 -9 71 -9t68 3.5t58.5 16.5q58 23 88 115l27 -12q-18 -55 -24 -159h-393q-57 0 -120 -3l-3 29q51 10 69 18t20 25q9 58 9 213q0 252 -6 314l-2 20q-2 18 -18 25.5t-64 17.5l3 29q63 -3 132 -3t132 3l3 -29q-48 -10 -64 -17.5t-18 -25.5q-8 -59 -8 -214
q0 -251 6 -312l2 -21q1 -15 31.5 -24z" />
    <glyph glyph-name="M" unicode="M" horiz-adv-x="922" 
d="M195 526q-10 -250 -10 -352l3 -105q3 -24 53 -35q12 -2 41 -8l-3 -29q-63 3 -137 3t-116 -3l-3 29q48 10 66 18t20 25q20 162 20 414l-4 133q-2 18 -18 25.5t-64 17.5l3 29q63 -3 174 -3l238 -590l238 590q114 0 177 3l3 -29q-48 -10 -64 -17.5t-19 -26.5t-3 -66t5 -207
q10 -198 16 -254l2 -19q2 -18 19 -25.5t66 -17.5l-3 -29q-63 3 -137 3t-137 -3l-3 29q52 10 70.5 18t18.5 25q1 33 1 142t-13 315h-6l-214 -525l-62 -11l-214 536h-4z" />
    <glyph glyph-name="N" unicode="N" horiz-adv-x="785" 
d="M608 132q2 56 2 181q0 229 -6 283l-3 20q-3 24 -53 34q-12 3 -41 9l3 29q63 -3 124.5 -3t124.5 3l3 -29q-48 -10 -64 -17.5t-18 -25.5q-10 -59 -10 -214q0 -237 8 -364l3 -38l-80 -9l-406 546h-5q-4 -88 -4 -189q0 -189 8 -258l3 -21q3 -24 53 -35q12 -2 41 -8l-3 -29
q-63 3 -132 3t-132 -3l-3 29q53 10 74 18t23 25q8 58 8 213q0 252 -6 314l-2 20q-2 18 -18 25.5t-64 17.5l3 29q63 -3 149 -3l415 -553h5z" />
    <glyph glyph-name="O" unicode="O" horiz-adv-x="786" 
d="M398 650q-58 0 -103 -23t-71 -57t-42 -77q-28 -72 -28 -140t12 -122.5t38 -100.5t73 -72t105.5 -26t101.5 20t69.5 50.5t44.5 69.5q32 69 34 140q0 338 -234 338zM653 104q-42 -55 -114 -87.5t-167 -32.5q-164 0 -243.5 88.5t-79.5 241.5q0 154 84 264q42 55 114 87.5
t167 32.5q164 0 243.5 -88t79.5 -241t-84 -265z" />
    <glyph glyph-name="P" unicode="P" horiz-adv-x="576" 
d="M173 685h152q110 0 168 -53t58 -134.5t-72 -149.5t-192 -68q-33 0 -71 6l8 -217q2 -18 19 -25.5t66 -17.5l-3 -29q-63 3 -137 3t-137 -3l-3 29q51 10 69 18t20 25q8 59 8 214q0 251 -6 313l-2 20q-2 18 -18 25.5t-64 17.5l3 29q63 -3 134 -3zM271 322q86 0 135 41
t49 124.5t-42 119.5t-126 36q-37 0 -47 -5t-14 -29q-10 -52 -10 -284q29 -3 55 -3z" />
    <glyph glyph-name="Q" unicode="Q" horiz-adv-x="792" 
d="M383 -15l-11 -1q-164 0 -243.5 88.5t-79.5 241.5q0 154 84 264q42 55 114 87.5t167 32.5q164 0 243.5 -88t79.5 -241q0 -131 -62 -233.5t-187 -136.5l312 -155v-22l-83 -39q-205 140 -334 202zM398 650q-58 0 -103 -23t-71 -57t-42 -77q-28 -72 -28 -140t12 -122.5
t38 -100.5t73 -72t105.5 -26t101.5 20t69.5 50.5t44.5 69.5q32 69 34 140q0 338 -234 338z" />
    <glyph glyph-name="R" unicode="R" horiz-adv-x="668" 
d="M311 -3q-65 3 -140.5 3t-138.5 -3l-3 29q51 10 69 18t20 25q8 59 8 214q0 251 -6 313l-2 20q-2 18 -18 25.5t-64 17.5l3 29q63 -3 134 -3h173q97 0 147.5 -46t50.5 -114q0 -122 -135 -189l176 -293q23 -12 83 -17l-3 -29l-169 -6l-177 331q-34 -2 -103 -2q0 -185 8 -236
l3 -15q2 -18 19.5 -25.5t67.5 -17.5zM453 525q0 118 -166 118q-36 0 -46.5 -4t-14.5 -18q-10 -60 -10 -262q110 0 157 10q80 49 80 156z" />
    <glyph glyph-name="S" unicode="S" horiz-adv-x="528" 
d="M360.5 617q-35.5 27 -92.5 27t-87 -27.5t-30 -67.5q0 -65 67 -109l158 -103q104 -68 104 -161q0 -75 -59.5 -130.5t-173.5 -55.5t-199 36q16 82 16 147l27 12q15 -82 47 -113t99.5 -31t103 33t35.5 78q0 61 -65 103l-160 105q-92 60 -92 154q0 73 57 126.5t149 53.5
q30 0 66.5 -7.5t55.5 -7.5t44 6v-15q0 -73 12 -141l-27 -12q-20 73 -55.5 100z" />
    <glyph glyph-name="T" unicode="T" horiz-adv-x="642" 
d="M23 691q82 -6 298 -6t298 6v-15q0 -79 12 -147l-27 -12q-26 82 -62 104t-136 22q-30 0 -33 -27q-8 -59 -8 -214q0 -251 6 -312l2 -21q2 -18 19 -25.5t66 -17.5l-3 -29q-63 3 -137 3t-137 -3l-3 29q51 10 69 18t20 25q8 59 8 214q0 251 -6 313l-2 20q-3 27 -31 27
q-100 0 -136 -22t-62 -104l-27 12q12 68 12 147v15z" />
    <glyph glyph-name="U" unicode="U" horiz-adv-x="760" 
d="M493 688q63 -3 124.5 -3t124.5 3l3 -29q-49 -10 -65 -17.5t-17 -25.5q-5 -108 -11 -369q-3 -117 -68 -188t-204 -71q-67 0 -113.5 10.5t-82.5 37.5q-71 53 -73 200q-4 251 -7 380q0 18 -16.5 25.5t-65.5 17.5l3 29q63 -3 132 -3t132 3l3 -29q-48 -10 -64 -17.5t-18 -25.5
q-9 -65 -9 -199.5t0.5 -156.5t2.5 -53.5t7 -48.5t13.5 -38.5t21.5 -32.5t32 -22q33 -20 100.5 -20t110.5 20.5t65 62t30 90.5t8 133q0 179 -6 243l-2 22q-3 24 -53 34q-12 3 -41 9z" />
    <glyph glyph-name="V" unicode="V" horiz-adv-x="689" 
d="M444 688q63 -3 123.5 -3t123.5 3l3 -29q-44 -9 -63 -19.5t-27 -29.5q-152 -407 -209 -610l-98 -9l-214 625q-8 17 -24 25.5t-61 17.5l3 29q63 -3 132.5 -3t132.5 3l3 -29q-70 -13 -83 -25q-5 -5 -5 -11.5t28 -92l75.5 -227.5l71.5 -216h5l70 219q98 305 97 316.5
t-20.5 19.5t-66.5 17z" />
    <glyph glyph-name="W" unicode="W" horiz-adv-x="990" 
d="M184 622l122 -513h5q68 221 137 493l22 83h65l176 -576h5q114 471 114 512q0 13 -19.5 21t-66.5 17l3 29q63 -3 123.5 -3t123.5 3l3 -29q-46 -9 -66 -19.5t-24 -29.5q-101 -407 -158 -610l-92 -9l-166 540h-4l-149 -531l-92 -9l-163 625q-7 17 -23.5 25.5t-61.5 17.5
l3 29q63 -3 134 -3t134 3l3 -29q-70 -13 -82 -25q-6 -5 -6 -12z" />
    <glyph glyph-name="X" unicode="X" horiz-adv-x="700" 
d="M173 62q0 -18 87 -36l-3 -29q-63 3 -123.5 3t-123.5 -3l-3 29q41 8 58.5 19t31.5 30l210 266q-194 271 -201 281.5t-22.5 19.5t-57.5 17l3 29q63 -3 137 -3t137 3l3 -29q-89 -17 -89 -36q0 -10 149 -214l143 207q3 4 3 7q0 19 -88 36l3 29q63 -3 123.5 -3t123.5 3l3 -29
q-41 -8 -58.5 -19t-31.5 -30l-186 -250l87 -120l123 -171q12 -17 27.5 -26t57.5 -17l-3 -29q-63 3 -137 3t-137 -3l-3 29q48 10 68.5 17.5t20.5 19.5q0 1 -2 7l-162 225l-166 -226q-2 -2 -2 -7z" />
    <glyph glyph-name="Y" unicode="Y" horiz-adv-x="641" 
d="M482 623q0 18 -87 36l3 29q63 -3 123.5 -3t123.5 3l3 -29q-44 -9 -63 -19.5t-27 -29.5l-193 -341q0 -136 6 -184l2 -16q2 -18 19 -25.5t66 -17.5l-3 -29q-63 3 -137 3t-137 -3l-3 29q51 10 69 18t20 25q6 44 7 193l-193 354q-9 17 -25.5 25.5t-59.5 17.5l3 29
q63 -3 137 -3t137 3l3 -29q-89 -17 -89 -36q0 -2 2 -8l148 -291l143 292q2 4 2 7z" />
    <glyph glyph-name="Z" unicode="Z" horiz-adv-x="640" 
d="M267 53q184 0 231 17q49 19 69 54q11 19 20 47l27 -12q-18 -55 -24 -159h-536l-24 35l448 596q-264 0 -316.5 -15t-78.5 -99l-27 12q12 68 12 147v15q82 -6 380 -6h132l18 -33l-447 -599h116z" />
    <glyph glyph-name="bracketleft" unicode="[" horiz-adv-x="427" 
d="M106 644l-6 53l21 10q76 -20 226 -20l-3 -36l-152 -16q13 -129 13 -285q0 -236 -10 -379l-3 -43l152 -16l3 -36q-150 0 -226 -20l-21 10q24 210 24 413.5t-18 364.5z" />
    <glyph glyph-name="backslash" unicode="\" horiz-adv-x="290" 
d="M85 701l185 -841h-65l-185 841h65z" />
    <glyph glyph-name="bracketright" unicode="]" horiz-adv-x="427" 
d="M321 -80l6 -53l-21 -10q-76 20 -226 20l3 36l152 16q-13 129 -13 285q0 262 10 379l3 43l-152 16l-3 36q150 0 226 20l21 -10q-24 -210 -24 -413.5t18 -364.5z" />
    <glyph glyph-name="asciicircum" unicode="^" 
d="M235 664h51l200 -399h-69l-156 336l-156 -336h-69z" />
    <glyph glyph-name="underscore" unicode="_" horiz-adv-x="462" 
d="M44 -16q101 -5 198 -5t213 5l7 -15l-44 -48q-108 4 -201.5 4t-209.5 -5l-7 16z" />
    <glyph glyph-name="grave" unicode="`" horiz-adv-x="285" 
d="M152 518l-173 162q2 17 23 29.5t46 12.5l134 -199z" />
    <glyph glyph-name="a" unicode="a" horiz-adv-x="457" 
d="M166 179q-43 -29 -43 -63t17.5 -49.5t56.5 -15.5t94 33v126q-82 -2 -125 -31zM364 -9q-60 0 -70 65q-88 -65 -152 -65q-43 0 -73 26.5t-30 82.5t59.5 101t192.5 54v93q0 28 -20.5 43t-57.5 15t-59 -20.5t-22 -52.5q0 -12 3 -27l-22 -10q-20 11 -37.5 30t-17.5 27.5
t13.5 25t36.5 35.5t61.5 32.5t86.5 13.5t78 -23.5t30 -85t6 -259.5q1 -48 36 -48q15 0 31 8l10 -26q-38 -35 -83 -35z" />
    <glyph glyph-name="b" unicode="b" horiz-adv-x="536" 
d="M250 37q72 0 114 58.5t42 132t-36 122.5t-101 49q-49 0 -112 -32q0 -241 9 -313q44 -17 84 -17zM157 402q83 57 160.5 57t127.5 -67.5t50 -162.5t-65 -167t-190 -72q-83 0 -166 35q8 88 8 273q0 301 -6 352l-2 17l-64 19l-2 26q64 0 132 18l19 -9q-2 -111 -2 -319z" />
    <glyph glyph-name="c" unicode="c" horiz-adv-x="443" 
d="M421 57q-83 -66 -181 -66t-151 62t-53 161.5t61.5 172.5t171.5 73q45 0 80.5 -14.5t50.5 -29.5t15 -24q0 -40 -24 -73h-24q-12 33 -40.5 60t-73.5 27q-62 0 -95.5 -55.5t-33.5 -136t39 -122.5t109 -42t137 40z" />
    <glyph glyph-name="d" unicode="d" horiz-adv-x="544" 
d="M377 56q-69 -65 -151 -65t-134.5 59.5t-52.5 170t62.5 175.5t154.5 65q50 0 120 -35q0 185 -6 227l-2 14l-64 19l-2 26q64 0 132 18l19 -9q-2 -125 -2 -354t2 -262t8.5 -41.5t19.5 -12.5q21 -6 49 -8l-3 -29q-36 -3 -109 -18q-30 13 -41 60zM282 400q-79 0 -116.5 -51.5
t-37.5 -127.5t33 -121.5t94 -45.5t116 35q5 80 5 293q-52 18 -94 18z" />
    <glyph glyph-name="e" unicode="e" horiz-adv-x="459" 
d="M338 320q0 46 -26 68.5t-58 22.5q-47 0 -81 -37t-45 -91l207 8q3 15 3 29zM251 -9q-106 0 -160 60.5t-54 161t59.5 174t179.5 73.5q61 0 106.5 -43t45.5 -128l-34 -41q-6 1 -94.5 1t-177.5 -7v-9q0 -91 38 -136.5t104 -45.5t139 32l12 -30q-77 -62 -164 -62z" />
    <glyph glyph-name="f" unicode="f" horiz-adv-x="316" 
d="M260 -3q-48 3 -118.5 3t-118.5 -3l3 29q20 2 43.5 8.5t24.5 13.5q8 0 8 358l-69 -1l-3 11l23 39q14 -2 48 -4q0 65 22.5 117t54 81t68.5 49q60 32 96 32q8 0 26.5 -23.5t24.5 -46.5l-15 -19q-43 19 -86 19q-115 0 -115 -208l130 1l5 -12l-31 -39q-34 3 -104 4
q0 -278 10 -358q1 -7 28.5 -14t47.5 -8z" />
    <glyph glyph-name="g" unicode="g" horiz-adv-x="490" 
d="M434 496q8 0 26.5 -23.5t24.5 -46.5l-15 -19q-18 9 -43 9t-47 -11q35 -43 35 -113t-46 -119.5t-136 -49.5q-23 0 -44 3q-37 -48 -37 -66q0 -23 65 -23h75q189 0 189 -122q0 -68 -75.5 -123t-202.5 -55q-74 0 -128 24.5t-54 69.5q0 64 103 147q-63 14 -63 48t90 107
q-101 32 -101 161q0 66 46.5 115.5t131 49.5t126.5 -30q12 19 37 43t43 24zM105 -136q0 -39 29 -63t95 -24t117 41.5t51 88.5q0 30 -26 49t-81 19h-135q-50 -56 -50 -111zM234 418q-29 0 -50.5 -13.5t-31.5 -34.5q-17 -40 -17 -85t22.5 -83t72.5 -38q36 0 59.5 21.5t31 44.5
t8.5 48q0 140 -95 140z" />
    <glyph glyph-name="h" unicode="h" horiz-adv-x="558" 
d="M238 -3q-48 3 -110 3t-110 -3l3 29q19 2 40.5 8.5t22.5 13.5q7 65 7 250q0 301 -6 352l-2 17l-64 19l-2 26q64 0 132 18l19 -9q-2 -117 -2 -319q111 58 200 58q50 0 76 -20t26 -75v-136q0 -129 8 -168l2 -13q1 -7 22.5 -13.5t41.5 -8.5l-3 -29q-48 3 -110 3t-110 -3l3 29
q19 2 40.5 8.5t22.5 13.5q8 35 8 181v97q0 39 -23 54t-55 15t-51.5 -2.5t-35.5 -6.5q-40 -11 -52 -16l-10 -3q0 -297 11 -319q1 -7 22.5 -13.5t41.5 -8.5z" />
    <glyph glyph-name="i" unicode="i" horiz-adv-x="275" 
d="M139 563q-22 0 -37 15.5t-15 38t15 37.5t37 15t37 -15t15 -37.5t-15 -38t-37 -15.5zM180 450l-2 -221q0 -129 8 -168l2 -13q1 -7 25.5 -13.5t45.5 -8.5l-3 -29q-48 3 -117 3t-117 -3l3 29q21 2 45 8.5t25 13.5q8 35 8 140q0 170 -8 208l-64 19l-2 26q64 0 132 18z" />
    <glyph glyph-name="j" unicode="j" horiz-adv-x="269" 
d="M105 15q0 243 -6 347l-2 34l-64 19l-2 26q64 0 132 18l19 -9q-2 -152 -2 -396q0 -74 -15.5 -133t-37 -92t-46.5 -55t-41.5 -29.5t-24.5 -7.5t-26.5 23.5t-24.5 46.5l15 19q31 -19 60 -19q66 0 66 208zM141 563q-22 0 -37 15.5t-15 38t15 37.5t37 15t37 -15t15 -37.5
t-15 -38t-37 -15.5z" />
    <glyph glyph-name="k" unicode="k" horiz-adv-x="517" 
d="M238 -3q-48 3 -110 3t-110 -3l3 29q19 2 40.5 8.5t22.5 13.5q9 65 9 250q0 301 -6 352l-2 17l-64 19l-2 26q64 0 132 18l19 -9q-2 -125 -2 -369v-80l160 120q7 6 7 12q0 22 -60 23l3 29q62 -3 106 -3t105 3l3 -29q-61 -9 -106 -41l-128 -95l192 -248q10 -12 38 -15
q6 0 16 -1t13 -1l-3 -29q-57 0 -129 -6l-185 258l-31 -23q3 -114 8 -178q1 -7 22.5 -13.5t41.5 -8.5z" />
    <glyph glyph-name="l" unicode="l" horiz-adv-x="272" 
d="M175 721q-2 -125 -2 -366t11 -307q1 -7 26 -14t44 -8l-3 -29q-48 3 -116 3t-116 -3l3 29q21 2 44.5 8.5t24.5 13.5q7 65 7 250q0 301 -6 352l-2 17l-64 19l-2 26q64 0 132 18z" />
    <glyph glyph-name="m" unicode="m" horiz-adv-x="838" 
d="M459 229q0 -129 7 -168l3 -13q1 -7 22.5 -13.5t41.5 -8.5l-3 -29q-48 3 -110 3t-110 -3l3 29q19 2 40.5 8.5t22.5 13.5q8 35 8 181v97q0 39 -23 54t-55 15t-50 -2.5t-32 -6.5q-19 -5 -52 -19v-138q0 -124 8 -168l3 -13q1 -7 22.5 -13.5t41.5 -8.5l-3 -29q-48 3 -110 3
t-110 -3l3 29q19 2 40.5 8.5t22.5 13.5q7 35 7 140q0 170 -8 208l-64 19l-2 26q64 0 132 18l19 -9q-1 -25 -1 -48q111 58 189 58t93 -59q105 59 190 59q50 0 76 -20t26 -75v-136q0 -129 7 -168l3 -13q1 -7 22.5 -13.5t41.5 -8.5l-3 -29q-48 3 -110 3t-110 -3l3 29
q19 2 40.5 8.5t22.5 13.5q8 35 8 181v97q0 39 -23 54t-81.5 15t-108.5 -28v-138z" />
    <glyph glyph-name="n" unicode="n" horiz-adv-x="560" 
d="M173 367l-1 -138q0 -129 8 -168l2 -13q1 -7 22.5 -13.5t41.5 -8.5l-3 -29q-48 3 -110 3t-110 -3l3 29q19 2 40.5 8.5t22.5 13.5q8 35 8 140q0 170 -8 208l-64 19l-2 26q64 0 132 18l19 -9v-48q111 58 193 58q50 0 76 -20t26 -75v-136q0 -129 7 -168l3 -13
q1 -7 22.5 -13.5t41.5 -8.5l-3 -29q-48 3 -110 3t-110 -3l3 29q19 2 40.5 8.5t22.5 13.5q8 35 8 181v97q0 39 -23 54t-78 15t-120 -28z" />
    <glyph glyph-name="o" unicode="o" horiz-adv-x="529" 
d="M267 411q-41 0 -71 -20.5t-44 -51.5q-27 -57 -27 -109q0 -82 33 -136.5t104 -54.5q38 0 67 17.5t44 45.5q29 52 31 104q0 205 -137 205zM438 402q52 -58 52 -161.5t-59.5 -176.5t-173.5 -73t-166 57.5t-52 160.5t59.5 177t173.5 74t166 -58z" />
    <glyph glyph-name="p" unicode="p" horiz-adv-x="546" 
d="M256 44q80 0 120 53.5t40 127.5t-34.5 123t-103.5 49q-27 0 -62 -10t-52 -21v-305q48 -17 92 -17zM237 -263q-48 3 -116 3t-116 -3l3 29q67 6 69 19q12 57 12 243q0 300 -6 351l-2 17l-64 19l-2 26q63 0 131 18l19 -9v-49q78 59 159 59t131 -54t50 -169.5t-63 -180.5
t-154 -65q-66 0 -124 32q1 -224 6 -238q2 -13 70 -19z" />
    <glyph glyph-name="q" unicode="q" horiz-adv-x="536" 
d="M286 406q-72 0 -114 -59t-42 -131t33.5 -119t93 -47t122.5 31q0 231 -9 308q-44 17 -84 17zM454 458q-2 -121 -2 -364t11 -309q2 -13 64 -19l-3 -29q-48 3 -113 3t-113 -3l3 29q67 6 69 19q7 52 8 259q-44 -30 -79 -42t-80 -12q-82 0 -130 65t-48 164t65.5 170.5
t159.5 71.5q72 0 127 -31l42 37z" />
    <glyph glyph-name="r" unicode="r" horiz-adv-x="377" 
d="M319 466q8 0 26.5 -23.5t24.5 -46.5l-15 -19q-36 14 -75 14t-71 -32.5t-32 -104.5q1 -176 9 -205q1 -8 28.5 -14.5t57.5 -8.5l-3 -29q-48 3 -121.5 3t-121.5 -3l3 29q20 2 42 8.5t23 13.5q8 35 8 140q0 170 -8 208l-64 19l-2 26q64 0 132 18l19 -9q-2 -15 -2 -82
q29 48 73.5 73t68.5 25z" />
    <glyph glyph-name="s" unicode="s" horiz-adv-x="382" 
d="M310 442l14 -7q0 -65 6 -99l-26 -9q-13 51 -36.5 71t-59.5 20t-57 -19t-21 -45q0 -45 52 -74l102 -56q66 -37 66 -107q0 -51 -40.5 -88.5t-115.5 -37.5t-154 25q12 70 12 115l26 9q9 -36 13.5 -49t16 -32t29.5 -25t53 -6t58 20t23 48q0 42 -47 68l-108 60q-66 35 -66 107
q0 51 39 90t109 39t112 -18z" />
    <glyph glyph-name="t" unicode="t" horiz-adv-x="327" 
d="M195 -9q-104 0 -104 100q1 88 1 161.5t-2 153.5l-64 -1l-3 11l23 39q14 -3 42 -4l-4 92l66 59l19 -9q-2 -74 -2 -141l147 1l5 -12l-36 -40q-34 4 -116 5v-134q0 -125 3 -179q3 -45 53 -45q40 0 88 23l12 -33q-71 -47 -128 -47z" />
    <glyph glyph-name="u" unicode="u" horiz-adv-x="550" 
d="M187 -9q-102 0 -102 104v134q0 134 -7 167l-59 19l-2 26q59 0 127 18l19 -9q-3 -179 -3 -325q0 -67 81 -67q34 0 73 11.5t62 25.5q4 54 4 127q0 136 -8 174l-63 19l-2 26q64 0 132 18l19 -9q-3 -75 -3 -248l3 -117q0 -17 13.5 -26.5t26.5 -12t36 -3.5l-3 -29
q-36 -3 -109 -18q-30 13 -41 60q-96 -65 -194 -65z" />
    <glyph glyph-name="v" unicode="v" horiz-adv-x="479" 
d="M258 68q106 325 104 325q1 2 1 5q0 22 -55 29l-3 29q34 -3 72 -3l102 3l3 -29q-51 -7 -63 -37q-57 -132 -140 -390l-72 -9q-81 250 -125 355l-16 40q-13 33 -61 41l-3 29q69 -3 106 -3l104 3l3 -29q-30 -3 -45 -12t-15 -18q0 -1 19 -61z" />
    <glyph glyph-name="w" unicode="w" horiz-adv-x="725" 
d="M608 396q0 23 -63 31l-3 29q42 -3 80 -3l102 3l3 -29q-51 -7 -63 -37l-116 -390l-74 -9l-110 288l-106 -279l-75 -9l-116 395q-9 33 -61 41l-3 29q69 -3 106 -3l112 3l3 -29q-47 -6 -62 -22q-5 -6 -5 -10t81 -337l134 392h22l134 -392q80 332 80 338z" />
    <glyph glyph-name="x" unicode="x" horiz-adv-x="496" 
d="M132 46q0 -20 62 -20l-6 -29q-46 3 -84 3l-97 -3l3 29q26 0 38.5 7t24.5 21l134 168l-122 177q-19 28 -58 28l-3 29q80 -3 117 -3l85 3l3 -29q-56 0 -56 -20q0 -5 90 -132q92 124 92 131q0 21 -51 21l-3 29q49 -3 87 -3l82 3l3 -29q-36 -3 -61 -34l-121 -157l131 -179
q21 -31 68 -31l-3 -29q-80 3 -117 3l-96 -3l3 29q53 0 53 21q0 7 -96 136q-102 -132 -102 -137z" />
    <glyph glyph-name="y" unicode="y" horiz-adv-x="482" 
d="M167 415q-15 -9 -15 -14.5t106 -332.5q110 314 110 330q0 22 -55 29l-3 29q34 -3 72 -3l102 3l3 -29q-51 -7 -63 -37q-43 -134 -145 -390q-77 -195 -147 -244q-20 -14 -30.5 -16.5t-20.5 -2.5t-28.5 23.5t-24.5 46.5l15 19q19 -9 45 -9q72 0 144 183l-35 21
q-77 238 -119 333l-15 32q-13 33 -61 41l-3 29q69 -3 106 -3l104 3l3 -29q-30 -3 -45 -12z" />
    <glyph glyph-name="z" unicode="z" horiz-adv-x="444" 
d="M245 410q-22 0 -50.5 -1.5t-39.5 -3t-27 -6.5t-21 -10t-13 -15.5t-12 -21.5l-9 -28l-26 9q9 56 9 109v13q62 -5 342 -5l15 -28l-283 -377q141 0 191.5 17.5t71.5 84.5l26 -9q-15 -47 -21 -138h-352l-20 30l287 380h-68z" />
    <glyph glyph-name="braceleft" unicode="{" horiz-adv-x="353" 
d="M60 263v34q43 0 62 34q7 14 7 26t-24.5 139t-24.5 164q0 41 145 46q31 1 78 1l-3 -36q-46 -1 -91 -10.5t-45 -25.5q31 -104 31 -183t-11.5 -117.5t-46.5 -54.5q35 -16 46.5 -54.5t11.5 -90.5q0 -100 -23 -181l-8 -29q0 -16 45 -25.5t91 -10.5l3 -36q-164 0 -204 21
q-19 10 -19 26q0 37 24.5 164t24.5 139t-7.5 26t-16 20t-20.5 9q-15 5 -25 5z" />
    <glyph glyph-name="bar" unicode="|" horiz-adv-x="289" 
d="M112 -140v841h65v-841h-65z" />
    <glyph glyph-name="braceright" unicode="}" horiz-adv-x="353" 
d="M293 297v-34q-43 0 -61 -34q-8 -14 -8 -26t24.5 -139t24.5 -164q0 -41 -145 -46q-31 -1 -78 -1l3 36q46 1 91 10.5t45 25.5q-31 104 -31 183t11.5 117.5t46.5 54.5q-35 16 -46.5 54.5t-11.5 90.5q0 92 24 181l7 29q0 16 -45 25.5t-91 10.5l-3 36q164 0 204 -21
q19 -10 19 -26q0 -37 -24.5 -164t-24.5 -139t7.5 -26t16 -20t20.5 -9q15 -5 25 -5z" />
    <glyph glyph-name="asciitilde" unicode="~" 
d="M381 241q-40 0 -119.5 32.5t-123.5 32.5t-82 -32l-31 31q54 62 118 62q40 0 119.5 -32.5t122.5 -32.5t83 32l31 -31q-54 -62 -118 -62z" />
    <glyph glyph-name="exclamdown" unicode="&#xa1;" horiz-adv-x="236" 
d="M118 461q22 0 37.5 -15.5t15.5 -38.5t-15.5 -38.5t-37.5 -15.5t-37.5 15.5t-15.5 38.5t15.5 38.5t37.5 15.5zM64 -239l33 523l38 9l37 -505q0 -3 -3.5 -7t-30.5 -11.5t-74 -8.5z" />
    <glyph glyph-name="cent" unicode="&#xa2;" 
d="M344 546.5q27 -5.5 42.5 -5.5t40.5 5v-13q0 -58 11 -124l-24 -11q-29 104 -118 111l-44 -356q22 -6 49 -6q59 0 125 30l14 -29q-78 -62 -175 -62q-14 0 -21 1l-12 -96h-45l13 103q-71 20 -109 79.5t-38 143t54.5 155.5t149.5 81l11 88h45l-11 -88q15 -1 42 -6.5zM139 328
q0 -107 70 -156l42 335q-59 -11 -85.5 -61.5t-26.5 -117.5z" />
    <glyph glyph-name="sterling" unicode="&#xa3;" 
d="M207 447l3 -106v-9h156l-6 -43h-152q-11 -173 -80 -239q77 -8 123 -8q88 0 130 25t65 84l23 -11q-15 -47 -21 -140h-402l-15 24l45 30q26 44 40.5 110.5t17.5 124.5h-94l6 43h88q-1 38 -8 91t-7 67q0 151 177 151q26 0 58.5 -6.5t47.5 -6.5t40 5q0 -73 11 -137l-24 -11
q-18 64 -49 88t-84 24t-71 -38.5t-18 -111.5z" />
    <glyph glyph-name="currency" unicode="&#xa4;" 
d="M115 213q-36 49 -36 109t36 110l-80 63l51 56l66 -83q51 36 108.5 36t109.5 -36l64 81l55 -53l-82 -65q36 -53 36 -109t-36 -109l80 -62l-51 -56l-66 82q-50 -36 -110 -36t-109 36l-62 -80l-56 51zM179 404.5q-33 -33.5 -33 -82.5t33 -82t82 -33t82 33t33 82t-33 82.5
t-82 33.5t-82 -33.5z" />
    <glyph glyph-name="yen" unicode="&#xa5;" 
d="M352 641l74 -3q26 0 77 3l3 -29q-25 -4 -36.5 -13t-21.5 -30l-85 -190h108l-6 -43h-122l-23 -52h151l-6 -43h-157l5 -172q2 -18 19 -25.5t66 -17.5l-3 -29q-63 3 -134 3t-134 -3l-3 29q51 10 69 18t20 25q3 40 4 172h-163l6 43h141l-21 52h-126l6 43h103l-76 191
q-12 31 -65 42l3 29q48 -3 90.5 -3t90.5 3l3 -29q-47 -9 -47 -28q0 -8 42 -118l67 -171l122 274q2 4 2 13q0 16 -46 30z" />
    <glyph glyph-name="brokenbar" unicode="&#xa6;" horiz-adv-x="289" 
d="M112 -140v335h65v-335h-65zM112 366v335h65v-335h-65z" />
    <glyph glyph-name="section" unicode="&#xa7;" horiz-adv-x="501" 
d="M494 655q0 -50 -33 -71q-26 10 -62.5 10t-70 -17.5t-53 -45t-31.5 -69.5q-18 -69 -18 -179v-109q0 -152 -34 -206q-31 -49 -96 -49q-8 0 -24 2q65 34 78.5 94.5t13.5 250.5q0 66 6 117.5t25.5 108t52 96.5t90 72.5t136.5 46.5q20 -20 20 -52zM7 -177q0 50 33 71
q26 -10 62.5 -10t70 17.5t53 45t30.5 69.5q19 69 19 179v109q0 152 33 206q32 49 97 49q8 0 24 -2q-65 -34 -78.5 -94.5t-13.5 -250.5q0 -66 -6 -117.5t-25.5 -108t-52 -96.5t-90 -72.5t-136.5 -46.5q-20 20 -20 52z" />
    <glyph glyph-name="dieresis" unicode="&#xa8;" horiz-adv-x="464" 
d="M320 563q-22 0 -37 15.5t-15 38t15 37.5t37 15t37 -15t15 -37.5t-15 -38t-37 -15.5zM140 563q-22 0 -37 15.5t-15 38t15 37.5t37 15t37 -15t15 -37.5t-15 -38t-37 -15.5z" />
    <glyph glyph-name="copyright" unicode="&#xa9;" horiz-adv-x="600" 
d="M306 651l75 -7q19 0 31 5q0 -51 5 -79l-21 -9q-20 66 -97 66q-47 0 -80 -36t-33 -100.5t28.5 -108t87.5 -43.5q85 0 107 69l22 -9q-7 -23 -11 -63q-66 -24 -120 -24q-77 0 -125.5 39.5t-48.5 116.5t45 130t135 53zM55 479q0 -101 71.5 -172.5t172.5 -71.5t172.5 71.5
t71.5 172.5t-71.5 172.5t-172.5 71.5t-172.5 -71.5t-71.5 -172.5zM100.5 279.5q-82.5 82.5 -82.5 199t82.5 199t199 82.5t199 -82.5t82.5 -199t-82.5 -199t-199 -82.5t-199 82.5z" />
    <glyph glyph-name="ordfeminine" unicode="&#xaa;" horiz-adv-x="286" 
d="M37 317q47 -4 115.5 -4t121.5 4l4 -12l-25 -39q-47 3 -115.5 3t-121.5 -4l-4 13zM82 435q0 -31 32.5 -31t62.5 18v74q-45 -1 -70 -19.5t-25 -41.5zM230 587l4 -161q0 -26 18 -26q9 0 21 6l9 -22q-29 -24 -56 -24q-37 0 -46 38q-52 -38 -86 -38q-73 0 -73 62q0 38 40 68
t116 40v54q0 33 -42 33q-23 0 -35.5 -12t-12.5 -26t3 -23l-19 -8q-14 7 -26 20.5t-12 20t13.5 22t44 30.5t66.5 15q73 0 73 -69z" />
    <glyph glyph-name="guillemotleft" unicode="&#xab;" horiz-adv-x="517" 
d="M236 223q0 7 4 15l157 151l20 -17l-104 -149l104 -149l-20 -17l-157 151q-4 8 -4 15zM90 223q0 7 4 15l157 151l20 -17l-104 -149l104 -149l-20 -17l-157 151q-4 8 -4 15z" />
    <glyph glyph-name="logicalnot" unicode="&#xac;" 
d="M24 273v61h475v-268h-61v207h-414z" />
    <glyph glyph-name="registered" unicode="&#xae;" horiz-adv-x="600" 
d="M355 569q0 55 -74 55q-21 0 -23 -9q-6 -27 -6 -124q52 0 67 5q36 21 36 73zM298 316q-42 2 -72 2t-72 -2l-2 16q42 8 44 20q4 29 4 131l-4 130q-1 8 -9 11.5t-31 7.5l1 16q21 -1 70 -1h82q48 0 73 -21.5t25 -51t-17.5 -54t-48.5 -37.5q8 -13 37 -64t46 -78q11 -5 39 -9
l-1 -16l-85 -3l-83 160q-14 -1 -42 -1q0 -90 6 -120q1 -8 9 -11.5t32 -8.5zM55 479q0 -101 71.5 -172.5t172.5 -71.5t172.5 71.5t71.5 172.5t-71.5 172.5t-172.5 71.5t-172.5 -71.5t-71.5 -172.5zM100.5 279.5q-82.5 82.5 -82.5 199t82.5 199t199 82.5t199 -82.5t82.5 -199
t-82.5 -199t-199 -82.5t-199 82.5z" />
    <glyph glyph-name="macron" unicode="&#xaf;" horiz-adv-x="360" 
d="M301 572q-61 4 -137.5 4t-137.5 -4l-8 16l39 46q83 -5 151 -5t124 4l8 -15z" />
    <glyph glyph-name="degree" unicode="&#xb0;" horiz-adv-x="281" 
d="M10 554q0 54 38 92.5t92 38.5t92.5 -38.5t38.5 -92.5t-38.5 -92t-92.5 -38t-92 38t-38 92zM52 554q0 -37 25.5 -62.5t62.5 -25.5t63.5 25.5t26.5 62.5t-26.5 63.5t-63.5 26.5t-62.5 -26.5t-25.5 -63.5z" />
    <glyph glyph-name="plusminus" unicode="&#xb1;" 
d="M231 541h61v-207h207v-61h-207v-207h-61v207h-207v61h207v207zM24 -60v61h475v-61h-475z" />
    <glyph glyph-name="twosuperior" unicode="&#xb2;" horiz-adv-x="320" 
d="M250 642.5q36 -28.5 36 -75.5t-26 -92.5t-68 -84.5q-50 -45 -97 -80l2 -3q96 0 128.5 11t46.5 56l30 -7q-10 -40 -13 -100h-264l-7 30q27 20 63 54.5t61.5 64.5t46 68.5t20.5 69.5q0 68 -71 68q-45 0 -86 -23l-15 24q60 48 118.5 48t94.5 -28.5z" />
    <glyph glyph-name="threesuperior" unicode="&#xb3;" horiz-adv-x="320" 
d="M289 395q0 -57 -55 -105.5t-140 -48.5q-30 0 -64 6l2 37q21 -5 47 -5q62 0 97.5 31t35.5 66.5t-23.5 57.5t-57.5 22t-53 -6l2 36q56 8 85 36.5t29 52.5q0 49 -48 49q-41 0 -83 -25l-14 25q57 47 123 47q44 0 70 -21t26 -52t-24.5 -60.5t-70.5 -48.5q57 -2 86.5 -28.5
t29.5 -65.5z" />
    <glyph glyph-name="acute" unicode="&#xb4;" horiz-adv-x="285" 
d="M273 680l-173 -162l-30 5l134 199q25 0 46 -12.5t23 -29.5z" />
    <glyph glyph-name="mu" unicode="&#xb5;" horiz-adv-x="550" 
d="M217 -9q-68 0 -83 46h-4v-58q0 -155 72 -155q14 0 14 -13q0 -24 -17 -47t-32 -23t-25.5 6t-21.5 26.5t-18 55.5q-17 85 -17 232.5t-7 334.5l-59 19l-2 26q59 0 127 18l19 -9q-3 -166 -3 -312q0 -49 19.5 -64.5t57 -15.5t77 11.5t62.5 25.5q4 54 4 127q0 136 -8 174
l-63 19l-2 26q64 0 132 18l19 -9q-3 -75 -3 -248l3 -110q1 -48 35 -48q17 0 38 12l3 -30q-39 -36 -83 -36q-60 0 -70 66q-26 -25 -74 -45t-90 -20z" />
    <glyph glyph-name="paragraph" unicode="&#xb6;" horiz-adv-x="524" 
d="M160 -172q0 14 6.5 35t13.5 31q27 -10 54 -10q59 0 94 59t35 182q0 44 -5 79q-64 -32 -134 -32t-122 47.5t-52 128.5t54 137q107 109 356 109l7 -37q-73 0 -73 -86q0 -41 17 -172.5t17 -198.5t-24 -137.5t-61 -110.5q-75 -81 -157 -81q-26 21 -26 57z" />
    <glyph glyph-name="periodcentered" unicode="&#xb7;" horiz-adv-x="165" 
d="M82 209q-22 0 -37 15.5t-15 38.5t15 38t37 15t37.5 -15t15.5 -38t-15.5 -38.5t-37.5 -15.5z" />
    <glyph glyph-name="cedilla" unicode="&#xb8;" horiz-adv-x="443" 
d="M247 11q-13 -21 -13 -35.5t39 -45t39 -55.5q0 -35 -40 -70t-118 -64q-16 13 -16 36.5t23 42.5q97 5 97 35q0 15 -33.5 41t-33.5 52t30 63h26z" />
    <glyph glyph-name="onesuperior" unicode="&#xb9;" horiz-adv-x="320" 
d="M259 265q-52 2 -90.5 2t-104.5 -2l-2 26q66 10 68 24q4 34 4 123q0 143 -4 179l-69 13l-2 29q85 0 135 12l14 -6q-2 -64 -2 -193l4 -157q1 -10 12 -14.5t39 -9.5z" />
    <glyph glyph-name="ordmasculine" unicode="&#xba;" horiz-adv-x="331" 
d="M51 317q47 -4 115.5 -4t121.5 4l4 -12l-25 -39q-47 3 -115.5 3t-121.5 -4l-4 13zM166 623q-32 0 -52 -22.5t-25 -45t-5 -58t18.5 -69.5t60.5 -34t61.5 33t20.5 69q0 127 -79 127zM275 619.5q33 -36.5 33 -102t-37.5 -111.5t-110.5 -46t-106 36t-33 101t37.5 112t110.5 47
t106 -36.5z" />
    <glyph glyph-name="guillemotright" unicode="&#xbb;" horiz-adv-x="517" 
d="M281 223q0 -7 -4 -15l-157 -151l-20 17l104 149l-104 149l20 17l157 -151q4 -8 4 -15zM427 223q0 -7 -4 -15l-157 -151l-20 17l104 149l-104 149l20 17l157 -151q4 -8 4 -15z" />
    <glyph glyph-name="onequarter" unicode="&#xbc;" horiz-adv-x="750" 
d="M160 -1l412 680h48l-412 -680h-48zM259 265q-52 2 -90.5 2t-104.5 -2l-2 26q66 10 68 24q4 34 4 123q0 143 -4 179l-69 13l-2 29q85 0 135 12l14 -6q-2 -64 -2 -193l4 -157q1 -10 12 -14.5t39 -9.5zM586 231l-1 25q6 13 70 14q-1 -14 -1 -39l1 -72h59l4 -11l-23 -35
q-13 1 -39 2l3 -66q2 -16 51 -25l-2 -26q-40 3 -95 3t-96 -3l-2 26q65 11 67 25q1 17 3 67h-158l-10 31l170 282l70 -6l-177 -266h105z" />
    <glyph glyph-name="onehalf" unicode="&#xbd;" horiz-adv-x="750" 
d="M141 -1l412 680h48l-412 -680h-48zM259 265q-52 2 -90.5 2t-104.5 -2l-2 26q66 10 68 24q4 34 4 123q0 143 -4 179l-69 13l-2 29q85 0 135 12l14 -6q-2 -64 -2 -193l4 -157q1 -10 12 -14.5t39 -9.5zM649 375.5q36 -28.5 36 -75.5t-26 -92.5t-69 -84.5q-49 -45 -96 -80
l2 -3q96 0 128.5 11t46.5 56l30 -7q-10 -40 -13 -100h-264l-7 30q27 20 63 54.5t61.5 64.5t46 68.5t20.5 69.5q0 68 -71 68q-45 0 -86 -23l-15 24q60 48 118.5 48t94.5 -28.5z" />
    <glyph glyph-name="threequarters" unicode="&#xbe;" horiz-adv-x="750" 
d="M180 -1l412 680h48l-412 -680h-48zM302 395q0 -57 -55 -105.5t-140 -48.5q-29 0 -64 6l2 37q21 -5 47 -5q62 0 97.5 31t35.5 66.5t-23.5 57.5t-57.5 22t-53 -6l2 36q56 8 85 36.5t29 52.5q0 49 -48 49q-41 0 -83 -25l-14 25q57 47 123 47q44 0 70 -21t26 -52t-24.5 -60.5
t-70.5 -48.5q57 -2 86.5 -28.5t29.5 -65.5zM600 231l-1 25q6 13 70 14q-1 -14 -1 -39l1 -72h59l4 -11l-23 -35q-13 1 -39 2l3 -66q2 -16 51 -25l-2 -26q-40 3 -95 3t-96 -3l-2 26q65 11 67 25q1 17 3 67h-158l-10 31l170 282l70 -6l-177 -266h105z" />
    <glyph glyph-name="questiondown" unicode="&#xbf;" horiz-adv-x="343" 
d="M195 461q22 0 37.5 -15.5t15.5 -38.5t-15.5 -38.5t-37.5 -15.5t-37.5 15.5t-15.5 38.5t15.5 38.5t37.5 15.5zM293 -190q0 -34 -22 -51q-221 98 -221 223q0 50 50 93l40 37q50 44 50 91.5t-15 80.5l38 9q53 -79 53 -140q0 -27 -26.5 -55t-58 -47.5t-58 -46t-26.5 -50.5
q0 -36 46.5 -60t131.5 -26q7 -8 12.5 -27t5.5 -31z" />
    <glyph glyph-name="Agrave" unicode="&#xc0;" horiz-adv-x="694" 
d="M250 -3q-63 3 -123.5 3t-123.5 -3l-3 29q46 9 65 19.5t25 29.5l199 609l87 10l233 -625q7 -17 23.5 -25.5t61.5 -17.5l-3 -29q-63 3 -137 3t-137 -3l-3 29q71 14 82 26q6 5 6 10.5t-55 179.5h-226l-54 -178q0 -13 20 -21t66 -17zM330 590h-4l-17.5 -57.5l-31.5 -104
l-42 -140.5h196zM362 747l-173 162q2 17 23 29.5t46 12.5l134 -199z" />
    <glyph glyph-name="Aacute" unicode="&#xc1;" horiz-adv-x="694" 
d="M250 -3q-63 3 -123.5 3t-123.5 -3l-3 29q46 9 65 19.5t25 29.5l199 609l87 10l233 -625q7 -17 23.5 -25.5t61.5 -17.5l-3 -29q-63 3 -137 3t-137 -3l-3 29q71 14 82 26q6 5 6 10.5t-55 179.5h-226l-54 -178q0 -13 20 -21t66 -17zM330 590h-4l-17.5 -57.5l-31.5 -104
l-42 -140.5h196zM478 909l-173 -162l-30 5l134 199q25 0 46 -12.5t23 -29.5z" />
    <glyph glyph-name="Acircumflex" unicode="&#xc2;" horiz-adv-x="694" 
d="M250 -3q-63 3 -123.5 3t-123.5 -3l-3 29q46 9 65 19.5t25 29.5l199 609l87 10l233 -625q7 -17 23.5 -25.5t61.5 -17.5l-3 -29q-63 3 -137 3t-137 -3l-3 29q71 14 82 26q6 5 6 10.5t-55 179.5h-226l-54 -178q0 -13 20 -21t66 -17zM330 590h-4l-17.5 -57.5l-31.5 -104
l-42 -140.5h196zM328 947q6 3 17.5 3t19.5 -4l94 -194l-30 -5l-83 104l-82 -104l-30 5z" />
    <glyph glyph-name="Atilde" unicode="&#xc3;" horiz-adv-x="694" 
d="M250 -3q-63 3 -123.5 3t-123.5 -3l-3 29q45 9 64 19.5t26 29.5l199 609l87 10l233 -625q7 -17 23.5 -25.5t61.5 -17.5l-3 -29q-63 3 -137 3t-137 -3l-3 29q71 14 82 26q6 5 6 10.5t-55 179.5h-226l-54 -178q0 -13 20 -21t66 -17zM330 590h-4l-17.5 -57.5l-31.5 -104
l-42 -140.5h196zM421 784q-23 0 -72 19.5t-73 19.5q-40 0 -67 -38l-26 8q30 101 90 101q22 0 71.5 -19.5t73.5 -19.5q38 0 67 38l26 -8q-31 -101 -90 -101z" />
    <glyph glyph-name="Adieresis" unicode="&#xc4;" horiz-adv-x="694" 
d="M250 -3q-63 3 -123.5 3t-123.5 -3l-3 29q46 9 65 19.5t25 29.5l199 609l87 10l233 -625q7 -17 23.5 -25.5t61.5 -17.5l-3 -29q-63 3 -137 3t-137 -3l-3 29q71 14 82 26q6 5 6 10.5t-55 179.5h-226l-54 -178q0 -13 20 -21t66 -17zM330 590h-4l-17.5 -57.5l-31.5 -104
l-42 -140.5h196zM437 792q-22 0 -37 15.5t-15 38t15 37.5t37 15t37 -15t15 -37.5t-15 -38t-37 -15.5zM257 792q-22 0 -37 15.5t-15 38t15 37.5t37 15t37 -15t15 -37.5t-15 -38t-37 -15.5z" />
    <glyph glyph-name="Aring" unicode="&#xc5;" horiz-adv-x="694" 
d="M250 -3q-63 3 -123.5 3t-123.5 -3l-3 29q46 9 65 19.5t25 29.5l199 609l87 10l233 -625q7 -17 23.5 -25.5t61.5 -17.5l-3 -29q-63 3 -137 3t-137 -3l-3 29q71 14 82 26q6 5 6 10.5t-55 179.5h-226l-54 -178q0 -13 20 -21t66 -17zM330 590h-4l-17.5 -57.5l-31.5 -104
l-42 -140.5h196zM346 774q49 0 49 74.5t-50.5 74.5t-50.5 -70q0 -33 13 -56t39 -23zM272.5 774.5q-30.5 30.5 -30.5 74t31 74t74 30.5t73.5 -30.5t30.5 -74.5t-30.5 -74t-74 -30t-74 30.5z" />
    <glyph glyph-name="AE" unicode="&#xc6;" horiz-adv-x="967" 
d="M275 327q-107 -247 -107 -261.5t20 -22.5t66 -17l-3 -29q-63 3 -124 3t-124 -3l-3 29q44 9 63 19.5t27 29.5l281 610h217q158 0 302 6v-11q0 -79 12 -151l-27 -12q-15 51 -28 68.5t-20.5 26.5t-24 15.5t-28 9.5t-36.5 5q-43 2 -96.5 2t-56.5 -23q-10 -65 -11 -254
q127 0 152.5 6t33 22t17.5 68l35 -4q-8 -58 -8 -111t8 -112l-35 -5q-10 52 -17.5 68t-33 22t-152.5 6q0 -175 8 -240l3 -19q9 -32 101 -32q46 0 73.5 3.5t58.5 16.5q58 23 88 115l27 -12q-18 -55 -24 -159h-400q-57 0 -120 -3l-3 29q51 10 69 18t20 25q8 56 9 258h-209z
M418 649l-125 -282h191l-5 252q-2 18 -14.5 24t-46.5 6z" />
    <glyph glyph-name="Ccedilla" unicode="&#xc7;" horiz-adv-x="700" 
d="M407 37q94 0 154 38.5t80 104.5l27 -12q-11 -36 -23 -134q-123 -46 -241 -46q-17 0 -45 2q-2 -5 -2 -17t39 -42.5t39 -55.5q0 -35 -40 -70t-118 -64q-16 13 -16 36.5t23 42.5q97 5 97 35q0 15 -33.5 41t-33.5 49.5t16 47.5q-132 19 -207 106.5t-75 236.5t95 253.5
t260 104.5q46 0 103 -7.5t78 -7.5t45 6v-15q0 -73 12 -141l-27 -12q-40 131 -212 131q-100 0 -172 -71q-36 -35 -56.5 -93t-20.5 -124.5t14 -120.5t43 -100t80 -74t117 -28z" />
    <glyph glyph-name="Egrave" unicode="&#xc8;" horiz-adv-x="608" 
d="M215 327q0 -189 8 -240l3 -19q9 -32 101 -32q46 0 73.5 3.5t58.5 16.5q58 23 88 115l27 -12q-18 -55 -24 -159h-400q-57 0 -120 -3l-3 29q51 10 69 18t20 25q9 58 9 213q0 252 -6 314l-2 20q-2 18 -18 25.5t-64 17.5l3 29q63 -3 237 -3t256 6v-15q0 -79 12 -147l-27 -12
q-26 82 -62 104t-136 22q-45 0 -67 -4t-25 -18q-10 -65 -11 -254q127 0 152.5 6t33 22t17.5 68l35 -4q-8 -58 -8 -111t8 -112l-35 -5q-10 52 -17.5 68t-33 22t-152.5 6zM341 747l-173 162q2 17 23 29.5t46 12.5l134 -199z" />
    <glyph glyph-name="Eacute" unicode="&#xc9;" horiz-adv-x="608" 
d="M215 327q0 -189 8 -240l3 -19q9 -32 101 -32q46 0 73.5 3.5t58.5 16.5q58 23 88 115l27 -12q-18 -55 -24 -159h-400q-57 0 -120 -3l-3 29q51 10 69 18t20 25q9 58 9 213q0 252 -6 314l-2 20q-2 18 -18 25.5t-64 17.5l3 29q63 -3 237 -3t256 6v-15q0 -79 12 -147l-27 -12
q-26 82 -62 104t-136 22q-45 0 -67 -4t-25 -18q-10 -65 -11 -254q127 0 152.5 6t33 22t17.5 68l35 -4q-8 -58 -8 -111t8 -112l-35 -5q-10 52 -17.5 68t-33 22t-152.5 6zM435 909l-173 -162l-30 5l134 199q25 0 46 -12.5t23 -29.5z" />
    <glyph glyph-name="Ecircumflex" unicode="&#xca;" horiz-adv-x="608" 
d="M215 327q0 -189 8 -240l3 -19q9 -32 101 -32q46 0 73.5 3.5t58.5 16.5q58 23 88 115l27 -12q-18 -55 -24 -159h-400q-57 0 -120 -3l-3 29q51 10 69 18t20 25q9 58 9 213q0 252 -6 314l-2 20q-2 18 -18 25.5t-64 17.5l3 29q63 -3 237 -3t256 6v-15q0 -79 12 -147l-27 -12
q-26 82 -62 104t-136 22q-45 0 -67 -4t-25 -18q-10 -65 -11 -254q127 0 152.5 6t33 22t17.5 68l35 -4q-8 -58 -8 -111t8 -112l-35 -5q-10 52 -17.5 68t-33 22t-152.5 6zM285 947q6 3 17.5 3t19.5 -4l94 -194l-30 -5l-83 104l-82 -104l-30 5z" />
    <glyph glyph-name="Edieresis" unicode="&#xcb;" horiz-adv-x="608" 
d="M215 327q0 -189 8 -240l3 -19q9 -32 101 -32q46 0 73.5 3.5t58.5 16.5q58 23 88 115l27 -12q-18 -55 -24 -159h-400q-57 0 -120 -3l-3 29q51 10 69 18t20 25q9 58 9 213q0 252 -6 314l-2 20q-2 18 -18 25.5t-64 17.5l3 29q63 -3 237 -3t256 6v-15q0 -79 12 -147l-27 -12
q-26 82 -62 104t-136 22q-45 0 -67 -4t-25 -18q-10 -65 -11 -254q127 0 152.5 6t33 22t17.5 68l35 -4q-8 -58 -8 -111t8 -112l-35 -5q-10 52 -17.5 68t-33 22t-152.5 6zM394 792q-22 0 -37 15.5t-15 38t15 37.5t37 15t37 -15t15 -37.5t-15 -38t-37 -15.5zM214 792
q-22 0 -37 15.5t-15 38t15 37.5t37 15t37 -15t15 -37.5t-15 -38t-37 -15.5z" />
    <glyph glyph-name="Igrave" unicode="&#xcc;" horiz-adv-x="342" 
d="M224 616q-8 -59 -8 -214q0 -251 6 -312l2 -21q2 -18 19 -25.5t66 -17.5l-3 -29q-63 3 -137 3t-137 -3l-3 29q51 10 69 18t20 25q8 59 8 214q0 251 -6 313l-2 20q-2 18 -18 25.5t-64 17.5l3 29q63 -3 132 -3t132 3l3 -29q-48 -10 -64 -17.5t-18 -25.5zM218 747l-173 162
q2 17 23 29.5t46 12.5l134 -199z" />
    <glyph glyph-name="Iacute" unicode="&#xcd;" horiz-adv-x="342" 
d="M224 616q-8 -59 -8 -214q0 -251 6 -312l2 -21q2 -18 19 -25.5t66 -17.5l-3 -29q-63 3 -137 3t-137 -3l-3 29q51 10 69 18t20 25q8 59 8 214q0 251 -6 313l-2 20q-2 18 -18 25.5t-64 17.5l3 29q63 -3 132 -3t132 3l3 -29q-48 -10 -64 -17.5t-18 -25.5zM302 909l-173 -162
l-30 5l134 199q25 0 46 -12.5t23 -29.5z" />
    <glyph glyph-name="Icircumflex" unicode="&#xce;" horiz-adv-x="342" 
d="M224 616q-8 -59 -8 -214q0 -251 6 -312l2 -21q2 -18 19 -25.5t66 -17.5l-3 -29q-63 3 -137 3t-137 -3l-3 29q51 10 69 18t20 25q8 59 8 214q0 251 -6 313l-2 20q-2 18 -18 25.5t-64 17.5l3 29q63 -3 132 -3t132 3l3 -29q-48 -10 -64 -17.5t-18 -25.5zM152 947q6 3 17.5 3
t19.5 -4l94 -194l-30 -5l-83 104l-82 -104l-30 5z" />
    <glyph glyph-name="Idieresis" unicode="&#xcf;" horiz-adv-x="342" 
d="M224 616q-8 -59 -8 -214q0 -251 6 -312l2 -21q2 -18 19 -25.5t66 -17.5l-3 -29q-63 3 -137 3t-137 -3l-3 29q51 10 69 18t20 25q8 59 8 214q0 251 -6 313l-2 20q-2 18 -18 25.5t-64 17.5l3 29q63 -3 132 -3t132 3l3 -29q-48 -10 -64 -17.5t-18 -25.5zM261 792
q-22 0 -37 15.5t-15 38t15 37.5t37 15t37 -15t15 -37.5t-15 -38t-37 -15.5zM81 792q-22 0 -37 15.5t-15 38t15 37.5t37 15t37 -15t15 -37.5t-15 -38t-37 -15.5z" />
    <glyph glyph-name="Eth" unicode="&#xd0;" horiz-adv-x="769" 
d="M173 685h178q116 0 207 -45q101 -52 140 -152q22 -55 22 -123q0 -161 -99 -263t-287 -102h-161q-78 0 -141 -3l-3 29q51 10 69 18t20 25q7 55 8 247h-88v53h88q0 171 -6 228l-2 19q-2 18 -18 25.5t-64 17.5l3 29q63 -3 134 -3zM227 60q54 -12 115 -12t116 24.5t84 58
t46 79.5q27 68 27 140q0 293 -326 293q-36 0 -47.5 -4t-14.5 -17q-10 -61 -11 -253h204v-54h-204q0 -163 8 -234z" />
    <glyph glyph-name="Ntilde" unicode="&#xd1;" horiz-adv-x="785" 
d="M608 132q2 56 2 181q0 229 -6 283l-3 20q-3 24 -53 34q-12 3 -41 9l3 29q63 -3 124.5 -3t124.5 3l3 -29q-48 -10 -64 -17.5t-18 -25.5q-10 -59 -10 -214q0 -237 8 -364l3 -38l-80 -9l-406 546h-5q-4 -88 -4 -189q0 -189 8 -258l3 -21q3 -24 53 -35q12 -2 41 -8l-3 -29
q-63 3 -132 3t-132 -3l-3 29q53 10 74 18t23 25q8 58 8 213q0 252 -6 314l-2 20q-2 18 -18 25.5t-64 17.5l3 29q63 -3 149 -3l415 -553h5zM466 784q-23 0 -72 19.5t-73 19.5q-40 0 -67 -38l-26 8q30 101 90 101q22 0 71.5 -19.5t73.5 -19.5q39 0 67 38l26 -8
q-31 -101 -90 -101z" />
    <glyph glyph-name="Ograve" unicode="&#xd2;" horiz-adv-x="786" 
d="M398 650q-58 0 -103 -23t-71 -57t-42 -77q-28 -72 -28 -140t12 -122.5t38 -100.5t73 -72t105.5 -26t101.5 20t69.5 50.5t44.5 69.5q32 69 34 140q0 338 -234 338zM653 104q-42 -55 -114 -87.5t-167 -32.5q-164 0 -243.5 88.5t-79.5 241.5q0 154 84 264q42 55 114 87.5
t167 32.5q164 0 243.5 -88t79.5 -241t-84 -265zM423 747l-173 162q2 17 23 29.5t46 12.5l134 -199z" />
    <glyph glyph-name="Oacute" unicode="&#xd3;" horiz-adv-x="786" 
d="M398 650q-58 0 -103 -23t-71 -57t-42 -77q-28 -72 -28 -140t12 -122.5t38 -100.5t73 -72t105.5 -26t101.5 20t69.5 50.5t44.5 69.5q32 69 34 140q0 338 -234 338zM653 104q-42 -55 -114 -87.5t-167 -32.5q-164 0 -243.5 88.5t-79.5 241.5q0 154 84 264q42 55 114 87.5
t167 32.5q164 0 243.5 -88t79.5 -241t-84 -265zM543 909l-173 -162l-30 5l134 199q25 0 46 -12.5t23 -29.5z" />
    <glyph glyph-name="Ocircumflex" unicode="&#xd4;" horiz-adv-x="786" 
d="M398 650q-58 0 -103 -23t-71 -57t-42 -77q-28 -72 -28 -140t12 -122.5t38 -100.5t73 -72t105.5 -26t101.5 20t69.5 50.5t44.5 69.5q32 69 34 140q0 338 -234 338zM653 104q-42 -55 -114 -87.5t-167 -32.5q-164 0 -243.5 88.5t-79.5 241.5q0 154 84 264q42 55 114 87.5
t167 32.5q164 0 243.5 -88t79.5 -241t-84 -265zM374 947q6 3 17.5 3t19.5 -4l94 -194l-30 -5l-83 104l-82 -104l-30 5z" />
    <glyph glyph-name="Otilde" unicode="&#xd5;" horiz-adv-x="786" 
d="M398 650q-58 0 -103 -23t-71 -57t-42 -77q-28 -72 -28 -140t12 -122.5t38 -100.5t73 -72t105.5 -26t101.5 20t69.5 50.5t44.5 69.5q32 69 34 140q0 338 -234 338zM653 104q-42 -55 -114 -87.5t-167 -32.5q-164 0 -243.5 88.5t-79.5 241.5q0 154 84 264q42 55 114 87.5
t167 32.5q164 0 243.5 -88t79.5 -241t-84 -265zM467 784q-23 0 -72 19.5t-73 19.5q-40 0 -67 -38l-26 8q30 101 90 101q22 0 71.5 -19.5t73.5 -19.5q38 0 67 38l26 -8q-31 -101 -90 -101z" />
    <glyph glyph-name="Odieresis" unicode="&#xd6;" horiz-adv-x="786" 
d="M398 650q-58 0 -103 -23t-71 -57t-42 -77q-28 -72 -28 -140t12 -122.5t38 -100.5t73 -72t105.5 -26t101.5 20t69.5 50.5t44.5 69.5q32 69 34 140q0 338 -234 338zM653 104q-42 -55 -114 -87.5t-167 -32.5q-164 0 -243.5 88.5t-79.5 241.5q0 154 84 264q42 55 114 87.5
t167 32.5q164 0 243.5 -88t79.5 -241t-84 -265zM483 792q-22 0 -37 15.5t-15 38t15 37.5t37 15t37 -15t15 -37.5t-15 -38t-37 -15.5zM303 792q-22 0 -37 15.5t-15 38t15 37.5t37 15t37 -15t15 -37.5t-15 -38t-37 -15.5z" />
    <glyph glyph-name="multiply" unicode="&#xd7;" 
d="M443 529l44 -43l-182 -182l181 -181l-43 -44l-182 181l-180 -180l-44 43l181 181l-181 181l43 44l181 -182z" />
    <glyph glyph-name="Oslash" unicode="&#xd8;" horiz-adv-x="786" 
d="M414 698l25 -1l14 64h65l-16 -71q119 -23 177 -107t58 -214q0 -153 -84 -265q-42 -55 -114 -87.5t-167 -32.5q-17 0 -25 1l-14 -65h-65l16 72q-119 23 -177 107t-58 215q0 154 84 264q42 55 114 87.5t167 32.5zM154 350q0 -243 142 -302l132 600q-20 2 -30 2
q-58 0 -103 -23t-71 -57t-42 -77q-28 -72 -28 -143zM388 32q53 0 96 20t69.5 50.5t44.5 69.5q32 69 34 140q0 263 -142 321l-132 -600q9 -1 30 -1z" />
    <glyph glyph-name="Ugrave" unicode="&#xd9;" horiz-adv-x="760" 
d="M493 688q63 -3 124.5 -3t124.5 3l3 -29q-49 -10 -65 -17.5t-17 -25.5q-5 -108 -11 -369q-3 -117 -68 -188t-204 -71q-67 0 -113.5 10.5t-82.5 37.5q-71 53 -73 200q-4 251 -7 380q0 18 -16.5 25.5t-65.5 17.5l3 29q63 -3 132 -3t132 3l3 -29q-48 -10 -64 -17.5t-18 -25.5
q-9 -65 -9 -199.5t0.5 -156.5t2.5 -53.5t7 -48.5t13.5 -38.5t21.5 -32.5t32 -22q33 -20 100.5 -20t110.5 20.5t65 62t30 90.5t8 133q0 179 -6 243l-2 22q-3 24 -53 34q-12 3 -41 9zM415 747l-173 162q2 17 23 29.5t46 12.5l134 -199z" />
    <glyph glyph-name="Uacute" unicode="&#xda;" horiz-adv-x="760" 
d="M493 688q63 -3 124.5 -3t124.5 3l3 -29q-49 -10 -65 -17.5t-17 -25.5q-5 -108 -11 -369q-3 -117 -68 -188t-204 -71q-67 0 -113.5 10.5t-82.5 37.5q-71 53 -73 200q-4 251 -7 380q0 18 -16.5 25.5t-65.5 17.5l3 29q63 -3 132 -3t132 3l3 -29q-48 -10 -64 -17.5t-18 -25.5
q-9 -65 -9 -199.5t0.5 -156.5t2.5 -53.5t7 -48.5t13.5 -38.5t21.5 -32.5t32 -22q33 -20 100.5 -20t110.5 20.5t65 62t30 90.5t8 133q0 179 -6 243l-2 22q-3 24 -53 34q-12 3 -41 9zM566 909l-173 -162l-30 5l134 199q25 0 46 -12.5t23 -29.5z" />
    <glyph glyph-name="Ucircumflex" unicode="&#xdb;" horiz-adv-x="760" 
d="M493 688q63 -3 124.5 -3t124.5 3l3 -29q-49 -10 -65 -17.5t-17 -25.5q-5 -108 -11 -369q-3 -117 -68 -188t-204 -71q-67 0 -113.5 10.5t-82.5 37.5q-71 53 -73 200q-4 251 -7 380q0 18 -16.5 25.5t-65.5 17.5l3 29q63 -3 132 -3t132 3l3 -29q-48 -10 -64 -17.5t-18 -25.5
q-9 -65 -9 -199.5t0.5 -156.5t2.5 -53.5t7 -48.5t13.5 -38.5t21.5 -32.5t32 -22q33 -20 100.5 -20t110.5 20.5t65 62t30 90.5t8 133q0 179 -6 243l-2 22q-3 24 -53 34q-12 3 -41 9zM376 947q6 3 17.5 3t19.5 -4l94 -194l-30 -5l-83 104l-82 -104l-30 5z" />
    <glyph glyph-name="Udieresis" unicode="&#xdc;" horiz-adv-x="760" 
d="M493 688q63 -3 124.5 -3t124.5 3l3 -29q-49 -10 -65 -17.5t-17 -25.5q-5 -108 -11 -369q-3 -117 -68 -188t-204 -71q-67 0 -113.5 10.5t-82.5 37.5q-71 53 -73 200q-4 251 -7 380q0 18 -16.5 25.5t-65.5 17.5l3 29q63 -3 132 -3t132 3l3 -29q-48 -10 -64 -17.5t-18 -25.5
q-9 -65 -9 -199.5t0.5 -156.5t2.5 -53.5t7 -48.5t13.5 -38.5t21.5 -32.5t32 -22q33 -20 100.5 -20t110.5 20.5t65 62t30 90.5t8 133q0 179 -6 243l-2 22q-3 24 -53 34q-12 3 -41 9zM499 792q-22 0 -37 15.5t-15 38t15 37.5t37 15t37 -15t15 -37.5t-15 -38t-37 -15.5z
M319 792q-22 0 -37 15.5t-15 38t15 37.5t37 15t37 -15t15 -37.5t-15 -38t-37 -15.5z" />
    <glyph glyph-name="Yacute" unicode="&#xdd;" horiz-adv-x="641" 
d="M482 623q0 18 -87 36l3 29q63 -3 123.5 -3t123.5 3l3 -29q-44 -9 -63 -19.5t-27 -29.5l-193 -341q0 -136 6 -184l2 -16q2 -18 19 -25.5t66 -17.5l-3 -29q-63 3 -137 3t-137 -3l-3 29q51 10 69 18t20 25q6 44 7 193l-193 354q-9 17 -25.5 25.5t-59.5 17.5l3 29
q63 -3 137 -3t137 3l3 -29q-89 -17 -89 -36q0 -2 2 -8l148 -291l143 292q2 4 2 7zM511 909l-173 -162l-30 5l134 199q25 0 46 -12.5t23 -29.5z" />
    <glyph glyph-name="Thorn" unicode="&#xde;" horiz-adv-x="576" 
d="M306 -3q-63 3 -137 3t-137 -3l-3 29q51 10 69 18t20 25q8 59 8 214q0 251 -6 313l-2 20q-2 18 -18 25.5t-64 17.5l3 29q63 -3 132 -3t132 3l3 -29q-48 -10 -64 -17.5t-18 -21.5t-3 -40h104q110 0 168 -53t58 -134.5t-72 -149.5t-192 -68q-39 0 -69 5l6 -111
q2 -18 19 -25.5t66 -17.5zM271 217q86 0 135 41t49 124.5t-42 119.5t-126 36q-37 0 -47 -5t-14 -29q-10 -52 -10 -284q28 -3 55 -3z" />
    <glyph glyph-name="germandbls" unicode="&#xdf;" horiz-adv-x="576" 
d="M386 31q67 0 67 66q0 39 -72 89q-30 20 -60 43t-51 56t-21 69t13 61.5t33 40.5l42.5 31.5l42.5 30.5q46 32 46 90q0 34 -29 56t-72 22q-145 0 -145 -230q0 -205 5 -329t5 -127q-106 0 -167 -3l3 29q20 2 43.5 8.5t24.5 13.5q8 0 8 358l-69 -1l-3 11l23 39q14 -2 48 -4
q0 161 109 239q57 40 137 40q49 0 83.5 -12t50.5 -31q29 -34 29 -69.5t-19 -64t-46 -45.5l-53 -34q-65 -41 -65 -105q0 -50 74 -97q31 -19 61 -40q74 -52 74 -115q0 -52 -39 -89t-121 -37t-145 25l13 71q23 -21 65 -38.5t77 -17.5z" />
    <glyph glyph-name="agrave" unicode="&#xe0;" horiz-adv-x="457" 
d="M166 179q-43 -29 -43 -63t17.5 -49.5t56.5 -15.5t94 33v126q-82 -2 -125 -31zM364 -9q-60 0 -70 65q-88 -65 -152 -65q-43 0 -73 26.5t-30 82.5t59.5 101t192.5 54v93q0 28 -20.5 43t-57.5 15t-59 -20.5t-22 -52.5q0 -12 3 -27l-22 -10q-20 11 -37.5 30t-17.5 27.5
t13.5 25t36.5 35.5t61.5 32.5t86.5 13.5t78 -23.5t30 -85t6 -259.5q1 -48 36 -48q15 0 31 8l10 -26q-38 -35 -83 -35zM261 518l-173 162q2 17 23 29.5t46 12.5l134 -199z" />
    <glyph glyph-name="aacute" unicode="&#xe1;" horiz-adv-x="457" 
d="M166 179q-43 -29 -43 -63t17.5 -49.5t56.5 -15.5t94 33v126q-82 -2 -125 -31zM364 -9q-60 0 -70 65q-88 -65 -152 -65q-43 0 -73 26.5t-30 82.5t59.5 101t192.5 54v93q0 28 -20.5 43t-57.5 15t-59 -20.5t-22 -52.5q0 -12 3 -27l-22 -10q-20 11 -37.5 30t-17.5 27.5
t13.5 25t36.5 35.5t61.5 32.5t86.5 13.5t78 -23.5t30 -85t6 -259.5q1 -48 36 -48q15 0 31 8l10 -26q-38 -35 -83 -35zM375 680l-173 -162l-30 5l134 199q25 0 46 -12.5t23 -29.5z" />
    <glyph glyph-name="acircumflex" unicode="&#xe2;" horiz-adv-x="457" 
d="M166 179q-43 -29 -43 -63t17.5 -49.5t56.5 -15.5t94 33v126q-82 -2 -125 -31zM364 -9q-60 0 -70 65q-88 -65 -152 -65q-43 0 -73 26.5t-30 82.5t59.5 101t192.5 54v93q0 28 -20.5 43t-57.5 15t-59 -20.5t-22 -52.5q0 -12 3 -27l-22 -10q-20 11 -37.5 30t-17.5 27.5
t13.5 25t36.5 35.5t61.5 32.5t86.5 13.5t78 -23.5t30 -85t6 -259.5q1 -48 36 -48q15 0 31 8l10 -26q-38 -35 -83 -35zM209 718q6 3 17.5 3t19.5 -4l94 -194l-30 -5l-83 104l-82 -104l-30 5z" />
    <glyph glyph-name="atilde" unicode="&#xe3;" horiz-adv-x="457" 
d="M166 179q-43 -29 -43 -63t17.5 -49.5t56.5 -15.5t94 33v126q-82 -2 -125 -31zM364 -9q-60 0 -70 65q-88 -65 -152 -65q-43 0 -73 26.5t-30 82.5t59.5 101t192.5 54v93q0 28 -20.5 43t-57.5 15t-59 -20.5t-22 -52.5q0 -12 3 -27l-22 -10q-20 11 -37.5 30t-17.5 27.5
t13.5 25t36.5 35.5t61.5 32.5t86.5 13.5t78 -23.5t30 -85t6 -259.5q1 -48 36 -48q15 0 31 8l10 -26q-38 -35 -83 -35zM306 555q-23 0 -72 19.5t-73 19.5q-40 0 -67 -38l-26 8q30 101 90 101q22 0 71.5 -19.5t73.5 -19.5q39 0 67 38l26 -8q-31 -101 -90 -101z" />
    <glyph glyph-name="adieresis" unicode="&#xe4;" horiz-adv-x="457" 
d="M166 179q-43 -29 -43 -63t17.5 -49.5t56.5 -15.5t94 33v126q-82 -2 -125 -31zM364 -9q-60 0 -70 65q-88 -65 -152 -65q-43 0 -73 26.5t-30 82.5t59.5 101t192.5 54v93q0 28 -20.5 43t-57.5 15t-59 -20.5t-22 -52.5q0 -12 3 -27l-22 -10q-20 11 -37.5 30t-17.5 27.5
t13.5 25t36.5 35.5t61.5 32.5t86.5 13.5t78 -23.5t30 -85t6 -259.5q1 -48 36 -48q15 0 31 8l10 -26q-38 -35 -83 -35zM317 563q-22 0 -37 15.5t-15 38t15 37.5t37 15t37 -15t15 -37.5t-15 -38t-37 -15.5zM137 563q-22 0 -37 15.5t-15 38t15 37.5t37 15t37 -15t15 -37.5
t-15 -38t-37 -15.5z" />
    <glyph glyph-name="aring" unicode="&#xe5;" horiz-adv-x="457" 
d="M166 179q-43 -29 -43 -63t17.5 -49.5t56.5 -15.5t94 33v126q-82 -2 -125 -31zM364 -9q-60 0 -70 65q-88 -65 -152 -65q-43 0 -73 26.5t-30 82.5t59.5 101t192.5 54v93q0 28 -20.5 43t-57.5 15t-59 -20.5t-22 -52.5q0 -12 3 -27l-22 -10q-20 11 -37.5 30t-17.5 27.5
t13.5 25t36.5 35.5t61.5 32.5t86.5 13.5t78 -23.5t30 -85t6 -259.5q1 -48 36 -48q15 0 31 8l10 -26q-38 -35 -83 -35zM227 545q49 0 49 74.5t-50.5 74.5t-50.5 -70q0 -33 13 -56t39 -23zM123 619q0 43 30.5 74t74 31t74 -30.5t30.5 -74t-30 -74t-74 -30.5t-74.5 30.5
t-30.5 73.5z" />
    <glyph glyph-name="ae" unicode="&#xe6;" horiz-adv-x="700" 
d="M579 316q0 46 -26.5 70.5t-57.5 24.5q-49 0 -81 -39.5t-43 -109.5q155 17 205 25q3 15 3 29zM284 351q0 28 -20.5 42t-58 14t-59 -19.5t-21.5 -53.5q0 -13 3 -28l-22 -10q-20 11 -37.5 30t-17.5 27.5t13.5 25t36.5 35.5t61.5 32.5t83 13.5t71.5 -11.5t37 -45.5
q64 57 163 57q60 0 106 -44.5t46 -130.5l-34 -41q-81 -10 -160 -15.5t-109 -8.5q0 -167 150 -167q68 0 128 30l12 -30q-73 -62 -164 -62q-113 0 -170 72q-86 -72 -180 -72q-43 0 -73 26.5t-30 82.5t58 101t187 54v96zM163 177.5q-40 -28.5 -40 -61.5q0 -65 65 -65
q55 0 115 39q-19 62 -19 123q-81 -7 -121 -35.5z" />
    <glyph glyph-name="ccedilla" unicode="&#xe7;" horiz-adv-x="443" 
d="M244 -4h-6q-4 -9 -4 -22t39 -43.5t39 -55.5q0 -35 -40 -70t-118 -64q-16 13 -16 36.5t23 42.5q97 5 97 35q0 15 -33.5 41t-33.5 50t20 52q-86 10 -130.5 70t-44.5 155.5t61.5 168.5t171.5 73q45 0 80.5 -14.5t50.5 -29.5t15 -24q0 -40 -24 -73h-24q-12 33 -40.5 60
t-73.5 27q-62 0 -95.5 -55.5t-33.5 -136t39 -122.5t109 -42t137 40l12 -33q-83 -66 -177 -66z" />
    <glyph glyph-name="egrave" unicode="&#xe8;" horiz-adv-x="459" 
d="M338 320q0 46 -26 68.5t-58 22.5q-47 0 -81 -37t-45 -91l207 8q3 15 3 29zM251 -9q-106 0 -160 60.5t-54 161t59.5 174t179.5 73.5q61 0 106.5 -43t45.5 -128l-34 -41q-6 1 -94.5 1t-177.5 -7v-9q0 -91 38 -136.5t104 -45.5t139 32l12 -30q-77 -62 -164 -62zM285 518
l-173 162q2 17 23 29.5t46 12.5l134 -199z" />
    <glyph glyph-name="eacute" unicode="&#xe9;" horiz-adv-x="459" 
d="M338 320q0 46 -26 68.5t-58 22.5q-47 0 -81 -37t-45 -91l207 8q3 15 3 29zM251 -9q-106 0 -160 60.5t-54 161t59.5 174t179.5 73.5q61 0 106.5 -43t45.5 -128l-34 -41q-6 1 -94.5 1t-177.5 -7v-9q0 -91 38 -136.5t104 -45.5t139 32l12 -30q-77 -62 -164 -62zM397 680
l-173 -162l-30 5l134 199q25 0 46 -12.5t23 -29.5z" />
    <glyph glyph-name="ecircumflex" unicode="&#xea;" horiz-adv-x="459" 
d="M338 320q0 46 -26 68.5t-58 22.5q-47 0 -81 -37t-45 -91l207 8q3 15 3 29zM251 -9q-106 0 -160 60.5t-54 161t59.5 174t179.5 73.5q61 0 106.5 -43t45.5 -128l-34 -41q-6 1 -94.5 1t-177.5 -7v-9q0 -91 38 -136.5t104 -45.5t139 32l12 -30q-77 -62 -164 -62zM211 718
q6 3 17.5 3t19.5 -4l94 -194l-30 -5l-83 104l-82 -104l-30 5z" />
    <glyph glyph-name="edieresis" unicode="&#xeb;" horiz-adv-x="459" 
d="M338 320q0 46 -26 68.5t-58 22.5q-47 0 -81 -37t-45 -91l207 8q3 15 3 29zM251 -9q-106 0 -160 60.5t-54 161t59.5 174t179.5 73.5q61 0 106.5 -43t45.5 -128l-34 -41q-6 1 -94.5 1t-177.5 -7v-9q0 -91 38 -136.5t104 -45.5t139 32l12 -30q-77 -62 -164 -62zM353 563
q-22 0 -37 15.5t-15 38t15 37.5t37 15t37 -15t15 -37.5t-15 -38t-37 -15.5zM173 563q-22 0 -37 15.5t-15 38t15 37.5t37 15t37 -15t15 -37.5t-15 -38t-37 -15.5z" />
    <glyph glyph-name="igrave" unicode="&#xec;" horiz-adv-x="275" 
d="M180 450l-2 -221q0 -129 8 -168l2 -13q1 -7 25.5 -13.5t45.5 -8.5l-3 -29q-48 3 -117 3t-117 -3l3 29q21 2 45 8.5t25 13.5q8 35 8 140q0 170 -8 208l-64 19l-2 26q64 0 132 18zM161 518l-173 162q2 17 23 29.5t46 12.5l134 -199z" />
    <glyph glyph-name="iacute" unicode="&#xed;" horiz-adv-x="275" 
d="M283 680l-173 -162l-30 5l134 199q25 0 46 -12.5t23 -29.5zM180 450l-2 -221q0 -129 8 -168l2 -13q1 -7 25.5 -13.5t45.5 -8.5l-3 -29q-48 3 -117 3t-117 -3l3 29q21 2 45 8.5t25 13.5q8 35 8 140q0 170 -8 208l-64 19l-2 26q64 0 132 18z" />
    <glyph glyph-name="icircumflex" unicode="&#xee;" horiz-adv-x="275" 
d="M180 450l-2 -221q0 -129 8 -168l2 -13q1 -7 25.5 -13.5t45.5 -8.5l-3 -29q-48 3 -117 3t-117 -3l3 29q21 2 45 8.5t25 13.5q8 35 8 140q0 170 -8 208l-64 19l-2 26q64 0 132 18zM115 718q6 3 17.5 3t19.5 -4l94 -194l-30 -5l-83 104l-82 -104l-30 5z" />
    <glyph glyph-name="idieresis" unicode="&#xef;" horiz-adv-x="275" 
d="M180 450l-2 -221q0 -129 8 -168l2 -13q1 -7 25.5 -13.5t45.5 -8.5l-3 -29q-48 3 -117 3t-117 -3l3 29q21 2 45 8.5t25 13.5q8 35 8 140q0 170 -8 208l-64 19l-2 26q64 0 132 18zM228 563q-22 0 -37 15.5t-15 38t15 37.5t37 15t37 -15t15 -37.5t-15 -38t-37 -15.5zM48 563
q-22 0 -37 15.5t-15 38t15 37.5t37 15t37 -15t15 -37.5t-15 -38t-37 -15.5z" />
    <glyph glyph-name="eth" unicode="&#xf0;" horiz-adv-x="529" 
d="M430.5 64q-59.5 -73 -173.5 -73t-166 57.5t-52 160.5t59.5 176.5t179.5 73.5q34 0 66 -16q-43 91 -118 157l-123 -90v57l85 62q-47 35 -112 66l16 35q66 -27 133 -74l103 75v-57l-63 -46q98 -75 161 -172.5t63.5 -208t-59 -183.5zM267 419q-42 0 -71.5 -21t-43.5 -54
q-25 -58 -25 -127.5t32 -127.5t103 -58q38 0 67 18t43 47q28 55 30 110q0 213 -135 213z" />
    <glyph glyph-name="ntilde" unicode="&#xf1;" horiz-adv-x="560" 
d="M173 367l-1 -138q0 -129 8 -168l2 -13q1 -7 22.5 -13.5t41.5 -8.5l-3 -29q-48 3 -110 3t-110 -3l3 29q19 2 40.5 8.5t22.5 13.5q8 35 8 140q0 170 -8 208l-64 19l-2 26q64 0 132 18l19 -9v-48q111 58 193 58q50 0 76 -20t26 -75v-136q0 -129 7 -168l3 -13
q1 -7 22.5 -13.5t41.5 -8.5l-3 -29q-48 3 -110 3t-110 -3l3 29q19 2 40.5 8.5t22.5 13.5q8 35 8 181v97q0 39 -23 54t-78 15t-120 -28zM362 555q-23 0 -72 19.5t-73 19.5q-40 0 -67 -38l-26 8q30 101 90 101q22 0 71.5 -19.5t73.5 -19.5q39 0 67 38l26 -8q-31 -101 -90 -101
z" />
    <glyph glyph-name="ograve" unicode="&#xf2;" horiz-adv-x="529" 
d="M267 411q-41 0 -71 -20.5t-44 -51.5q-27 -57 -27 -109q0 -82 33 -136.5t104 -54.5q38 0 67 17.5t44 45.5q29 52 31 104q0 205 -137 205zM438 402q52 -58 52 -161.5t-59.5 -176.5t-173.5 -73t-166 57.5t-52 160.5t59.5 177t173.5 74t166 -58zM304 518l-173 162
q2 17 23 29.5t46 12.5l134 -199z" />
    <glyph glyph-name="oacute" unicode="&#xf3;" horiz-adv-x="529" 
d="M267 411q-41 0 -71 -20.5t-44 -51.5q-27 -57 -27 -109q0 -82 33 -136.5t104 -54.5q38 0 67 17.5t44 45.5q29 52 31 104q0 205 -137 205zM438 402q52 -58 52 -161.5t-59.5 -176.5t-173.5 -73t-166 57.5t-52 160.5t59.5 177t173.5 74t166 -58zM406 680l-173 -162l-30 5
l134 199q25 0 46 -12.5t23 -29.5z" />
    <glyph glyph-name="ocircumflex" unicode="&#xf4;" horiz-adv-x="529" 
d="M267 411q-41 0 -71 -20.5t-44 -51.5q-27 -57 -27 -109q0 -82 33 -136.5t104 -54.5q38 0 67 17.5t44 45.5q29 52 31 104q0 205 -137 205zM438 402q52 -58 52 -161.5t-59.5 -176.5t-173.5 -73t-166 57.5t-52 160.5t59.5 177t173.5 74t166 -58zM246 718q6 3 17.5 3t19.5 -4
l94 -194l-30 -5l-83 104l-82 -104l-30 5z" />
    <glyph glyph-name="otilde" unicode="&#xf5;" horiz-adv-x="529" 
d="M267 411q-41 0 -71 -20.5t-44 -51.5q-27 -57 -27 -109q0 -82 33 -136.5t104 -54.5q38 0 67 17.5t44 45.5q29 52 31 104q0 205 -137 205zM438 402q52 -58 52 -161.5t-59.5 -176.5t-173.5 -73t-166 57.5t-52 160.5t59.5 177t173.5 74t166 -58zM338 555q-23 0 -72 19.5
t-73 19.5q-40 0 -67 -38l-26 8q30 101 90 101q22 0 71.5 -19.5t73.5 -19.5q39 0 67 38l26 -8q-31 -101 -90 -101z" />
    <glyph glyph-name="odieresis" unicode="&#xf6;" horiz-adv-x="529" 
d="M267 411q-41 0 -71 -20.5t-44 -51.5q-27 -57 -27 -109q0 -82 33 -136.5t104 -54.5q38 0 67 17.5t44 45.5q29 52 31 104q0 205 -137 205zM438 402q52 -58 52 -161.5t-59.5 -176.5t-173.5 -73t-166 57.5t-52 160.5t59.5 177t173.5 74t166 -58zM369 563q-22 0 -37 15.5
t-15 38t15 37.5t37 15t37 -15t15 -37.5t-15 -38t-37 -15.5zM189 563q-22 0 -37 15.5t-15 38t15 37.5t37 15t37 -15t15 -37.5t-15 -38t-37 -15.5z" />
    <glyph glyph-name="divide" unicode="&#xf7;" 
d="M24 273v61h475v-61h-475zM261 398q-22 0 -37 15.5t-15 38.5t15 38t37 15t37.5 -15t15.5 -38t-15.5 -38.5t-37.5 -15.5zM261 101q-22 0 -37 15.5t-15 38.5t15 38t37 15t37.5 -15t15.5 -38t-15.5 -38.5t-37.5 -15.5z" />
    <glyph glyph-name="oslash" unicode="&#xf8;" horiz-adv-x="529" 
d="M39 206q0 106 59.5 180t179.5 74h13l18 81h48l-19 -87q77 -15 114.5 -70.5t37.5 -140.5q0 -106 -59.5 -179t-179.5 -73h-15l-17 -81h-49l19 87q-150 30 -150 209zM262 39q38 0 67 17.5t44 45.5q29 52 31 104q0 152 -79 192l-78 -359h15zM125 230q0 -138 76 -177l79 357
q-5 1 -13 1q-41 0 -71 -20.5t-44 -51.5q-27 -57 -27 -109z" />
    <glyph glyph-name="ugrave" unicode="&#xf9;" horiz-adv-x="550" 
d="M187 -9q-102 0 -102 104v134q0 134 -7 167l-59 19l-2 26q59 0 127 18l19 -9q-3 -179 -3 -325q0 -67 81 -67q34 0 73 11.5t62 25.5q4 54 4 127q0 136 -8 174l-63 19l-2 26q64 0 132 18l19 -9q-3 -75 -3 -248l3 -117q0 -17 13.5 -26.5t26.5 -12t36 -3.5l-3 -29
q-36 -3 -109 -18q-30 13 -41 60q-96 -65 -194 -65zM297 518l-173 162q2 17 23 29.5t46 12.5l134 -199z" />
    <glyph glyph-name="uacute" unicode="&#xfa;" horiz-adv-x="550" 
d="M187 -9q-102 0 -102 104v134q0 134 -7 167l-59 19l-2 26q59 0 127 18l19 -9q-3 -179 -3 -325q0 -67 81 -67q34 0 73 11.5t62 25.5q4 54 4 127q0 136 -8 174l-63 19l-2 26q64 0 132 18l19 -9q-3 -75 -3 -248l3 -117q0 -17 13.5 -26.5t26.5 -12t36 -3.5l-3 -29
q-36 -3 -109 -18q-30 13 -41 60q-96 -65 -194 -65zM418 680l-173 -162l-30 5l134 199q25 0 46 -12.5t23 -29.5z" />
    <glyph glyph-name="ucircumflex" unicode="&#xfb;" horiz-adv-x="550" 
d="M187 -9q-102 0 -102 104v134q0 134 -7 167l-59 19l-2 26q59 0 127 18l19 -9q-3 -179 -3 -325q0 -67 81 -67q34 0 73 11.5t62 25.5q4 54 4 127q0 136 -8 174l-63 19l-2 26q64 0 132 18l19 -9q-3 -75 -3 -248l3 -117q0 -17 13.5 -26.5t26.5 -12t36 -3.5l-3 -29
q-36 -3 -109 -18q-30 13 -41 60q-96 -65 -194 -65zM255 718q6 3 17.5 3t19.5 -4l94 -194l-30 -5l-83 104l-82 -104l-30 5z" />
    <glyph glyph-name="udieresis" unicode="&#xfc;" horiz-adv-x="550" 
d="M187 -9q-102 0 -102 104v134q0 134 -7 167l-59 19l-2 26q59 0 127 18l19 -9q-3 -179 -3 -325q0 -67 81 -67q34 0 73 11.5t62 25.5q4 54 4 127q0 136 -8 174l-63 19l-2 26q64 0 132 18l19 -9q-3 -75 -3 -248l3 -117q0 -17 13.5 -26.5t26.5 -12t36 -3.5l-3 -29
q-36 -3 -109 -18q-30 13 -41 60q-96 -65 -194 -65zM360 563q-22 0 -37 15.5t-15 38t15 37.5t37 15t37 -15t15 -37.5t-15 -38t-37 -15.5zM180 563q-22 0 -37 15.5t-15 38t15 37.5t37 15t37 -15t15 -37.5t-15 -38t-37 -15.5z" />
    <glyph glyph-name="yacute" unicode="&#xfd;" horiz-adv-x="482" 
d="M167 415q-15 -9 -15 -14.5t106 -332.5q110 314 110 330q0 22 -55 29l-3 29q34 -3 72 -3l102 3l3 -29q-51 -7 -63 -37q-43 -134 -145 -390q-77 -195 -147 -244q-20 -14 -30.5 -16.5t-20.5 -2.5t-28.5 23.5t-24.5 46.5l15 19q19 -9 45 -9q72 0 144 183l-35 21
q-77 238 -119 333l-15 32q-13 33 -61 41l-3 29q69 -3 106 -3l104 3l3 -29q-30 -3 -45 -12zM410 680l-173 -162l-30 5l134 199q25 0 46 -12.5t23 -29.5z" />
    <glyph glyph-name="thorn" unicode="&#xfe;" horiz-adv-x="546" 
d="M256 44q80 0 120 53.5t40 127.5t-34.5 123t-103.5 49q-27 0 -62 -10t-52 -21v-305q48 -17 92 -17zM237 -263q-48 3 -116 3t-116 -3l3 29q67 6 69 19q12 193 12 379q0 300 -6 453l-2 51l-64 19l-2 26q64 0 132 18l18 -9v-321q93 59 180 59q63 0 111.5 -52.5t48.5 -167.5
t-56.5 -182t-142.5 -67q-66 0 -142 32q1 -224 6 -238q2 -13 70 -19z" />
    <glyph glyph-name="ydieresis" unicode="&#xff;" horiz-adv-x="482" 
d="M167 415q-15 -9 -15 -14.5t106 -332.5q110 314 110 330q0 22 -55 29l-3 29q34 -3 72 -3l102 3l3 -29q-51 -7 -63 -37q-43 -134 -145 -390q-77 -195 -147 -244q-20 -14 -30.5 -16.5t-20.5 -2.5t-28.5 23.5t-24.5 46.5l15 19q19 -9 45 -9q72 0 144 183l-35 21
q-77 238 -119 333l-15 32q-13 33 -61 41l-3 29q69 -3 106 -3l104 3l3 -29q-30 -3 -45 -12zM333 563q-22 0 -37 15.5t-15 38t15 37.5t37 15t37 -15t15 -37.5t-15 -38t-37 -15.5zM153 563q-22 0 -37 15.5t-15 38t15 37.5t37 15t37 -15t15 -37.5t-15 -38t-37 -15.5z" />
    <glyph glyph-name="dotlessi" unicode="&#x131;" horiz-adv-x="275" 
d="M180 450l-2 -221q0 -129 8 -168l2 -13q1 -7 25.5 -13.5t45.5 -8.5l-3 -29q-48 3 -117 3t-117 -3l3 29q21 2 45 8.5t25 13.5q8 35 8 140q0 170 -8 208l-64 19l-2 26q64 0 132 18z" />
    <glyph glyph-name="Lslash" unicode="&#x141;" horiz-adv-x="580" 
d="M255.5 45q30.5 -9 71 -9t68 3.5t58.5 16.5q58 23 88 115l27 -12q-18 -55 -24 -159h-393q-57 0 -120 -3l-3 29q51 10 69 18t20 25q6 46 8 195l-87 -64v61l88 64v17q0 192 -6 254l-2 20q-2 18 -18 25.5t-64 17.5l3 29q63 -3 132 -3t132 3l3 -29q-48 -10 -64 -17.5
t-18 -25.5q-7 -52 -8 -225l204 149v-61l-204 -149q0 -183 6 -242l2 -19q1 -15 31.5 -24z" />
    <glyph glyph-name="lslash" unicode="&#x142;" horiz-adv-x="272" 
d="M173 352q0 -238 11 -304q1 -7 26 -14t44 -8l-3 -29q-48 3 -116 3t-116 -3l3 29q21 2 44.5 8.5t24.5 13.5q6 57 7 267l-73 -53v57l73 53q0 227 -6 278l-2 17l-64 19l-2 26q64 0 132 18l19 -9q-2 -103 -2 -294l77 56v-57l-77 -56v-18z" />
    <glyph glyph-name="OE" unicode="&#x152;" horiz-adv-x="983" 
d="M372 -12q-164 0 -243.5 87t-79.5 239t84 258q42 54 114 85t167 31q104 -6 255 -6t237 9v-15q0 -81 12 -147l-27 -12q-10 32 -19 52.5t-24.5 35t-28.5 22t-42 11.5t-52 4.5t-72 0.5t-52 -22q-10 -65 -11 -254q127 0 152.5 6t33 22t17.5 68l35 -4q-8 -49 -8 -112t8 -111
l-35 -5q-10 52 -17.5 68t-33 22t-152.5 6q0 -175 8 -240l3 -19q9 -32 101 -32q46 0 73.5 3.5t58.5 16.5q58 23 88 115l27 -12q-18 -55 -24 -159q-213 0 -363 -6t-190 -6zM283.5 59.5q48.5 -27.5 100.5 -27.5q103 0 107 37q9 58 9 213q0 252 -6 314l-2 20q-4 30 -82 30
q-57 0 -103.5 -21t-74 -53t-46.5 -73q-32 -72 -32 -141t13.5 -123.5t40.5 -101t75.5 -74z" />
    <glyph glyph-name="oe" unicode="&#x153;" horiz-adv-x="824" 
d="M641 460q61 0 106.5 -43t45.5 -128l-34 -41q-6 1 -93 1t-176 -7v-9q0 -77 38.5 -128.5t109 -51.5t130.5 30l12 -30q-73 -62 -164 -62q-122 0 -178 83q-63 -83 -179 -83t-168 57.5t-52 160.5t59.5 176.5t181.5 73.5t175 -80q64 81 186 81zM338.5 393q-28.5 18 -70 18
t-72 -20t-44.5 -51q-25 -57 -25 -108.5t11.5 -92t44 -70.5t77 -30t73.5 17.5t44 45.5q29 54 30 98.5t-5 78t-20.5 65t-43 49.5zM703 320q0 46 -26 68.5t-58 22.5q-47 0 -80 -37t-44 -91l205 8q3 15 3 29z" />
    <glyph glyph-name="Scaron" unicode="&#x160;" horiz-adv-x="528" 
d="M360.5 617q-35.5 27 -92.5 27t-87 -27.5t-30 -67.5q0 -65 67 -109l158 -103q104 -68 104 -161q0 -75 -59.5 -130.5t-173.5 -55.5t-199 36q16 82 16 147l27 12q15 -82 47 -113t99.5 -31t103 33t35.5 78q0 61 -65 103l-160 105q-92 60 -92 154q0 73 57 126.5t149 53.5
q30 0 66.5 -7.5t55.5 -7.5t44 6v-15q0 -73 12 -141l-27 -12q-20 73 -55.5 100zM282 752q-8 -4 -19.5 -4t-17.5 3l-104 195l30 5l92 -114l93 114l30 -5z" />
    <glyph glyph-name="scaron" unicode="&#x161;" horiz-adv-x="382" 
d="M209 523q-8 -4 -19.5 -4t-17.5 3l-104 195l30 5l92 -114l93 114l30 -5zM310 442l14 -7q0 -65 6 -99l-26 -9q-13 51 -36.5 71t-59.5 20t-57 -19t-21 -45q0 -45 52 -74l102 -56q66 -37 66 -107q0 -51 -40.5 -88.5t-115.5 -37.5t-154 25q12 70 12 115l26 9q9 -36 13.5 -49
t16 -32t29.5 -25t53 -6t58 20t23 48q0 42 -47 68l-108 60q-66 35 -66 107q0 51 39 90t109 39t112 -18z" />
    <glyph glyph-name="Ydieresis" unicode="&#x178;" horiz-adv-x="641" 
d="M482 623q0 18 -87 36l3 29q63 -3 123.5 -3t123.5 3l3 -29q-44 -9 -63 -19.5t-27 -29.5l-193 -341q0 -136 6 -184l2 -16q2 -18 19 -25.5t66 -17.5l-3 -29q-63 3 -137 3t-137 -3l-3 29q51 10 69 18t20 25q6 44 7 193l-193 354q-9 17 -25.5 25.5t-59.5 17.5l3 29
q63 -3 137 -3t137 3l3 -29q-89 -17 -89 -36q0 -2 2 -8l148 -291l143 292q2 4 2 7zM426 792q-22 0 -37 15.5t-15 38t15 37.5t37 15t37 -15t15 -37.5t-15 -38t-37 -15.5zM246 792q-22 0 -37 15.5t-15 38t15 37.5t37 15t37 -15t15 -37.5t-15 -38t-37 -15.5z" />
    <glyph glyph-name="Zcaron" unicode="&#x17d;" horiz-adv-x="640" 
d="M267 53q184 0 231 17q49 19 69 54q11 19 20 47l27 -12q-18 -55 -24 -159h-536l-24 35l448 596q-264 0 -316.5 -15t-78.5 -99l-27 12q12 68 12 147v15q82 -6 380 -6h132l18 -33l-447 -599h116zM338 752q-8 -4 -19.5 -4t-17.5 3l-104 195l30 5l92 -114l93 114l30 -5z" />
    <glyph glyph-name="zcaron" unicode="&#x17e;" horiz-adv-x="444" 
d="M245 410q-22 0 -50.5 -1.5t-39.5 -3t-27 -6.5t-21 -10t-13 -15.5t-12 -21.5l-9 -28l-26 9q9 56 9 109v13q62 -5 342 -5l15 -28l-283 -377q141 0 191.5 17.5t71.5 84.5l26 -9q-15 -47 -21 -138h-352l-20 30l287 380h-68zM240 523q-8 -4 -19.5 -4t-17.5 3l-104 195l30 5
l92 -114l93 114l30 -5z" />
    <glyph glyph-name="florin" unicode="&#x192;" 
d="M344 630l86 -2q14 0 39 5q0 -73 11 -137l-24 -11q-30 107 -105 107q-58 0 -66 -78l-18 -182h143l-6 -43h-141l-25 -250q-16 -163 -62 -212q-21 -23 -39 -30t-41 -7q-88 0 -166 62l14 29q66 -30 111 -30q60 0 83 75q10 34 15 86l29 277h-110l6 43h108l18 177q8 73 43 97
t97 24z" />
    <glyph glyph-name="circumflex" unicode="&#x2c6;" horiz-adv-x="325" 
d="M144 718q6 3 17.5 3t19.5 -4l94 -194l-30 -5l-83 104l-82 -104l-30 5z" />
    <glyph glyph-name="caron" unicode="&#x2c7;" horiz-adv-x="325" 
d="M181 523q-8 -4 -19.5 -4t-17.5 3l-104 195l30 5l92 -114l93 114l30 -5z" />
    <glyph glyph-name="breve" unicode="&#x2d8;" horiz-adv-x="325" 
d="M101.5 624.5q26.5 -13.5 61 -13.5t61 13.5t31.5 39.5l37 -5q-7 -51 -44.5 -79.5t-85 -28.5t-85 28.5t-44.5 79.5l37 5q5 -26 31.5 -39.5z" />
    <glyph glyph-name="dotaccent" unicode="&#x2d9;" horiz-adv-x="267" 
d="M135 563q-22 0 -37 15.5t-15 38t15 37.5t37 15t37 -15t15 -37.5t-15 -38t-37 -15.5z" />
    <glyph glyph-name="ring" unicode="&#x2da;" horiz-adv-x="325" 
d="M161 545q49 0 49 74.5t-50.5 74.5t-50.5 -70q0 -33 13 -56t39 -23zM57 619q0 43 30.5 74t74 31t74 -30.5t30.5 -74t-30 -74t-74 -30.5t-74.5 30.5t-30.5 73.5z" />
    <glyph glyph-name="ogonek" unicode="&#x2db;" horiz-adv-x="459" 
d="M326 -176q-41 -27 -84 -27t-64.5 21.5t-21.5 62t37 84.5t105 61v-26q-77 -27 -77 -97q0 -28 15.5 -42t38.5 -14t45 9z" />
    <glyph glyph-name="tilde" unicode="&#x2dc;" horiz-adv-x="360" 
d="M247 555q-23 0 -72 19.5t-73 19.5q-40 0 -67 -38l-26 8q30 101 90 101q22 0 71.5 -19.5t73.5 -19.5q38 0 67 38l26 -8q-31 -101 -90 -101z" />
    <glyph glyph-name="hungarumlaut" unicode="&#x2dd;" horiz-adv-x="285" 
d="M243 680l-173 -162l-30 5l134 199q25 0 46 -12.5t23 -29.5zM72 680l-173 -162l-30 5l134 199q25 0 46 -12.5t23 -29.5z" />
    <glyph glyph-name="pi" unicode="&#x3c0;" horiz-adv-x="539" 
d="M463 382q-26 0 -64 2v-291q0 -39 24 -39q14 0 30.5 15.5t29.5 37.5l29 -18q-25 -46 -58.5 -72t-64 -26t-50 25.5t-19.5 74.5v294h-139q0 -349 -57 -387q-9 -7 -24.5 -7t-32.5 23t-17 47q0 13 14 13q32 0 46 18q27 35 27 293h-19q-43 0 -86 -19l-15 19q6 24 24.5 50
t26.5 26q101 -5 195 -5l150 2q43 0 86 19l15 -19q-6 -24 -24.5 -50t-26.5 -26z" />
    <glyph glyph-name="endash" unicode="&#x2013;" horiz-adv-x="560" 
d="M37 294q101 -5 254 -5t269 5l7 -15l-44 -48q-108 4 -257.5 4t-265.5 -5l-7 16z" />
    <glyph glyph-name="emdash" unicode="&#x2014;" horiz-adv-x="838" 
d="M37 294q242 -6 375.5 -6t425.5 6l7 -15l-44 -48q-120 2 -387 2t-414 -3l-7 16z" />
    <glyph glyph-name="quoteleft" unicode="&#x2018;" horiz-adv-x="215" 
d="M141.5 455.5q-16.5 -13.5 -43 -13.5t-47.5 25t-21 65t36 82t110 66l9 -22q-108 -49 -108 -132q14 15 34 15t33.5 -14t13.5 -36t-16.5 -35.5z" />
    <glyph glyph-name="quoteright" unicode="&#x2019;" horiz-adv-x="215" 
d="M73.5 668.5q16.5 13.5 43 13.5t47.5 -25t21 -65t-36 -82t-110 -66l-9 22q108 49 108 132q-14 -15 -34 -15t-33.5 14t-13.5 36t16.5 35.5z" />
    <glyph glyph-name="quotesinglbase" unicode="&#x201a;" horiz-adv-x="214" 
d="M73.5 77.5q16.5 13.5 43 13.5t47.5 -25t21 -65t-36 -82t-110 -66l-9 22q108 49 108 132q-14 -15 -34 -15t-33.5 14t-13.5 36t16.5 35.5z" />
    <glyph glyph-name="quotedblleft" unicode="&#x201c;" horiz-adv-x="378" 
d="M141.5 455.5q-16.5 -13.5 -43 -13.5t-47.5 25t-21 65t36 82t110 66l9 -22q-108 -49 -108 -132q14 15 34 15t33.5 -14t13.5 -36t-16.5 -35.5zM304.5 455.5q-16.5 -13.5 -43 -13.5t-47.5 25t-21 65t36 82t110 66l9 -22q-108 -49 -108 -132q14 15 34 15t33.5 -14t13.5 -36
t-16.5 -35.5z" />
    <glyph glyph-name="quotedblright" unicode="&#x201d;" horiz-adv-x="378" 
d="M236.5 668.5q16.5 13.5 43 13.5t47.5 -25t21 -65t-36 -82t-110 -66l-9 22q108 49 108 132q-14 -15 -34 -15t-33.5 14t-13.5 36t16.5 35.5zM73.5 668.5q16.5 13.5 43 13.5t47.5 -25t21 -65t-36 -82t-110 -66l-9 22q108 49 108 132q-14 -15 -34 -15t-33.5 14t-13.5 36
t16.5 35.5z" />
    <glyph glyph-name="quotedblbase" unicode="&#x201e;" horiz-adv-x="378" 
d="M236.5 77.5q16.5 13.5 43 13.5t47.5 -25t21 -65t-36 -82t-110 -66l-9 22q108 49 108 132q-14 -15 -34 -15t-33.5 14t-13.5 36t16.5 35.5zM73.5 77.5q16.5 13.5 43 13.5t47.5 -25t21 -65t-36 -82t-110 -66l-9 22q108 49 108 132q-14 -15 -34 -15t-33.5 14t-13.5 36
t16.5 35.5z" />
    <glyph glyph-name="dagger" unicode="&#x2020;" horiz-adv-x="418" 
d="M243 450q-5 -75 -5 -156t19 -294l-48 -9l-48 9q18 203 18 296.5t-4 153.5q-95 -2 -148 -12l-20 -3l-7 18l43 61q51 -8 127 -10q-8 83 -22 168h122q-15 -80 -23 -168q85 2 142 12l19 4l8 -18l-44 -61q-50 7 -129 9z" />
    <glyph glyph-name="daggerdbl" unicode="&#x2021;" horiz-adv-x="418" 
d="M268 -204h-122q15 80 23 168q-85 -2 -142 -12l-19 -4l-8 18l44 61q45 -7 118 -9q8 94 14 216q-1 41 -16 216q-74 -2 -135 -12l-18 -3l-7 18l43 61q51 -8 127 -10q-8 83 -22 168h122q-15 -80 -23 -168q85 2 142 12l19 4l8 -18l-44 -61q-46 6 -119 9q-8 -94 -14 -216
q2 -53 16 -216q73 2 135 12l19 3l7 -18l-43 -61q-51 8 -127 10q8 -83 22 -168z" />
    <glyph glyph-name="bullet" unicode="&#x2022;" horiz-adv-x="398" 
d="M70 356q0 53 38 91t91 38t91 -38t38 -91t-38 -91t-91 -38t-91 38t-38 91z" />
    <glyph glyph-name="ellipsis" unicode="&#x2026;" horiz-adv-x="585" 
d="M292 -9q-22 0 -37 15.5t-15 38.5t15 38t37 15t37.5 -15t15.5 -38t-15.5 -38.5t-37.5 -15.5zM502 -9q-22 0 -37 15.5t-15 38.5t15 38t37 15t37.5 -15t15.5 -38t-15.5 -38.5t-37.5 -15.5zM82 -9q-22 0 -37 15.5t-15 38.5t15 38t37 15t37.5 -15t15.5 -38t-15.5 -38.5
t-37.5 -15.5z" />
    <glyph glyph-name="perthousand" unicode="&#x2030;" horiz-adv-x="985" 
d="M146 -1l412 680h48l-412 -680h-48zM197 638q-22 0 -34 -36t-12 -92.5t12 -92t34 -35.5t34 35.5t12 92t-12 92.5t-34 36zM314 509q0 -71 -30 -117t-87 -46t-87 46t-30 117t30 117.5t87 46.5t87 -46.5t30 -117.5zM547 283q-22 0 -34 -36t-12 -92.5t12 -92t34 -35.5t34 35.5
t12 92t-12 92.5t-34 36zM664 154q0 -71 -30 -117t-87 -46t-87 46t-30 117t30 117.5t87 46.5t87 -46.5t30 -117.5zM818 283q-22 0 -34 -36t-12 -92.5t12 -92t34 -35.5t34 35.5t12 92t-12 92.5t-34 36zM935 154q0 -71 -30 -117t-87 -46t-87 46t-30 117t30 117.5t87 46.5
t87 -46.5t30 -117.5z" />
    <glyph glyph-name="guilsinglleft" unicode="&#x2039;" horiz-adv-x="371" 
d="M90 223q0 7 4 15l157 151l20 -17l-104 -149l104 -149l-20 -17l-157 151q-4 8 -4 15z" />
    <glyph glyph-name="guilsinglright" unicode="&#x203a;" horiz-adv-x="371" 
d="M281 223q0 -7 -4 -15l-157 -151l-20 17l104 149l-104 149l20 17l157 -151q4 -8 4 -15z" />
    <glyph glyph-name="fraction" unicode="&#x2044;" horiz-adv-x="460" 
d="M0 -1l412 680h48l-412 -680h-48z" />
    <glyph glyph-name="Euro" unicode="&#x20ac;" 
d="M327 641q26 0 58.5 -6.5t47.5 -6.5t40 5v-13q0 -58 11 -124l-24 -11q-18 64 -49 88t-83 24q-122 0 -140 -218h187l-6 -43h-183q-1 -17 -1 -52h190l-6 -43h-183q6 -96 47 -142.5t119 -46.5q59 0 125 30l14 -29q-77 -62 -174 -62t-160.5 68t-75.5 182h-50l6 43h41v7
q0 15 2 45h-49l6 43h47q19 114 80.5 188t162.5 74z" />
    <glyph glyph-name="trademark" unicode="&#x2122;" horiz-adv-x="852" 
d="M481 366q0 -23 50 -32l-2 -17q-21 1 -68.5 1t-63.5 -1l-2 17q23 4 31.5 7.5t9.5 11.5q10 54 10 240q0 20 -6.5 25.5t-34.5 11.5l1 17q40 -2 97 -2l104 -261l106 261q57 0 97 2l2 -17q-23 -5 -30.5 -8.5t-8.5 -10.5q-2 -36 -2 -112t8 -145q2 -13 43 -20l-1 -17
q-22 1 -72 1t-72 -1l-2 17q30 5 38 11.5t8 25.5q0 107 -5 182h-4l-94 -233l-33 -7l-98 240h-4q-2 -102 -2 -187zM297 621h-10q-7 0 -8 -10q-4 -28 -4 -129l4 -129q1 -12 40 -19l-1 -17q-21 1 -71.5 1t-72.5 -1l-2 17q41 7 42 19q4 28 4 129l-4 129q-1 10 -8 10h-10
q-38 0 -52.5 -8.5t-25.5 -46.5l-18 4q6 32 6 72v7q52 -4 140.5 -4t140.5 4v-7q0 -40 6 -72l-18 -4q-11 38 -25.5 46.5t-52.5 8.5z" />
    <glyph glyph-name="Omega" unicode="&#x2126;" horiz-adv-x="816" 
d="M180 51q22 0 50 6l5 18q-77 46 -122 121t-45 164q0 137 99.5 234t240.5 97t240.5 -97t99.5 -234q0 -89 -45 -164t-122 -121l5 -18q28 -6 50 -6q53 0 83.5 30t49.5 90l27 -12q-18 -55 -24 -159h-226l-24 89q55 35 86.5 117.5t31.5 165.5q0 111 -68 188.5t-164 77.5
t-164 -77.5t-68 -188.5q0 -83 31.5 -165.5t86.5 -117.5l-24 -89h-226q-6 104 -24 159l27 12q19 -60 49.5 -90t83.5 -30z" />
    <glyph glyph-name="partialdiff" unicode="&#x2202;" horiz-adv-x="459" 
d="M166 621q-43 0 -86 -19l-15 19q6 23 24.5 46.5t26.5 23.5q49 0 104 -26t104.5 -73.5t82 -125.5t32.5 -159t-32 -150t-94.5 -117.5t-138 -48.5t-115 46.5t-39.5 117t30.5 139t91.5 117t136 48.5q32 0 54 -11l4 2q-22 79 -66 125t-104 46zM130 73.5q22 -37.5 67 -37.5
t81.5 39t54.5 94.5t18 112.5t-22.5 94.5t-67.5 37.5t-81 -39t-54 -94.5t-18 -112.5t22 -94.5z" />
    <glyph glyph-name="Delta" unicode="&#x2206;" horiz-adv-x="615" 
d="M321 691h11l283 -691h-615zM488 50l-198 478l-223 -478h421z" />
    <glyph glyph-name="product" unicode="&#x220f;" horiz-adv-x="801" 
d="M580 627h-355q-8 -185 -8 -323q0 -230 6 -386l2 -52q2 -18 19 -25.5t66 -17.5l-3 -29q-63 3 -137 3t-137 -3l-3 29q51 10 69 18t20 25q8 177 8 332q0 250 -6 374l-2 42q-2 18 -18 25.5t-64 17.5l3 29q63 -3 134 -3h461q67 0 130 3l3 -29q-48 -10 -64 -17.5t-18 -25.5
q-8 -142 -8 -298q0 -250 6 -400l2 -50q2 -18 19 -25.5t66 -17.5l-3 -29q-63 3 -137 3t-137 -3l-3 29q51 10 69 18t20 25q8 186 8 315t-1 185t-2 100.5t-2 80.5t-2 57.5t-1 22.5z" />
    <glyph glyph-name="summation" unicode="&#x2211;" horiz-adv-x="654" 
d="M36 683h545v-15q0 -79 12 -147l-27 -12q-24 78 -81 102t-180.5 24t-127.5 -22l234 -354l-280 -379q0 -13 58 -20.5t137 -7.5q210 0 271 116l27 -12q-18 -55 -24 -159h-570v35l295 394l-289 427v30z" />
    <glyph glyph-name="minus" unicode="&#x2212;" 
d="M24 273v61h475v-61h-475z" />
    <glyph glyph-name="radical" unicode="&#x221a;" horiz-adv-x="574" 
d="M579 691h-130l-187 -691h-29l-139 411l-85 -18l-9 37l162 35l93 -292h5l146 557h173v-39z" />
    <glyph glyph-name="infinity" unicode="&#x221e;" horiz-adv-x="600" 
d="M523 312q0 41 -26.5 65t-62 24t-63.5 -23.5t-42 -65.5q14 -42 42 -65t63.5 -23t62 23.5t26.5 64.5zM437 459q58 0 102.5 -40t44.5 -107t-44.5 -107t-102.5 -40q-91 0 -137 87q-46 -87 -137 -87q-58 0 -102.5 40t-44.5 107t44.5 107t102.5 40q91 0 137 -87q46 87 137 87z
M77 312q0 -41 26.5 -64.5t62 -23.5t63.5 23t42 65q-14 42 -42 65.5t-63.5 23.5t-62 -24t-26.5 -65z" />
    <glyph glyph-name="integral" unicode="&#x222b;" horiz-adv-x="282" 
d="M102 63v349q0 113 57 196t150 83q6 0 20 -23.5t19 -46.5l-12 -19q-31 19 -65 19t-52 -14q-39 -30 -39 -190v-349q0 -113 -57 -196t-150 -83q-6 0 -20 23.5t-19 46.5l12 19q31 -19 65 -19t52 14q39 30 39 190z" />
    <glyph glyph-name="approxequal" unicode="&#x2248;" 
d="M499 354q-71 28 -120.5 28t-118 -27.5t-118.5 -27.5t-118 27v61q68 -27 118 -27t118.5 27.5t118 27.5t120.5 -28v-61zM499 192q-71 28 -120.5 28t-118 -27.5t-118.5 -27.5t-118 27v61q68 -27 118 -27t118.5 27.5t118 27.5t120.5 -28v-61z" />
    <glyph glyph-name="notequal" unicode="&#x2260;" 
d="M24 192v61h170l58 101h-228v61h263l127 223h65l-127 -223h147v-61h-182l-58 -101h240v-61h-275l-114 -201h-65l114 201h-135z" />
    <glyph glyph-name="lessequal" unicode="&#x2264;" 
d="M487 56l-450 247l450 247v-69l-336 -178l336 -178v-69zM34 -60v61h453v-61h-453z" />
    <glyph glyph-name="greaterequal" unicode="&#x2265;" 
d="M485 303l-450 -247v69l336 178l-336 178v69zM488 1v-61h-453v61h453z" />
    <glyph glyph-name="lozenge" unicode="&#x25ca;" horiz-adv-x="450" 
d="M248 0h-47l-161 345l161 346h47l162 -346zM345 345l-120 286l-119 -286l119 -285z" />
    <glyph glyph-name="apple" unicode="&#xf8ff;" horiz-adv-x="923" 
d="M589 -89l-23 1q-14 0 -31.5 -12t-26.5 -12l-46 10q-8 0 -23.5 -6t-24 -6t-24.5 12.5t-29 12.5l-24 -2q-15 0 -33 17l-18 19q-12 6 -25 7t-22 6.5t-16 23t-12.5 22t-19.5 10t-20 14.5q-5 9 -7 23.5t-6 21t-14 13.5q-22 18 -22 38l3 25q0 9 -12.5 26.5t-12.5 26.5t6 23.5
t6 23t-6 21.5t-6 22t12.5 29.5t12.5 29.5l-1 25q0 15 16.5 29.5t19 19.5t4.5 21t6 22t19.5 12t20.5 11t12 20.5t13.5 21t25.5 9.5t24.5 7t20.5 20t29 18l26 -2q13 0 28.5 11.5t26.5 11.5l44 -12l45 12q13 0 29 -12.5t28 -12.5l28 3q16 0 29 -16.5t19.5 -20t21.5 -6.5
t22.5 -8t12.5 -19t10.5 -19t25.5 -15.5t24.5 -18.5t5 -24t3 -20.5t19.5 -19t17 -30.5l-1 -25q0 -13 12 -31.5t12 -27.5t-5.5 -22t-5.5 -20t5.5 -21.5t5 -22.5t-12.5 -20.5t-12 -26.5l2 -32q0 -16 -16 -29t-18.5 -18t-7 -24t-10 -25.5t-18 -12t-17.5 -10.5t-14 -21.5
t-16 -21.5t-24.5 -9.5t-22.5 -7.5t-18.5 -16.5t-28.5 -13.5zM462 -6l33 -7q6 0 17 7q15 10 27 10l15 -1q12 0 21 10t12.5 12t16.5 5.5t18.5 7.5t12 15.5t10 15t12.5 7.5t13 8.5t7 18.5t5.5 18t13.5 13t11 23l-1 20q0 11 8.5 20.5t9.5 15.5l-8 32l8 28q0 8 -9 22t-9 23l1 17
q0 12 -12 22t-14 14t-2.5 15.5t-3.5 17t-17.5 13t-18.5 11.5t-8 14t-9 14t-16 6t-16 4.5t-14 14.5t-21 12l-20 -2q-9 0 -20 9t-21 9l-33 -9l-32 9q-8 0 -20 -8.5t-22 -8.5l-17 1q-11 0 -21.5 -12.5t-15 -15t-17.5 -5t-18 -6.5t-10 -15t-9 -15t-14.5 -8t-14.5 -9
q-2 -4 -4 -15.5t-4 -15.5t-14 -14.5t-12 -21.5l1 -16q0 -8 -8.5 -23t-8.5 -23l8 -30l-8 -33q0 -8 8.5 -20.5t8.5 -20.5l-2 -16q0 -11 12.5 -22.5t14.5 -15.5t3.5 -14.5t5.5 -17t14 -10.5t14 -7.5t9.5 -16.5t11.5 -17t15.5 -4t15.5 -3t17.5 -15.5t22.5 -12.5l15 1
q10 0 22 -8.5t18 -9.5zM462 417q70 0 120 -49.5t50 -120.5t-50 -120.5t-120 -49.5t-120 49.5t-50 120.5t50 120.5t120 49.5zM505 292h52v68h-191v-68h54v-175h85v175z" />
    </font>
</defs>
</svg>
