<?xml version="1.0" standalone="no"?>
<!DOCTYPE svg PUBLIC "-//W3C//DTD SVG 1.1//EN" "http://www.w3.org/Graphics/SVG/1.1/DTD/svg11.dtd" >
<svg>
<metadata>
Created by FontForge 20090622 at Fri Mar  3 08:11:41 2017
 By deploy user
Copyright (c) 2015, Impallari Type (www.impallari.com)
</metadata>
<defs>
<font id="LibreFranklin-Light" horiz-adv-x="232" >
  <font-face 
    font-family="Libre Franklin Light"
    font-weight="300"
    font-stretch="normal"
    units-per-em="1000"
    panose-1="0 0 4 0 0 0 0 0 0 0"
    ascent="800"
    descent="-200"
    x-height="530"
    cap-height="742"
    bbox="-346 -238 1261 964.273"
    underline-thickness="50"
    underline-position="-50"
    unicode-range="U+000D-U+FB02"
  />
<missing-glyph horiz-adv-x="716" 
d="M607 841.5q5 -5.5 5 -15.5v-962q0 -16 -8 -22.5t-25 -6.5h-448q-15 0 -21 6t-6 19v964q0 11 5 17t14 6h471q8 0 13 -5.5zM556 792q-4 5 -11 5h-353l368 -855v837q0 8 -4 13zM161 -110q5 -5 18 -5h344l-367 849v-828q0 -11 5 -16z" />
    <glyph glyph-name="fi" unicode="fi" horiz-adv-x="605" 
d="M348 521v-34q0 -8 -9 -8h-121q-8 0 -8 -8v-458q0 -13 -10 -13h-46q-10 0 -10 12v459q0 8 -6 8h-105q-8 0 -8 8v34q0 9 9 9h102q5 0 6.5 2t1.5 7v76q0 127 121 127h78q10 0 10 -10v-31q0 -9 -10 -9h-74q-32 0 -46 -19t-14 -57v-78q0 -8 8 -8h123q8 0 8 -9zM526 651
q0 -9 -3 -13.5t-12 -4.5h-46q-8 0 -10.5 4t-2.5 12v78q0 15 13 15h48q13 0 13 -14v-77zM522 15q0 -9 -3 -12t-13 -3h-37q-7 0 -10 2.5t-3 9.5v506q0 7 2.5 9.5t8.5 2.5h44q6 0 8.5 -2.5t2.5 -9.5v-503z" />
    <glyph glyph-name="fl" unicode="fl" horiz-adv-x="605" 
d="M348 521v-34q0 -8 -9 -8h-121q-8 0 -8 -8v-458q0 -13 -10 -13h-46q-10 0 -10 12v459q0 8 -6 8h-105q-8 0 -8 8v34q0 9 9 9h102q5 0 6.5 2t1.5 7v76q0 127 121 127h78q10 0 10 -10v-31q0 -9 -10 -9h-74q-32 0 -46 -19t-14 -57v-78q0 -8 8 -8h123q8 0 8 -9zM522 15
q0 -9 -3 -12t-12 -3h-38q-7 0 -10 2.5t-3 9.5l1 718q0 7 2 9.5t8 2.5h45q10 0 10 -12v-715z" />
    <glyph glyph-name=".notdef" horiz-adv-x="716" 
d="M607 841.5q5 -5.5 5 -15.5v-962q0 -16 -8 -22.5t-25 -6.5h-448q-15 0 -21 6t-6 19v964q0 11 5 17t14 6h471q8 0 13 -5.5zM556 792q-4 5 -11 5h-353l368 -855v837q0 8 -4 13zM161 -110q5 -5 18 -5h344l-367 849v-828q0 -11 5 -16z" />
    <glyph glyph-name="nonmarkingreturn" unicode="&#xd;" horiz-adv-x="214" 
 />
    <glyph glyph-name="space" unicode=" " horiz-adv-x="217" 
 />
    <glyph glyph-name="A" unicode="A" horiz-adv-x="716" 
d="M49.5 3.5q-2.5 3.5 -0.5 10.5l261 715q3 7 7 10t11 3h60q17 0 21 -13l258 -715q1 -2 1 -5q0 -9 -9 -9h-52q-12 0 -15 9l-74 206q-3 8 -11 8h-304q-8 0 -11 -8l-76 -207q-2 -8 -13 -8h-46q-5 0 -7.5 3.5zM485 284q10 0 7 11l-129 355q-3 9 -7 9t-8 -10l-131 -355
q-2 -4 -2 -6q0 -4 8 -4h262z" />
    <glyph glyph-name="Aacute" unicode="&#xc1;" horiz-adv-x="716" 
d="M49.5 3.5q-2.5 3.5 -0.5 10.5l261 715q3 7 7 10t11 3h60q17 0 21 -13l258 -715q1 -2 1 -5q0 -9 -9 -9h-52q-12 0 -15 9l-74 206q-3 8 -11 8h-304q-8 0 -11 -8l-76 -207q-2 -8 -13 -8h-46q-5 0 -7.5 3.5zM485 284q10 0 7 11l-129 355q-3 9 -7 9t-8 -10l-131 -355
q-2 -4 -2 -6q0 -4 8 -4h262zM486 919q1 -2 1 -6q0 -6 -10 -10l-228 -73q-2 -1 -6 -1q-7 0 -8 7l-7 20l-1 4q0 6 5 8l230 95h3q5 0 8 -4z" />
    <glyph glyph-name="Abreve" unicode="&#x102;" horiz-adv-x="716" 
d="M49.5 3.5q-2.5 3.5 -0.5 10.5l261 715q3 7 7 10t11 3h60q17 0 21 -13l258 -715q1 -2 1 -5q0 -9 -9 -9h-52q-12 0 -15 9l-74 206q-3 8 -11 8h-304q-8 0 -11 -8l-76 -207q-2 -8 -13 -8h-46q-5 0 -7.5 3.5zM485 284q10 0 7 11l-129 355q-3 9 -7 9t-8 -10l-131 -355
q-2 -4 -2 -6q0 -4 8 -4h262zM497 952q2 -2 0 -8q-10 -36 -48 -63.5t-94 -27.5q-55 0 -90.5 27t-47.5 65v3q0 6 6 6h41q9 0 14 -8q16 -21 31.5 -32.5t45.5 -11.5q52 0 81 45q2 4 4.5 5.5t6.5 1.5h42q6 0 8 -2z" />
    <glyph glyph-name="Acircumflex" unicode="&#xc2;" horiz-adv-x="716" 
d="M49.5 3.5q-2.5 3.5 -0.5 10.5l261 715q3 7 7 10t11 3h60q17 0 21 -13l258 -715q1 -2 1 -5q0 -9 -9 -9h-52q-12 0 -15 9l-74 206q-3 8 -11 8h-304q-8 0 -11 -8l-76 -207q-2 -8 -13 -8h-46q-5 0 -7.5 3.5zM485 284q10 0 7 11l-129 355q-3 9 -7 9t-8 -10l-131 -355
q-2 -4 -2 -6q0 -4 8 -4h262zM367 904q-7 7 -10 7t-11 -7l-59 -49q-5 -4 -8 -5.5t-9 -1.5h-47q-6 0 -7 3t4 8l102 87q10 10 22 10h31q7 0 12 -4t6 -5l100 -88q13 -11 -1 -11h-52q-9 0 -17 7z" />
    <glyph glyph-name="uni0200" unicode="&#x200;" horiz-adv-x="716" 
d="M49.5 3.5q-2.5 3.5 -0.5 10.5l261 715q3 7 7 10t11 3h60q17 0 21 -13l258 -715q1 -2 1 -5q0 -9 -9 -9h-52q-12 0 -15 9l-74 206q-3 8 -11 8h-304q-8 0 -11 -8l-76 -207q-2 -8 -13 -8h-46q-5 0 -7.5 3.5zM485 284q10 0 7 11l-129 355q-3 9 -7 9t-8 -10l-131 -355
q-2 -4 -2 -6q0 -4 8 -4h262zM195 962l121 -134q5 -7 -1 -12l-13 -17q-3 -5 -7 -5q-2 0 -8 4l-127 114q-7 4 -7 9q0 2 4 8l26 32q6 6 12 1zM348 962l120 -134q7 -7 0 -12l-13 -17q-3 -5 -7 -5q-2 0 -8 4l-127 114q-7 4 -7 9q0 2 4 8l26 32q6 6 12 1z" />
    <glyph glyph-name="Adieresis" unicode="&#xc4;" horiz-adv-x="716" 
d="M49.5 3.5q-2.5 3.5 -0.5 10.5l261 715q3 7 7 10t11 3h60q17 0 21 -13l258 -715q1 -2 1 -5q0 -9 -9 -9h-52q-12 0 -15 9l-74 206q-3 8 -11 8h-304q-8 0 -11 -8l-76 -207q-2 -8 -13 -8h-46q-5 0 -7.5 3.5zM485 284q10 0 7 11l-129 355q-3 9 -7 9t-8 -10l-131 -355
q-2 -4 -2 -6q0 -4 8 -4h262zM326 863q0 -8 -3 -11t-12 -3h-42q-8 0 -10.5 2.5t-2.5 9.5v81q0 12 10 12h50q10 0 10 -11v-80zM458 863q0 -8 -3.5 -11t-11.5 -3h-42q-8 0 -10.5 2.5t-2.5 9.5v81q0 12 10 12h49q11 0 11 -11v-80z" />
    <glyph glyph-name="Agrave" unicode="&#xc0;" horiz-adv-x="716" 
d="M49.5 3.5q-2.5 3.5 -0.5 10.5l261 715q3 7 7 10t11 3h60q17 0 21 -13l258 -715q1 -2 1 -5q0 -9 -9 -9h-52q-12 0 -15 9l-74 206q-3 8 -11 8h-304q-8 0 -11 -8l-76 -207q-2 -8 -13 -8h-46q-5 0 -7.5 3.5zM485 284q10 0 7 11l-129 355q-3 9 -7 9t-8 -10l-131 -355
q-2 -4 -2 -6q0 -4 8 -4h262zM236 963l231 -95q7 -3 4 -12l-7 -20q-2 -5 -5 -6.5t-9 0.5l-228 73q-7 3 -9 6.5t0 9.5l13 40q3 6 10 4z" />
    <glyph glyph-name="uni0202" unicode="&#x202;" horiz-adv-x="716" 
d="M49.5 3.5q-2.5 3.5 -0.5 10.5l261 715q3 7 7 10t11 3h60q17 0 21 -13l258 -715q1 -2 1 -5q0 -9 -9 -9h-52q-12 0 -15 9l-74 206q-3 8 -11 8h-304q-8 0 -11 -8l-76 -207q-2 -8 -13 -8h-46q-5 0 -7.5 3.5zM485 284q10 0 7 11l-129 355q-3 9 -7 9t-8 -10l-131 -355
q-2 -4 -2 -6q0 -4 8 -4h262zM447 859q-4 0 -6.5 1.5t-4.5 5.5q-29 45 -81 45q-30 0 -45.5 -11.5t-31.5 -32.5q-5 -8 -14 -8h-41q-8 0 -6 9q12 38 47.5 65t90.5 27q56 0 94 -27.5t48 -63.5q1 -2 1 -5q0 -5 -9 -5h-42z" />
    <glyph glyph-name="Amacron" unicode="&#x100;" horiz-adv-x="716" 
d="M49.5 3.5q-2.5 3.5 -0.5 10.5l261 715q3 7 7 10t11 3h60q17 0 21 -13l258 -715q1 -2 1 -5q0 -9 -9 -9h-52q-12 0 -15 9l-74 206q-3 8 -11 8h-304q-8 0 -11 -8l-76 -207q-2 -8 -13 -8h-46q-5 0 -7.5 3.5zM485 284q10 0 7 11l-129 355q-3 9 -7 9t-8 -10l-131 -355
q-2 -4 -2 -6q0 -4 8 -4h262zM496 896q0 -11 -13 -11h-256q-9 0 -9 11v32q0 9 7 9h264q7 0 7 -8v-33z" />
    <glyph glyph-name="Aogonek" unicode="&#x104;" horiz-adv-x="716" 
d="M691 -119v-25q0 -7 -6 -10q-14 -6 -37 -11t-46 -5q-48 0 -72.5 21t-24.5 58q0 32 20.5 55t69.5 39l-3 6l-74 206q-3 8 -11 8h-304q-8 0 -11 -8l-76 -207q-2 -8 -13 -8h-46q-5 0 -7.5 3.5t-0.5 10.5l261 715q3 7 7 10t11 3h60q17 0 21 -13l258 -715q1 -2 1 -5q0 -9 -8 -9
q-51 -23 -73.5 -42.5t-22.5 -45.5q0 -40 53 -40q20 0 37 4t27 9q10 6 10 -4zM492 295l-129 355q-3 9 -7 9t-8 -10l-131 -355q-2 -4 -2 -6q0 -4 8 -4h262q10 0 7 11z" />
    <glyph glyph-name="Aring" unicode="&#xc5;" horiz-adv-x="716" 
d="M49.5 3.5q-2.5 3.5 -0.5 10.5l261 715q3 7 7 10t11 3h60q17 0 21 -13l258 -715q1 -2 1 -5q0 -9 -9 -9h-52q-12 0 -15 9l-74 206q-3 8 -11 8h-304q-8 0 -11 -8l-76 -207q-2 -8 -13 -8h-46q-5 0 -7.5 3.5zM485 284q10 0 7 11l-129 355q-3 9 -7 9t-8 -10l-131 -355
q-2 -4 -2 -6q0 -4 8 -4h262zM430 789.5q-30 -29.5 -73 -29.5q-44 0 -73.5 30t-29.5 74q0 41 30 70t73 29t73 -29t30 -72t-30 -72.5zM396 902q-16 16 -40 16q-23 0 -40.5 -16t-17.5 -41q0 -22 17.5 -39.5t40.5 -17.5q24 0 40 17t16 40q0 25 -16 41z" />
    <glyph glyph-name="Aringacute" unicode="&#x1fa;" horiz-adv-x="649" 
d="M618 10q0 -10 -10 -10h-55q-10 0 -13 9l-70 206q-3 8 -11 8h-280q-8 0 -11 -8l-71 -207q-3 -8 -13 -8h-43q-5 0 -7.5 4t-0.5 10l240 700q-23 14 -36.5 37t-13.5 52q0 36 25.5 63.5t62.5 32.5l12 49q3 16 21 16h27q12 0 12 -10l-2 -8l-22 -51q30 -11 49 -36t19 -58
q0 -27 -12.5 -49.5t-34.5 -35.5l237 -702zM284 841q-17 -16 -17 -41q0 -22 17.5 -39.5t39.5 -17.5q24 0 40 17t16 40q0 25 -16 41t-40 16q-23 0 -40 -16zM446 295l-119 355q-3 9 -7 9t-8 -10l-120 -355q-3 -6 -1.5 -8t6.5 -2h242q10 0 7 11z" />
    <glyph glyph-name="Atilde" unicode="&#xc3;" horiz-adv-x="716" 
d="M49.5 3.5q-2.5 3.5 -0.5 10.5l261 715q3 7 7 10t11 3h60q17 0 21 -13l258 -715q1 -2 1 -5q0 -9 -9 -9h-52q-12 0 -15 9l-74 206q-3 8 -11 8h-304q-8 0 -11 -8l-76 -207q-2 -8 -13 -8h-46q-5 0 -7.5 3.5zM485 284q10 0 7 11l-129 355q-3 9 -7 9t-8 -10l-131 -355
q-2 -4 -2 -6q0 -4 8 -4h262zM420 875q-19 0 -34 3.5t-34 10.5q-3 1 -20 6t-34 5t-28 -4.5t-19.5 -9.5t-11.5 -7l-6 -3q-4 0 -7 8l-8 22q-2 5 -1.5 7t4.5 4q18 14 34 21.5t39 7.5q25 0 65 -14q4 -1 23 -7t38 -6q16 0 26.5 4t28.5 14q4 3 7 3q4 0 7 -7l9 -25l1 -4q0 -5 -7 -9
q-31 -20 -72 -20z" />
    <glyph glyph-name="AE" unicode="&#xc6;" horiz-adv-x="990" 
d="M939.5 58.5q2.5 -1.5 2.5 -7.5v-42q0 -9 -10 -9h-422q-7 0 -9.5 2.5t-2.5 9.5v204q0 7 -6 7h-246q-8 0 -13 -8l-117 -207q-5 -8 -14 -8h-46q-6 0 -7.5 4t1.5 10l404 715q6 13 20 13h445q9 0 9 -9l-1 -41q0 -6 -2.5 -8t-8.5 -2h-331q-7 0 -9.5 -2t-2.5 -9v-257
q0 -6 2.5 -8t8.5 -2h254q10 0 10 -9v-42q0 -8 -10 -8h-254q-6 0 -8.5 -2t-2.5 -8v-265q0 -6 2 -8t8 -2h348q6 0 8.5 -1.5zM498 295v360q0 12 -6 12t-13 -13l-208 -360q-3 -6 -2 -8t6 -2h213q10 0 10 11z" />
    <glyph glyph-name="AEacute" unicode="&#x1fc;" horiz-adv-x="990" 
d="M939.5 58.5q2.5 -1.5 2.5 -7.5v-42q0 -9 -10 -9h-422q-7 0 -9.5 2.5t-2.5 9.5v204q0 7 -6 7h-246q-8 0 -13 -8l-117 -207q-5 -8 -14 -8h-46q-6 0 -7.5 4t1.5 10l404 715q6 13 20 13h445q9 0 9 -9l-1 -41q0 -6 -2.5 -8t-8.5 -2h-331q-7 0 -9.5 -2t-2.5 -9v-257
q0 -6 2.5 -8t8.5 -2h254q10 0 10 -9v-42q0 -8 -10 -8h-254q-6 0 -8.5 -2t-2.5 -8v-265q0 -6 2 -8t8 -2h348q6 0 8.5 -1.5zM498 295v360q0 12 -6 12t-13 -13l-208 -360q-3 -6 -2 -8t6 -2h213q10 0 10 11zM817 919q1 -2 1 -6q0 -6 -10 -10l-228 -73q-2 -1 -6 -1q-7 0 -8 7
l-7 20l-1 4q0 6 5 8l230 95h3q5 0 8 -4z" />
    <glyph glyph-name="B" unicode="B" horiz-adv-x="693" 
d="M104 10v719q0 7 2.5 10t9.5 3h220q130 0 200.5 -49.5t70.5 -142.5q0 -123 -131 -167q-4 -1 -4 -4.5t4 -4.5q72 -16 110.5 -60.5t38.5 -115.5q0 -99 -73 -148.5t-211 -49.5h-227q-10 0 -10 10zM348 404q77 0 130 31.5t53 106.5q0 71 -52 106.5t-145 35.5h-143q-6 0 -9 -2
t-3 -8v-258q0 -12 9 -12h160zM336 58q108 0 159.5 33t51.5 106q0 76 -54 112.5t-145 36.5h-156q-13 0 -13 -11v-265q0 -12 9 -12h148z" />
    <glyph glyph-name="C" unicode="C" horiz-adv-x="702" 
d="M498.5 724q58.5 -28 97 -74.5t45.5 -99.5l1 -5q0 -6 -8 -6l-58 -5h-3q-3 0 -4.5 2.5t-1.5 6.5q-16 68 -66.5 108.5t-121.5 40.5q-112 0 -171 -82t-59 -241q0 -155 59.5 -236t177.5 -81q74 0 122.5 36t78.5 112q2 4 9 3l49 -13q5 -2 4 -11q-16 -52 -53 -95t-92.5 -68.5
t-122.5 -25.5q-97 0 -167 45.5t-107 131t-37 203.5q0 119 36.5 205t106 131.5t164.5 45.5q63 0 121.5 -28z" />
    <glyph glyph-name="Cacute" unicode="&#x106;" horiz-adv-x="702" 
d="M498.5 724q58.5 -28 97 -74.5t45.5 -99.5l1 -5q0 -6 -8 -6l-58 -5h-3q-3 0 -4.5 2.5t-1.5 6.5q-16 68 -66.5 108.5t-121.5 40.5q-112 0 -171 -82t-59 -241q0 -155 59.5 -236t177.5 -81q74 0 122.5 36t78.5 112q2 4 9 3l49 -13q5 -2 4 -11q-16 -52 -53 -95t-92.5 -68.5
t-122.5 -25.5q-97 0 -167 45.5t-107 131t-37 203.5q0 119 36.5 205t106 131.5t164.5 45.5q63 0 121.5 -28zM506 919q1 -2 1 -6q0 -6 -10 -10l-228 -73q-2 -1 -6 -1q-7 0 -8 7l-7 20l-1 4q0 6 5 8l230 95h3q5 0 8 -4z" />
    <glyph glyph-name="Ccaron" unicode="&#x10c;" horiz-adv-x="702" 
d="M498.5 724q58.5 -28 97 -74.5t45.5 -99.5l1 -5q0 -6 -8 -6l-58 -5h-3q-3 0 -4.5 2.5t-1.5 6.5q-16 68 -66.5 108.5t-121.5 40.5q-112 0 -171 -82t-59 -241q0 -155 59.5 -236t177.5 -81q74 0 122.5 36t78.5 112q2 4 9 3l49 -13q5 -2 4 -11q-16 -52 -53 -95t-92.5 -68.5
t-122.5 -25.5q-97 0 -167 45.5t-107 131t-37 203.5q0 119 36.5 205t106 131.5t164.5 45.5q63 0 121.5 -28zM460 954h52q7 0 7 -3t-6 -8l-100 -88q-2 -1 -6.5 -5t-11.5 -4h-31q-10 0 -22 10l-102 87q-4 4 -4 7q0 4 7 4h47q5 0 8.5 -1.5t8.5 -4.5l59 -49q8 -7 11 -7t10 7
l56 49q9 6 17 6z" />
    <glyph glyph-name="Ccedilla" unicode="&#xc7;" horiz-adv-x="702" 
d="M649 179q-24 -77 -91 -130.5t-160 -58.5l-18 -43q-1 -4 4 -4q43 -3 62 -24t19 -49q0 -37 -30 -57t-76 -20q-49 0 -81 21q-5 3 -4 8l10 23q3 5 8 2q13 -9 26.5 -14t33.5 -5q58 0 58 41q0 22 -19 33t-60 13q-8 0 -5 5l30 71q-136 8 -211 108t-75 271q0 119 36.5 205
t106 131.5t164.5 45.5q63 0 121.5 -28t97 -74.5t45.5 -99.5l1 -5q0 -6 -8 -6l-58 -5h-3q-3 0 -4.5 2.5t-1.5 6.5q-16 68 -66.5 108.5t-121.5 40.5q-112 0 -171 -82t-59 -241q0 -155 59.5 -236t177.5 -81q74 0 122.5 36t78.5 112q2 4 9 3l49 -13q5 -2 4 -11z" />
    <glyph glyph-name="Ccircumflex" unicode="&#x108;" horiz-adv-x="702" 
d="M498.5 724q58.5 -28 97 -74.5t45.5 -99.5l1 -5q0 -6 -8 -6l-58 -5h-3q-3 0 -4.5 2.5t-1.5 6.5q-16 68 -66.5 108.5t-121.5 40.5q-112 0 -171 -82t-59 -241q0 -155 59.5 -236t177.5 -81q74 0 122.5 36t78.5 112q2 4 9 3l49 -13q5 -2 4 -11q-16 -52 -53 -95t-92.5 -68.5
t-122.5 -25.5q-97 0 -167 45.5t-107 131t-37 203.5q0 119 36.5 205t106 131.5t164.5 45.5q63 0 121.5 -28zM387 904q-7 7 -10 7t-11 -7l-59 -49q-5 -4 -8 -5.5t-9 -1.5h-47q-6 0 -7 3t4 8l102 87q10 10 22 10h31q7 0 12 -4t6 -5l100 -88q13 -11 -1 -11h-52q-9 0 -17 7z" />
    <glyph glyph-name="Cdotaccent" unicode="&#x10a;" horiz-adv-x="702" 
d="M498.5 724q58.5 -28 97 -74.5t45.5 -99.5l1 -5q0 -6 -8 -6l-58 -5h-3q-3 0 -4.5 2.5t-1.5 6.5q-16 68 -66.5 108.5t-121.5 40.5q-112 0 -171 -82t-59 -241q0 -155 59.5 -236t177.5 -81q74 0 122.5 36t78.5 112q2 4 9 3l49 -13q5 -2 4 -11q-16 -52 -53 -95t-92.5 -68.5
t-122.5 -25.5q-97 0 -167 45.5t-107 131t-37 203.5q0 119 36.5 205t106 131.5t164.5 45.5q63 0 121.5 -28zM414 859q0 -8 -3 -11t-12 -3h-46q-7 0 -10 2.5t-3 9.5v85q0 7 2.5 9.5t8.5 2.5h53q6 0 8 -2.5t2 -9.5v-83z" />
    <glyph glyph-name="D" unicode="D" horiz-adv-x="714" 
d="M256 741q203 -2 296 -91.5t93 -273.5q0 -191 -99 -283.5t-302 -92.5h-128q-12 0 -12 13v718q0 11 12 11zM179 668v-599q0 -10 12 -10h43q120 0 192 31t106 99.5t34 183.5q0 117 -33.5 183t-101.5 94.5t-182 31.5h-62q-8 0 -8 -14z" />
    <glyph glyph-name="uni01F1" unicode="&#x1f1;" horiz-adv-x="1275" 
d="M256 741q203 -2 296 -91.5t93 -273.5q0 -191 -99 -283.5t-302 -92.5h-128q-12 0 -12 13v718q0 11 12 11zM179 668v-599q0 -10 12 -10h43q120 0 192 31t106 99.5t34 183.5q0 117 -33.5 183t-101.5 94.5t-182 31.5h-62q-8 0 -8 -14zM709.5 2q-2.5 2 -2.5 8v20q0 6 2.5 11
t7.5 11l401 621q6 9 -4 9h-384q-9 0 -9 9v43q0 8 8 8h486q9 0 9 -8v-23q0 -4 -2.5 -9t-4.5 -8l-407 -625q-6 -9 3 -9h401q5 0 7 -1.5t2 -5.5v-44q0 -9 -10 -9h-495q-6 0 -8.5 2z" />
    <glyph glyph-name="uni01C4" unicode="&#x1c4;" horiz-adv-x="1313" 
d="M256 741q203 -2 296 -91.5t93 -273.5q0 -191 -99 -283.5t-302 -92.5h-128q-12 0 -12 13v718q0 11 12 11zM179 668v-599q0 -10 12 -10h43q120 0 192 31t106 99.5t34 183.5q0 117 -33.5 183t-101.5 94.5t-182 31.5h-62q-8 0 -8 -14zM746.5 2q-2.5 2 -2.5 8v20q0 6 2.5 11
t7.5 11l401 621q6 9 -4 9h-384q-9 0 -9 9v43q0 8 8 8h486q9 0 9 -8v-23q0 -4 -2.5 -9t-4.5 -8l-407 -625q-6 -9 3 -9h401q5 0 7 -1.5t2 -5.5v-44q0 -9 -10 -9h-495q-6 0 -8.5 2zM1093 954h52q7 0 7 -3t-6 -8l-100 -88q-2 -1 -6.5 -5t-11.5 -4h-31q-10 0 -22 10l-102 87
q-4 4 -4 7q0 4 7 4h47q5 0 8.5 -1.5t8.5 -4.5l59 -49q8 -7 11 -7t10 7l56 49q9 6 17 6z" />
    <glyph glyph-name="Eth" unicode="&#xd0;" horiz-adv-x="717" 
d="M555 649.5q93 -89.5 93 -273.5q0 -191 -99 -283.5t-302 -92.5h-128q-12 0 -12 13v330h-61q-7 0 -10 3t-3 10v34q0 11 9 11h65v330q0 11 12 11l140 -1q203 -2 296 -91.5zM429 90q72 31 106 99.5t34 183.5q0 117 -33.5 183t-101.5 94.5t-182 31.5h-62q-8 0 -8 -14v-267h166
q9 0 9 -10v-34q0 -14 -17 -14h-158v-274q0 -10 12 -10h43q120 0 192 31z" />
    <glyph glyph-name="Dcaron" unicode="&#x10e;" horiz-adv-x="714" 
d="M256 741q203 -2 296 -91.5t93 -273.5q0 -191 -99 -283.5t-302 -92.5h-128q-12 0 -12 13v718q0 11 12 11zM179 668v-599q0 -10 12 -10h43q120 0 192 31t106 99.5t34 183.5q0 117 -33.5 183t-101.5 94.5t-182 31.5h-62q-8 0 -8 -14zM428 954h52q7 0 7 -3t-6 -8l-100 -88
q-2 -1 -6.5 -5t-11.5 -4h-31q-10 0 -22 10l-102 87q-4 4 -4 7q0 4 7 4h47q5 0 8.5 -1.5t8.5 -4.5l59 -49q8 -7 11 -7t10 7l56 49q9 6 17 6z" />
    <glyph glyph-name="Dcroat" unicode="&#x110;" horiz-adv-x="717" 
d="M555 649.5q93 -89.5 93 -273.5q0 -191 -99 -283.5t-302 -92.5h-128q-12 0 -12 13v330h-61q-7 0 -10 3t-3 10v34q0 11 9 11h65v330q0 11 12 11l140 -1q203 -2 296 -91.5zM429 90q72 31 106 99.5t34 183.5q0 117 -33.5 183t-101.5 94.5t-182 31.5h-62q-8 0 -8 -14v-267h166
q9 0 9 -10v-34q0 -14 -17 -14h-158v-274q0 -10 12 -10h43q120 0 192 31z" />
    <glyph glyph-name="uni1E0C" unicode="&#x1e0c;" horiz-adv-x="714" 
d="M256 741q203 -2 296 -91.5t93 -273.5q0 -191 -99 -283.5t-302 -92.5h-128q-12 0 -12 13v718q0 11 12 11zM179 668v-599q0 -10 12 -10h43q120 0 192 31t106 99.5t34 183.5q0 117 -33.5 183t-101.5 94.5t-182 31.5h-62q-8 0 -8 -14zM371 -151q0 -8 -3 -11t-11 -3h-42
q-7 0 -9.5 2.5t-2.5 8.5v84q0 7 2 9.5t8 2.5h48q10 0 10 -11v-82z" />
    <glyph glyph-name="uni01F2" unicode="&#x1f2;" horiz-adv-x="1140" 
d="M256 741q203 -2 296 -91.5t93 -273.5q0 -191 -99 -283.5t-302 -92.5h-128q-12 0 -12 13v718q0 11 12 11zM179 668v-599q0 -10 12 -10h43q120 0 192 31t106 99.5t34 183.5q0 117 -33.5 183t-101.5 94.5t-182 31.5h-62q-8 0 -8 -14zM703 2q-2 2 -2 8v27q0 7 2 12t8 13
l304 410q6 9 -4 9h-278q-10 0 -10 9v31q0 9 8 9h360q7 0 7 -8v-29q0 -14 -8 -25l-305 -410q-6 -9 3 -9h307q9 0 9 -8v-31q0 -10 -11 -10h-383q-5 0 -7 2z" />
    <glyph glyph-name="uni01C5" unicode="&#x1c5;" horiz-adv-x="1186" 
d="M256 741q203 -2 296 -91.5t93 -273.5q0 -191 -99 -283.5t-302 -92.5h-128q-12 0 -12 13v718q0 11 12 11zM179 668v-599q0 -10 12 -10h43q120 0 192 31t106 99.5t34 183.5q0 117 -33.5 183t-101.5 94.5t-182 31.5h-62q-8 0 -8 -14zM749 2q-2 2 -2 8v27q0 7 2 12t8 13
l304 410q6 9 -4 9h-278q-10 0 -10 9v31q0 9 8 9h360q7 0 7 -8v-29q0 -14 -8 -25l-305 -410q-6 -9 3 -9h307q9 0 9 -8v-31q0 -10 -11 -10h-383q-5 0 -7 2zM1046 742h52q7 0 7 -3t-6 -8l-100 -88q-2 -1 -6.5 -5t-11.5 -4h-31q-10 0 -22 10l-102 87q-4 4 -4 7q0 4 7 4h47
q5 0 8.5 -1.5t8.5 -4.5l59 -49q8 -7 11 -7t10 7l56 49q9 6 17 6z" />
    <glyph glyph-name="E" unicode="E" horiz-adv-x="622" 
d="M106.5 739.5q2.5 2.5 8.5 2.5h435q9 0 9 -9l-1 -41q0 -6 -2 -8t-8 -2h-357q-7 0 -9.5 -2t-2.5 -9v-257q0 -6 2.5 -8t8.5 -2h271q5 0 7 -2t2 -7v-42q0 -5 -2 -6.5t-7 -1.5h-272q-5 0 -7.5 -2t-2.5 -8v-265q0 -6 2 -8t8 -2h373q6 0 8.5 -1.5t2.5 -7.5v-42q0 -9 -10 -9h-447
q-7 0 -9.5 2.5t-2.5 9.5v718q0 7 2.5 9.5z" />
    <glyph glyph-name="Eacute" unicode="&#xc9;" horiz-adv-x="622" 
d="M106.5 739.5q2.5 2.5 8.5 2.5h435q9 0 9 -9l-1 -41q0 -6 -2 -8t-8 -2h-357q-7 0 -9.5 -2t-2.5 -9v-257q0 -6 2.5 -8t8.5 -2h271q5 0 7 -2t2 -7v-42q0 -5 -2 -6.5t-7 -1.5h-272q-5 0 -7.5 -2t-2.5 -8v-265q0 -6 2 -8t8 -2h373q6 0 8.5 -1.5t2.5 -7.5v-42q0 -9 -10 -9h-447
q-7 0 -9.5 2.5t-2.5 9.5v718q0 7 2.5 9.5zM473 919q1 -2 1 -6q0 -6 -10 -10l-228 -73q-2 -1 -6 -1q-7 0 -8 7l-7 20l-1 4q0 6 5 8l230 95h3q5 0 8 -4z" />
    <glyph glyph-name="Ebreve" unicode="&#x114;" horiz-adv-x="622" 
d="M106.5 739.5q2.5 2.5 8.5 2.5h435q9 0 9 -9l-1 -41q0 -6 -2 -8t-8 -2h-357q-7 0 -9.5 -2t-2.5 -9v-257q0 -6 2.5 -8t8.5 -2h271q5 0 7 -2t2 -7v-42q0 -5 -2 -6.5t-7 -1.5h-272q-5 0 -7.5 -2t-2.5 -8v-265q0 -6 2 -8t8 -2h373q6 0 8.5 -1.5t2.5 -7.5v-42q0 -9 -10 -9h-447
q-7 0 -9.5 2.5t-2.5 9.5v718q0 7 2.5 9.5zM484 952q2 -2 0 -8q-10 -36 -48 -63.5t-94 -27.5q-55 0 -90.5 27t-47.5 65v3q0 6 6 6h41q9 0 14 -8q16 -21 31.5 -32.5t45.5 -11.5q52 0 81 45q2 4 4.5 5.5t6.5 1.5h42q6 0 8 -2z" />
    <glyph glyph-name="Ecaron" unicode="&#x11a;" horiz-adv-x="622" 
d="M106.5 739.5q2.5 2.5 8.5 2.5h435q9 0 9 -9l-1 -41q0 -6 -2 -8t-8 -2h-357q-7 0 -9.5 -2t-2.5 -9v-257q0 -6 2.5 -8t8.5 -2h271q5 0 7 -2t2 -7v-42q0 -5 -2 -6.5t-7 -1.5h-272q-5 0 -7.5 -2t-2.5 -8v-265q0 -6 2 -8t8 -2h373q6 0 8.5 -1.5t2.5 -7.5v-42q0 -9 -10 -9h-447
q-7 0 -9.5 2.5t-2.5 9.5v718q0 7 2.5 9.5zM427 954h52q7 0 7 -3t-6 -8l-100 -88q-2 -1 -6.5 -5t-11.5 -4h-31q-10 0 -22 10l-102 87q-4 4 -4 7q0 4 7 4h47q5 0 8.5 -1.5t8.5 -4.5l59 -49q8 -7 11 -7t10 7l56 49q9 6 17 6z" />
    <glyph glyph-name="Ecircumflex" unicode="&#xca;" horiz-adv-x="622" 
d="M106.5 739.5q2.5 2.5 8.5 2.5h435q9 0 9 -9l-1 -41q0 -6 -2 -8t-8 -2h-357q-7 0 -9.5 -2t-2.5 -9v-257q0 -6 2.5 -8t8.5 -2h271q5 0 7 -2t2 -7v-42q0 -5 -2 -6.5t-7 -1.5h-272q-5 0 -7.5 -2t-2.5 -8v-265q0 -6 2 -8t8 -2h373q6 0 8.5 -1.5t2.5 -7.5v-42q0 -9 -10 -9h-447
q-7 0 -9.5 2.5t-2.5 9.5v718q0 7 2.5 9.5zM354 904q-7 7 -10 7t-11 -7l-59 -49q-5 -4 -8 -5.5t-9 -1.5h-47q-6 0 -7 3t4 8l102 87q10 10 22 10h31q7 0 12 -4t6 -5l100 -88q13 -11 -1 -11h-52q-9 0 -17 7z" />
    <glyph glyph-name="uni0204" unicode="&#x204;" horiz-adv-x="622" 
d="M106.5 739.5q2.5 2.5 8.5 2.5h435q9 0 9 -9l-1 -41q0 -6 -2 -8t-8 -2h-357q-7 0 -9.5 -2t-2.5 -9v-257q0 -6 2.5 -8t8.5 -2h271q5 0 7 -2t2 -7v-42q0 -5 -2 -6.5t-7 -1.5h-272q-5 0 -7.5 -2t-2.5 -8v-265q0 -6 2 -8t8 -2h373q6 0 8.5 -1.5t2.5 -7.5v-42q0 -9 -10 -9h-447
q-7 0 -9.5 2.5t-2.5 9.5v718q0 7 2.5 9.5zM182 962l121 -134q5 -7 -1 -12l-13 -17q-3 -5 -7 -5q-2 0 -8 4l-127 114q-7 4 -7 9q0 2 4 8l26 32q6 6 12 1zM335 962l120 -134q7 -7 0 -12l-13 -17q-3 -5 -7 -5q-2 0 -8 4l-127 114q-7 4 -7 9q0 2 4 8l26 32q6 6 12 1z" />
    <glyph glyph-name="Edieresis" unicode="&#xcb;" horiz-adv-x="622" 
d="M106.5 739.5q2.5 2.5 8.5 2.5h435q9 0 9 -9l-1 -41q0 -6 -2 -8t-8 -2h-357q-7 0 -9.5 -2t-2.5 -9v-257q0 -6 2.5 -8t8.5 -2h271q5 0 7 -2t2 -7v-42q0 -5 -2 -6.5t-7 -1.5h-272q-5 0 -7.5 -2t-2.5 -8v-265q0 -6 2 -8t8 -2h373q6 0 8.5 -1.5t2.5 -7.5v-42q0 -9 -10 -9h-447
q-7 0 -9.5 2.5t-2.5 9.5v718q0 7 2.5 9.5zM313 863q0 -8 -3 -11t-12 -3h-42q-8 0 -10.5 2.5t-2.5 9.5v81q0 12 10 12h50q10 0 10 -11v-80zM445 863q0 -8 -3.5 -11t-11.5 -3h-42q-8 0 -10.5 2.5t-2.5 9.5v81q0 12 10 12h49q11 0 11 -11v-80z" />
    <glyph glyph-name="Edotaccent" unicode="&#x116;" horiz-adv-x="622" 
d="M106.5 739.5q2.5 2.5 8.5 2.5h435q9 0 9 -9l-1 -41q0 -6 -2 -8t-8 -2h-357q-7 0 -9.5 -2t-2.5 -9v-257q0 -6 2.5 -8t8.5 -2h271q5 0 7 -2t2 -7v-42q0 -5 -2 -6.5t-7 -1.5h-272q-5 0 -7.5 -2t-2.5 -8v-265q0 -6 2 -8t8 -2h373q6 0 8.5 -1.5t2.5 -7.5v-42q0 -9 -10 -9h-447
q-7 0 -9.5 2.5t-2.5 9.5v718q0 7 2.5 9.5zM381 859q0 -8 -3 -11t-12 -3h-46q-7 0 -10 2.5t-3 9.5v85q0 7 2.5 9.5t8.5 2.5h53q6 0 8 -2.5t2 -9.5v-83z" />
    <glyph glyph-name="uni1EB8" unicode="&#x1eb8;" horiz-adv-x="622" 
d="M106.5 739.5q2.5 2.5 8.5 2.5h435q9 0 9 -9l-1 -41q0 -6 -2 -8t-8 -2h-357q-7 0 -9.5 -2t-2.5 -9v-257q0 -6 2.5 -8t8.5 -2h271q5 0 7 -2t2 -7v-42q0 -5 -2 -6.5t-7 -1.5h-272q-5 0 -7.5 -2t-2.5 -8v-265q0 -6 2 -8t8 -2h373q6 0 8.5 -1.5t2.5 -7.5v-42q0 -9 -10 -9h-447
q-7 0 -9.5 2.5t-2.5 9.5v718q0 7 2.5 9.5zM382 -151q0 -8 -3 -11t-11 -3h-42q-7 0 -9.5 2.5t-2.5 8.5v84q0 7 2 9.5t8 2.5h48q10 0 10 -11v-82z" />
    <glyph glyph-name="Egrave" unicode="&#xc8;" horiz-adv-x="622" 
d="M106.5 739.5q2.5 2.5 8.5 2.5h435q9 0 9 -9l-1 -41q0 -6 -2 -8t-8 -2h-357q-7 0 -9.5 -2t-2.5 -9v-257q0 -6 2.5 -8t8.5 -2h271q5 0 7 -2t2 -7v-42q0 -5 -2 -6.5t-7 -1.5h-272q-5 0 -7.5 -2t-2.5 -8v-265q0 -6 2 -8t8 -2h373q6 0 8.5 -1.5t2.5 -7.5v-42q0 -9 -10 -9h-447
q-7 0 -9.5 2.5t-2.5 9.5v718q0 7 2.5 9.5zM223 963l231 -95q7 -3 4 -12l-7 -20q-2 -5 -5 -6.5t-9 0.5l-228 73q-7 3 -9 6.5t0 9.5l13 40q3 6 10 4z" />
    <glyph glyph-name="uni0206" unicode="&#x206;" horiz-adv-x="622" 
d="M106.5 739.5q2.5 2.5 8.5 2.5h435q9 0 9 -9l-1 -41q0 -6 -2 -8t-8 -2h-357q-7 0 -9.5 -2t-2.5 -9v-257q0 -6 2.5 -8t8.5 -2h271q5 0 7 -2t2 -7v-42q0 -5 -2 -6.5t-7 -1.5h-272q-5 0 -7.5 -2t-2.5 -8v-265q0 -6 2 -8t8 -2h373q6 0 8.5 -1.5t2.5 -7.5v-42q0 -9 -10 -9h-447
q-7 0 -9.5 2.5t-2.5 9.5v718q0 7 2.5 9.5zM434 859q-4 0 -6.5 1.5t-4.5 5.5q-29 45 -81 45q-30 0 -45.5 -11.5t-31.5 -32.5q-5 -8 -14 -8h-41q-8 0 -6 9q12 38 47.5 65t90.5 27q56 0 94 -27.5t48 -63.5q1 -2 1 -5q0 -5 -9 -5h-42z" />
    <glyph glyph-name="Emacron" unicode="&#x112;" horiz-adv-x="622" 
d="M106.5 739.5q2.5 2.5 8.5 2.5h435q9 0 9 -9l-1 -41q0 -6 -2 -8t-8 -2h-357q-7 0 -9.5 -2t-2.5 -9v-257q0 -6 2.5 -8t8.5 -2h271q5 0 7 -2t2 -7v-42q0 -5 -2 -6.5t-7 -1.5h-272q-5 0 -7.5 -2t-2.5 -8v-265q0 -6 2 -8t8 -2h373q6 0 8.5 -1.5t2.5 -7.5v-42q0 -9 -10 -9h-447
q-7 0 -9.5 2.5t-2.5 9.5v718q0 7 2.5 9.5zM483 896q0 -11 -13 -11h-256q-9 0 -9 11v32q0 9 7 9h264q7 0 7 -8v-33z" />
    <glyph glyph-name="Eogonek" unicode="&#x118;" horiz-adv-x="622" 
d="M594 -120v-25q0 -7 -6 -10q-14 -6 -37 -11t-46 -5q-48 0 -72.5 21t-24.5 58q0 30 19 53t64 39h-375q-7 0 -9.5 2.5t-2.5 9.5v718q0 7 2.5 9.5t8.5 2.5h435q9 0 9 -9l-1 -41q0 -6 -2 -8t-8 -2h-357q-7 0 -9.5 -2t-2.5 -9v-257q0 -6 2.5 -8t8.5 -2h271q5 0 7 -2t2 -7v-42
q0 -5 -2 -6.5t-7 -1.5h-272q-5 0 -7.5 -2t-2.5 -8v-265q0 -6 2 -8t8 -2h373q6 0 8.5 -1.5t2.5 -7.5v-42q0 -8 -8 -9q-52 -23 -75 -42.5t-23 -46.5q0 -40 53 -40q20 0 37 4t27 9q10 6 10 -4z" />
    <glyph glyph-name="uni1EBC" unicode="&#x1ebc;" horiz-adv-x="622" 
d="M106.5 739.5q2.5 2.5 8.5 2.5h435q9 0 9 -9l-1 -41q0 -6 -2 -8t-8 -2h-357q-7 0 -9.5 -2t-2.5 -9v-257q0 -6 2.5 -8t8.5 -2h271q5 0 7 -2t2 -7v-42q0 -5 -2 -6.5t-7 -1.5h-272q-5 0 -7.5 -2t-2.5 -8v-265q0 -6 2 -8t8 -2h373q6 0 8.5 -1.5t2.5 -7.5v-42q0 -9 -10 -9h-447
q-7 0 -9.5 2.5t-2.5 9.5v718q0 7 2.5 9.5zM407 875q-19 0 -34 3.5t-34 10.5q-3 1 -20 6t-34 5t-28 -4.5t-19.5 -9.5t-11.5 -7l-6 -3q-4 0 -7 8l-8 22q-2 5 -1.5 7t4.5 4q18 14 34 21.5t39 7.5q25 0 65 -14q4 -1 23 -7t38 -6q16 0 26.5 4t28.5 14q4 3 7 3q4 0 7 -7l9 -25
l1 -4q0 -5 -7 -9q-31 -20 -72 -20z" />
    <glyph glyph-name="F" unicode="F" horiz-adv-x="594" 
d="M106.5 739.5q2.5 2.5 8.5 2.5h425q9 0 9 -9v-41q0 -6 -2.5 -8t-8.5 -2h-347q-7 0 -9.5 -2t-2.5 -9v-270q0 -5 2.5 -7t8.5 -2h280q9 0 9 -9v-41q0 -5 -2 -7t-8 -2h-280q-5 0 -7.5 -2t-2.5 -8v-312q0 -11 -11 -11h-52q-7 0 -9.5 2.5t-2.5 9.5v718q0 7 2.5 9.5z" />
    <glyph glyph-name="G" unicode="G" horiz-adv-x="735" 
d="M211.5 35.5q-68.5 45.5 -105 130.5t-36.5 202q0 120 37.5 206.5t107 132t162.5 45.5q64 0 122.5 -27.5t96.5 -73t45 -96.5v-6q0 -6 -6 -7l-57 -9h-2q-5 0 -7 8q-12 64 -65.5 107.5t-127.5 43.5q-110 0 -168.5 -82.5t-58.5 -235.5q0 -160 58.5 -241.5t170.5 -81.5
q66 0 113 30t71 75.5t26 92.5v67v2q0 8 -10 8h-174q-9 0 -9 8v35q0 8 7 8h244q11 0 11 -10v-355q0 -12 -11 -12h-21q-7 0 -11 2t-5 9l-6 98q-1 5 -3.5 5t-5.5 -5q-31 -53 -86 -86t-134 -33q-94 0 -162.5 45.5z" />
    <glyph glyph-name="uni01F4" unicode="&#x1f4;" horiz-adv-x="735" 
d="M211.5 35.5q-68.5 45.5 -105 130.5t-36.5 202q0 120 37.5 206.5t107 132t162.5 45.5q64 0 122.5 -27.5t96.5 -73t45 -96.5v-6q0 -6 -6 -7l-57 -9h-2q-5 0 -7 8q-12 64 -65.5 107.5t-127.5 43.5q-110 0 -168.5 -82.5t-58.5 -235.5q0 -160 58.5 -241.5t170.5 -81.5
q66 0 113 30t71 75.5t26 92.5v67v2q0 8 -10 8h-174q-9 0 -9 8v35q0 8 7 8h244q11 0 11 -10v-355q0 -12 -11 -12h-21q-7 0 -11 2t-5 9l-6 98q-1 5 -3.5 5t-5.5 -5q-31 -53 -86 -86t-134 -33q-94 0 -162.5 45.5zM504 919q1 -2 1 -6q0 -6 -10 -10l-228 -73q-2 -1 -6 -1
q-7 0 -8 7l-7 20l-1 4q0 6 5 8l230 95h3q5 0 8 -4z" />
    <glyph glyph-name="Gbreve" unicode="&#x11e;" horiz-adv-x="735" 
d="M211.5 35.5q-68.5 45.5 -105 130.5t-36.5 202q0 120 37.5 206.5t107 132t162.5 45.5q64 0 122.5 -27.5t96.5 -73t45 -96.5v-6q0 -6 -6 -7l-57 -9h-2q-5 0 -7 8q-12 64 -65.5 107.5t-127.5 43.5q-110 0 -168.5 -82.5t-58.5 -235.5q0 -160 58.5 -241.5t170.5 -81.5
q66 0 113 30t71 75.5t26 92.5v67v2q0 8 -10 8h-174q-9 0 -9 8v35q0 8 7 8h244q11 0 11 -10v-355q0 -12 -11 -12h-21q-7 0 -11 2t-5 9l-6 98q-1 5 -3.5 5t-5.5 -5q-31 -53 -86 -86t-134 -33q-94 0 -162.5 45.5zM515 952q2 -2 0 -8q-10 -36 -48 -63.5t-94 -27.5
q-55 0 -90.5 27t-47.5 65v3q0 6 6 6h41q9 0 14 -8q16 -21 31.5 -32.5t45.5 -11.5q52 0 81 45q2 4 4.5 5.5t6.5 1.5h42q6 0 8 -2z" />
    <glyph glyph-name="Gcircumflex" unicode="&#x11c;" horiz-adv-x="735" 
d="M211.5 35.5q-68.5 45.5 -105 130.5t-36.5 202q0 120 37.5 206.5t107 132t162.5 45.5q64 0 122.5 -27.5t96.5 -73t45 -96.5v-6q0 -6 -6 -7l-57 -9h-2q-5 0 -7 8q-12 64 -65.5 107.5t-127.5 43.5q-110 0 -168.5 -82.5t-58.5 -235.5q0 -160 58.5 -241.5t170.5 -81.5
q66 0 113 30t71 75.5t26 92.5v67v2q0 8 -10 8h-174q-9 0 -9 8v35q0 8 7 8h244q11 0 11 -10v-355q0 -12 -11 -12h-21q-7 0 -11 2t-5 9l-6 98q-1 5 -3.5 5t-5.5 -5q-31 -53 -86 -86t-134 -33q-94 0 -162.5 45.5zM385 904q-7 7 -10 7t-11 -7l-59 -49q-5 -4 -8 -5.5t-9 -1.5h-47
q-6 0 -7 3t4 8l102 87q10 10 22 10h31q7 0 12 -4t6 -5l100 -88q13 -11 -1 -11h-52q-9 0 -17 7z" />
    <glyph glyph-name="Gcommaaccent" unicode="&#x122;" horiz-adv-x="735" 
d="M211.5 35.5q-68.5 45.5 -105 130.5t-36.5 202q0 120 37.5 206.5t107 132t162.5 45.5q64 0 122.5 -27.5t96.5 -73t45 -96.5v-6q0 -6 -6 -7l-57 -9h-2q-5 0 -7 8q-12 64 -65.5 107.5t-127.5 43.5q-110 0 -168.5 -82.5t-58.5 -235.5q0 -160 58.5 -241.5t170.5 -81.5
q66 0 113 30t71 75.5t26 92.5v67v2q0 8 -10 8h-174q-9 0 -9 8v35q0 8 7 8h244q11 0 11 -10v-355q0 -12 -11 -12h-21q-7 0 -11 2t-5 9l-6 98q-1 5 -3.5 5t-5.5 -5q-31 -53 -86 -86t-134 -33q-94 0 -162.5 45.5zM343.5 -234.5q-1.5 3.5 0.5 6.5l26 53q3 3 3 7q0 5 -7 5h-9
q-10 0 -10 11v65q0 10 9 10h53q8 0 8 -8v-78q0 -2 -1 -4t-1 -3l-35 -60q-2 -5 -6 -6.5t-11 -1.5h-14q-4 0 -5.5 3.5z" />
    <glyph glyph-name="Gdotaccent" unicode="&#x120;" horiz-adv-x="735" 
d="M211.5 35.5q-68.5 45.5 -105 130.5t-36.5 202q0 120 37.5 206.5t107 132t162.5 45.5q64 0 122.5 -27.5t96.5 -73t45 -96.5v-6q0 -6 -6 -7l-57 -9h-2q-5 0 -7 8q-12 64 -65.5 107.5t-127.5 43.5q-110 0 -168.5 -82.5t-58.5 -235.5q0 -160 58.5 -241.5t170.5 -81.5
q66 0 113 30t71 75.5t26 92.5v67v2q0 8 -10 8h-174q-9 0 -9 8v35q0 8 7 8h244q11 0 11 -10v-355q0 -12 -11 -12h-21q-7 0 -11 2t-5 9l-6 98q-1 5 -3.5 5t-5.5 -5q-31 -53 -86 -86t-134 -33q-94 0 -162.5 45.5zM412 859q0 -8 -3 -11t-12 -3h-46q-7 0 -10 2.5t-3 9.5v85
q0 7 2.5 9.5t8.5 2.5h53q6 0 8 -2.5t2 -9.5v-83z" />
    <glyph glyph-name="H" unicode="H" horiz-adv-x="731" 
d="M187 355q-4 0 -6 -2.5t-2 -5.5v-335q0 -12 -13 -12h-50q-12 0 -12 12v718q0 7 2.5 9.5t8.5 2.5h54q6 0 8 -2.5t2 -9.5v-303q0 -7 2.5 -9t8.5 -2h352q10 0 10 10v305q0 11 9 11h55q6 0 8.5 -2.5t2.5 -9.5v-718q0 -12 -12 -12h-50q-13 0 -13 12v334q0 9 -9 9h-356z" />
    <glyph glyph-name="Hbar" unicode="&#x126;" horiz-adv-x="722" 
d="M718 615v-28q0 -13 -16 -13h-72v-562q0 -12 -12 -12h-50q-13 0 -13 12v334q0 9 -9 9h-356q-4 0 -6 -2.5t-2 -5.5v-335q0 -12 -13 -12h-50q-12 0 -12 12v562h-91q-12 0 -12 12v28q0 11 9 11h94v105q0 7 2.5 9.5t8.5 2.5h54q6 0 8 -2.5t2 -9.5v-105h373v106q0 11 9 11h55
q6 0 8.5 -2.5t2.5 -9.5v-105h79q9 0 9 -10zM555 574h-373v-147q0 -7 2.5 -9t8.5 -2h352q10 0 10 10v148z" />
    <glyph glyph-name="Hcircumflex" unicode="&#x124;" horiz-adv-x="731" 
d="M187 355q-4 0 -6 -2.5t-2 -5.5v-335q0 -12 -13 -12h-50q-12 0 -12 12v718q0 7 2.5 9.5t8.5 2.5h54q6 0 8 -2.5t2 -9.5v-303q0 -7 2.5 -9t8.5 -2h352q10 0 10 10v305q0 11 9 11h55q6 0 8.5 -2.5t2.5 -9.5v-718q0 -12 -12 -12h-50q-13 0 -13 12v334q0 9 -9 9h-356zM376 904
q-7 7 -10 7t-11 -7l-59 -49q-5 -4 -8 -5.5t-9 -1.5h-47q-6 0 -7 3t4 8l102 87q10 10 22 10h31q7 0 12 -4t6 -5l100 -88q13 -11 -1 -11h-52q-9 0 -17 7z" />
    <glyph glyph-name="uni1E24" unicode="&#x1e24;" horiz-adv-x="731" 
d="M187 355q-4 0 -6 -2.5t-2 -5.5v-335q0 -12 -13 -12h-50q-12 0 -12 12v718q0 7 2.5 9.5t8.5 2.5h54q6 0 8 -2.5t2 -9.5v-303q0 -7 2.5 -9t8.5 -2h352q10 0 10 10v305q0 11 9 11h55q6 0 8.5 -2.5t2.5 -9.5v-718q0 -12 -12 -12h-50q-13 0 -13 12v334q0 9 -9 9h-356z
M399 -151q0 -8 -3 -11t-11 -3h-42q-7 0 -9.5 2.5t-2.5 8.5v84q0 7 2 9.5t8 2.5h48q10 0 10 -11v-82z" />
    <glyph glyph-name="I" unicode="I" horiz-adv-x="283" 
d="M169 742q6 0 8 -2.5t2 -9.5v-715q0 -9 -3 -12t-12 -3h-46q-8 0 -11 2.5t-3 9.5v718q0 7 2.5 9.5t8.5 2.5h54z" />
    <glyph glyph-name="IJ" unicode="&#x132;" horiz-adv-x="693" 
d="M169 742q6 0 8 -2.5t2 -9.5v-715q0 -9 -3 -12t-12 -3h-46q-8 0 -11 2.5t-3 9.5v718q0 7 2.5 9.5t8.5 2.5h54zM557.5 31.5q-35.5 -41.5 -112.5 -41.5q-34 0 -63.5 7.5t-46.5 15.5q-10 3 -8 14l9 45q1 10 10 7q5 -2 19 -8.5t30.5 -10t36.5 -3.5q48 0 67 25t19 91v558
q0 11 10 11h56q9 0 9 -12v-575q0 -82 -35.5 -123.5z" />
    <glyph glyph-name="Iacute" unicode="&#xcd;" horiz-adv-x="283" 
d="M169 742q6 0 8 -2.5t2 -9.5v-715q0 -9 -3 -12t-12 -3h-46q-8 0 -11 2.5t-3 9.5v718q0 7 2.5 9.5t8.5 2.5h54zM273 919q1 -2 1 -6q0 -6 -10 -10l-228 -73q-2 -1 -6 -1q-7 0 -8 7l-7 20l-1 4q0 6 5 8l230 95h3q5 0 8 -4z" />
    <glyph glyph-name="Ibreve" unicode="&#x12c;" horiz-adv-x="283" 
d="M169 742q6 0 8 -2.5t2 -9.5v-715q0 -9 -3 -12t-12 -3h-46q-8 0 -11 2.5t-3 9.5v718q0 7 2.5 9.5t8.5 2.5h54zM284 952q2 -2 0 -8q-10 -36 -48 -63.5t-94 -27.5q-55 0 -90.5 27t-47.5 65v3q0 6 6 6h41q9 0 14 -8q16 -21 31.5 -32.5t45.5 -11.5q52 0 81 45q2 4 4.5 5.5
t6.5 1.5h42q6 0 8 -2z" />
    <glyph glyph-name="Icircumflex" unicode="&#xce;" horiz-adv-x="283" 
d="M169 742q6 0 8 -2.5t2 -9.5v-715q0 -9 -3 -12t-12 -3h-46q-8 0 -11 2.5t-3 9.5v718q0 7 2.5 9.5t8.5 2.5h54zM154 904q-7 7 -10 7t-11 -7l-59 -49q-5 -4 -8 -5.5t-9 -1.5h-47q-6 0 -7 3t4 8l102 87q10 10 22 10h31q7 0 12 -4t6 -5l100 -88q13 -11 -1 -11h-52q-9 0 -17 7z
" />
    <glyph glyph-name="uni0208" unicode="&#x208;" horiz-adv-x="283" 
d="M169 742q6 0 8 -2.5t2 -9.5v-715q0 -9 -3 -12t-12 -3h-46q-8 0 -11 2.5t-3 9.5v718q0 7 2.5 9.5t8.5 2.5h54zM-18 962l121 -134q5 -7 -1 -12l-13 -17q-3 -5 -7 -5q-2 0 -8 4l-127 114q-7 4 -7 9q0 2 4 8l26 32q6 6 12 1zM135 962l120 -134q7 -7 0 -12l-13 -17
q-3 -5 -7 -5q-2 0 -8 4l-127 114q-7 4 -7 9q0 2 4 8l26 32q6 6 12 1z" />
    <glyph glyph-name="Idieresis" unicode="&#xcf;" horiz-adv-x="283" 
d="M169 742q6 0 8 -2.5t2 -9.5v-715q0 -9 -3 -12t-12 -3h-46q-8 0 -11 2.5t-3 9.5v718q0 7 2.5 9.5t8.5 2.5h54zM113 863q0 -8 -3 -11t-12 -3h-42q-8 0 -10.5 2.5t-2.5 9.5v81q0 12 10 12h50q10 0 10 -11v-80zM245 863q0 -8 -3.5 -11t-11.5 -3h-42q-8 0 -10.5 2.5t-2.5 9.5
v81q0 12 10 12h49q11 0 11 -11v-80z" />
    <glyph glyph-name="Idotaccent" unicode="&#x130;" horiz-adv-x="283" 
d="M169 742q6 0 8 -2.5t2 -9.5v-715q0 -9 -3 -12t-12 -3h-46q-8 0 -11 2.5t-3 9.5v718q0 7 2.5 9.5t8.5 2.5h54zM181 859q0 -8 -3 -11t-12 -3h-46q-7 0 -10 2.5t-3 9.5v85q0 7 2.5 9.5t8.5 2.5h53q6 0 8 -2.5t2 -9.5v-83z" />
    <glyph glyph-name="uni1ECA" unicode="&#x1eca;" horiz-adv-x="283" 
d="M169 742q6 0 8 -2.5t2 -9.5v-715q0 -9 -3 -12t-12 -3h-46q-8 0 -11 2.5t-3 9.5v718q0 7 2.5 9.5t8.5 2.5h54zM176 -151q0 -8 -3 -11t-11 -3h-42q-7 0 -9.5 2.5t-2.5 8.5v84q0 7 2 9.5t8 2.5h48q10 0 10 -11v-82z" />
    <glyph glyph-name="Igrave" unicode="&#xcc;" horiz-adv-x="283" 
d="M169 742q6 0 8 -2.5t2 -9.5v-715q0 -9 -3 -12t-12 -3h-46q-8 0 -11 2.5t-3 9.5v718q0 7 2.5 9.5t8.5 2.5h54zM23 963l231 -95q7 -3 4 -12l-7 -20q-2 -5 -5 -6.5t-9 0.5l-228 73q-7 3 -9 6.5t0 9.5l13 40q3 6 10 4z" />
    <glyph glyph-name="uni020A" unicode="&#x20a;" horiz-adv-x="283" 
d="M169 742q6 0 8 -2.5t2 -9.5v-715q0 -9 -3 -12t-12 -3h-46q-8 0 -11 2.5t-3 9.5v718q0 7 2.5 9.5t8.5 2.5h54zM234 859q-4 0 -6.5 1.5t-4.5 5.5q-29 45 -81 45q-30 0 -45.5 -11.5t-31.5 -32.5q-5 -8 -14 -8h-41q-8 0 -6 9q12 38 47.5 65t90.5 27q56 0 94 -27.5t48 -63.5
q1 -2 1 -5q0 -5 -9 -5h-42z" />
    <glyph glyph-name="Imacron" unicode="&#x12a;" horiz-adv-x="283" 
d="M169 742q6 0 8 -2.5t2 -9.5v-715q0 -9 -3 -12t-12 -3h-46q-8 0 -11 2.5t-3 9.5v718q0 7 2.5 9.5t8.5 2.5h54zM283 896q0 -11 -13 -11h-256q-9 0 -9 11v32q0 9 7 9h264q7 0 7 -8v-33z" />
    <glyph glyph-name="Iogonek" unicode="&#x12e;" horiz-adv-x="283" 
d="M202 -119v-25q0 -7 -6 -10q-14 -6 -37 -11t-46 -5q-48 0 -72.5 21t-24.5 58q0 32 20.5 55t69.5 39q-2 4 -2 9v718q0 7 2.5 9.5t8.5 2.5h54q6 0 8 -2.5t2 -9.5v-715q0 -10 -4 -13q-54 -24 -77 -43.5t-23 -46.5q0 -40 53 -40q20 0 37 4t27 9q10 6 10 -4z" />
    <glyph glyph-name="Itilde" unicode="&#x128;" horiz-adv-x="283" 
d="M169 742q6 0 8 -2.5t2 -9.5v-715q0 -9 -3 -12t-12 -3h-46q-8 0 -11 2.5t-3 9.5v718q0 7 2.5 9.5t8.5 2.5h54zM207 875q-19 0 -34 3.5t-34 10.5q-3 1 -20 6t-34 5t-28 -4.5t-19.5 -9.5t-11.5 -7l-6 -3q-4 0 -7 8l-8 22q-2 5 -1.5 7t4.5 4q18 14 34 21.5t39 7.5
q25 0 65 -14q4 -1 23 -7t38 -6q16 0 26.5 4t28.5 14q4 3 7 3q4 0 7 -7l9 -25l1 -4q0 -5 -7 -9q-31 -20 -72 -20z" />
    <glyph glyph-name="J" unicode="J" horiz-adv-x="410" 
d="M274.5 31.5q-35.5 -41.5 -112.5 -41.5q-34 0 -63.5 7.5t-46.5 15.5q-10 3 -8 14l9 45q1 10 10 7q5 -2 19 -8.5t30.5 -10t36.5 -3.5q48 0 67 25t19 91v558q0 11 10 11h56q9 0 9 -12v-575q0 -82 -35.5 -123.5z" />
    <glyph glyph-name="Jcircumflex" unicode="&#x134;" horiz-adv-x="410" 
d="M274.5 31.5q-35.5 -41.5 -112.5 -41.5q-34 0 -63.5 7.5t-46.5 15.5q-10 3 -8 14l9 45q1 10 10 7q5 -2 19 -8.5t30.5 -10t36.5 -3.5q48 0 67 25t19 91v558q0 11 10 11h56q9 0 9 -12v-575q0 -82 -35.5 -123.5zM272 904q-7 7 -10 7t-11 -7l-59 -49q-5 -4 -8 -5.5t-9 -1.5
h-47q-6 0 -7 3t4 8l102 87q10 10 22 10h31q7 0 12 -4t6 -5l100 -88q13 -11 -1 -11h-52q-9 0 -17 7z" />
    <glyph glyph-name="K" unicode="K" horiz-adv-x="690" 
d="M645 5q0 -5 -7 -5h-64q-12 0 -15 7l-236 384q-3 4 -6 4t-8 -5l-122 -137q-5 -5 -6.5 -8.5t-1.5 -9.5v-223q0 -12 -13 -12h-49q-7 0 -10 2.5t-3 9.5v720q0 10 10 10h56q9 0 9 -10v-385q0 -11 9 -2l350 390q4 4 7.5 5.5t9.5 1.5h56q7 0 8.5 -3.5t-2.5 -7.5l-244 -270
q-2 -3 -2 -5t2 -5l270 -440q2 -4 2 -6z" />
    <glyph glyph-name="Kcommaaccent" unicode="&#x136;" horiz-adv-x="690" 
d="M645 5q0 -5 -7 -5h-64q-12 0 -15 7l-236 384q-3 4 -6 4t-8 -5l-122 -137q-5 -5 -6.5 -8.5t-1.5 -9.5v-223q0 -12 -13 -12h-49q-7 0 -10 2.5t-3 9.5v720q0 10 10 10h56q9 0 9 -10v-385q0 -11 9 -2l350 390q4 4 7.5 5.5t9.5 1.5h56q7 0 8.5 -3.5t-2.5 -7.5l-244 -270
q-2 -3 -2 -5t2 -5l270 -440q2 -4 2 -6zM312.5 -234.5q-1.5 3.5 0.5 6.5l26 53q3 3 3 7q0 5 -7 5h-9q-10 0 -10 11v65q0 10 9 10h53q8 0 8 -8v-78q0 -2 -1 -4t-1 -3l-35 -60q-2 -5 -6 -6.5t-11 -1.5h-14q-4 0 -5.5 3.5z" />
    <glyph glyph-name="L" unicode="L" horiz-adv-x="596" 
d="M106.5 739.5q2.5 2.5 8.5 2.5h54q6 0 8 -2.5t2 -9.5v-660q0 -6 2 -8t8 -2h353q6 0 8 -1.5t2 -7.5v-42q0 -9 -10 -9h-426q-12 0 -12 12v718q0 7 2.5 9.5z" />
    <glyph glyph-name="uni01C7" unicode="&#x1c7;" horiz-adv-x="1006" 
d="M106.5 739.5q2.5 2.5 8.5 2.5h54q6 0 8 -2.5t2 -9.5v-660q0 -6 2 -8t8 -2h353q6 0 8 -1.5t2 -7.5v-42q0 -9 -10 -9h-426q-12 0 -12 12v718q0 7 2.5 9.5zM870.5 31.5q-35.5 -41.5 -112.5 -41.5q-34 0 -63.5 7.5t-46.5 15.5q-10 3 -8 14l9 45q1 10 10 7q5 -2 19 -8.5
t30.5 -10t36.5 -3.5q48 0 67 25t19 91v558q0 11 10 11h56q9 0 9 -12v-575q0 -82 -35.5 -123.5z" />
    <glyph glyph-name="Lacute" unicode="&#x139;" horiz-adv-x="596" 
d="M106.5 739.5q2.5 2.5 8.5 2.5h54q6 0 8 -2.5t2 -9.5v-660q0 -6 2 -8t8 -2h353q6 0 8 -1.5t2 -7.5v-42q0 -9 -10 -9h-426q-12 0 -12 12v718q0 7 2.5 9.5zM271 919q1 -2 1 -6q0 -6 -10 -10l-228 -73q-2 -1 -6 -1q-7 0 -8 7l-7 20l-1 4q0 6 5 8l230 95h3q5 0 8 -4z" />
    <glyph glyph-name="Lcaron" unicode="&#x13d;" horiz-adv-x="596" 
d="M106.5 739.5q2.5 2.5 8.5 2.5h54q6 0 8 -2.5t2 -9.5v-660q0 -6 2 -8t8 -2h353q6 0 8 -1.5t2 -7.5v-42q0 -9 -10 -9h-426q-12 0 -12 12v718q0 7 2.5 9.5zM396.5 558q-1.5 3 -0.5 6l30 71q2 6 1.5 8t-4.5 3l-7 1q-5 1 -7 3t-2 6v78q0 8 7 8h52q6 0 6 -7v-88l-1 -5l-34 -78
q-3 -9 -16 -9h-19q-4 0 -5.5 3z" />
    <glyph glyph-name="Lcommaaccent" unicode="&#x13b;" horiz-adv-x="596" 
d="M106.5 739.5q2.5 2.5 8.5 2.5h54q6 0 8 -2.5t2 -9.5v-660q0 -6 2 -8t8 -2h353q6 0 8 -1.5t2 -7.5v-42q0 -9 -10 -9h-426q-12 0 -12 12v718q0 7 2.5 9.5zM274.5 -234.5q-1.5 3.5 0.5 6.5l26 53q3 3 3 7q0 5 -7 5h-9q-10 0 -10 11v65q0 10 9 10h53q8 0 8 -8v-78q0 -2 -1 -4
t-1 -3l-35 -60q-2 -5 -6 -6.5t-11 -1.5h-14q-4 0 -5.5 3.5z" />
    <glyph glyph-name="Ldot" unicode="&#x13f;" horiz-adv-x="616" 
d="M106.5 739.5q2.5 2.5 8.5 2.5h54q6 0 8 -2.5t2 -9.5v-660q0 -6 2 -8t8 -2h353q6 0 8 -1.5t2 -7.5v-42q0 -9 -10 -9h-426q-12 0 -12 12v718q0 7 2.5 9.5zM510 365q0 -7 -3.5 -10t-12.5 -3h-71q-7 0 -9.5 3t-2.5 9v72q0 11 8 11h82q9 0 9 -9v-73z" />
    <glyph glyph-name="uni01C8" unicode="&#x1c8;" horiz-adv-x="828" 
d="M106.5 739.5q2.5 2.5 8.5 2.5h54q6 0 8 -2.5t2 -9.5v-660q0 -6 2 -8t8 -2h353q6 0 8 -1.5t2 -7.5v-42q0 -9 -10 -9h-426q-12 0 -12 12v718q0 7 2.5 9.5zM749 651q0 -9 -3 -13.5t-12 -4.5h-46q-13 0 -13 16v78q0 15 13 15h48q13 0 13 -14v-77zM717 -139q-28 -31 -101 -31
q-25 0 -40.5 0.5t-20 3t-4.5 8.5v34q0 9 8 9l54 2q36 1 51 18.5t15 61.5v551q0 12 12 12h44q10 0 10 -12v-556q0 -70 -28 -101z" />
    <glyph glyph-name="Lslash" unicode="&#x141;" horiz-adv-x="596" 
d="M550 58.5q2 -1.5 2 -7.5v-42q0 -9 -10 -9h-426q-12 0 -12 12v326l-68 -18l-4 -1q-6 0 -6 8v40q0 9 7 11l71 18v334q0 7 2.5 9.5t8.5 2.5h54q6 0 8 -2.5t2 -9.5v-314l156 40h3q7 0 7 -7v-39q0 -9 -8 -10l-158 -42v-288q0 -6 2 -8t8 -2h353q6 0 8 -1.5z" />
    <glyph glyph-name="M" unicode="M" horiz-adv-x="895" 
d="M104 13v717q0 7 2.5 9.5t8.5 2.5h67q7 0 10.5 -2t5.5 -8l240 -612q5 -10 8 -10t8 10l242 611q3 11 13 11h72q10 0 10 -12v-717q0 -13 -13 -13h-50q-7 0 -9.5 2.5t-2.5 9.5v590q0 4 -2 3.5t-3 -3.5l-232 -590q-4 -12 -17 -12h-40q-8 0 -12.5 2.5t-7.5 8.5l-227 585
q-1 5 -3 5t-2 -5v-585q0 -6 -2.5 -8.5t-9.5 -2.5h-42q-12 0 -12 13z" />
    <glyph glyph-name="N" unicode="N" horiz-adv-x="756" 
d="M642 742q6 0 8 -2.5t2 -8.5v-720q0 -11 -11 -11h-35h-5q-10 0 -15 7l-403 590q-5 7 -8.5 6t-3.5 -7v-585q0 -11 -12 -11h-43q-7 0 -9.5 2.5t-2.5 9.5v718q0 7 2.5 9.5t8.5 2.5h42q7 0 10.5 -1.5t7.5 -7.5l396 -582q5 -6 9 -6q2 0 4 2.5t2 6.5v577q0 11 10 11h46z" />
    <glyph glyph-name="uni01CA" unicode="&#x1ca;" horiz-adv-x="1166" 
d="M642 742q6 0 8 -2.5t2 -8.5v-720q0 -11 -11 -11h-35h-5q-10 0 -15 7l-403 590q-5 7 -8.5 6t-3.5 -7v-585q0 -11 -12 -11h-43q-7 0 -9.5 2.5t-2.5 9.5v718q0 7 2.5 9.5t8.5 2.5h42q7 0 10.5 -1.5t7.5 -7.5l396 -582q5 -6 9 -6q2 0 4 2.5t2 6.5v577q0 11 10 11h46z
M1030.5 31.5q-35.5 -41.5 -112.5 -41.5q-34 0 -63.5 7.5t-46.5 15.5q-10 3 -8 14l9 45q1 10 10 7q5 -2 19 -8.5t30.5 -10t36.5 -3.5q48 0 67 25t19 91v558q0 11 10 11h56q9 0 9 -12v-575q0 -82 -35.5 -123.5z" />
    <glyph glyph-name="Nacute" unicode="&#x143;" horiz-adv-x="756" 
d="M642 742q6 0 8 -2.5t2 -8.5v-720q0 -11 -11 -11h-35h-5q-10 0 -15 7l-403 590q-5 7 -8.5 6t-3.5 -7v-585q0 -11 -12 -11h-43q-7 0 -9.5 2.5t-2.5 9.5v718q0 7 2.5 9.5t8.5 2.5h42q7 0 10.5 -1.5t7.5 -7.5l396 -582q5 -6 9 -6q2 0 4 2.5t2 6.5v577q0 11 10 11h46zM521 919
q1 -2 1 -6q0 -6 -10 -10l-228 -73q-2 -1 -6 -1q-7 0 -8 7l-7 20l-1 4q0 6 5 8l230 95h3q5 0 8 -4z" />
    <glyph glyph-name="Ncaron" unicode="&#x147;" horiz-adv-x="756" 
d="M642 742q6 0 8 -2.5t2 -8.5v-720q0 -11 -11 -11h-35h-5q-10 0 -15 7l-403 590q-5 7 -8.5 6t-3.5 -7v-585q0 -11 -12 -11h-43q-7 0 -9.5 2.5t-2.5 9.5v718q0 7 2.5 9.5t8.5 2.5h42q7 0 10.5 -1.5t7.5 -7.5l396 -582q5 -6 9 -6q2 0 4 2.5t2 6.5v577q0 11 10 11h46zM475 954
h52q7 0 7 -3t-6 -8l-100 -88q-2 -1 -6.5 -5t-11.5 -4h-31q-10 0 -22 10l-102 87q-4 4 -4 7q0 4 7 4h47q5 0 8.5 -1.5t8.5 -4.5l59 -49q8 -7 11 -7t10 7l56 49q9 6 17 6z" />
    <glyph glyph-name="Ncommaaccent" unicode="&#x145;" horiz-adv-x="756" 
d="M642 742q6 0 8 -2.5t2 -8.5v-720q0 -11 -11 -11h-35h-5q-10 0 -15 7l-403 590q-5 7 -8.5 6t-3.5 -7v-585q0 -11 -12 -11h-43q-7 0 -9.5 2.5t-2.5 9.5v718q0 7 2.5 9.5t8.5 2.5h42q7 0 10.5 -1.5t7.5 -7.5l396 -582q5 -6 9 -6q2 0 4 2.5t2 6.5v577q0 11 10 11h46z
M327.5 -234.5q-1.5 3.5 0.5 6.5l26 53q3 3 3 7q0 5 -7 5h-9q-10 0 -10 11v65q0 10 9 10h53q8 0 8 -8v-78q0 -2 -1 -4t-1 -3l-35 -60q-2 -5 -6 -6.5t-11 -1.5h-14q-4 0 -5.5 3.5z" />
    <glyph glyph-name="uni1E44" unicode="&#x1e44;" horiz-adv-x="756" 
d="M642 742q6 0 8 -2.5t2 -8.5v-720q0 -11 -11 -11h-35h-5q-10 0 -15 7l-403 590q-5 7 -8.5 6t-3.5 -7v-585q0 -11 -12 -11h-43q-7 0 -9.5 2.5t-2.5 9.5v718q0 7 2.5 9.5t8.5 2.5h42q7 0 10.5 -1.5t7.5 -7.5l396 -582q5 -6 9 -6q2 0 4 2.5t2 6.5v577q0 11 10 11h46zM429 859
q0 -8 -3 -11t-12 -3h-46q-7 0 -10 2.5t-3 9.5v85q0 7 2.5 9.5t8.5 2.5h53q6 0 8 -2.5t2 -9.5v-83z" />
    <glyph glyph-name="Eng" unicode="&#x14a;" horiz-adv-x="756" 
d="M650 739.5q2 -2.5 2 -8.5v-762q0 -71 -34.5 -107.5t-109.5 -36.5q-28 0 -52.5 5t-36.5 10q-9 3 -9 14l4 39q2 11 11 8q32 -12 69 -12q41 0 62 20.5t21 70.5v46l-397 573q-9 13 -9 0v-588q0 -11 -12 -11h-43q-7 0 -9.5 2.5t-2.5 9.5v718q0 7 2.5 9.5t8.5 2.5h44
q7 0 10 -1.5t7 -7.5l396 -576q4 -5 8 -5q2 0 4 2.5t2 5.5v571q0 11 11 11h45q6 0 8 -2.5z" />
    <glyph glyph-name="uni01CB" unicode="&#x1cb;" horiz-adv-x="988" 
d="M642 742q6 0 8 -2.5t2 -8.5v-720q0 -11 -11 -11h-35h-5q-10 0 -15 7l-403 590q-5 7 -8.5 6t-3.5 -7v-585q0 -11 -12 -11h-43q-7 0 -9.5 2.5t-2.5 9.5v718q0 7 2.5 9.5t8.5 2.5h42q7 0 10.5 -1.5t7.5 -7.5l396 -582q5 -6 9 -6q2 0 4 2.5t2 6.5v577q0 11 10 11h46zM909 651
q0 -9 -3 -13.5t-12 -4.5h-46q-13 0 -13 16v78q0 15 13 15h48q13 0 13 -14v-77zM877 -139q-28 -31 -101 -31q-25 0 -40.5 0.5t-20 3t-4.5 8.5v34q0 9 8 9l54 2q36 1 51 18.5t15 61.5v551q0 12 12 12h44q10 0 10 -12v-556q0 -70 -28 -101z" />
    <glyph glyph-name="Ntilde" unicode="&#xd1;" horiz-adv-x="756" 
d="M642 742q6 0 8 -2.5t2 -8.5v-720q0 -11 -11 -11h-35h-5q-10 0 -15 7l-403 590q-5 7 -8.5 6t-3.5 -7v-585q0 -11 -12 -11h-43q-7 0 -9.5 2.5t-2.5 9.5v718q0 7 2.5 9.5t8.5 2.5h42q7 0 10.5 -1.5t7.5 -7.5l396 -582q5 -6 9 -6q2 0 4 2.5t2 6.5v577q0 11 10 11h46zM455 875
q-19 0 -34 3.5t-34 10.5q-3 1 -20 6t-34 5t-28 -4.5t-19.5 -9.5t-11.5 -7l-6 -3q-4 0 -7 8l-8 22q-2 5 -1.5 7t4.5 4q18 14 34 21.5t39 7.5q25 0 65 -14q4 -1 23 -7t38 -6q16 0 26.5 4t28.5 14q4 3 7 3q4 0 7 -7l9 -25l1 -4q0 -5 -7 -9q-31 -20 -72 -20z" />
    <glyph glyph-name="O" unicode="O" horiz-adv-x="762" 
d="M152 88q-82 98 -82 279q0 122 37.5 208.5t108 131.5t166.5 45t165.5 -44.5t106.5 -130.5t37 -208q0 -182 -82 -280.5t-228 -98.5q-147 0 -229 98zM555 129q57 78 57 240q0 323 -230 323q-233 0 -233 -323q0 -318 234 -318q115 0 172 78z" />
    <glyph glyph-name="Oacute" unicode="&#xd3;" horiz-adv-x="762" 
d="M152 88q-82 98 -82 279q0 122 37.5 208.5t108 131.5t166.5 45t165.5 -44.5t106.5 -130.5t37 -208q0 -182 -82 -280.5t-228 -98.5q-147 0 -229 98zM555 129q57 78 57 240q0 323 -230 323q-233 0 -233 -323q0 -318 234 -318q115 0 172 78zM511 919q1 -2 1 -6q0 -6 -10 -10
l-228 -73q-2 -1 -6 -1q-7 0 -8 7l-7 20l-1 4q0 6 5 8l230 95h3q5 0 8 -4z" />
    <glyph glyph-name="Obreve" unicode="&#x14e;" horiz-adv-x="762" 
d="M152 88q-82 98 -82 279q0 122 37.5 208.5t108 131.5t166.5 45t165.5 -44.5t106.5 -130.5t37 -208q0 -182 -82 -280.5t-228 -98.5q-147 0 -229 98zM555 129q57 78 57 240q0 323 -230 323q-233 0 -233 -323q0 -318 234 -318q115 0 172 78zM522 952q2 -2 0 -8
q-10 -36 -48 -63.5t-94 -27.5q-55 0 -90.5 27t-47.5 65v3q0 6 6 6h41q9 0 14 -8q16 -21 31.5 -32.5t45.5 -11.5q52 0 81 45q2 4 4.5 5.5t6.5 1.5h42q6 0 8 -2z" />
    <glyph glyph-name="Ocircumflex" unicode="&#xd4;" horiz-adv-x="762" 
d="M152 88q-82 98 -82 279q0 122 37.5 208.5t108 131.5t166.5 45t165.5 -44.5t106.5 -130.5t37 -208q0 -182 -82 -280.5t-228 -98.5q-147 0 -229 98zM555 129q57 78 57 240q0 323 -230 323q-233 0 -233 -323q0 -318 234 -318q115 0 172 78zM392 904q-7 7 -10 7t-11 -7
l-59 -49q-5 -4 -8 -5.5t-9 -1.5h-47q-6 0 -7 3t4 8l102 87q10 10 22 10h31q7 0 12 -4t6 -5l100 -88q13 -11 -1 -11h-52q-9 0 -17 7z" />
    <glyph glyph-name="uni020C" unicode="&#x20c;" horiz-adv-x="762" 
d="M152 88q-82 98 -82 279q0 122 37.5 208.5t108 131.5t166.5 45t165.5 -44.5t106.5 -130.5t37 -208q0 -182 -82 -280.5t-228 -98.5q-147 0 -229 98zM555 129q57 78 57 240q0 323 -230 323q-233 0 -233 -323q0 -318 234 -318q115 0 172 78zM220 962l121 -134q5 -7 -1 -12
l-13 -17q-3 -5 -7 -5q-2 0 -8 4l-127 114q-7 4 -7 9q0 2 4 8l26 32q6 6 12 1zM373 962l120 -134q7 -7 0 -12l-13 -17q-3 -5 -7 -5q-2 0 -8 4l-127 114q-7 4 -7 9q0 2 4 8l26 32q6 6 12 1z" />
    <glyph glyph-name="Odieresis" unicode="&#xd6;" horiz-adv-x="762" 
d="M152 88q-82 98 -82 279q0 122 37.5 208.5t108 131.5t166.5 45t165.5 -44.5t106.5 -130.5t37 -208q0 -182 -82 -280.5t-228 -98.5q-147 0 -229 98zM555 129q57 78 57 240q0 323 -230 323q-233 0 -233 -323q0 -318 234 -318q115 0 172 78zM351 863q0 -8 -3 -11t-12 -3h-42
q-8 0 -10.5 2.5t-2.5 9.5v81q0 12 10 12h50q10 0 10 -11v-80zM483 863q0 -8 -3.5 -11t-11.5 -3h-42q-8 0 -10.5 2.5t-2.5 9.5v81q0 12 10 12h49q11 0 11 -11v-80z" />
    <glyph glyph-name="uni1ECC" unicode="&#x1ecc;" horiz-adv-x="762" 
d="M152 88q-82 98 -82 279q0 122 37.5 208.5t108 131.5t166.5 45t165.5 -44.5t106.5 -130.5t37 -208q0 -182 -82 -280.5t-228 -98.5q-147 0 -229 98zM555 129q57 78 57 240q0 323 -230 323q-233 0 -233 -323q0 -318 234 -318q115 0 172 78zM417 -151q0 -8 -3 -11t-11 -3h-42
q-7 0 -9.5 2.5t-2.5 8.5v84q0 7 2 9.5t8 2.5h48q10 0 10 -11v-82z" />
    <glyph glyph-name="Ograve" unicode="&#xd2;" horiz-adv-x="762" 
d="M152 88q-82 98 -82 279q0 122 37.5 208.5t108 131.5t166.5 45t165.5 -44.5t106.5 -130.5t37 -208q0 -182 -82 -280.5t-228 -98.5q-147 0 -229 98zM555 129q57 78 57 240q0 323 -230 323q-233 0 -233 -323q0 -318 234 -318q115 0 172 78zM261 963l231 -95q7 -3 4 -12
l-7 -20q-2 -5 -5 -6.5t-9 0.5l-228 73q-7 3 -9 6.5t0 9.5l13 40q3 6 10 4z" />
    <glyph glyph-name="Ohungarumlaut" unicode="&#x150;" horiz-adv-x="762" 
d="M152 88q-82 98 -82 279q0 122 37.5 208.5t108 131.5t166.5 45t165.5 -44.5t106.5 -130.5t37 -208q0 -182 -82 -280.5t-228 -98.5q-147 0 -229 98zM555 129q57 78 57 240q0 323 -230 323q-233 0 -233 -323q0 -318 234 -318q115 0 172 78zM425 929q4 -6 4 -8q0 -5 -7 -9
l-127 -114q-6 -4 -8 -4q-3 0 -8 5l-12 17q-4 3 -4 6.5t3 5.5l121 134q6 4 11 -1zM579 929q3 -4 3 -8q0 -5 -7 -9l-127 -114q-6 -4 -8 -4q-4 0 -7 5l-13 17q-7 5 0 12l120 134q6 5 12 -1z" />
    <glyph glyph-name="uni020E" unicode="&#x20e;" horiz-adv-x="762" 
d="M152 88q-82 98 -82 279q0 122 37.5 208.5t108 131.5t166.5 45t165.5 -44.5t106.5 -130.5t37 -208q0 -182 -82 -280.5t-228 -98.5q-147 0 -229 98zM555 129q57 78 57 240q0 323 -230 323q-233 0 -233 -323q0 -318 234 -318q115 0 172 78zM472 859q-4 0 -6.5 1.5t-4.5 5.5
q-29 45 -81 45q-30 0 -45.5 -11.5t-31.5 -32.5q-5 -8 -14 -8h-41q-8 0 -6 9q12 38 47.5 65t90.5 27q56 0 94 -27.5t48 -63.5q1 -2 1 -5q0 -5 -9 -5h-42z" />
    <glyph glyph-name="Omacron" unicode="&#x14c;" horiz-adv-x="762" 
d="M152 88q-82 98 -82 279q0 122 37.5 208.5t108 131.5t166.5 45t165.5 -44.5t106.5 -130.5t37 -208q0 -182 -82 -280.5t-228 -98.5q-147 0 -229 98zM555 129q57 78 57 240q0 323 -230 323q-233 0 -233 -323q0 -318 234 -318q115 0 172 78zM521 896q0 -11 -13 -11h-256
q-9 0 -9 11v32q0 9 7 9h264q7 0 7 -8v-33z" />
    <glyph glyph-name="uni01EA" unicode="&#x1ea;" horiz-adv-x="762" 
d="M386.5 -44.5q-22.5 -19.5 -22.5 -45.5q0 -40 53 -40q20 0 37 4t27 9q10 6 10 -4v-25q0 -7 -6 -10q-14 -6 -37 -11t-46 -5q-48 0 -72.5 21t-24.5 58q0 27 14 47t48 36q-141 5 -219 103t-78 274q0 122 37.5 208.5t108 131.5t166.5 45t165.5 -44.5t106.5 -130.5t37 -208
q0 -155 -60 -250t-170 -120q-52 -24 -74.5 -43.5zM383 51q115 0 172 78t57 240q0 323 -230 323q-233 0 -233 -323q0 -318 234 -318z" />
    <glyph glyph-name="Oslash" unicode="&#xd8;" horiz-adv-x="721" 
d="M700 707l-84 -95q55 -95 55 -243q0 -121 -37.5 -206t-107 -129t-165.5 -44q-140 0 -220 88l-70 -79q-6 -8 -11 -8q-6 0 -12 6l-20 20q-7 6 -7.5 10t3.5 8l81 92q-55 93 -55 240q0 122 37.5 208.5t107.5 131.5t166 45q139 0 219 -91l73 84q9 10 16 3l30 -28q7 -5 1 -13z
M162 188l370 423q-56 80 -171 80q-230 0 -230 -322q0 -112 31 -181zM558 551l-369 -421q58 -79 173 -79t171 78t56 240q0 113 -31 182z" />
    <glyph glyph-name="Oslashacute" unicode="&#x1fe;" horiz-adv-x="721" 
d="M700 707l-84 -95q55 -95 55 -243q0 -121 -37.5 -206t-107 -129t-165.5 -44q-140 0 -220 88l-70 -79q-6 -8 -11 -8q-6 0 -12 6l-20 20q-7 6 -7.5 10t3.5 8l81 92q-55 93 -55 240q0 122 37.5 208.5t107.5 131.5t166 45q139 0 219 -91l73 84q9 10 16 3l30 -28q7 -5 1 -13z
M162 188l370 423q-56 80 -171 80q-230 0 -230 -322q0 -112 31 -181zM558 551l-369 -421q58 -79 173 -79t171 78t56 240q0 113 -31 182zM490 919q1 -2 1 -6q0 -6 -10 -10l-228 -73q-2 -1 -6 -1q-7 0 -8 7l-7 20l-1 4q0 6 5 8l230 95h3q5 0 8 -4z" />
    <glyph glyph-name="Otilde" unicode="&#xd5;" horiz-adv-x="762" 
d="M152 88q-82 98 -82 279q0 122 37.5 208.5t108 131.5t166.5 45t165.5 -44.5t106.5 -130.5t37 -208q0 -182 -82 -280.5t-228 -98.5q-147 0 -229 98zM555 129q57 78 57 240q0 323 -230 323q-233 0 -233 -323q0 -318 234 -318q115 0 172 78zM445 875q-19 0 -34 3.5t-34 10.5
q-3 1 -20 6t-34 5t-28 -4.5t-19.5 -9.5t-11.5 -7l-6 -3q-4 0 -7 8l-8 22q-2 5 -1.5 7t4.5 4q18 14 34 21.5t39 7.5q25 0 65 -14q4 -1 23 -7t38 -6q16 0 26.5 4t28.5 14q4 3 7 3q4 0 7 -7l9 -25l1 -4q0 -5 -7 -9q-31 -20 -72 -20z" />
    <glyph glyph-name="OE" unicode="&#x152;" horiz-adv-x="1123" 
d="M1072 58.5q2 -1.5 2 -7.5v-42q0 -9 -9 -9h-427q-5 0 -7 1.5t-3 6.5l-9 109q-36 -63 -96 -95t-140 -32q-148 0 -230.5 98t-82.5 279q0 122 38 208.5t109 131.5t169 45q80 0 139 -32.5t94 -96.5l7 111q1 8 11 8h415q8 0 8 -9v-41q0 -6 -2.5 -8t-8.5 -2h-348q-7 0 -9.5 -2
t-2.5 -9v-257q0 -6 2.5 -8t8.5 -2h262q9 0 9 -9v-42q0 -5 -2 -6.5t-7 -1.5h-262q-6 0 -8.5 -2t-2.5 -8v-265q0 -6 2 -8t8 -2h365q6 0 8 -1.5zM554 129q56 78 56 240q0 323 -228 323q-233 0 -233 -323q0 -318 234 -318q115 0 171 78z" />
    <glyph glyph-name="P" unicode="P" horiz-adv-x="683" 
d="M555 370q-71 -53 -191 -53h-176q-9 0 -9 -9v-296q0 -12 -12 -12h-52q-11 0 -11 11v719q0 7 2.5 9.5t8.5 2.5h239q125 0 198.5 -52.5t73.5 -160.5q0 -106 -71 -159zM497.5 648q-50.5 35 -146.5 35h-160q-12 0 -12 -11v-283q0 -12 9 -12h170q90 0 140 37.5t50 117.5
q0 81 -50.5 116z" />
    <glyph glyph-name="Thorn" unicode="&#xde;" horiz-adv-x="685" 
d="M557.5 227.5q-70.5 -51.5 -191.5 -51.5h-178q-9 0 -9 -10v-154q0 -12 -12 -12h-52q-11 0 -11 11v719q0 7 2.5 9.5t8.5 2.5h54q6 0 8 -2.5t2 -9.5v-140q0 -6 7 -6h170q124 0 198 -49.5t74 -147.5q0 -108 -70.5 -159.5zM499 492q-51 32 -146 32h-162q-6 0 -9 -2t-3 -8v-267
q0 -12 9 -12h172q90 0 140 37t50 116q0 72 -51 104z" />
    <glyph glyph-name="Q" unicode="Q" horiz-adv-x="762" 
d="M152.5 652.5q82.5 99.5 228.5 99.5t228 -99.5t82 -283.5q0 -241 -145 -334q-5 -4 -5 -9q0 -13 19.5 -32.5t50.5 -35.5t63 -20q9 -1 9 -9v-36q0 -9 -5.5 -12.5t-18.5 -3.5q-44 0 -91.5 27.5t-92.5 89.5q-5 7 -15 4q-40 -8 -79 -8q-145 0 -228 97.5t-83 281.5t82.5 283.5z
M381 51q232 0 232 318q0 160 -58.5 241.5t-173.5 81.5t-173.5 -82t-58.5 -243q0 -316 232 -316z" />
    <glyph glyph-name="R" unicode="R" horiz-adv-x="689" 
d="M617 12q0 -5 -3 -8.5t-8 -3.5h-55q-9 0 -14 11l-135 323q-2 6 -7 8.5t-15 2.5h-189q-12 0 -12 -11v-320q0 -8 -3 -11t-10 -3h-49q-13 0 -13 12v718q0 7 2.5 9.5t8.5 2.5h270q115 0 177.5 -48.5t62.5 -140.5q0 -81 -43 -128t-105 -65q-6 -1 -4 -9l143 -334q1 -2 1 -5z
M499.5 437q47.5 34 47.5 108q0 139 -165 139h-190q-13 0 -13 -9v-261q0 -11 9 -11h166q98 0 145.5 34z" />
    <glyph glyph-name="Racute" unicode="&#x154;" horiz-adv-x="689" 
d="M617 12q0 -5 -3 -8.5t-8 -3.5h-55q-9 0 -14 11l-135 323q-2 6 -7 8.5t-15 2.5h-189q-12 0 -12 -11v-320q0 -8 -3 -11t-10 -3h-49q-13 0 -13 12v718q0 7 2.5 9.5t8.5 2.5h270q115 0 177.5 -48.5t62.5 -140.5q0 -81 -43 -128t-105 -65q-6 -1 -4 -9l143 -334q1 -2 1 -5z
M499.5 437q47.5 34 47.5 108q0 139 -165 139h-190q-13 0 -13 -9v-261q0 -11 9 -11h166q98 0 145.5 34zM467 919q1 -2 1 -6q0 -6 -10 -10l-228 -73q-2 -1 -6 -1q-7 0 -8 7l-7 20l-1 4q0 6 5 8l230 95h3q5 0 8 -4z" />
    <glyph glyph-name="Rcaron" unicode="&#x158;" horiz-adv-x="689" 
d="M617 12q0 -5 -3 -8.5t-8 -3.5h-55q-9 0 -14 11l-135 323q-2 6 -7 8.5t-15 2.5h-189q-12 0 -12 -11v-320q0 -8 -3 -11t-10 -3h-49q-13 0 -13 12v718q0 7 2.5 9.5t8.5 2.5h270q115 0 177.5 -48.5t62.5 -140.5q0 -81 -43 -128t-105 -65q-6 -1 -4 -9l143 -334q1 -2 1 -5z
M499.5 437q47.5 34 47.5 108q0 139 -165 139h-190q-13 0 -13 -9v-261q0 -11 9 -11h166q98 0 145.5 34zM421 954h52q7 0 7 -3t-6 -8l-100 -88q-2 -1 -6.5 -5t-11.5 -4h-31q-10 0 -22 10l-102 87q-4 4 -4 7q0 4 7 4h47q5 0 8.5 -1.5t8.5 -4.5l59 -49q8 -7 11 -7t10 7l56 49
q9 6 17 6z" />
    <glyph glyph-name="Rcommaaccent" unicode="&#x156;" horiz-adv-x="689" 
d="M617 12q0 -5 -3 -8.5t-8 -3.5h-55q-9 0 -14 11l-135 323q-2 6 -7 8.5t-15 2.5h-189q-12 0 -12 -11v-320q0 -8 -3 -11t-10 -3h-49q-13 0 -13 12v718q0 7 2.5 9.5t8.5 2.5h270q115 0 177.5 -48.5t62.5 -140.5q0 -81 -43 -128t-105 -65q-6 -1 -4 -9l143 -334q1 -2 1 -5z
M499.5 437q47.5 34 47.5 108q0 139 -165 139h-190q-13 0 -13 -9v-261q0 -11 9 -11h166q98 0 145.5 34zM309.5 -234.5q-1.5 3.5 0.5 6.5l26 53q3 3 3 7q0 5 -7 5h-9q-10 0 -10 11v65q0 10 9 10h53q8 0 8 -8v-78q0 -2 -1 -4t-1 -3l-35 -60q-2 -5 -6 -6.5t-11 -1.5h-14
q-4 0 -5.5 3.5z" />
    <glyph glyph-name="uni0210" unicode="&#x210;" horiz-adv-x="689" 
d="M617 12q0 -5 -3 -8.5t-8 -3.5h-55q-9 0 -14 11l-135 323q-2 6 -7 8.5t-15 2.5h-189q-12 0 -12 -11v-320q0 -8 -3 -11t-10 -3h-49q-13 0 -13 12v718q0 7 2.5 9.5t8.5 2.5h270q115 0 177.5 -48.5t62.5 -140.5q0 -81 -43 -128t-105 -65q-6 -1 -4 -9l143 -334q1 -2 1 -5z
M499.5 437q47.5 34 47.5 108q0 139 -165 139h-190q-13 0 -13 -9v-261q0 -11 9 -11h166q98 0 145.5 34zM176 962l121 -134q5 -7 -1 -12l-13 -17q-3 -5 -7 -5q-2 0 -8 4l-127 114q-7 4 -7 9q0 2 4 8l26 32q6 6 12 1zM329 962l120 -134q7 -7 0 -12l-13 -17q-3 -5 -7 -5
q-2 0 -8 4l-127 114q-7 4 -7 9q0 2 4 8l26 32q6 6 12 1z" />
    <glyph glyph-name="uni1E5A" unicode="&#x1e5a;" horiz-adv-x="689" 
d="M617 12q0 -5 -3 -8.5t-8 -3.5h-55q-9 0 -14 11l-135 323q-2 6 -7 8.5t-15 2.5h-189q-12 0 -12 -11v-320q0 -8 -3 -11t-10 -3h-49q-13 0 -13 12v718q0 7 2.5 9.5t8.5 2.5h270q115 0 177.5 -48.5t62.5 -140.5q0 -81 -43 -128t-105 -65q-6 -1 -4 -9l143 -334q1 -2 1 -5z
M499.5 437q47.5 34 47.5 108q0 139 -165 139h-190q-13 0 -13 -9v-261q0 -11 9 -11h166q98 0 145.5 34zM379 -151q0 -8 -3 -11t-11 -3h-42q-7 0 -9.5 2.5t-2.5 8.5v84q0 7 2 9.5t8 2.5h48q10 0 10 -11v-82z" />
    <glyph glyph-name="uni0212" unicode="&#x212;" horiz-adv-x="689" 
d="M617 12q0 -5 -3 -8.5t-8 -3.5h-55q-9 0 -14 11l-135 323q-2 6 -7 8.5t-15 2.5h-189q-12 0 -12 -11v-320q0 -8 -3 -11t-10 -3h-49q-13 0 -13 12v718q0 7 2.5 9.5t8.5 2.5h270q115 0 177.5 -48.5t62.5 -140.5q0 -81 -43 -128t-105 -65q-6 -1 -4 -9l143 -334q1 -2 1 -5z
M499.5 437q47.5 34 47.5 108q0 139 -165 139h-190q-13 0 -13 -9v-261q0 -11 9 -11h166q98 0 145.5 34zM428 859q-4 0 -6.5 1.5t-4.5 5.5q-29 45 -81 45q-30 0 -45.5 -11.5t-31.5 -32.5q-5 -8 -14 -8h-41q-8 0 -6 9q12 38 47.5 65t90.5 27q56 0 94 -27.5t48 -63.5q1 -2 1 -5
q0 -5 -9 -5h-42z" />
    <glyph glyph-name="S" unicode="S" horiz-adv-x="631" 
d="M323 692q-79 0 -124.5 -36t-45.5 -101q0 -84 113 -124l142 -49q87 -30 126 -77t39 -115q0 -94 -68.5 -147t-188.5 -53q-175 0 -260 124q-4 8 -4 10q0 6 10 13l26 18q6 5 12 5q7 0 11 -6q44 -56 87 -80t116 -24q87 0 136 32.5t49 101.5q0 43 -25.5 72t-95.5 55l-151 55
q-77 27 -112 76t-35 107q0 62 30.5 108t86 70.5t127.5 24.5q139 0 227 -98q4 -6 4 -9q0 -4 -4 -8l-36 -29q-3 -3 -6 -3q-4 0 -10 8q-66 79 -176 79z" />
    <glyph glyph-name="Sacute" unicode="&#x15a;" horiz-adv-x="631" 
d="M323 692q-79 0 -124.5 -36t-45.5 -101q0 -84 113 -124l142 -49q87 -30 126 -77t39 -115q0 -94 -68.5 -147t-188.5 -53q-175 0 -260 124q-4 8 -4 10q0 6 10 13l26 18q6 5 12 5q7 0 11 -6q44 -56 87 -80t116 -24q87 0 136 32.5t49 101.5q0 43 -25.5 72t-95.5 55l-151 55
q-77 27 -112 76t-35 107q0 62 30.5 108t86 70.5t127.5 24.5q139 0 227 -98q4 -6 4 -9q0 -4 -4 -8l-36 -29q-3 -3 -6 -3q-4 0 -10 8q-66 79 -176 79zM454 919q1 -2 1 -6q0 -6 -10 -10l-228 -73q-2 -1 -6 -1q-7 0 -8 7l-7 20l-1 4q0 6 5 8l230 95h3q5 0 8 -4z" />
    <glyph glyph-name="Scaron" unicode="&#x160;" horiz-adv-x="631" 
d="M323 692q-79 0 -124.5 -36t-45.5 -101q0 -84 113 -124l142 -49q87 -30 126 -77t39 -115q0 -94 -68.5 -147t-188.5 -53q-175 0 -260 124q-4 8 -4 10q0 6 10 13l26 18q6 5 12 5q7 0 11 -6q44 -56 87 -80t116 -24q87 0 136 32.5t49 101.5q0 43 -25.5 72t-95.5 55l-151 55
q-77 27 -112 76t-35 107q0 62 30.5 108t86 70.5t127.5 24.5q139 0 227 -98q4 -6 4 -9q0 -4 -4 -8l-36 -29q-3 -3 -6 -3q-4 0 -10 8q-66 79 -176 79zM408 954h52q7 0 7 -3t-6 -8l-100 -88q-2 -1 -6.5 -5t-11.5 -4h-31q-10 0 -22 10l-102 87q-4 4 -4 7q0 4 7 4h47
q5 0 8.5 -1.5t8.5 -4.5l59 -49q8 -7 11 -7t10 7l56 49q9 6 17 6z" />
    <glyph glyph-name="Scedilla" unicode="&#x15e;" horiz-adv-x="631" 
d="M327 -53q-1 -4 4 -4q43 -3 62 -24t19 -49q0 -37 -30 -57t-76 -20q-49 0 -81 21q-5 3 -4 8l10 23q3 5 8 2q13 -9 26.5 -14t33.5 -5q58 0 58 41q0 22 -19 33t-60 13q-8 0 -5 5l30 70q-165 4 -247 124q-4 8 -4 10q0 6 10 13l26 18q6 5 12 5q7 0 11 -6q44 -56 87 -80t116 -24
q87 0 136 32.5t49 101.5q0 43 -25.5 72t-95.5 55l-151 55q-77 27 -112 76t-35 107q0 62 30.5 108t86 70.5t127.5 24.5q139 0 227 -98q4 -6 4 -9q0 -4 -4 -8l-36 -29q-3 -3 -6 -3q-4 0 -10 8q-66 79 -176 79q-79 0 -124.5 -36t-45.5 -101q0 -84 113 -124l142 -49
q87 -30 126 -77t39 -115q0 -88 -60.5 -140.5t-167.5 -58.5z" />
    <glyph glyph-name="Scircumflex" unicode="&#x15c;" horiz-adv-x="631" 
d="M323 692q-79 0 -124.5 -36t-45.5 -101q0 -84 113 -124l142 -49q87 -30 126 -77t39 -115q0 -94 -68.5 -147t-188.5 -53q-175 0 -260 124q-4 8 -4 10q0 6 10 13l26 18q6 5 12 5q7 0 11 -6q44 -56 87 -80t116 -24q87 0 136 32.5t49 101.5q0 43 -25.5 72t-95.5 55l-151 55
q-77 27 -112 76t-35 107q0 62 30.5 108t86 70.5t127.5 24.5q139 0 227 -98q4 -6 4 -9q0 -4 -4 -8l-36 -29q-3 -3 -6 -3q-4 0 -10 8q-66 79 -176 79zM335 904q-7 7 -10 7t-11 -7l-59 -49q-5 -4 -8 -5.5t-9 -1.5h-47q-6 0 -7 3t4 8l102 87q10 10 22 10h31q7 0 12 -4t6 -5
l100 -88q13 -11 -1 -11h-52q-9 0 -17 7z" />
    <glyph glyph-name="Scommaaccent" unicode="&#x218;" horiz-adv-x="631" 
d="M323 692q-79 0 -124.5 -36t-45.5 -101q0 -84 113 -124l142 -49q87 -30 126 -77t39 -115q0 -94 -68.5 -147t-188.5 -53q-175 0 -260 124q-4 8 -4 10q0 6 10 13l26 18q6 5 12 5q7 0 11 -6q44 -56 87 -80t116 -24q87 0 136 32.5t49 101.5q0 43 -25.5 72t-95.5 55l-151 55
q-77 27 -112 76t-35 107q0 62 30.5 108t86 70.5t127.5 24.5q139 0 227 -98q4 -6 4 -9q0 -4 -4 -8l-36 -29q-3 -3 -6 -3q-4 0 -10 8q-66 79 -176 79zM292.5 -234.5q-1.5 3.5 0.5 6.5l26 53q3 3 3 7q0 5 -7 5h-9q-10 0 -10 11v65q0 10 9 10h53q8 0 8 -8v-78q0 -2 -1 -4t-1 -3
l-35 -60q-2 -5 -6 -6.5t-11 -1.5h-14q-4 0 -5.5 3.5z" />
    <glyph glyph-name="uni1E62" unicode="&#x1e62;" horiz-adv-x="631" 
d="M323 692q-79 0 -124.5 -36t-45.5 -101q0 -84 113 -124l142 -49q87 -30 126 -77t39 -115q0 -94 -68.5 -147t-188.5 -53q-175 0 -260 124q-4 8 -4 10q0 6 10 13l26 18q6 5 12 5q7 0 11 -6q44 -56 87 -80t116 -24q87 0 136 32.5t49 101.5q0 43 -25.5 72t-95.5 55l-151 55
q-77 27 -112 76t-35 107q0 62 30.5 108t86 70.5t127.5 24.5q139 0 227 -98q4 -6 4 -9q0 -4 -4 -8l-36 -29q-3 -3 -6 -3q-4 0 -10 8q-66 79 -176 79zM362 -151q0 -8 -3 -11t-11 -3h-42q-7 0 -9.5 2.5t-2.5 8.5v84q0 7 2 9.5t8 2.5h48q10 0 10 -11v-82z" />
    <glyph glyph-name="uni018F" unicode="&#x18f;" horiz-adv-x="760" 
d="M560 599q-48 89 -179 89q-72 0 -116.5 -28t-65 -62.5t-35.5 -78.5q-4 -15 -9 -24q-1 -2 -3.5 -1.5t-6.5 1.5l-54 22q-4 1 -4.5 4t2.5 8q3 6 28 67t95.5 108.5t167.5 47.5q115 0 184.5 -56.5t97.5 -143t28 -184.5q0 -102 -32.5 -187.5t-102 -138t-175.5 -52.5
q-164 0 -237 106t-73 277q0 7 2 10.5t9 3.5h518q5 0 7 2t2 7q0 114 -48 203zM164 329q-11 0 -11 -8q0 -113 53 -191.5t174 -78.5t172 78t55 200h-443z" />
    <glyph glyph-name="T" unicode="T" horiz-adv-x="636" 
d="M44 732q0 10 10 10h528q10 0 10 -10v-41q0 -9 -10 -9h-207q-6 0 -8 -1.5t-2 -7.5v-661q0 -7 -2.5 -9.5t-8.5 -2.5h-54q-6 0 -8.5 2.5t-2.5 9.5v661q0 6 -2 7.5t-8 1.5h-225q-10 0 -10 9v41z" />
    <glyph glyph-name="Tbar" unicode="&#x166;" horiz-adv-x="636" 
d="M592 732v-41q0 -9 -10 -9h-207q-6 0 -8 -1.5t-2 -7.5v-268h138q9 0 9 -10v-34q0 -14 -16 -14h-131v-335q0 -7 -2.5 -9.5t-8.5 -2.5h-54q-6 0 -8.5 2.5t-2.5 9.5v335h-142q-7 0 -10 3t-3 10v34q0 11 9 11h146v268q0 6 -2 7.5t-8 1.5h-225q-10 0 -10 9v41q0 10 10 10h528
q10 0 10 -10z" />
    <glyph glyph-name="Tcaron" unicode="&#x164;" horiz-adv-x="636" 
d="M44 732q0 10 10 10h528q10 0 10 -10v-41q0 -9 -10 -9h-207q-6 0 -8 -1.5t-2 -7.5v-661q0 -7 -2.5 -9.5t-8.5 -2.5h-54q-6 0 -8.5 2.5t-2.5 9.5v661q0 6 -2 7.5t-8 1.5h-225q-10 0 -10 9v41zM411 954h52q7 0 7 -3t-6 -8l-100 -88q-2 -1 -6.5 -5t-11.5 -4h-31q-10 0 -22 10
l-102 87q-4 4 -4 7q0 4 7 4h47q5 0 8.5 -1.5t8.5 -4.5l59 -49q8 -7 11 -7t10 7l56 49q9 6 17 6z" />
    <glyph glyph-name="uni0162" unicode="&#x162;" horiz-adv-x="636" 
d="M592 732v-41q0 -9 -10 -9h-207q-6 0 -8 -1.5t-2 -7.5v-661q0 -7 -2.5 -9.5t-8.5 -2.5h-5l-22 -53q-1 -4 4 -4q43 -3 62 -24t19 -49q0 -37 -30 -57t-76 -20q-49 0 -81 21q-5 3 -4 8l10 23q3 5 8 2q13 -9 26.5 -14t33.5 -5q58 0 58 41q0 22 -19 33t-60 13q-8 0 -5 5l34 80
h-7q-6 0 -8.5 2.5t-2.5 9.5v661q0 6 -2 7.5t-8 1.5h-225q-10 0 -10 9v41q0 10 10 10h528q10 0 10 -10z" />
    <glyph glyph-name="uni021A" unicode="&#x21a;" horiz-adv-x="636" 
d="M44 732q0 10 10 10h528q10 0 10 -10v-41q0 -9 -10 -9h-207q-6 0 -8 -1.5t-2 -7.5v-661q0 -7 -2.5 -9.5t-8.5 -2.5h-54q-6 0 -8.5 2.5t-2.5 9.5v661q0 6 -2 7.5t-8 1.5h-225q-10 0 -10 9v41zM292.5 -234.5q-1.5 3.5 0.5 6.5l26 53q3 3 3 7q0 5 -7 5h-9q-10 0 -10 11v65
q0 10 9 10h53q8 0 8 -8v-78q0 -2 -1 -4t-1 -3l-35 -60q-2 -5 -6 -6.5t-11 -1.5h-14q-4 0 -5.5 3.5z" />
    <glyph glyph-name="uni1E6C" unicode="&#x1e6c;" horiz-adv-x="636" 
d="M44 732q0 10 10 10h528q10 0 10 -10v-41q0 -9 -10 -9h-207q-6 0 -8 -1.5t-2 -7.5v-661q0 -7 -2.5 -9.5t-8.5 -2.5h-54q-6 0 -8.5 2.5t-2.5 9.5v661q0 6 -2 7.5t-8 1.5h-225q-10 0 -10 9v41zM362 -151q0 -8 -3 -11t-11 -3h-42q-7 0 -9.5 2.5t-2.5 8.5v84q0 7 2 9.5t8 2.5
h48q10 0 10 -11v-82z" />
    <glyph glyph-name="U" unicode="U" horiz-adv-x="706" 
d="M547 51q-65 -61 -194 -61q-134 0 -196.5 65t-62.5 201v473q0 13 10 13h54q7 0 9.5 -2.5t2.5 -9.5v-494q0 -185 188 -185q190 0 190 188v492q0 11 10 11h44q10 0 10 -11v-491q0 -128 -65 -189z" />
    <glyph glyph-name="Uacute" unicode="&#xda;" horiz-adv-x="706" 
d="M547 51q-65 -61 -194 -61q-134 0 -196.5 65t-62.5 201v473q0 13 10 13h54q7 0 9.5 -2.5t2.5 -9.5v-494q0 -185 188 -185q190 0 190 188v492q0 11 10 11h44q10 0 10 -11v-491q0 -128 -65 -189zM488 919q1 -2 1 -6q0 -6 -10 -10l-228 -73q-2 -1 -6 -1q-7 0 -8 7l-7 20l-1 4
q0 6 5 8l230 95h3q5 0 8 -4z" />
    <glyph glyph-name="Ubreve" unicode="&#x16c;" horiz-adv-x="706" 
d="M547 51q-65 -61 -194 -61q-134 0 -196.5 65t-62.5 201v473q0 13 10 13h54q7 0 9.5 -2.5t2.5 -9.5v-494q0 -185 188 -185q190 0 190 188v492q0 11 10 11h44q10 0 10 -11v-491q0 -128 -65 -189zM499 952q2 -2 0 -8q-10 -36 -48 -63.5t-94 -27.5q-55 0 -90.5 27t-47.5 65v3
q0 6 6 6h41q9 0 14 -8q16 -21 31.5 -32.5t45.5 -11.5q52 0 81 45q2 4 4.5 5.5t6.5 1.5h42q6 0 8 -2z" />
    <glyph glyph-name="Ucircumflex" unicode="&#xdb;" horiz-adv-x="706" 
d="M547 51q-65 -61 -194 -61q-134 0 -196.5 65t-62.5 201v473q0 13 10 13h54q7 0 9.5 -2.5t2.5 -9.5v-494q0 -185 188 -185q190 0 190 188v492q0 11 10 11h44q10 0 10 -11v-491q0 -128 -65 -189zM369 904q-7 7 -10 7t-11 -7l-59 -49q-5 -4 -8 -5.5t-9 -1.5h-47q-6 0 -7 3
t4 8l102 87q10 10 22 10h31q7 0 12 -4t6 -5l100 -88q13 -11 -1 -11h-52q-9 0 -17 7z" />
    <glyph glyph-name="uni0214" unicode="&#x214;" horiz-adv-x="706" 
d="M547 51q-65 -61 -194 -61q-134 0 -196.5 65t-62.5 201v473q0 13 10 13h54q7 0 9.5 -2.5t2.5 -9.5v-494q0 -185 188 -185q190 0 190 188v492q0 11 10 11h44q10 0 10 -11v-491q0 -128 -65 -189zM197 962l121 -134q5 -7 -1 -12l-13 -17q-3 -5 -7 -5q-2 0 -8 4l-127 114
q-7 4 -7 9q0 2 4 8l26 32q6 6 12 1zM350 962l120 -134q7 -7 0 -12l-13 -17q-3 -5 -7 -5q-2 0 -8 4l-127 114q-7 4 -7 9q0 2 4 8l26 32q6 6 12 1z" />
    <glyph glyph-name="Udieresis" unicode="&#xdc;" horiz-adv-x="706" 
d="M547 51q-65 -61 -194 -61q-134 0 -196.5 65t-62.5 201v473q0 13 10 13h54q7 0 9.5 -2.5t2.5 -9.5v-494q0 -185 188 -185q190 0 190 188v492q0 11 10 11h44q10 0 10 -11v-491q0 -128 -65 -189zM328 863q0 -8 -3 -11t-12 -3h-42q-8 0 -10.5 2.5t-2.5 9.5v81q0 12 10 12h50
q10 0 10 -11v-80zM460 863q0 -8 -3.5 -11t-11.5 -3h-42q-8 0 -10.5 2.5t-2.5 9.5v81q0 12 10 12h49q11 0 11 -11v-80z" />
    <glyph glyph-name="uni1EE4" unicode="&#x1ee4;" horiz-adv-x="706" 
d="M547 51q-65 -61 -194 -61q-134 0 -196.5 65t-62.5 201v473q0 13 10 13h54q7 0 9.5 -2.5t2.5 -9.5v-494q0 -185 188 -185q190 0 190 188v492q0 11 10 11h44q10 0 10 -11v-491q0 -128 -65 -189zM372 -151q0 -8 -3 -11t-11 -3h-42q-7 0 -9.5 2.5t-2.5 8.5v84q0 7 2 9.5
t8 2.5h48q10 0 10 -11v-82z" />
    <glyph glyph-name="Ugrave" unicode="&#xd9;" horiz-adv-x="706" 
d="M547 51q-65 -61 -194 -61q-134 0 -196.5 65t-62.5 201v473q0 13 10 13h54q7 0 9.5 -2.5t2.5 -9.5v-494q0 -185 188 -185q190 0 190 188v492q0 11 10 11h44q10 0 10 -11v-491q0 -128 -65 -189zM238 963l231 -95q7 -3 4 -12l-7 -20q-2 -5 -5 -6.5t-9 0.5l-228 73
q-7 3 -9 6.5t0 9.5l13 40q3 6 10 4z" />
    <glyph glyph-name="Uhungarumlaut" unicode="&#x170;" horiz-adv-x="706" 
d="M547 51q-65 -61 -194 -61q-134 0 -196.5 65t-62.5 201v473q0 13 10 13h54q7 0 9.5 -2.5t2.5 -9.5v-494q0 -185 188 -185q190 0 190 188v492q0 11 10 11h44q10 0 10 -11v-491q0 -128 -65 -189zM402 929q4 -6 4 -8q0 -5 -7 -9l-127 -114q-6 -4 -8 -4q-3 0 -8 5l-12 17
q-4 3 -4 6.5t3 5.5l121 134q6 4 11 -1zM556 929q3 -4 3 -8q0 -5 -7 -9l-127 -114q-6 -4 -8 -4q-4 0 -7 5l-13 17q-7 5 0 12l120 134q6 5 12 -1z" />
    <glyph glyph-name="uni0216" unicode="&#x216;" horiz-adv-x="706" 
d="M547 51q-65 -61 -194 -61q-134 0 -196.5 65t-62.5 201v473q0 13 10 13h54q7 0 9.5 -2.5t2.5 -9.5v-494q0 -185 188 -185q190 0 190 188v492q0 11 10 11h44q10 0 10 -11v-491q0 -128 -65 -189zM449 859q-4 0 -6.5 1.5t-4.5 5.5q-29 45 -81 45q-30 0 -45.5 -11.5
t-31.5 -32.5q-5 -8 -14 -8h-41q-8 0 -6 9q12 38 47.5 65t90.5 27q56 0 94 -27.5t48 -63.5q1 -2 1 -5q0 -5 -9 -5h-42z" />
    <glyph glyph-name="Umacron" unicode="&#x16a;" horiz-adv-x="706" 
d="M547 51q-65 -61 -194 -61q-134 0 -196.5 65t-62.5 201v473q0 13 10 13h54q7 0 9.5 -2.5t2.5 -9.5v-494q0 -185 188 -185q190 0 190 188v492q0 11 10 11h44q10 0 10 -11v-491q0 -128 -65 -189zM498 896q0 -11 -13 -11h-256q-9 0 -9 11v32q0 9 7 9h264q7 0 7 -8v-33z" />
    <glyph glyph-name="Uogonek" unicode="&#x172;" horiz-adv-x="706" 
d="M612 731v-491q0 -106 -45 -166t-134 -77q-50 -23 -71.5 -42t-21.5 -45q0 -40 53 -40q20 0 37 4t27 9q10 6 10 -4v-25q0 -7 -6 -10q-14 -6 -37 -11t-46 -5q-48 0 -72.5 21t-24.5 58q0 27 14 47t48 36q-128 2 -188.5 67.5t-60.5 198.5v473q0 13 10 13h54q7 0 9.5 -2.5
t2.5 -9.5v-494q0 -185 188 -185q190 0 190 188v492q0 11 10 11h44q10 0 10 -11z" />
    <glyph glyph-name="Uring" unicode="&#x16e;" horiz-adv-x="706" 
d="M547 51q-65 -61 -194 -61q-134 0 -196.5 65t-62.5 201v473q0 13 10 13h54q7 0 9.5 -2.5t2.5 -9.5v-494q0 -185 188 -185q190 0 190 188v492q0 11 10 11h44q10 0 10 -11v-491q0 -128 -65 -189zM435 788.5q-30 -29.5 -73 -29.5q-44 0 -73.5 30t-29.5 74q0 41 30 70t73 29
t73 -29t30 -72t-30 -72.5zM401 901q-16 16 -40 16q-23 0 -40.5 -16t-17.5 -41q0 -22 17.5 -39.5t40.5 -17.5q24 0 40 17t16 40q0 25 -16 41z" />
    <glyph glyph-name="Utilde" unicode="&#x168;" horiz-adv-x="706" 
d="M547 51q-65 -61 -194 -61q-134 0 -196.5 65t-62.5 201v473q0 13 10 13h54q7 0 9.5 -2.5t2.5 -9.5v-494q0 -185 188 -185q190 0 190 188v492q0 11 10 11h44q10 0 10 -11v-491q0 -128 -65 -189zM422 875q-19 0 -34 3.5t-34 10.5q-3 1 -20 6t-34 5t-28 -4.5t-19.5 -9.5
t-11.5 -7l-6 -3q-4 0 -7 8l-8 22q-2 5 -1.5 7t4.5 4q18 14 34 21.5t39 7.5q25 0 65 -14q4 -1 23 -7t38 -6q16 0 26.5 4t28.5 14q4 3 7 3q4 0 7 -7l9 -25l1 -4q0 -5 -7 -9q-31 -20 -72 -20z" />
    <glyph glyph-name="V" unicode="V" horiz-adv-x="700" 
d="M650.5 738.5q2.5 -3.5 0.5 -8.5l-257 -717q-4 -13 -19 -13h-53q-19 0 -22 12l-251 717q-1 2 -1 5t3 5.5t7 2.5h51q12 0 15 -10l220 -633q3 -9 8 -9q4 0 7 10l225 633q3 9 13 9h46q5 0 7.5 -3.5z" />
    <glyph glyph-name="W" unicode="W" horiz-adv-x="1035" 
d="M985 738q3 -4 1 -10l-207 -715q-3 -13 -19 -13h-49q-18 0 -21 12l-169 600q-1 5 -2.5 5t-2.5 -5l-172 -599q-4 -13 -19 -13h-50q-18 0 -21 12l-203 715q0 1 -0.5 2t0.5 2q0 11 12 11h48q7 0 10 -2t5 -8l172 -616q3 -10 6 -10t6 11l175 616q5 9 16 9h44q7 0 10 -2t5 -8
l173 -617q3 -9 6 -9t6 9l175 618q2 9 15 9h40q7 0 10 -4z" />
    <glyph glyph-name="Wacute" unicode="&#x1e82;" horiz-adv-x="1035" 
d="M985 738q3 -4 1 -10l-207 -715q-3 -13 -19 -13h-49q-18 0 -21 12l-169 600q-1 5 -2.5 5t-2.5 -5l-172 -599q-4 -13 -19 -13h-50q-18 0 -21 12l-203 715q0 1 -0.5 2t0.5 2q0 11 12 11h48q7 0 10 -2t5 -8l172 -616q3 -10 6 -10t6 11l175 616q5 9 16 9h44q7 0 10 -2t5 -8
l173 -617q3 -9 6 -9t6 9l175 618q2 9 15 9h40q7 0 10 -4zM649 919q1 -2 1 -6q0 -6 -10 -10l-228 -73q-2 -1 -6 -1q-7 0 -8 7l-7 20l-1 4q0 6 5 8l230 95h3q5 0 8 -4z" />
    <glyph glyph-name="Wcircumflex" unicode="&#x174;" horiz-adv-x="1035" 
d="M985 738q3 -4 1 -10l-207 -715q-3 -13 -19 -13h-49q-18 0 -21 12l-169 600q-1 5 -2.5 5t-2.5 -5l-172 -599q-4 -13 -19 -13h-50q-18 0 -21 12l-203 715q0 1 -0.5 2t0.5 2q0 11 12 11h48q7 0 10 -2t5 -8l172 -616q3 -10 6 -10t6 11l175 616q5 9 16 9h44q7 0 10 -2t5 -8
l173 -617q3 -9 6 -9t6 9l175 618q2 9 15 9h40q7 0 10 -4zM530 904q-7 7 -10 7t-11 -7l-59 -49q-5 -4 -8 -5.5t-9 -1.5h-47q-6 0 -7 3t4 8l102 87q10 10 22 10h31q7 0 12 -4t6 -5l100 -88q13 -11 -1 -11h-52q-9 0 -17 7z" />
    <glyph glyph-name="Wdieresis" unicode="&#x1e84;" horiz-adv-x="1035" 
d="M985 738q3 -4 1 -10l-207 -715q-3 -13 -19 -13h-49q-18 0 -21 12l-169 600q-1 5 -2.5 5t-2.5 -5l-172 -599q-4 -13 -19 -13h-50q-18 0 -21 12l-203 715q0 1 -0.5 2t0.5 2q0 11 12 11h48q7 0 10 -2t5 -8l172 -616q3 -10 6 -10t6 11l175 616q5 9 16 9h44q7 0 10 -2t5 -8
l173 -617q3 -9 6 -9t6 9l175 618q2 9 15 9h40q7 0 10 -4zM489 863q0 -8 -3 -11t-12 -3h-42q-8 0 -10.5 2.5t-2.5 9.5v81q0 12 10 12h50q10 0 10 -11v-80zM621 863q0 -8 -3.5 -11t-11.5 -3h-42q-8 0 -10.5 2.5t-2.5 9.5v81q0 12 10 12h49q11 0 11 -11v-80z" />
    <glyph glyph-name="Wgrave" unicode="&#x1e80;" horiz-adv-x="1035" 
d="M985 738q3 -4 1 -10l-207 -715q-3 -13 -19 -13h-49q-18 0 -21 12l-169 600q-1 5 -2.5 5t-2.5 -5l-172 -599q-4 -13 -19 -13h-50q-18 0 -21 12l-203 715q0 1 -0.5 2t0.5 2q0 11 12 11h48q7 0 10 -2t5 -8l172 -616q3 -10 6 -10t6 11l175 616q5 9 16 9h44q7 0 10 -2t5 -8
l173 -617q3 -9 6 -9t6 9l175 618q2 9 15 9h40q7 0 10 -4zM399 963l231 -95q7 -3 4 -12l-7 -20q-2 -5 -5 -6.5t-9 0.5l-228 73q-7 3 -9 6.5t0 9.5l13 40q3 6 10 4z" />
    <glyph glyph-name="X" unicode="X" horiz-adv-x="677" 
d="M630 6q0 -6 -10 -6h-60q-9 0 -13 7l-202 301q-4 9 -10 9q-4 0 -12 -12l-199 -298q-4 -7 -14 -7h-53q-10 0 -10 5q0 4 5 12l235 351q4 5 4 10t-5 13l-227 339q-2 4 -2 6q0 6 7 6h64q10 0 14 -7l188 -284q5 -6 9 -6q5 0 9 7l188 283q4 7 13 7h59q10 0 4 -10l-227 -337
q-3 -6 -3 -10t3 -10l240 -358q5 -8 5 -11z" />
    <glyph glyph-name="Y" unicode="Y" horiz-adv-x="660" 
d="M615 738q2 -4 -1 -9l-238 -401q-3 -5 -4 -11t-1 -16v-285q0 -16 -18 -16h-43q-15 0 -15 13v281q0 8 -1.5 13t-4.5 11l-243 409q-2 3 -2 7q0 8 12 8h52q8 0 11.5 -2t7.5 -9l196 -335q6 -12 12 -12q4 0 11 10l194 337q4 7 7.5 9t11.5 2h48q6 0 8 -4z" />
    <glyph glyph-name="Yacute" unicode="&#xdd;" horiz-adv-x="660" 
d="M615 738q2 -4 -1 -9l-238 -401q-3 -5 -4 -11t-1 -16v-285q0 -16 -18 -16h-43q-15 0 -15 13v281q0 8 -1.5 13t-4.5 11l-243 409q-2 3 -2 7q0 8 12 8h52q8 0 11.5 -2t7.5 -9l196 -335q6 -12 12 -12q4 0 11 10l194 337q4 7 7.5 9t11.5 2h48q6 0 8 -4zM457 919q1 -2 1 -6
q0 -6 -10 -10l-228 -73q-2 -1 -6 -1q-7 0 -8 7l-7 20l-1 4q0 6 5 8l230 95h3q5 0 8 -4z" />
    <glyph glyph-name="Ycircumflex" unicode="&#x176;" horiz-adv-x="660" 
d="M615 738q2 -4 -1 -9l-238 -401q-3 -5 -4 -11t-1 -16v-285q0 -16 -18 -16h-43q-15 0 -15 13v281q0 8 -1.5 13t-4.5 11l-243 409q-2 3 -2 7q0 8 12 8h52q8 0 11.5 -2t7.5 -9l196 -335q6 -12 12 -12q4 0 11 10l194 337q4 7 7.5 9t11.5 2h48q6 0 8 -4zM338 904q-7 7 -10 7
t-11 -7l-59 -49q-5 -4 -8 -5.5t-9 -1.5h-47q-6 0 -7 3t4 8l102 87q10 10 22 10h31q7 0 12 -4t6 -5l100 -88q13 -11 -1 -11h-52q-9 0 -17 7z" />
    <glyph glyph-name="Ydieresis" unicode="&#x178;" horiz-adv-x="660" 
d="M615 738q2 -4 -1 -9l-238 -401q-3 -5 -4 -11t-1 -16v-285q0 -16 -18 -16h-43q-15 0 -15 13v281q0 8 -1.5 13t-4.5 11l-243 409q-2 3 -2 7q0 8 12 8h52q8 0 11.5 -2t7.5 -9l196 -335q6 -12 12 -12q4 0 11 10l194 337q4 7 7.5 9t11.5 2h48q6 0 8 -4zM297 863q0 -8 -3 -11
t-12 -3h-42q-8 0 -10.5 2.5t-2.5 9.5v81q0 12 10 12h50q10 0 10 -11v-80zM429 863q0 -8 -3.5 -11t-11.5 -3h-42q-8 0 -10.5 2.5t-2.5 9.5v81q0 12 10 12h49q11 0 11 -11v-80z" />
    <glyph glyph-name="Ygrave" unicode="&#x1ef2;" horiz-adv-x="660" 
d="M615 738q2 -4 -1 -9l-238 -401q-3 -5 -4 -11t-1 -16v-285q0 -16 -18 -16h-43q-15 0 -15 13v281q0 8 -1.5 13t-4.5 11l-243 409q-2 3 -2 7q0 8 12 8h52q8 0 11.5 -2t7.5 -9l196 -335q6 -12 12 -12q4 0 11 10l194 337q4 7 7.5 9t11.5 2h48q6 0 8 -4zM207 963l231 -95
q7 -3 4 -12l-7 -20q-2 -5 -5 -6.5t-9 0.5l-228 73q-7 3 -9 6.5t0 9.5l13 40q3 6 10 4z" />
    <glyph glyph-name="uni1EF8" unicode="&#x1ef8;" horiz-adv-x="660" 
d="M615 738q2 -4 -1 -9l-238 -401q-3 -5 -4 -11t-1 -16v-285q0 -16 -18 -16h-43q-15 0 -15 13v281q0 8 -1.5 13t-4.5 11l-243 409q-2 3 -2 7q0 8 12 8h52q8 0 11.5 -2t7.5 -9l196 -335q6 -12 12 -12q4 0 11 10l194 337q4 7 7.5 9t11.5 2h48q6 0 8 -4zM391 875q-19 0 -34 3.5
t-34 10.5q-3 1 -20 6t-34 5t-28 -4.5t-19.5 -9.5t-11.5 -7l-6 -3q-4 0 -7 8l-8 22q-2 5 -1.5 7t4.5 4q18 14 34 21.5t39 7.5q25 0 65 -14q4 -1 23 -7t38 -6q16 0 26.5 4t28.5 14q4 3 7 3q4 0 7 -7l9 -25l1 -4q0 -5 -7 -9q-31 -20 -72 -20z" />
    <glyph glyph-name="Z" unicode="Z" horiz-adv-x="619" 
d="M52.5 2q-2.5 2 -2.5 8v20q0 6 2.5 11t7.5 11l401 621q6 9 -4 9h-384q-9 0 -9 9v43q0 8 8 8h486q9 0 9 -8v-23q0 -4 -2.5 -9t-4.5 -8l-407 -625q-6 -9 3 -9h401q5 0 7 -1.5t2 -5.5v-44q0 -9 -10 -9h-495q-6 0 -8.5 2z" />
    <glyph glyph-name="Zacute" unicode="&#x179;" horiz-adv-x="619" 
d="M52.5 2q-2.5 2 -2.5 8v20q0 6 2.5 11t7.5 11l401 621q6 9 -4 9h-384q-9 0 -9 9v43q0 8 8 8h486q9 0 9 -8v-23q0 -4 -2.5 -9t-4.5 -8l-407 -625q-6 -9 3 -9h401q5 0 7 -1.5t2 -5.5v-44q0 -9 -10 -9h-495q-6 0 -8.5 2zM445 919q1 -2 1 -6q0 -6 -10 -10l-228 -73
q-2 -1 -6 -1q-7 0 -8 7l-7 20l-1 4q0 6 5 8l230 95h3q5 0 8 -4z" />
    <glyph glyph-name="Zcaron" unicode="&#x17d;" horiz-adv-x="619" 
d="M52.5 2q-2.5 2 -2.5 8v20q0 6 2.5 11t7.5 11l401 621q6 9 -4 9h-384q-9 0 -9 9v43q0 8 8 8h486q9 0 9 -8v-23q0 -4 -2.5 -9t-4.5 -8l-407 -625q-6 -9 3 -9h401q5 0 7 -1.5t2 -5.5v-44q0 -9 -10 -9h-495q-6 0 -8.5 2zM399 954h52q7 0 7 -3t-6 -8l-100 -88q-2 -1 -6.5 -5
t-11.5 -4h-31q-10 0 -22 10l-102 87q-4 4 -4 7q0 4 7 4h47q5 0 8.5 -1.5t8.5 -4.5l59 -49q8 -7 11 -7t10 7l56 49q9 6 17 6z" />
    <glyph glyph-name="Zdotaccent" unicode="&#x17b;" horiz-adv-x="619" 
d="M52.5 2q-2.5 2 -2.5 8v20q0 6 2.5 11t7.5 11l401 621q6 9 -4 9h-384q-9 0 -9 9v43q0 8 8 8h486q9 0 9 -8v-23q0 -4 -2.5 -9t-4.5 -8l-407 -625q-6 -9 3 -9h401q5 0 7 -1.5t2 -5.5v-44q0 -9 -10 -9h-495q-6 0 -8.5 2zM353 859q0 -8 -3 -11t-12 -3h-46q-7 0 -10 2.5t-3 9.5
v85q0 7 2.5 9.5t8.5 2.5h53q6 0 8 -2.5t2 -9.5v-83z" />
    <glyph glyph-name="uni1E92" unicode="&#x1e92;" horiz-adv-x="619" 
d="M52.5 2q-2.5 2 -2.5 8v20q0 6 2.5 11t7.5 11l401 621q6 9 -4 9h-384q-9 0 -9 9v43q0 8 8 8h486q9 0 9 -8v-23q0 -4 -2.5 -9t-4.5 -8l-407 -625q-6 -9 3 -9h401q5 0 7 -1.5t2 -5.5v-44q0 -9 -10 -9h-495q-6 0 -8.5 2zM352 -151q0 -8 -3 -11t-11 -3h-42q-7 0 -9.5 2.5
t-2.5 8.5v84q0 7 2 9.5t8 2.5h48q10 0 10 -11v-82z" />
    <glyph glyph-name="a" unicode="a" horiz-adv-x="544" 
d="M309.5 9q-44.5 -19 -97.5 -19q-79 0 -124 39t-45 106q0 78 65.5 123t191.5 54l89 7q17 2 17 15v29q0 58 -36.5 92t-98.5 34q-92 0 -153 -85q-3 -5 -6 -6t-7 1l-41 17q-4 2 -4 5q0 4 3 8q31 52 85 81.5t126 29.5q93 0 144.5 -45.5t51.5 -126.5v-355q0 -13 -12 -13h-37
q-12 0 -12 13l-2 52q-2 7 -5 7t-8 -5q-40 -39 -84.5 -58zM391 274l-75 -6q-206 -15 -206 -126q0 -46 33 -73t88 -27q33 0 65 12t58 32q52 43 52 85v88q0 17 -15 15z" />
    <glyph glyph-name="aacute" unicode="&#xe1;" horiz-adv-x="544" 
d="M309.5 9q-44.5 -19 -97.5 -19q-79 0 -124 39t-45 106q0 78 65.5 123t191.5 54l89 7q17 2 17 15v29q0 58 -36.5 92t-98.5 34q-92 0 -153 -85q-3 -5 -6 -6t-7 1l-41 17q-4 2 -4 5q0 4 3 8q31 52 85 81.5t126 29.5q93 0 144.5 -45.5t51.5 -126.5v-355q0 -13 -12 -13h-37
q-12 0 -12 13l-2 52q-2 7 -5 7t-8 -5q-40 -39 -84.5 -58zM391 274l-75 -6q-206 -15 -206 -126q0 -46 33 -73t88 -27q33 0 65 12t58 32q52 43 52 85v88q0 17 -15 15zM400 707q1 -2 1 -6q0 -6 -10 -10l-228 -73q-2 -1 -6 -1q-7 0 -8 7l-7 20l-1 4q0 6 5 8l230 95h3q5 0 8 -4z
" />
    <glyph glyph-name="abreve" unicode="&#x103;" horiz-adv-x="544" 
d="M309.5 9q-44.5 -19 -97.5 -19q-79 0 -124 39t-45 106q0 78 65.5 123t191.5 54l89 7q17 2 17 15v29q0 58 -36.5 92t-98.5 34q-92 0 -153 -85q-3 -5 -6 -6t-7 1l-41 17q-4 2 -4 5q0 4 3 8q31 52 85 81.5t126 29.5q93 0 144.5 -45.5t51.5 -126.5v-355q0 -13 -12 -13h-37
q-12 0 -12 13l-2 52q-2 7 -5 7t-8 -5q-40 -39 -84.5 -58zM391 274l-75 -6q-206 -15 -206 -126q0 -46 33 -73t88 -27q33 0 65 12t58 32q52 43 52 85v88q0 17 -15 15zM411 740q2 -2 0 -8q-10 -36 -48 -63.5t-94 -27.5q-55 0 -90.5 27t-47.5 65v3q0 6 6 6h41q9 0 14 -8
q16 -21 31.5 -32.5t45.5 -11.5q52 0 81 45q2 4 4.5 5.5t6.5 1.5h42q6 0 8 -2z" />
    <glyph glyph-name="acircumflex" unicode="&#xe2;" horiz-adv-x="544" 
d="M309.5 9q-44.5 -19 -97.5 -19q-79 0 -124 39t-45 106q0 78 65.5 123t191.5 54l89 7q17 2 17 15v29q0 58 -36.5 92t-98.5 34q-92 0 -153 -85q-3 -5 -6 -6t-7 1l-41 17q-4 2 -4 5q0 4 3 8q31 52 85 81.5t126 29.5q93 0 144.5 -45.5t51.5 -126.5v-355q0 -13 -12 -13h-37
q-12 0 -12 13l-2 52q-2 7 -5 7t-8 -5q-40 -39 -84.5 -58zM391 274l-75 -6q-206 -15 -206 -126q0 -46 33 -73t88 -27q33 0 65 12t58 32q52 43 52 85v88q0 17 -15 15zM281 692q-7 7 -10 7t-11 -7l-59 -49q-5 -4 -8 -5.5t-9 -1.5h-47q-6 0 -7 3t4 8l102 87q10 10 22 10h31
q7 0 12 -4t6 -5l100 -88q13 -11 -1 -11h-52q-9 0 -17 7z" />
    <glyph glyph-name="uni0201" unicode="&#x201;" horiz-adv-x="544" 
d="M309.5 9q-44.5 -19 -97.5 -19q-79 0 -124 39t-45 106q0 78 65.5 123t191.5 54l89 7q17 2 17 15v29q0 58 -36.5 92t-98.5 34q-92 0 -153 -85q-3 -5 -6 -6t-7 1l-41 17q-4 2 -4 5q0 4 3 8q31 52 85 81.5t126 29.5q93 0 144.5 -45.5t51.5 -126.5v-355q0 -13 -12 -13h-37
q-12 0 -12 13l-2 52q-2 7 -5 7t-8 -5q-40 -39 -84.5 -58zM391 274l-75 -6q-206 -15 -206 -126q0 -46 33 -73t88 -27q33 0 65 12t58 32q52 43 52 85v88q0 17 -15 15zM109 750l121 -134q5 -7 -1 -12l-13 -17q-3 -5 -7 -5q-2 0 -8 4l-127 114q-7 4 -7 9q0 2 4 8l26 32q6 6 12 1
zM262 750l120 -134q7 -7 0 -12l-13 -17q-3 -5 -7 -5q-2 0 -8 4l-127 114q-7 4 -7 9q0 2 4 8l26 32q6 6 12 1z" />
    <glyph glyph-name="adieresis" unicode="&#xe4;" horiz-adv-x="544" 
d="M309.5 9q-44.5 -19 -97.5 -19q-79 0 -124 39t-45 106q0 78 65.5 123t191.5 54l89 7q17 2 17 15v29q0 58 -36.5 92t-98.5 34q-92 0 -153 -85q-3 -5 -6 -6t-7 1l-41 17q-4 2 -4 5q0 4 3 8q31 52 85 81.5t126 29.5q93 0 144.5 -45.5t51.5 -126.5v-355q0 -13 -12 -13h-37
q-12 0 -12 13l-2 52q-2 7 -5 7t-8 -5q-40 -39 -84.5 -58zM391 274l-75 -6q-206 -15 -206 -126q0 -46 33 -73t88 -27q33 0 65 12t58 32q52 43 52 85v88q0 17 -15 15zM240 651q0 -8 -3 -11t-12 -3h-42q-8 0 -10.5 2.5t-2.5 9.5v81q0 12 10 12h50q10 0 10 -11v-80zM372 651
q0 -8 -3.5 -11t-11.5 -3h-42q-8 0 -10.5 2.5t-2.5 9.5v81q0 12 10 12h49q11 0 11 -11v-80z" />
    <glyph glyph-name="agrave" unicode="&#xe0;" horiz-adv-x="544" 
d="M309.5 9q-44.5 -19 -97.5 -19q-79 0 -124 39t-45 106q0 78 65.5 123t191.5 54l89 7q17 2 17 15v29q0 58 -36.5 92t-98.5 34q-92 0 -153 -85q-3 -5 -6 -6t-7 1l-41 17q-4 2 -4 5q0 4 3 8q31 52 85 81.5t126 29.5q93 0 144.5 -45.5t51.5 -126.5v-355q0 -13 -12 -13h-37
q-12 0 -12 13l-2 52q-2 7 -5 7t-8 -5q-40 -39 -84.5 -58zM391 274l-75 -6q-206 -15 -206 -126q0 -46 33 -73t88 -27q33 0 65 12t58 32q52 43 52 85v88q0 17 -15 15zM150 751l231 -95q7 -3 4 -12l-7 -20q-2 -5 -5 -6.5t-9 0.5l-228 73q-7 3 -9 6.5t0 9.5l13 40q3 6 10 4z" />
    <glyph glyph-name="uni0203" unicode="&#x203;" horiz-adv-x="544" 
d="M309.5 9q-44.5 -19 -97.5 -19q-79 0 -124 39t-45 106q0 78 65.5 123t191.5 54l89 7q17 2 17 15v29q0 58 -36.5 92t-98.5 34q-92 0 -153 -85q-3 -5 -6 -6t-7 1l-41 17q-4 2 -4 5q0 4 3 8q31 52 85 81.5t126 29.5q93 0 144.5 -45.5t51.5 -126.5v-355q0 -13 -12 -13h-37
q-12 0 -12 13l-2 52q-2 7 -5 7t-8 -5q-40 -39 -84.5 -58zM391 274l-75 -6q-206 -15 -206 -126q0 -46 33 -73t88 -27q33 0 65 12t58 32q52 43 52 85v88q0 17 -15 15zM361 647q-4 0 -6.5 1.5t-4.5 5.5q-29 45 -81 45q-30 0 -45.5 -11.5t-31.5 -32.5q-5 -8 -14 -8h-41
q-8 0 -6 9q12 38 47.5 65t90.5 27q56 0 94 -27.5t48 -63.5q1 -2 1 -5q0 -5 -9 -5h-42z" />
    <glyph glyph-name="amacron" unicode="&#x101;" horiz-adv-x="544" 
d="M309.5 9q-44.5 -19 -97.5 -19q-79 0 -124 39t-45 106q0 78 65.5 123t191.5 54l89 7q17 2 17 15v29q0 58 -36.5 92t-98.5 34q-92 0 -153 -85q-3 -5 -6 -6t-7 1l-41 17q-4 2 -4 5q0 4 3 8q31 52 85 81.5t126 29.5q93 0 144.5 -45.5t51.5 -126.5v-355q0 -13 -12 -13h-37
q-12 0 -12 13l-2 52q-2 7 -5 7t-8 -5q-40 -39 -84.5 -58zM391 274l-75 -6q-206 -15 -206 -126q0 -46 33 -73t88 -27q33 0 65 12t58 32q52 43 52 85v88q0 17 -15 15zM410 684q0 -11 -13 -11h-256q-9 0 -9 11v32q0 9 7 9h264q7 0 7 -8v-33z" />
    <glyph glyph-name="aogonek" unicode="&#x105;" horiz-adv-x="544" 
d="M495 -117v-25q0 -7 -6 -10q-14 -6 -37 -11t-46 -5q-48 0 -72.5 21t-24.5 58q0 33 22.5 57t77.5 41v4l-2 52q-2 7 -5 7t-8 -5q-40 -39 -84.5 -58t-97.5 -19q-79 0 -124 39t-45 106q0 78 65.5 123t191.5 54l89 7q17 2 17 15v29q0 58 -36.5 92t-98.5 34q-92 0 -153 -85
q-3 -5 -6 -6t-7 1l-41 17q-4 2 -4 5q0 4 3 8q31 52 85 81.5t126 29.5q93 0 144.5 -45.5t51.5 -126.5v-355q0 -13 -11 -13q-48 -22 -69.5 -41.5t-21.5 -44.5q0 -40 53 -40q20 0 37 4t27 9q10 6 10 -4zM406 259q0 17 -15 15l-75 -6q-206 -15 -206 -126q0 -46 33 -73t88 -27
q33 0 65 12t58 32q52 43 52 85v88z" />
    <glyph glyph-name="aring" unicode="&#xe5;" horiz-adv-x="544" 
d="M309.5 9q-44.5 -19 -97.5 -19q-79 0 -124 39t-45 106q0 78 65.5 123t191.5 54l89 7q17 2 17 15v29q0 58 -36.5 92t-98.5 34q-92 0 -153 -85q-3 -5 -6 -6t-7 1l-41 17q-4 2 -4 5q0 4 3 8q31 52 85 81.5t126 29.5q93 0 144.5 -45.5t51.5 -126.5v-355q0 -13 -12 -13h-37
q-12 0 -12 13l-2 52q-2 7 -5 7t-8 -5q-40 -39 -84.5 -58zM391 274l-75 -6q-206 -15 -206 -126q0 -46 33 -73t88 -27q33 0 65 12t58 32q52 43 52 85v88q0 17 -15 15zM344 626.5q-30 -29.5 -73 -29.5q-44 0 -73.5 30t-29.5 74q0 41 30 70t73 29t73 -29t30 -72t-30 -72.5z
M310 739q-16 16 -40 16q-23 0 -40.5 -16t-17.5 -41q0 -22 17.5 -39.5t40.5 -17.5q24 0 40 17t16 40q0 25 -16 41z" />
    <glyph glyph-name="aringacute" unicode="&#x1fb;" horiz-adv-x="544" 
d="M309.5 9q-44.5 -19 -97.5 -19q-79 0 -124 39t-45 106q0 78 65.5 123t191.5 54l89 7q17 2 17 15v29q0 58 -36.5 92t-98.5 34q-92 0 -153 -85q-3 -5 -6 -6t-7 1l-41 17q-4 2 -4 5q0 4 3 8q31 52 85 81.5t126 29.5q93 0 144.5 -45.5t51.5 -126.5v-355q0 -13 -12 -13h-37
q-12 0 -12 13l-2 52q-2 7 -5 7t-8 -5q-40 -39 -84.5 -58zM391 274l-75 -6q-206 -15 -206 -126q0 -46 33 -73t88 -27q33 0 65 12t58 32q52 43 52 85v88q0 17 -15 15zM401 913q1 -2 1 -6q0 -6 -10 -10l-228 -73q-2 -1 -6 -1q-7 0 -8 7l-7 20l-1 4q0 6 5 8l230 95h3q5 0 8 -4z
M365 615.5q-30 -29.5 -73 -29.5q-44 0 -73.5 30t-29.5 74q0 41 30 70t73 29t73 -29t30 -72t-30 -72.5zM331 728q-16 16 -40 16q-23 0 -40.5 -16t-17.5 -41q0 -22 17.5 -39.5t40.5 -17.5q24 0 40 17t16 40q0 25 -16 41z" />
    <glyph glyph-name="atilde" unicode="&#xe3;" horiz-adv-x="544" 
d="M309.5 9q-44.5 -19 -97.5 -19q-79 0 -124 39t-45 106q0 78 65.5 123t191.5 54l89 7q17 2 17 15v29q0 58 -36.5 92t-98.5 34q-92 0 -153 -85q-3 -5 -6 -6t-7 1l-41 17q-4 2 -4 5q0 4 3 8q31 52 85 81.5t126 29.5q93 0 144.5 -45.5t51.5 -126.5v-355q0 -13 -12 -13h-37
q-12 0 -12 13l-2 52q-2 7 -5 7t-8 -5q-40 -39 -84.5 -58zM391 274l-75 -6q-206 -15 -206 -126q0 -46 33 -73t88 -27q33 0 65 12t58 32q52 43 52 85v88q0 17 -15 15zM334 663q-19 0 -34 3.5t-34 10.5q-3 1 -20 6t-34 5t-28 -4.5t-19.5 -9.5t-11.5 -7l-6 -3q-4 0 -7 8l-8 22
q-2 5 -1.5 7t4.5 4q18 14 34 21.5t39 7.5q25 0 65 -14q4 -1 23 -7t38 -6q16 0 26.5 4t28.5 14q4 3 7 3q4 0 7 -7l9 -25l1 -4q0 -5 -7 -9q-31 -20 -72 -20z" />
    <glyph glyph-name="ae" unicode="&#xe6;" horiz-adv-x="928" 
d="M471 244.5q-4 -4.5 -4 -19.5q0 -44 25 -86.5t67.5 -69t92.5 -26.5q61 0 97 23t68 64q4 5 6 5.5t6 -1.5l34 -19q6 -3 1 -12q-30 -53 -87.5 -83t-130.5 -30q-76 0 -123 32t-83 80q-3 5 -6 0q-42 -50 -91.5 -81t-132.5 -31q-78 0 -122.5 39t-44.5 108q0 76 61.5 120.5
t185.5 54.5l98 7q18 2 18 15v29q0 59 -36 92.5t-103 33.5q-88 0 -150 -85q-4 -5 -6.5 -6t-7.5 1l-39 17q-3 2 -3.5 5.5t2.5 7.5q32 54 86 82.5t126 28.5t115.5 -26t60.5 -80q31 52 80.5 79t115.5 27q71 0 124 -31.5t82.5 -92t29.5 -145.5q0 -11 -3.5 -16t-14.5 -5l-378 -1
q-12 0 -16 -4.5zM557 465.5q-40 -23.5 -63.5 -67t-23.5 -100.5l329 -1q11 0 14 3.5t3 12.5q0 47 -21.5 87.5t-60.5 64.5t-88 24t-89 -23.5zM402.5 269q-3.5 4 -12.5 3l-82 -6q-197 -17 -197 -125q0 -44 29.5 -71.5t81.5 -27.5q50 0 92 18t67 48.5t25 65.5v83q0 8 -3.5 12z
" />
    <glyph glyph-name="aeacute" unicode="&#x1fd;" horiz-adv-x="928" 
d="M471 244.5q-4 -4.5 -4 -19.5q0 -44 25 -86.5t67.5 -69t92.5 -26.5q61 0 97 23t68 64q4 5 6 5.5t6 -1.5l34 -19q6 -3 1 -12q-30 -53 -87.5 -83t-130.5 -30q-76 0 -123 32t-83 80q-3 5 -6 0q-42 -50 -91.5 -81t-132.5 -31q-78 0 -122.5 39t-44.5 108q0 76 61.5 120.5
t185.5 54.5l98 7q18 2 18 15v29q0 59 -36 92.5t-103 33.5q-88 0 -150 -85q-4 -5 -6.5 -6t-7.5 1l-39 17q-3 2 -3.5 5.5t2.5 7.5q32 54 86 82.5t126 28.5t115.5 -26t60.5 -80q31 52 80.5 79t115.5 27q71 0 124 -31.5t82.5 -92t29.5 -145.5q0 -11 -3.5 -16t-14.5 -5l-378 -1
q-12 0 -16 -4.5zM557 465.5q-40 -23.5 -63.5 -67t-23.5 -100.5l329 -1q11 0 14 3.5t3 12.5q0 47 -21.5 87.5t-60.5 64.5t-88 24t-89 -23.5zM402.5 269q-3.5 4 -12.5 3l-82 -6q-197 -17 -197 -125q0 -44 29.5 -71.5t81.5 -27.5q50 0 92 18t67 48.5t25 65.5v83q0 8 -3.5 12z
M582 707q1 -2 1 -6q0 -6 -10 -10l-228 -73q-2 -1 -6 -1q-7 0 -8 7l-7 20l-1 4q0 6 5 8l230 95h3q5 0 8 -4z" />
    <glyph glyph-name="b" unicode="b" horiz-adv-x="596" 
d="M96 0q-7 0 -10 3.5t-3 11.5v715q0 12 11 12h45q10 0 10 -13v-248q0 -11 5 -11q2 0 9 5q70 65 165 65q107 0 161 -76t54 -197q0 -129 -60.5 -203t-167.5 -74q-63 0 -103 25t-61 53q-3 5 -6 5q-4 0 -4 -8l-4 -50q-1 -8 -4.5 -11.5t-12.5 -3.5h-24zM149 178q0 -37 22 -68.5
t58 -50t74 -18.5q76 0 123.5 57t47.5 169q0 104 -42.5 162.5t-121.5 58.5q-48 0 -89.5 -22t-71.5 -57v-231z" />
    <glyph glyph-name="c" unicode="c" horiz-adv-x="540" 
d="M499 423q3 -6 2.5 -8.5t-5.5 -4.5l-42 -14q-1 -1 -4 -1q-4 0 -8 6q-36 46 -68.5 66.5t-72.5 20.5q-83 0 -133 -60.5t-50 -162.5t50 -162.5t134 -60.5q49 0 86.5 24t68.5 73q6 8 12 4l35 -16q6 -3 3 -12q-33 -58 -86.5 -91.5t-124.5 -33.5q-72 0 -128 34.5t-87 96.5
t-31 142t31.5 143t87.5 98.5t127 35.5q132 0 203 -117z" />
    <glyph glyph-name="cacute" unicode="&#x107;" horiz-adv-x="540" 
d="M499 423q3 -6 2.5 -8.5t-5.5 -4.5l-42 -14q-1 -1 -4 -1q-4 0 -8 6q-36 46 -68.5 66.5t-72.5 20.5q-83 0 -133 -60.5t-50 -162.5t50 -162.5t134 -60.5q49 0 86.5 24t68.5 73q6 8 12 4l35 -16q6 -3 3 -12q-33 -58 -86.5 -91.5t-124.5 -33.5q-72 0 -128 34.5t-87 96.5
t-31 142t31.5 143t87.5 98.5t127 35.5q132 0 203 -117zM424 707q1 -2 1 -6q0 -6 -10 -10l-228 -73q-2 -1 -6 -1q-7 0 -8 7l-7 20l-1 4q0 6 5 8l230 95h3q5 0 8 -4z" />
    <glyph glyph-name="ccaron" unicode="&#x10d;" horiz-adv-x="540" 
d="M499 423q3 -6 2.5 -8.5t-5.5 -4.5l-42 -14q-1 -1 -4 -1q-4 0 -8 6q-36 46 -68.5 66.5t-72.5 20.5q-83 0 -133 -60.5t-50 -162.5t50 -162.5t134 -60.5q49 0 86.5 24t68.5 73q6 8 12 4l35 -16q6 -3 3 -12q-33 -58 -86.5 -91.5t-124.5 -33.5q-72 0 -128 34.5t-87 96.5
t-31 142t31.5 143t87.5 98.5t127 35.5q132 0 203 -117zM378 742h52q7 0 7 -3t-6 -8l-100 -88q-2 -1 -6.5 -5t-11.5 -4h-31q-10 0 -22 10l-102 87q-4 4 -4 7q0 4 7 4h47q5 0 8.5 -1.5t8.5 -4.5l59 -49q8 -7 11 -7t10 7l56 49q9 6 17 6z" />
    <glyph glyph-name="ccedilla" unicode="&#xe7;" horiz-adv-x="540" 
d="M507 115q-31 -54 -80 -87t-113 -37l-18 -44q-1 -4 4 -4q43 -3 62 -24t19 -49q0 -37 -30 -57t-76 -20q-49 0 -81 21q-5 3 -4 8l10 23q3 5 8 2q13 -9 26.5 -14t33.5 -5q58 0 58 41q0 22 -19 33t-60 13q-8 0 -5 5l30 71q-66 5 -116 40.5t-78 95.5t-28 136q0 80 31.5 143
t87.5 98.5t127 35.5q132 0 203 -117q3 -6 2.5 -8.5t-5.5 -4.5l-42 -14q-1 -1 -4 -1q-4 0 -8 6q-36 46 -68.5 66.5t-72.5 20.5q-83 0 -133 -60.5t-50 -162.5t50 -162.5t134 -60.5q49 0 86.5 24t68.5 73q6 8 12 4l35 -16q6 -3 3 -12z" />
    <glyph glyph-name="ccircumflex" unicode="&#x109;" horiz-adv-x="540" 
d="M499 423q3 -6 2.5 -8.5t-5.5 -4.5l-42 -14q-1 -1 -4 -1q-4 0 -8 6q-36 46 -68.5 66.5t-72.5 20.5q-83 0 -133 -60.5t-50 -162.5t50 -162.5t134 -60.5q49 0 86.5 24t68.5 73q6 8 12 4l35 -16q6 -3 3 -12q-33 -58 -86.5 -91.5t-124.5 -33.5q-72 0 -128 34.5t-87 96.5
t-31 142t31.5 143t87.5 98.5t127 35.5q132 0 203 -117zM305 692q-7 7 -10 7t-11 -7l-59 -49q-5 -4 -8 -5.5t-9 -1.5h-47q-6 0 -7 3t4 8l102 87q10 10 22 10h31q7 0 12 -4t6 -5l100 -88q13 -11 -1 -11h-52q-9 0 -17 7z" />
    <glyph glyph-name="cdotaccent" unicode="&#x10b;" horiz-adv-x="540" 
d="M499 423q3 -6 2.5 -8.5t-5.5 -4.5l-42 -14q-1 -1 -4 -1q-4 0 -8 6q-36 46 -68.5 66.5t-72.5 20.5q-83 0 -133 -60.5t-50 -162.5t50 -162.5t134 -60.5q49 0 86.5 24t68.5 73q6 8 12 4l35 -16q6 -3 3 -12q-33 -58 -86.5 -91.5t-124.5 -33.5q-72 0 -128 34.5t-87 96.5
t-31 142t31.5 143t87.5 98.5t127 35.5q132 0 203 -117zM332 647q0 -8 -3 -11t-12 -3h-46q-7 0 -10 2.5t-3 9.5v85q0 7 2.5 9.5t8.5 2.5h53q6 0 8 -2.5t2 -9.5v-83z" />
    <glyph glyph-name="d" unicode="d" horiz-adv-x="596" 
d="M449 13v46q0 9 -4 9q-3 0 -8 -5q-30 -30 -65.5 -51.5t-94.5 -21.5q-64 0 -115.5 30t-81 90t-29.5 146q0 84 30 148.5t84 100t124 35.5q47 0 80.5 -14.5t62.5 -39.5q8 -5 10 -5q5 0 5 12v237q0 12 11 12h45q10 0 10 -11v-717q0 -8 -3 -11t-11 -3h-37q-13 0 -13 13z
M377 470.5q-35 17.5 -75 17.5q-53 0 -94.5 -27t-65 -78.5t-23.5 -122.5q0 -108 50 -163.5t126 -55.5q41 0 76 20t55.5 50.5t20.5 59.5v247q-35 35 -70 52.5z" />
    <glyph glyph-name="eth" unicode="&#xf0;" horiz-adv-x="598" 
d="M517.5 119q-30.5 -61 -87 -95t-133.5 -34q-72 0 -128.5 33.5t-87.5 93t-31 135.5q0 77 31 138t86.5 95.5t124.5 34.5q88 0 145 -57q-46 103 -153 176l-157 -89q-2 -1 -5 -1q-5 0 -9 7l-10 15q-7 9 1 13l141 79q-48 27 -108 51q-4 2 -4.5 5t3.5 7l29 21q2 1 4.5 2.5
t5.5 1.5q5 0 8 -2q71 -27 117 -55l99 56q3 1 6 1t5 -2l13 -25q4 -6 -1 -9l-83 -46q109 -75 159 -177.5t50 -232.5q0 -79 -30.5 -140zM393.5 70.5q40.5 27.5 63.5 75.5t23 108t-23.5 109t-64.5 77t-92 28q-52 0 -93.5 -28t-65 -77t-23.5 -109q0 -59 23.5 -107.5t65.5 -76
t94 -27.5t92.5 27.5z" />
    <glyph glyph-name="dcaron" unicode="&#x10f;" horiz-adv-x="666" 
d="M449 13v46q0 9 -4 9q-3 0 -8 -5q-30 -30 -65.5 -51.5t-94.5 -21.5q-64 0 -115.5 30t-81 90t-29.5 146q0 84 30 148.5t84 100t124 35.5q47 0 80.5 -14.5t62.5 -39.5q8 -5 10 -5q5 0 5 12v237q0 12 11 12h45q10 0 10 -11v-717q0 -8 -3 -11t-11 -3h-37q-13 0 -13 13z
M377 470.5q-35 17.5 -75 17.5q-53 0 -94.5 -27t-65 -78.5t-23.5 -122.5q0 -108 50 -163.5t126 -55.5q41 0 76 20t55.5 50.5t20.5 59.5v247q-35 35 -70 52.5zM576.5 558q-1.5 3 -0.5 6l30 71q2 6 1.5 8t-4.5 3l-7 1q-5 1 -7 3t-2 6v78q0 8 7 8h52q6 0 6 -7v-88l-1 -5l-34 -78
q-3 -9 -16 -9h-19q-4 0 -5.5 3z" />
    <glyph glyph-name="dcroat" unicode="&#x111;" horiz-adv-x="606" 
d="M583 658v-28q0 -11 -13 -11h-57v-605q0 -8 -3 -11t-11 -3h-37q-13 0 -13 13v46q0 9 -4 9q-3 0 -8 -5q-30 -30 -65.5 -51.5t-94.5 -21.5q-64 0 -115.5 30t-81 90t-29.5 146q0 84 30 148.5t84 100t124 35.5q47 0 80.5 -14.5t62.5 -39.5q8 -5 10 -5q5 0 5 12v126h-157
q-6 0 -7.5 2.5t-1.5 8.5v27q0 9 6 9h160v64q0 12 11 12h45q10 0 10 -11v-65h63q7 0 7 -8zM447 418q-35 35 -70 52.5t-75 17.5q-53 0 -94.5 -27t-65 -78.5t-23.5 -122.5q0 -108 50 -163.5t126 -55.5q41 0 76 20t55.5 50.5t20.5 59.5v247z" />
    <glyph glyph-name="uni1E0D" unicode="&#x1e0d;" horiz-adv-x="596" 
d="M449 13v46q0 9 -4 9q-3 0 -8 -5q-30 -30 -65.5 -51.5t-94.5 -21.5q-64 0 -115.5 30t-81 90t-29.5 146q0 84 30 148.5t84 100t124 35.5q47 0 80.5 -14.5t62.5 -39.5q8 -5 10 -5q5 0 5 12v237q0 12 11 12h45q10 0 10 -11v-717q0 -8 -3 -11t-11 -3h-37q-13 0 -13 13z
M377 470.5q-35 17.5 -75 17.5q-53 0 -94.5 -27t-65 -78.5t-23.5 -122.5q0 -108 50 -163.5t126 -55.5q41 0 76 20t55.5 50.5t20.5 59.5v247q-35 35 -70 52.5zM337 -151q0 -8 -3 -11t-11 -3h-42q-7 0 -9.5 2.5t-2.5 8.5v84q0 7 2 9.5t8 2.5h48q10 0 10 -11v-82z" />
    <glyph glyph-name="uni01F3" unicode="&#x1f3;" horiz-adv-x="1068" 
d="M449 13v46q0 9 -4 9q-3 0 -8 -5q-30 -30 -65.5 -51.5t-94.5 -21.5q-64 0 -115.5 30t-81 90t-29.5 146q0 84 30 148.5t84 100t124 35.5q47 0 80.5 -14.5t62.5 -39.5q8 -5 10 -5q5 0 5 12v237q0 12 11 12h45q10 0 10 -11v-717q0 -8 -3 -11t-11 -3h-37q-13 0 -13 13z
M377 470.5q-35 17.5 -75 17.5q-53 0 -94.5 -27t-65 -78.5t-23.5 -122.5q0 -108 50 -163.5t126 -55.5q41 0 76 20t55.5 50.5t20.5 59.5v247q-35 35 -70 52.5zM631 2q-2 2 -2 8v27q0 7 2 12t8 13l304 410q6 9 -4 9h-278q-10 0 -10 9v31q0 9 8 9h360q7 0 7 -8v-29q0 -14 -8 -25
l-305 -410q-6 -9 3 -9h307q9 0 9 -8v-31q0 -10 -11 -10h-383q-5 0 -7 2z" />
    <glyph glyph-name="uni01C6" unicode="&#x1c6;" horiz-adv-x="1068" 
d="M449 13v46q0 9 -4 9q-3 0 -8 -5q-30 -30 -65.5 -51.5t-94.5 -21.5q-64 0 -115.5 30t-81 90t-29.5 146q0 84 30 148.5t84 100t124 35.5q47 0 80.5 -14.5t62.5 -39.5q8 -5 10 -5q5 0 5 12v237q0 12 11 12h45q10 0 10 -11v-717q0 -8 -3 -11t-11 -3h-37q-13 0 -13 13z
M377 470.5q-35 17.5 -75 17.5q-53 0 -94.5 -27t-65 -78.5t-23.5 -122.5q0 -108 50 -163.5t126 -55.5q41 0 76 20t55.5 50.5t20.5 59.5v247q-35 35 -70 52.5zM631 2q-2 2 -2 8v27q0 7 2 12t8 13l304 410q6 9 -4 9h-278q-10 0 -10 9v31q0 9 8 9h360q7 0 7 -8v-29q0 -14 -8 -25
l-305 -410q-6 -9 3 -9h307q9 0 9 -8v-31q0 -10 -11 -10h-383q-5 0 -7 2zM928 742h52q7 0 7 -3t-6 -8l-100 -88q-2 -1 -6.5 -5t-11.5 -4h-31q-10 0 -22 10l-102 87q-4 4 -4 7q0 4 7 4h47q5 0 8.5 -1.5t8.5 -4.5l59 -49q8 -7 11 -7t10 7l56 49q9 6 17 6z" />
    <glyph glyph-name="e" unicode="e" horiz-adv-x="579" 
d="M144 139.5q25 -44.5 67.5 -70.5t92.5 -26q108 0 164 87q3 5 6 5.5t7 -1.5l34 -19q3 -2 3.5 -5t-2.5 -7q-37 -58 -90 -85.5t-126 -27.5t-129.5 34t-88.5 95.5t-32 140.5q0 85 32.5 148.5t89 97.5t127.5 34q109 0 172.5 -71.5t63.5 -197.5v-6q0 -7 -2.5 -11t-11.5 -4h-395
q-7 0 -7 -15q0 -51 25 -95.5zM451 297q10 0 13.5 3t3.5 11q0 48 -20.5 89t-58.5 65t-89 24q-56 0 -97 -27.5t-62.5 -71.5t-20.5 -93h331z" />
    <glyph glyph-name="eacute" unicode="&#xe9;" horiz-adv-x="579" 
d="M144 139.5q25 -44.5 67.5 -70.5t92.5 -26q108 0 164 87q3 5 6 5.5t7 -1.5l34 -19q3 -2 3.5 -5t-2.5 -7q-37 -58 -90 -85.5t-126 -27.5t-129.5 34t-88.5 95.5t-32 140.5q0 85 32.5 148.5t89 97.5t127.5 34q109 0 172.5 -71.5t63.5 -197.5v-6q0 -7 -2.5 -11t-11.5 -4h-395
q-7 0 -7 -15q0 -51 25 -95.5zM451 297q10 0 13.5 3t3.5 11q0 48 -20.5 89t-58.5 65t-89 24q-56 0 -97 -27.5t-62.5 -71.5t-20.5 -93h331zM427 707q1 -2 1 -6q0 -6 -10 -10l-228 -73q-2 -1 -6 -1q-7 0 -8 7l-7 20l-1 4q0 6 5 8l230 95h3q5 0 8 -4z" />
    <glyph glyph-name="ebreve" unicode="&#x115;" horiz-adv-x="579" 
d="M144 139.5q25 -44.5 67.5 -70.5t92.5 -26q108 0 164 87q3 5 6 5.5t7 -1.5l34 -19q3 -2 3.5 -5t-2.5 -7q-37 -58 -90 -85.5t-126 -27.5t-129.5 34t-88.5 95.5t-32 140.5q0 85 32.5 148.5t89 97.5t127.5 34q109 0 172.5 -71.5t63.5 -197.5v-6q0 -7 -2.5 -11t-11.5 -4h-395
q-7 0 -7 -15q0 -51 25 -95.5zM451 297q10 0 13.5 3t3.5 11q0 48 -20.5 89t-58.5 65t-89 24q-56 0 -97 -27.5t-62.5 -71.5t-20.5 -93h331zM438 740q2 -2 0 -8q-10 -36 -48 -63.5t-94 -27.5q-55 0 -90.5 27t-47.5 65v3q0 6 6 6h41q9 0 14 -8q16 -21 31.5 -32.5t45.5 -11.5
q52 0 81 45q2 4 4.5 5.5t6.5 1.5h42q6 0 8 -2z" />
    <glyph glyph-name="ecaron" unicode="&#x11b;" horiz-adv-x="579" 
d="M144 139.5q25 -44.5 67.5 -70.5t92.5 -26q108 0 164 87q3 5 6 5.5t7 -1.5l34 -19q3 -2 3.5 -5t-2.5 -7q-37 -58 -90 -85.5t-126 -27.5t-129.5 34t-88.5 95.5t-32 140.5q0 85 32.5 148.5t89 97.5t127.5 34q109 0 172.5 -71.5t63.5 -197.5v-6q0 -7 -2.5 -11t-11.5 -4h-395
q-7 0 -7 -15q0 -51 25 -95.5zM451 297q10 0 13.5 3t3.5 11q0 48 -20.5 89t-58.5 65t-89 24q-56 0 -97 -27.5t-62.5 -71.5t-20.5 -93h331zM381 742h52q7 0 7 -3t-6 -8l-100 -88q-2 -1 -6.5 -5t-11.5 -4h-31q-10 0 -22 10l-102 87q-4 4 -4 7q0 4 7 4h47q5 0 8.5 -1.5t8.5 -4.5
l59 -49q8 -7 11 -7t10 7l56 49q9 6 17 6z" />
    <glyph glyph-name="ecircumflex" unicode="&#xea;" horiz-adv-x="579" 
d="M144 139.5q25 -44.5 67.5 -70.5t92.5 -26q108 0 164 87q3 5 6 5.5t7 -1.5l34 -19q3 -2 3.5 -5t-2.5 -7q-37 -58 -90 -85.5t-126 -27.5t-129.5 34t-88.5 95.5t-32 140.5q0 85 32.5 148.5t89 97.5t127.5 34q109 0 172.5 -71.5t63.5 -197.5v-6q0 -7 -2.5 -11t-11.5 -4h-395
q-7 0 -7 -15q0 -51 25 -95.5zM451 297q10 0 13.5 3t3.5 11q0 48 -20.5 89t-58.5 65t-89 24q-56 0 -97 -27.5t-62.5 -71.5t-20.5 -93h331zM308 692q-7 7 -10 7t-11 -7l-59 -49q-5 -4 -8 -5.5t-9 -1.5h-47q-6 0 -7 3t4 8l102 87q10 10 22 10h31q7 0 12 -4t6 -5l100 -88
q13 -11 -1 -11h-52q-9 0 -17 7z" />
    <glyph glyph-name="uni0205" unicode="&#x205;" horiz-adv-x="579" 
d="M144 139.5q25 -44.5 67.5 -70.5t92.5 -26q108 0 164 87q3 5 6 5.5t7 -1.5l34 -19q3 -2 3.5 -5t-2.5 -7q-37 -58 -90 -85.5t-126 -27.5t-129.5 34t-88.5 95.5t-32 140.5q0 85 32.5 148.5t89 97.5t127.5 34q109 0 172.5 -71.5t63.5 -197.5v-6q0 -7 -2.5 -11t-11.5 -4h-395
q-7 0 -7 -15q0 -51 25 -95.5zM451 297q10 0 13.5 3t3.5 11q0 48 -20.5 89t-58.5 65t-89 24q-56 0 -97 -27.5t-62.5 -71.5t-20.5 -93h331zM136 750l121 -134q5 -7 -1 -12l-13 -17q-3 -5 -7 -5q-2 0 -8 4l-127 114q-7 4 -7 9q0 2 4 8l26 32q6 6 12 1zM289 750l120 -134
q7 -7 0 -12l-13 -17q-3 -5 -7 -5q-2 0 -8 4l-127 114q-7 4 -7 9q0 2 4 8l26 32q6 6 12 1z" />
    <glyph glyph-name="edieresis" unicode="&#xeb;" horiz-adv-x="579" 
d="M144 139.5q25 -44.5 67.5 -70.5t92.5 -26q108 0 164 87q3 5 6 5.5t7 -1.5l34 -19q3 -2 3.5 -5t-2.5 -7q-37 -58 -90 -85.5t-126 -27.5t-129.5 34t-88.5 95.5t-32 140.5q0 85 32.5 148.5t89 97.5t127.5 34q109 0 172.5 -71.5t63.5 -197.5v-6q0 -7 -2.5 -11t-11.5 -4h-395
q-7 0 -7 -15q0 -51 25 -95.5zM451 297q10 0 13.5 3t3.5 11q0 48 -20.5 89t-58.5 65t-89 24q-56 0 -97 -27.5t-62.5 -71.5t-20.5 -93h331zM267 651q0 -8 -3 -11t-12 -3h-42q-8 0 -10.5 2.5t-2.5 9.5v81q0 12 10 12h50q10 0 10 -11v-80zM399 651q0 -8 -3.5 -11t-11.5 -3h-42
q-8 0 -10.5 2.5t-2.5 9.5v81q0 12 10 12h49q11 0 11 -11v-80z" />
    <glyph glyph-name="edotaccent" unicode="&#x117;" horiz-adv-x="579" 
d="M144 139.5q25 -44.5 67.5 -70.5t92.5 -26q108 0 164 87q3 5 6 5.5t7 -1.5l34 -19q3 -2 3.5 -5t-2.5 -7q-37 -58 -90 -85.5t-126 -27.5t-129.5 34t-88.5 95.5t-32 140.5q0 85 32.5 148.5t89 97.5t127.5 34q109 0 172.5 -71.5t63.5 -197.5v-6q0 -7 -2.5 -11t-11.5 -4h-395
q-7 0 -7 -15q0 -51 25 -95.5zM451 297q10 0 13.5 3t3.5 11q0 48 -20.5 89t-58.5 65t-89 24q-56 0 -97 -27.5t-62.5 -71.5t-20.5 -93h331zM289 647q0 -8 -3 -11t-12 -3h-46q-7 0 -10 2.5t-3 9.5v85q0 7 2.5 9.5t8.5 2.5h53q6 0 8 -2.5t2 -9.5v-83z" />
    <glyph glyph-name="uni1EB9" unicode="&#x1eb9;" horiz-adv-x="579" 
d="M144 139.5q25 -44.5 67.5 -70.5t92.5 -26q108 0 164 87q3 5 6 5.5t7 -1.5l34 -19q3 -2 3.5 -5t-2.5 -7q-37 -58 -90 -85.5t-126 -27.5t-129.5 34t-88.5 95.5t-32 140.5q0 85 32.5 148.5t89 97.5t127.5 34q109 0 172.5 -71.5t63.5 -197.5v-6q0 -7 -2.5 -11t-11.5 -4h-395
q-7 0 -7 -15q0 -51 25 -95.5zM451 297q10 0 13.5 3t3.5 11q0 48 -20.5 89t-58.5 65t-89 24q-56 0 -97 -27.5t-62.5 -71.5t-20.5 -93h331zM335 -151q0 -8 -3 -11t-11 -3h-42q-7 0 -9.5 2.5t-2.5 8.5v84q0 7 2 9.5t8 2.5h48q10 0 10 -11v-82z" />
    <glyph glyph-name="egrave" unicode="&#xe8;" horiz-adv-x="579" 
d="M144 139.5q25 -44.5 67.5 -70.5t92.5 -26q108 0 164 87q3 5 6 5.5t7 -1.5l34 -19q3 -2 3.5 -5t-2.5 -7q-37 -58 -90 -85.5t-126 -27.5t-129.5 34t-88.5 95.5t-32 140.5q0 85 32.5 148.5t89 97.5t127.5 34q109 0 172.5 -71.5t63.5 -197.5v-6q0 -7 -2.5 -11t-11.5 -4h-395
q-7 0 -7 -15q0 -51 25 -95.5zM451 297q10 0 13.5 3t3.5 11q0 48 -20.5 89t-58.5 65t-89 24q-56 0 -97 -27.5t-62.5 -71.5t-20.5 -93h331zM177 751l231 -95q7 -3 4 -12l-7 -20q-2 -5 -5 -6.5t-9 0.5l-228 73q-7 3 -9 6.5t0 9.5l13 40q3 6 10 4z" />
    <glyph glyph-name="uni0207" unicode="&#x207;" horiz-adv-x="579" 
d="M144 139.5q25 -44.5 67.5 -70.5t92.5 -26q108 0 164 87q3 5 6 5.5t7 -1.5l34 -19q3 -2 3.5 -5t-2.5 -7q-37 -58 -90 -85.5t-126 -27.5t-129.5 34t-88.5 95.5t-32 140.5q0 85 32.5 148.5t89 97.5t127.5 34q109 0 172.5 -71.5t63.5 -197.5v-6q0 -7 -2.5 -11t-11.5 -4h-395
q-7 0 -7 -15q0 -51 25 -95.5zM451 297q10 0 13.5 3t3.5 11q0 48 -20.5 89t-58.5 65t-89 24q-56 0 -97 -27.5t-62.5 -71.5t-20.5 -93h331zM388 647q-4 0 -6.5 1.5t-4.5 5.5q-29 45 -81 45q-30 0 -45.5 -11.5t-31.5 -32.5q-5 -8 -14 -8h-41q-8 0 -6 9q12 38 47.5 65t90.5 27
q56 0 94 -27.5t48 -63.5q1 -2 1 -5q0 -5 -9 -5h-42z" />
    <glyph glyph-name="emacron" unicode="&#x113;" horiz-adv-x="579" 
d="M144 139.5q25 -44.5 67.5 -70.5t92.5 -26q108 0 164 87q3 5 6 5.5t7 -1.5l34 -19q3 -2 3.5 -5t-2.5 -7q-37 -58 -90 -85.5t-126 -27.5t-129.5 34t-88.5 95.5t-32 140.5q0 85 32.5 148.5t89 97.5t127.5 34q109 0 172.5 -71.5t63.5 -197.5v-6q0 -7 -2.5 -11t-11.5 -4h-395
q-7 0 -7 -15q0 -51 25 -95.5zM451 297q10 0 13.5 3t3.5 11q0 48 -20.5 89t-58.5 65t-89 24q-56 0 -97 -27.5t-62.5 -71.5t-20.5 -93h331zM437 684q0 -11 -13 -11h-256q-9 0 -9 11v32q0 9 7 9h264q7 0 7 -8v-33z" />
    <glyph glyph-name="eogonek" unicode="&#x119;" horiz-adv-x="579" 
d="M535 265q0 -7 -2.5 -11t-11.5 -4h-395q-7 0 -7 -15q0 -51 25 -95.5t67.5 -70.5t92.5 -26q108 0 164 87q3 5 6 5.5t7 -1.5l34 -19q3 -2 3.5 -5t-2.5 -7q-48 -74 -120 -99q-47 -21 -67.5 -40t-20.5 -44q0 -40 53 -40q20 0 37 4t27 9q10 6 10 -4v-25q0 -7 -6 -10
q-14 -6 -37 -11t-46 -5q-48 0 -72.5 21t-24.5 58q0 23 10 41t33 32q-71 2 -126 36.5t-85.5 95t-30.5 138.5q0 85 32.5 148.5t89 97.5t127.5 34q109 0 172.5 -71.5t63.5 -197.5v-6zM464.5 300q3.5 3 3.5 11q0 48 -20.5 89t-58.5 65t-89 24q-56 0 -97 -27.5t-62.5 -71.5
t-20.5 -93h331q10 0 13.5 3z" />
    <glyph glyph-name="uni1EBD" unicode="&#x1ebd;" horiz-adv-x="579" 
d="M144 139.5q25 -44.5 67.5 -70.5t92.5 -26q108 0 164 87q3 5 6 5.5t7 -1.5l34 -19q3 -2 3.5 -5t-2.5 -7q-37 -58 -90 -85.5t-126 -27.5t-129.5 34t-88.5 95.5t-32 140.5q0 85 32.5 148.5t89 97.5t127.5 34q109 0 172.5 -71.5t63.5 -197.5v-6q0 -7 -2.5 -11t-11.5 -4h-395
q-7 0 -7 -15q0 -51 25 -95.5zM451 297q10 0 13.5 3t3.5 11q0 48 -20.5 89t-58.5 65t-89 24q-56 0 -97 -27.5t-62.5 -71.5t-20.5 -93h331zM361 663q-19 0 -34 3.5t-34 10.5q-3 1 -20 6t-34 5t-28 -4.5t-19.5 -9.5t-11.5 -7l-6 -3q-4 0 -7 8l-8 22q-2 5 -1.5 7t4.5 4
q18 14 34 21.5t39 7.5q25 0 65 -14q4 -1 23 -7t38 -6q16 0 26.5 4t28.5 14q4 3 7 3q4 0 7 -7l9 -25l1 -4q0 -5 -7 -9q-31 -20 -72 -20z" />
    <glyph glyph-name="f" unicode="f" horiz-adv-x="373" 
d="M348 521v-34q0 -8 -9 -8h-121q-8 0 -8 -8v-458q0 -13 -10 -13h-46q-10 0 -10 12v459q0 8 -6 8h-105q-8 0 -8 8v34q0 9 9 9h102q5 0 6.5 2t1.5 7v76q0 127 121 127h78q10 0 10 -10v-31q0 -9 -10 -9h-74q-32 0 -46 -19t-14 -57v-78q0 -8 8 -8h123q8 0 8 -9z" />
    <glyph glyph-name="g" unicode="g" horiz-adv-x="594" 
d="M561 531.5q4 -3.5 4 -11.5v-25q0 -9 -4 -13.5t-14 -4.5q-32 0 -53 -10q-13 -7 -17.5 -12t-2.5 -11q2 -4 7 -16t8 -26.5t3 -31.5q0 -71 -53.5 -116t-157.5 -45q-74 0 -106.5 -13t-32.5 -32q0 -17 22.5 -24.5t76.5 -10.5l125 -7q83 -5 123.5 -40.5t40.5 -96.5
q0 -76 -65.5 -118t-184.5 -42q-122 0 -186.5 37.5t-64.5 106.5q0 70 92 118q6 3 6 5q0 3 -6 6q-42 18 -42 55q0 21 18.5 39.5t55.5 30.5q5 2 5 5q0 4 -6 7q-42 23 -62.5 56t-20.5 79q0 79 58 123.5t162 44.5q94 0 147 -45q5 -4 10 -4q6 0 10 4q49 42 90 42q11 0 15 -3.5z
M429 371q0 58 -37 89t-110 31q-71 0 -110.5 -32t-39.5 -88q0 -55 39 -85t111 -30q147 0 147 115zM190 73q-18 1 -42 -11.5t-41 -35t-17 -50.5q0 -51 51 -78t148 -27q177 0 177 107q0 39 -24.5 60.5t-80.5 24.5z" />
    <glyph glyph-name="uni01F5" unicode="&#x1f5;" horiz-adv-x="594" 
d="M561 531.5q4 -3.5 4 -11.5v-25q0 -9 -4 -13.5t-14 -4.5q-32 0 -53 -10q-13 -7 -17.5 -12t-2.5 -11q2 -4 7 -16t8 -26.5t3 -31.5q0 -71 -53.5 -116t-157.5 -45q-74 0 -106.5 -13t-32.5 -32q0 -17 22.5 -24.5t76.5 -10.5l125 -7q83 -5 123.5 -40.5t40.5 -96.5
q0 -76 -65.5 -118t-184.5 -42q-122 0 -186.5 37.5t-64.5 106.5q0 70 92 118q6 3 6 5q0 3 -6 6q-42 18 -42 55q0 21 18.5 39.5t55.5 30.5q5 2 5 5q0 4 -6 7q-42 23 -62.5 56t-20.5 79q0 79 58 123.5t162 44.5q94 0 147 -45q5 -4 10 -4q6 0 10 4q49 42 90 42q11 0 15 -3.5z
M429 371q0 58 -37 89t-110 31q-71 0 -110.5 -32t-39.5 -88q0 -55 39 -85t111 -30q147 0 147 115zM190 73q-18 1 -42 -11.5t-41 -35t-17 -50.5q0 -51 51 -78t148 -27q177 0 177 107q0 39 -24.5 60.5t-80.5 24.5zM416 707q1 -2 1 -6q0 -6 -10 -10l-228 -73q-2 -1 -6 -1
q-7 0 -8 7l-7 20l-1 4q0 6 5 8l230 95h3q5 0 8 -4z" />
    <glyph glyph-name="gbreve" unicode="&#x11f;" horiz-adv-x="594" 
d="M561 531.5q4 -3.5 4 -11.5v-25q0 -9 -4 -13.5t-14 -4.5q-32 0 -53 -10q-13 -7 -17.5 -12t-2.5 -11q2 -4 7 -16t8 -26.5t3 -31.5q0 -71 -53.5 -116t-157.5 -45q-74 0 -106.5 -13t-32.5 -32q0 -17 22.5 -24.5t76.5 -10.5l125 -7q83 -5 123.5 -40.5t40.5 -96.5
q0 -76 -65.5 -118t-184.5 -42q-122 0 -186.5 37.5t-64.5 106.5q0 70 92 118q6 3 6 5q0 3 -6 6q-42 18 -42 55q0 21 18.5 39.5t55.5 30.5q5 2 5 5q0 4 -6 7q-42 23 -62.5 56t-20.5 79q0 79 58 123.5t162 44.5q94 0 147 -45q5 -4 10 -4q6 0 10 4q49 42 90 42q11 0 15 -3.5z
M429 371q0 58 -37 89t-110 31q-71 0 -110.5 -32t-39.5 -88q0 -55 39 -85t111 -30q147 0 147 115zM190 73q-18 1 -42 -11.5t-41 -35t-17 -50.5q0 -51 51 -78t148 -27q177 0 177 107q0 39 -24.5 60.5t-80.5 24.5zM427 740q2 -2 0 -8q-10 -36 -48 -63.5t-94 -27.5
q-55 0 -90.5 27t-47.5 65v3q0 6 6 6h41q9 0 14 -8q16 -21 31.5 -32.5t45.5 -11.5q52 0 81 45q2 4 4.5 5.5t6.5 1.5h42q6 0 8 -2z" />
    <glyph glyph-name="gcircumflex" unicode="&#x11d;" horiz-adv-x="594" 
d="M561 531.5q4 -3.5 4 -11.5v-25q0 -9 -4 -13.5t-14 -4.5q-32 0 -53 -10q-13 -7 -17.5 -12t-2.5 -11q2 -4 7 -16t8 -26.5t3 -31.5q0 -71 -53.5 -116t-157.5 -45q-74 0 -106.5 -13t-32.5 -32q0 -17 22.5 -24.5t76.5 -10.5l125 -7q83 -5 123.5 -40.5t40.5 -96.5
q0 -76 -65.5 -118t-184.5 -42q-122 0 -186.5 37.5t-64.5 106.5q0 70 92 118q6 3 6 5q0 3 -6 6q-42 18 -42 55q0 21 18.5 39.5t55.5 30.5q5 2 5 5q0 4 -6 7q-42 23 -62.5 56t-20.5 79q0 79 58 123.5t162 44.5q94 0 147 -45q5 -4 10 -4q6 0 10 4q49 42 90 42q11 0 15 -3.5z
M429 371q0 58 -37 89t-110 31q-71 0 -110.5 -32t-39.5 -88q0 -55 39 -85t111 -30q147 0 147 115zM190 73q-18 1 -42 -11.5t-41 -35t-17 -50.5q0 -51 51 -78t148 -27q177 0 177 107q0 39 -24.5 60.5t-80.5 24.5zM297 692q-7 7 -10 7t-11 -7l-59 -49q-5 -4 -8 -5.5t-9 -1.5
h-47q-6 0 -7 3t4 8l102 87q10 10 22 10h31q7 0 12 -4t6 -5l100 -88q13 -11 -1 -11h-52q-9 0 -17 7z" />
    <glyph glyph-name="gcommaaccent" unicode="&#x123;" horiz-adv-x="594" 
d="M249 635v78q0 5 2 7l34 60q5 8 17 8h14q4 0 5.5 -3.5t-0.5 -6.5l-26 -53q-2 -4 -2 -6q0 -6 7 -6h8q11 0 11 -11v-65q0 -10 -9 -10h-53q-8 0 -8 8zM561 531.5q4 -3.5 4 -11.5v-25q0 -9 -4 -13.5t-14 -4.5q-32 0 -53 -10q-13 -7 -17.5 -12t-2.5 -11q2 -4 7 -16t8 -26.5
t3 -31.5q0 -71 -53.5 -116t-157.5 -45q-74 0 -106.5 -13t-32.5 -32q0 -17 22.5 -24.5t76.5 -10.5l125 -7q83 -5 123.5 -40.5t40.5 -96.5q0 -76 -65.5 -118t-184.5 -42q-122 0 -186.5 37.5t-64.5 106.5q0 70 92 118q6 3 6 5q0 3 -6 6q-42 18 -42 55q0 21 18.5 39.5t55.5 30.5
q5 2 5 5q0 4 -6 7q-42 23 -62.5 56t-20.5 79q0 79 58 123.5t162 44.5q94 0 147 -45q5 -4 10 -4q6 0 10 4q49 42 90 42q11 0 15 -3.5zM429 371q0 58 -37 89t-110 31q-71 0 -110.5 -32t-39.5 -88q0 -55 39 -85t111 -30q147 0 147 115zM190 73q-18 1 -42 -11.5t-41 -35
t-17 -50.5q0 -51 51 -78t148 -27q177 0 177 107q0 39 -24.5 60.5t-80.5 24.5z" />
    <glyph glyph-name="gdotaccent" unicode="&#x121;" horiz-adv-x="594" 
d="M561 531.5q4 -3.5 4 -11.5v-25q0 -9 -4 -13.5t-14 -4.5q-32 0 -53 -10q-13 -7 -17.5 -12t-2.5 -11q2 -4 7 -16t8 -26.5t3 -31.5q0 -71 -53.5 -116t-157.5 -45q-74 0 -106.5 -13t-32.5 -32q0 -17 22.5 -24.5t76.5 -10.5l125 -7q83 -5 123.5 -40.5t40.5 -96.5
q0 -76 -65.5 -118t-184.5 -42q-122 0 -186.5 37.5t-64.5 106.5q0 70 92 118q6 3 6 5q0 3 -6 6q-42 18 -42 55q0 21 18.5 39.5t55.5 30.5q5 2 5 5q0 4 -6 7q-42 23 -62.5 56t-20.5 79q0 79 58 123.5t162 44.5q94 0 147 -45q5 -4 10 -4q6 0 10 4q49 42 90 42q11 0 15 -3.5z
M429 371q0 58 -37 89t-110 31q-71 0 -110.5 -32t-39.5 -88q0 -55 39 -85t111 -30q147 0 147 115zM190 73q-18 1 -42 -11.5t-41 -35t-17 -50.5q0 -51 51 -78t148 -27q177 0 177 107q0 39 -24.5 60.5t-80.5 24.5zM324 647q0 -8 -3 -11t-12 -3h-46q-7 0 -10 2.5t-3 9.5v85
q0 7 2.5 9.5t8.5 2.5h53q6 0 8 -2.5t2 -9.5v-83z" />
    <glyph glyph-name="h" unicode="h" horiz-adv-x="581" 
d="M83 12v719q0 11 10 11h43q10 0 10 -10v-270q0 -12 9 -3q60 44 99.5 62.5t88.5 18.5q78 0 119.5 -40.5t41.5 -109.5v-377q0 -13 -12 -13h-42q-12 0 -12 12v361q0 112 -111 112q-46 0 -83.5 -19t-94.5 -66v-388q0 -12 -13 -12h-41q-12 0 -12 12z" />
    <glyph glyph-name="hbar" unicode="&#x127;" horiz-adv-x="581" 
d="M462.5 499.5q41.5 -40.5 41.5 -109.5v-377q0 -13 -12 -13h-42q-12 0 -12 12v361q0 112 -111 112q-46 0 -83.5 -19t-94.5 -66v-388q0 -12 -13 -12h-41q-12 0 -12 12v607h-56q-6 0 -8 2.5t-2 8.5v27q0 9 7 9h59v65q0 11 10 11h43q10 0 10 -10v-66h167q7 0 7 -8v-28
q0 -11 -14 -11h-160v-157q0 -12 9 -3q60 44 99.5 62.5t88.5 18.5q78 0 119.5 -40.5z" />
    <glyph glyph-name="hcircumflex" unicode="&#x125;" horiz-adv-x="581" 
d="M83 12v719q0 11 10 11h43q10 0 10 -10v-270q0 -12 9 -3q60 44 99.5 62.5t88.5 18.5q78 0 119.5 -40.5t41.5 -109.5v-377q0 -13 -12 -13h-42q-12 0 -12 12v361q0 112 -111 112q-46 0 -83.5 -19t-94.5 -66v-388q0 -12 -13 -12h-41q-12 0 -12 12zM300 912q-7 7 -10 7t-11 -7
l-59 -49q-5 -4 -8 -5.5t-9 -1.5h-47q-6 0 -7 3t4 8l102 87q10 10 22 10h31q7 0 12 -4t6 -5l100 -88q13 -11 -1 -11h-52q-9 0 -17 7z" />
    <glyph glyph-name="uni1E25" unicode="&#x1e25;" horiz-adv-x="581" 
d="M83 12v719q0 11 10 11h43q10 0 10 -10v-270q0 -12 9 -3q60 44 99.5 62.5t88.5 18.5q78 0 119.5 -40.5t41.5 -109.5v-377q0 -13 -12 -13h-42q-12 0 -12 12v361q0 112 -111 112q-46 0 -83.5 -19t-94.5 -66v-388q0 -12 -13 -12h-41q-12 0 -12 12zM337 -151q0 -8 -3 -11
t-11 -3h-42q-7 0 -9.5 2.5t-2.5 8.5v84q0 7 2 9.5t8 2.5h48q10 0 10 -11v-82z" />
    <glyph glyph-name="i" unicode="i" 
d="M153 651q0 -9 -3 -13.5t-12 -4.5h-46q-8 0 -10.5 4t-2.5 12v78q0 15 13 15h48q13 0 13 -14v-77zM149 15q0 -9 -3 -12t-13 -3h-37q-7 0 -10 2.5t-3 9.5v506q0 7 2.5 9.5t8.5 2.5h44q6 0 8.5 -2.5t2.5 -9.5v-503z" />
    <glyph glyph-name="dotlessi" unicode="&#x131;" 
d="M149 15q0 -9 -3 -12t-13 -3h-37q-7 0 -10 2.5t-3 9.5v506q0 7 2.5 9.5t8.5 2.5h44q6 0 8.5 -2.5t2.5 -9.5v-503z" />
    <glyph glyph-name="iacute" unicode="&#xed;" 
d="M149 15q0 -9 -3 -12t-13 -3h-37q-7 0 -10 2.5t-3 9.5v506q0 7 2.5 9.5t8.5 2.5h44q6 0 8.5 -2.5t2.5 -9.5v-503zM246 707q1 -2 1 -6q0 -6 -10 -10l-228 -73q-2 -1 -6 -1q-7 0 -8 7l-7 20l-1 4q0 6 5 8l230 95h3q5 0 8 -4z" />
    <glyph glyph-name="ibreve" unicode="&#x12d;" 
d="M149 15q0 -9 -3 -12t-13 -3h-37q-7 0 -10 2.5t-3 9.5v506q0 7 2.5 9.5t8.5 2.5h44q6 0 8.5 -2.5t2.5 -9.5v-503zM257 740q2 -2 0 -8q-10 -36 -48 -63.5t-94 -27.5q-55 0 -90.5 27t-47.5 65v3q0 6 6 6h41q9 0 14 -8q16 -21 31.5 -32.5t45.5 -11.5q52 0 81 45q2 4 4.5 5.5
t6.5 1.5h42q6 0 8 -2z" />
    <glyph glyph-name="icircumflex" unicode="&#xee;" 
d="M149 15q0 -9 -3 -12t-13 -3h-37q-7 0 -10 2.5t-3 9.5v506q0 7 2.5 9.5t8.5 2.5h44q6 0 8.5 -2.5t2.5 -9.5v-503zM127 692q-7 7 -10 7t-11 -7l-59 -49q-5 -4 -8 -5.5t-9 -1.5h-47q-6 0 -7 3t4 8l102 87q10 10 22 10h31q7 0 12 -4t6 -5l100 -88q13 -11 -1 -11h-52
q-9 0 -17 7z" />
    <glyph glyph-name="uni0209" unicode="&#x209;" 
d="M149 15q0 -9 -3 -12t-13 -3h-37q-7 0 -10 2.5t-3 9.5v506q0 7 2.5 9.5t8.5 2.5h44q6 0 8.5 -2.5t2.5 -9.5v-503zM-45 750l121 -134q5 -7 -1 -12l-13 -17q-3 -5 -7 -5q-2 0 -8 4l-127 114q-7 4 -7 9q0 2 4 8l26 32q6 6 12 1zM108 750l120 -134q7 -7 0 -12l-13 -17
q-3 -5 -7 -5q-2 0 -8 4l-127 114q-7 4 -7 9q0 2 4 8l26 32q6 6 12 1z" />
    <glyph glyph-name="idieresis" unicode="&#xef;" 
d="M149 15q0 -9 -3 -12t-13 -3h-37q-7 0 -10 2.5t-3 9.5v506q0 7 2.5 9.5t8.5 2.5h44q6 0 8.5 -2.5t2.5 -9.5v-503zM86 651q0 -8 -3 -11t-12 -3h-42q-8 0 -10.5 2.5t-2.5 9.5v81q0 12 10 12h50q10 0 10 -11v-80zM218 651q0 -8 -3.5 -11t-11.5 -3h-42q-8 0 -10.5 2.5
t-2.5 9.5v81q0 12 10 12h49q11 0 11 -11v-80z" />
    <glyph glyph-name="i.loclTRK" 
d="M149 15q0 -9 -3 -12t-13 -3h-37q-7 0 -10 2.5t-3 9.5v506q0 7 2.5 9.5t8.5 2.5h44q6 0 8.5 -2.5t2.5 -9.5v-503zM154 647q0 -8 -3 -11t-12 -3h-46q-7 0 -10 2.5t-3 9.5v85q0 7 2.5 9.5t8.5 2.5h53q6 0 8 -2.5t2 -9.5v-83z" />
    <glyph glyph-name="uni1ECB" unicode="&#x1ecb;" 
d="M153 651q0 -9 -3 -13.5t-12 -4.5h-46q-8 0 -10.5 4t-2.5 12v78q0 15 13 15h48q13 0 13 -14v-77zM149 15q0 -9 -3 -12t-13 -3h-37q-7 0 -10 2.5t-3 9.5v506q0 7 2.5 9.5t8.5 2.5h44q6 0 8.5 -2.5t2.5 -9.5v-503zM152 -151q0 -8 -3 -11t-11 -3h-42q-7 0 -9.5 2.5t-2.5 8.5
v84q0 7 2 9.5t8 2.5h48q10 0 10 -11v-82z" />
    <glyph glyph-name="igrave" unicode="&#xec;" 
d="M149 15q0 -9 -3 -12t-13 -3h-37q-7 0 -10 2.5t-3 9.5v506q0 7 2.5 9.5t8.5 2.5h44q6 0 8.5 -2.5t2.5 -9.5v-503zM-4 751l231 -95q7 -3 4 -12l-7 -20q-2 -5 -5 -6.5t-9 0.5l-228 73q-7 3 -9 6.5t0 9.5l13 40q3 6 10 4z" />
    <glyph glyph-name="uni020B" unicode="&#x20b;" 
d="M149 15q0 -9 -3 -12t-13 -3h-37q-7 0 -10 2.5t-3 9.5v506q0 7 2.5 9.5t8.5 2.5h44q6 0 8.5 -2.5t2.5 -9.5v-503zM207 647q-4 0 -6.5 1.5t-4.5 5.5q-29 45 -81 45q-30 0 -45.5 -11.5t-31.5 -32.5q-5 -8 -14 -8h-41q-8 0 -6 9q12 38 47.5 65t90.5 27q56 0 94 -27.5
t48 -63.5q1 -2 1 -5q0 -5 -9 -5h-42z" />
    <glyph glyph-name="ij" unicode="&#x133;" horiz-adv-x="464" 
d="M153 651q0 -9 -3 -13.5t-12 -4.5h-46q-8 0 -10.5 4t-2.5 12v78q0 15 13 15h48q13 0 13 -14v-77zM149 15q0 -9 -3 -12t-13 -3h-37q-7 0 -10 2.5t-3 9.5v506q0 7 2.5 9.5t8.5 2.5h44q6 0 8.5 -2.5t2.5 -9.5v-503zM385 651q0 -9 -3 -13.5t-12 -4.5h-46q-13 0 -13 16v78
q0 15 13 15h48q13 0 13 -14v-77zM353 -139q-28 -31 -101 -31q-25 0 -40.5 0.5t-20 3t-4.5 8.5v34q0 9 8 9l54 2q36 1 51 18.5t15 61.5v551q0 12 12 12h44q10 0 10 -12v-556q0 -70 -28 -101z" />
    <glyph glyph-name="imacron" unicode="&#x12b;" 
d="M149 15q0 -9 -3 -12t-13 -3h-37q-7 0 -10 2.5t-3 9.5v506q0 7 2.5 9.5t8.5 2.5h44q6 0 8.5 -2.5t2.5 -9.5v-503zM256 684q0 -11 -13 -11h-256q-9 0 -9 11v32q0 9 7 9h264q7 0 7 -8v-33z" />
    <glyph glyph-name="iogonek" unicode="&#x12f;" 
d="M83 635.5q-3 2.5 -3 9.5v85q0 7 2.5 9.5t8.5 2.5h53q6 0 8 -2.5t2 -9.5v-83q0 -8 -3 -11t-12 -3h-46q-7 0 -10 2.5zM173 -118v-25q0 -7 -6 -10q-14 -6 -37 -11t-46 -5q-48 0 -72.5 21t-24.5 58q0 33 22 56.5t75 40.5q-1 1 -1 5v506q0 7 2.5 9.5t8.5 2.5h44q6 0 8.5 -2.5
t2.5 -9.5v-503q0 -9 -3 -12q-4 -2 -5 -2q-51 -23 -73 -42.5t-22 -45.5q0 -40 53 -40q20 0 37 4t27 9q10 6 10 -4z" />
    <glyph glyph-name="itilde" unicode="&#x129;" 
d="M149 15q0 -9 -3 -12t-13 -3h-37q-7 0 -10 2.5t-3 9.5v506q0 7 2.5 9.5t8.5 2.5h44q6 0 8.5 -2.5t2.5 -9.5v-503zM180 663q-19 0 -34 3.5t-34 10.5q-3 1 -20 6t-34 5t-28 -4.5t-19.5 -9.5t-11.5 -7l-6 -3q-4 0 -7 8l-8 22q-2 5 -1.5 7t4.5 4q18 14 34 21.5t39 7.5
q25 0 65 -14q4 -1 23 -7t38 -6q16 0 26.5 4t28.5 14q4 3 7 3q4 0 7 -7l9 -25l1 -4q0 -5 -7 -9q-31 -20 -72 -20z" />
    <glyph glyph-name="j" unicode="j" 
d="M153 651q0 -9 -3 -13.5t-12 -4.5h-46q-13 0 -13 16v78q0 15 13 15h48q13 0 13 -14v-77zM121 -139q-28 -31 -101 -31q-25 0 -40.5 0.5t-20 3t-4.5 8.5v34q0 9 8 9l54 2q36 1 51 18.5t15 61.5v551q0 12 12 12h44q10 0 10 -12v-556q0 -70 -28 -101z" />
    <glyph glyph-name="uni0237" unicode="&#x237;" 
d="M121 -139q-28 -31 -101 -31q-25 0 -40.5 0.5t-20 3t-4.5 8.5v34q0 9 8 9l54 2q36 1 51 18.5t15 61.5v551q0 12 12 12h44q10 0 10 -12v-556q0 -70 -28 -101z" />
    <glyph glyph-name="jcircumflex" unicode="&#x135;" 
d="M121 -139q-28 -31 -101 -31q-25 0 -40.5 0.5t-20 3t-4.5 8.5v34q0 9 8 9l54 2q36 1 51 18.5t15 61.5v551q0 12 12 12h44q10 0 10 -12v-556q0 -70 -28 -101zM126 692q-7 7 -10 7t-11 -7l-59 -49q-5 -4 -8 -5.5t-9 -1.5h-47q-6 0 -7 3t4 8l102 87q10 10 22 10h31q7 0 12 -4
t6 -5l100 -88q13 -11 -1 -11h-52q-9 0 -17 7z" />
    <glyph glyph-name="k" unicode="k" horiz-adv-x="553" 
d="M525 7q0 -7 -10 -7h-54q-11 0 -15 10l-165 273q-2 3 -4 3.5t-6 -3.5l-115 -116q-7 -7 -7 -19v-133q0 -9 -3 -12t-12 -3h-37q-8 0 -11 2.5t-3 9.5v718q0 7 2.5 9.5t8.5 2.5h45q10 0 10 -12v-478q0 -9 3 -9q2 0 7 5l263 271q6 6 9.5 8.5t9.5 2.5h49q10 0 10 -6q0 -5 -6 -11
l-163 -166q-4 -4 -4 -7t3 -8l192 -317q3 -4 3 -8z" />
    <glyph glyph-name="kcommaaccent" unicode="&#x137;" horiz-adv-x="553" 
d="M525 7q0 -7 -10 -7h-54q-11 0 -15 10l-165 273q-2 3 -4 3.5t-6 -3.5l-115 -116q-7 -7 -7 -19v-133q0 -9 -3 -12t-12 -3h-37q-8 0 -11 2.5t-3 9.5v718q0 7 2.5 9.5t8.5 2.5h45q10 0 10 -12v-478q0 -9 3 -9q2 0 7 5l263 271q6 6 9.5 8.5t9.5 2.5h49q10 0 10 -6q0 -5 -6 -11
l-163 -166q-4 -4 -4 -7t3 -8l192 -317q3 -4 3 -8zM242.5 -234.5q-1.5 3.5 0.5 6.5l26 53q3 3 3 7q0 5 -7 5h-9q-10 0 -10 11v65q0 10 9 10h53q8 0 8 -8v-78q0 -2 -1 -4t-1 -3l-35 -60q-2 -5 -6 -6.5t-11 -1.5h-14q-4 0 -5.5 3.5z" />
    <glyph glyph-name="kgreenlandic" unicode="&#x138;" horiz-adv-x="553" 
d="M525 7q0 -7 -10 -7h-54q-11 0 -15 10l-165 273q-2 3 -4 3.5t-6 -3.5l-115 -116q-7 -7 -7 -19v-133q0 -9 -3 -12t-12 -3h-37q-8 0 -11 2.5t-3 9.5v506q0 7 2.5 9.5t8.5 2.5h45q10 0 10 -12v-266q0 -9 3 -9q2 0 7 5l263 271q6 6 9.5 8.5t9.5 2.5h49q10 0 10 -6q0 -5 -6 -11
l-163 -166q-4 -4 -4 -7t3 -8l192 -317q3 -4 3 -8z" />
    <glyph glyph-name="l" unicode="l" 
d="M149 15q0 -9 -3 -12t-12 -3h-38q-7 0 -10 2.5t-3 9.5l1 718q0 7 2 9.5t8 2.5h45q10 0 10 -12v-715z" />
    <glyph glyph-name="lacute" unicode="&#x13a;" 
d="M149 15q0 -9 -3 -12t-12 -3h-38q-7 0 -10 2.5t-3 9.5l1 718q0 7 2 9.5t8 2.5h45q10 0 10 -12v-715zM246 919q1 -2 1 -6q0 -6 -10 -10l-228 -73q-2 -1 -6 -1q-7 0 -8 7l-7 20l-1 4q0 6 5 8l230 95h3q5 0 8 -4z" />
    <glyph glyph-name="lcaron" unicode="&#x13e;" horiz-adv-x="301" 
d="M149 15q0 -9 -3 -12t-12 -3h-38q-7 0 -10 2.5t-3 9.5l1 718q0 7 2 9.5t8 2.5h45q10 0 10 -12v-715zM211.5 558q-1.5 3 -0.5 6l30 71q2 6 1.5 8t-4.5 3l-7 1q-5 1 -7 3t-2 6v78q0 8 7 8h52q6 0 6 -7v-88l-1 -5l-34 -78q-3 -9 -16 -9h-19q-4 0 -5.5 3z" />
    <glyph glyph-name="lcommaaccent" unicode="&#x13c;" 
d="M149 15q0 -9 -3 -12t-12 -3h-38q-7 0 -10 2.5t-3 9.5l1 718q0 7 2 9.5t8 2.5h45q10 0 10 -12v-715zM81.5 -234.5q-1.5 3.5 0.5 6.5l26 53q3 3 3 7q0 5 -7 5h-9q-10 0 -10 11v65q0 10 9 10h53q8 0 8 -8v-78q0 -2 -1 -4t-1 -3l-35 -60q-2 -5 -6 -6.5t-11 -1.5h-14
q-4 0 -5.5 3.5z" />
    <glyph glyph-name="ldot" unicode="&#x140;" horiz-adv-x="318" 
d="M149 15q0 -9 -3 -12t-12 -3h-38q-7 0 -10 2.5t-3 9.5l1 718q0 7 2 9.5t8 2.5h45q10 0 10 -12v-715zM326 262q0 -7 -3.5 -10t-12.5 -3h-71q-7 0 -9.5 3t-2.5 9v72q0 11 8 11h82q9 0 9 -9v-73z" />
    <glyph glyph-name="uni01C9" unicode="&#x1c9;" horiz-adv-x="464" 
d="M149 15q0 -9 -3 -12t-12 -3h-38q-7 0 -10 2.5t-3 9.5l1 718q0 7 2 9.5t8 2.5h45q10 0 10 -12v-715zM385 651q0 -9 -3 -13.5t-12 -4.5h-46q-13 0 -13 16v78q0 15 13 15h48q13 0 13 -14v-77zM353 -139q-28 -31 -101 -31q-25 0 -40.5 0.5t-20 3t-4.5 8.5v34q0 9 8 9l54 2
q36 1 51 18.5t15 61.5v551q0 12 12 12h44q10 0 10 -12v-556q0 -70 -28 -101z" />
    <glyph glyph-name="lslash" unicode="&#x142;" horiz-adv-x="262" 
d="M257 442v-43q0 -7 -8 -15l-85 -75v-294q0 -9 -3 -12t-12 -3h-38q-7 0 -10 2.5t-3 9.5v239l-82 -73q-3 -2 -6 -2q-4 0 -4 7v44q0 7 7 14l85 75l1 414q0 7 2 9.5t8 2.5h45q10 0 10 -12v-357l83 73q10 7 10 -4z" />
    <glyph glyph-name="m" unicode="m" horiz-adv-x="902" 
d="M83 12v507q0 11 10 11h43q10 0 10 -10v-59q0 -11 9 -3q57 44 95 63t85 19q56 0 92.5 -25.5t49.5 -61.5q2 -3 4 -3q3 0 10 5q56 45 95.5 65t87.5 20q72 0 112 -40.5t40 -109.5v-377q0 -13 -13 -13h-42q-6 0 -8.5 2.5t-2.5 9.5v361q0 112 -103 112q-43 0 -80.5 -20.5
t-73.5 -51.5q-9 -8 -12.5 -14.5t-3.5 -15.5v-370q0 -13 -12 -13h-42q-12 0 -12 12v361q0 112 -103 112q-43 0 -78.5 -19t-90.5 -66v-388q0 -12 -13 -12h-41q-12 0 -12 12z" />
    <glyph glyph-name="n" unicode="n" horiz-adv-x="581" 
d="M83 12v507q0 11 10 11h43q10 0 10 -10v-59q0 -12 9 -3q60 44 99.5 63t88.5 19q77 0 119 -40.5t42 -108.5v-378q0 -13 -12 -13h-42q-12 0 -12 12v361q0 112 -111 112q-46 0 -83.5 -19t-94.5 -66v-388q0 -12 -13 -12h-41q-12 0 -12 12z" />
    <glyph glyph-name="nacute" unicode="&#x144;" horiz-adv-x="581" 
d="M83 12v507q0 11 10 11h43q10 0 10 -10v-59q0 -12 9 -3q60 44 99.5 63t88.5 19q77 0 119 -40.5t42 -108.5v-378q0 -13 -12 -13h-42q-12 0 -12 12v361q0 112 -111 112q-46 0 -83.5 -19t-94.5 -66v-388q0 -12 -13 -12h-41q-12 0 -12 12zM432 707q1 -2 1 -6q0 -6 -10 -10
l-228 -73q-2 -1 -6 -1q-7 0 -8 7l-7 20l-1 4q0 6 5 8l230 95h3q5 0 8 -4z" />
    <glyph glyph-name="napostrophe" unicode="&#x149;" horiz-adv-x="620" 
d="M32 475q-2 3 0 5l31 118q3 12 -4 12h-6q-10 0 -10 10v114q0 8 8 8h52q6 0 6 -7v-125l-1 -5l-35 -125q-3 -8 -16 -8h-20q-3 0 -5 3zM122 12v507q0 11 10 11h43q10 0 10 -10v-59q0 -12 9 -3q60 44 99.5 63t88.5 19q77 0 119 -40.5t42 -108.5v-378q0 -13 -12 -13h-42
q-12 0 -12 12v361q0 112 -111 112q-46 0 -83.5 -19t-94.5 -66v-388q0 -12 -13 -12h-41q-12 0 -12 12z" />
    <glyph glyph-name="ncaron" unicode="&#x148;" horiz-adv-x="581" 
d="M83 12v507q0 11 10 11h43q10 0 10 -10v-59q0 -12 9 -3q60 44 99.5 63t88.5 19q77 0 119 -40.5t42 -108.5v-378q0 -13 -12 -13h-42q-12 0 -12 12v361q0 112 -111 112q-46 0 -83.5 -19t-94.5 -66v-388q0 -12 -13 -12h-41q-12 0 -12 12zM386 742h52q7 0 7 -3t-6 -8l-100 -88
q-2 -1 -6.5 -5t-11.5 -4h-31q-10 0 -22 10l-102 87q-4 4 -4 7q0 4 7 4h47q5 0 8.5 -1.5t8.5 -4.5l59 -49q8 -7 11 -7t10 7l56 49q9 6 17 6z" />
    <glyph glyph-name="ncommaaccent" unicode="&#x146;" horiz-adv-x="581" 
d="M83 12v507q0 11 10 11h43q10 0 10 -10v-59q0 -12 9 -3q60 44 99.5 63t88.5 19q77 0 119 -40.5t42 -108.5v-378q0 -13 -12 -13h-42q-12 0 -12 12v361q0 112 -111 112q-46 0 -83.5 -19t-94.5 -66v-388q0 -12 -13 -12h-41q-12 0 -12 12zM259.5 -234.5q-1.5 3.5 0.5 6.5
l26 53q3 3 3 7q0 5 -7 5h-9q-10 0 -10 11v65q0 10 9 10h53q8 0 8 -8v-78q0 -2 -1 -4t-1 -3l-35 -60q-2 -5 -6 -6.5t-11 -1.5h-14q-4 0 -5.5 3.5z" />
    <glyph glyph-name="uni1E45" unicode="&#x1e45;" horiz-adv-x="581" 
d="M83 12v507q0 11 10 11h43q10 0 10 -10v-59q0 -12 9 -3q60 44 99.5 63t88.5 19q77 0 119 -40.5t42 -108.5v-378q0 -13 -12 -13h-42q-12 0 -12 12v361q0 112 -111 112q-46 0 -83.5 -19t-94.5 -66v-388q0 -12 -13 -12h-41q-12 0 -12 12zM340 647q0 -8 -3 -11t-12 -3h-46
q-7 0 -10 2.5t-3 9.5v85q0 7 2.5 9.5t8.5 2.5h53q6 0 8 -2.5t2 -9.5v-83z" />
    <glyph glyph-name="eng" unicode="&#x14b;" horiz-adv-x="583" 
d="M462 499.5q43 -40.5 43 -108.5v-421q0 -68 -32.5 -104t-96.5 -36q-39 0 -48.5 2t-9.5 10v32q0 9 8 9l47 2q35 2 50.5 20t15.5 62v401q0 118 -115 118q-82 0 -175 -88v-386q0 -12 -13 -12h-41q-12 0 -12 12l1 507q0 11 9 11h44q9 0 9 -10v-60q0 -12 9 -3q60 47 100.5 65
t87.5 18q76 0 119 -40.5z" />
    <glyph glyph-name="uni01CC" unicode="&#x1cc;" horiz-adv-x="813" 
d="M83 12v507q0 11 10 11h43q10 0 10 -10v-59q0 -12 9 -3q60 44 99.5 63t88.5 19q77 0 119 -40.5t42 -108.5v-378q0 -13 -12 -13h-42q-12 0 -12 12v361q0 112 -111 112q-46 0 -83.5 -19t-94.5 -66v-388q0 -12 -13 -12h-41q-12 0 -12 12zM734 651q0 -9 -3 -13.5t-12 -4.5h-46
q-13 0 -13 16v78q0 15 13 15h48q13 0 13 -14v-77zM702 -139q-28 -31 -101 -31q-25 0 -40.5 0.5t-20 3t-4.5 8.5v34q0 9 8 9l54 2q36 1 51 18.5t15 61.5v551q0 12 12 12h44q10 0 10 -12v-556q0 -70 -28 -101z" />
    <glyph glyph-name="ntilde" unicode="&#xf1;" horiz-adv-x="581" 
d="M83 12v507q0 11 10 11h43q10 0 10 -10v-59q0 -12 9 -3q60 44 99.5 63t88.5 19q77 0 119 -40.5t42 -108.5v-378q0 -13 -12 -13h-42q-12 0 -12 12v361q0 112 -111 112q-46 0 -83.5 -19t-94.5 -66v-388q0 -12 -13 -12h-41q-12 0 -12 12zM366 663q-19 0 -34 3.5t-34 10.5
q-3 1 -20 6t-34 5t-28 -4.5t-19.5 -9.5t-11.5 -7l-6 -3q-4 0 -7 8l-8 22q-2 5 -1.5 7t4.5 4q18 14 34 21.5t39 7.5q25 0 65 -14q4 -1 23 -7t38 -6q16 0 26.5 4t28.5 14q4 3 7 3q4 0 7 -7l9 -25l1 -4q0 -5 -7 -9q-31 -20 -72 -20z" />
    <glyph glyph-name="o" unicode="o" horiz-adv-x="598" 
d="M168.5 24.5q-56.5 34.5 -87.5 96t-31 141.5q0 81 31.5 144.5t88.5 98.5t130 35t129.5 -35t87.5 -98t31 -143t-31 -142.5t-87.5 -97t-130.5 -34.5t-130.5 34.5zM432.5 102.5q47.5 59.5 47.5 161.5t-48.5 163t-131.5 61q-84 0 -133 -61t-49 -163t49 -161.5t134 -59.5
q84 0 131.5 59.5z" />
    <glyph glyph-name="oacute" unicode="&#xf3;" horiz-adv-x="598" 
d="M168.5 24.5q-56.5 34.5 -87.5 96t-31 141.5q0 81 31.5 144.5t88.5 98.5t130 35t129.5 -35t87.5 -98t31 -143t-31 -142.5t-87.5 -97t-130.5 -34.5t-130.5 34.5zM432.5 102.5q47.5 59.5 47.5 161.5t-48.5 163t-131.5 61q-84 0 -133 -61t-49 -163t49 -161.5t134 -59.5
q84 0 131.5 59.5zM430 707q1 -2 1 -6q0 -6 -10 -10l-228 -73q-2 -1 -6 -1q-7 0 -8 7l-7 20l-1 4q0 6 5 8l230 95h3q5 0 8 -4z" />
    <glyph glyph-name="obreve" unicode="&#x14f;" horiz-adv-x="598" 
d="M168.5 24.5q-56.5 34.5 -87.5 96t-31 141.5q0 81 31.5 144.5t88.5 98.5t130 35t129.5 -35t87.5 -98t31 -143t-31 -142.5t-87.5 -97t-130.5 -34.5t-130.5 34.5zM432.5 102.5q47.5 59.5 47.5 161.5t-48.5 163t-131.5 61q-84 0 -133 -61t-49 -163t49 -161.5t134 -59.5
q84 0 131.5 59.5zM441 740q2 -2 0 -8q-10 -36 -48 -63.5t-94 -27.5q-55 0 -90.5 27t-47.5 65v3q0 6 6 6h41q9 0 14 -8q16 -21 31.5 -32.5t45.5 -11.5q52 0 81 45q2 4 4.5 5.5t6.5 1.5h42q6 0 8 -2z" />
    <glyph glyph-name="ocircumflex" unicode="&#xf4;" horiz-adv-x="598" 
d="M168.5 24.5q-56.5 34.5 -87.5 96t-31 141.5q0 81 31.5 144.5t88.5 98.5t130 35t129.5 -35t87.5 -98t31 -143t-31 -142.5t-87.5 -97t-130.5 -34.5t-130.5 34.5zM432.5 102.5q47.5 59.5 47.5 161.5t-48.5 163t-131.5 61q-84 0 -133 -61t-49 -163t49 -161.5t134 -59.5
q84 0 131.5 59.5zM311 692q-7 7 -10 7t-11 -7l-59 -49q-5 -4 -8 -5.5t-9 -1.5h-47q-6 0 -7 3t4 8l102 87q10 10 22 10h31q7 0 12 -4t6 -5l100 -88q13 -11 -1 -11h-52q-9 0 -17 7z" />
    <glyph glyph-name="uni020D" unicode="&#x20d;" horiz-adv-x="598" 
d="M168.5 24.5q-56.5 34.5 -87.5 96t-31 141.5q0 81 31.5 144.5t88.5 98.5t130 35t129.5 -35t87.5 -98t31 -143t-31 -142.5t-87.5 -97t-130.5 -34.5t-130.5 34.5zM432.5 102.5q47.5 59.5 47.5 161.5t-48.5 163t-131.5 61q-84 0 -133 -61t-49 -163t49 -161.5t134 -59.5
q84 0 131.5 59.5zM139 750l121 -134q5 -7 -1 -12l-13 -17q-3 -5 -7 -5q-2 0 -8 4l-127 114q-7 4 -7 9q0 2 4 8l26 32q6 6 12 1zM292 750l120 -134q7 -7 0 -12l-13 -17q-3 -5 -7 -5q-2 0 -8 4l-127 114q-7 4 -7 9q0 2 4 8l26 32q6 6 12 1z" />
    <glyph glyph-name="odieresis" unicode="&#xf6;" horiz-adv-x="598" 
d="M168.5 24.5q-56.5 34.5 -87.5 96t-31 141.5q0 81 31.5 144.5t88.5 98.5t130 35t129.5 -35t87.5 -98t31 -143t-31 -142.5t-87.5 -97t-130.5 -34.5t-130.5 34.5zM432.5 102.5q47.5 59.5 47.5 161.5t-48.5 163t-131.5 61q-84 0 -133 -61t-49 -163t49 -161.5t134 -59.5
q84 0 131.5 59.5zM270 651q0 -8 -3 -11t-12 -3h-42q-8 0 -10.5 2.5t-2.5 9.5v81q0 12 10 12h50q10 0 10 -11v-80zM402 651q0 -8 -3.5 -11t-11.5 -3h-42q-8 0 -10.5 2.5t-2.5 9.5v81q0 12 10 12h49q11 0 11 -11v-80z" />
    <glyph glyph-name="uni1ECD" unicode="&#x1ecd;" horiz-adv-x="598" 
d="M168.5 24.5q-56.5 34.5 -87.5 96t-31 141.5q0 81 31.5 144.5t88.5 98.5t130 35t129.5 -35t87.5 -98t31 -143t-31 -142.5t-87.5 -97t-130.5 -34.5t-130.5 34.5zM432.5 102.5q47.5 59.5 47.5 161.5t-48.5 163t-131.5 61q-84 0 -133 -61t-49 -163t49 -161.5t134 -59.5
q84 0 131.5 59.5zM332 -151q0 -8 -3 -11t-11 -3h-42q-7 0 -9.5 2.5t-2.5 8.5v84q0 7 2 9.5t8 2.5h48q10 0 10 -11v-82z" />
    <glyph glyph-name="ograve" unicode="&#xf2;" horiz-adv-x="598" 
d="M168.5 24.5q-56.5 34.5 -87.5 96t-31 141.5q0 81 31.5 144.5t88.5 98.5t130 35t129.5 -35t87.5 -98t31 -143t-31 -142.5t-87.5 -97t-130.5 -34.5t-130.5 34.5zM432.5 102.5q47.5 59.5 47.5 161.5t-48.5 163t-131.5 61q-84 0 -133 -61t-49 -163t49 -161.5t134 -59.5
q84 0 131.5 59.5zM180 751l231 -95q7 -3 4 -12l-7 -20q-2 -5 -5 -6.5t-9 0.5l-228 73q-7 3 -9 6.5t0 9.5l13 40q3 6 10 4z" />
    <glyph glyph-name="ohungarumlaut" unicode="&#x151;" horiz-adv-x="598" 
d="M168.5 24.5q-56.5 34.5 -87.5 96t-31 141.5q0 81 31.5 144.5t88.5 98.5t130 35t129.5 -35t87.5 -98t31 -143t-31 -142.5t-87.5 -97t-130.5 -34.5t-130.5 34.5zM432.5 102.5q47.5 59.5 47.5 161.5t-48.5 163t-131.5 61q-84 0 -133 -61t-49 -163t49 -161.5t134 -59.5
q84 0 131.5 59.5zM344 717q4 -6 4 -8q0 -5 -7 -9l-127 -114q-6 -4 -8 -4q-3 0 -8 5l-12 17q-4 3 -4 6.5t3 5.5l121 134q6 4 11 -1zM498 717q3 -4 3 -8q0 -5 -7 -9l-127 -114q-6 -4 -8 -4q-4 0 -7 5l-13 17q-7 5 0 12l120 134q6 5 12 -1z" />
    <glyph glyph-name="uni020F" unicode="&#x20f;" horiz-adv-x="598" 
d="M168.5 24.5q-56.5 34.5 -87.5 96t-31 141.5q0 81 31.5 144.5t88.5 98.5t130 35t129.5 -35t87.5 -98t31 -143t-31 -142.5t-87.5 -97t-130.5 -34.5t-130.5 34.5zM432.5 102.5q47.5 59.5 47.5 161.5t-48.5 163t-131.5 61q-84 0 -133 -61t-49 -163t49 -161.5t134 -59.5
q84 0 131.5 59.5zM391 647q-4 0 -6.5 1.5t-4.5 5.5q-29 45 -81 45q-30 0 -45.5 -11.5t-31.5 -32.5q-5 -8 -14 -8h-41q-8 0 -6 9q12 38 47.5 65t90.5 27q56 0 94 -27.5t48 -63.5q1 -2 1 -5q0 -5 -9 -5h-42z" />
    <glyph glyph-name="omacron" unicode="&#x14d;" horiz-adv-x="598" 
d="M168.5 24.5q-56.5 34.5 -87.5 96t-31 141.5q0 81 31.5 144.5t88.5 98.5t130 35t129.5 -35t87.5 -98t31 -143t-31 -142.5t-87.5 -97t-130.5 -34.5t-130.5 34.5zM432.5 102.5q47.5 59.5 47.5 161.5t-48.5 163t-131.5 61q-84 0 -133 -61t-49 -163t49 -161.5t134 -59.5
q84 0 131.5 59.5zM440 684q0 -11 -13 -11h-256q-9 0 -9 11v32q0 9 7 9h264q7 0 7 -8v-33z" />
    <glyph glyph-name="uni01EB" unicode="&#x1eb;" horiz-adv-x="598" 
d="M295 -43.5q-22 -19.5 -22 -45.5q0 -40 53 -40q20 0 37 4t27 9q10 6 10 -4v-25q0 -7 -6 -10q-14 -6 -37 -11t-46 -5q-48 0 -72.5 21t-24.5 58q0 27 14 47t47 36q-67 5 -118 41t-79 95.5t-28 134.5q0 81 31.5 144.5t88.5 98.5t130 35t129.5 -35t87.5 -98t31 -143
q0 -101 -48.5 -172t-131.5 -93q-51 -23 -73 -42.5zM167 102.5q49 -59.5 134 -59.5q84 0 131.5 59.5t47.5 161.5t-48.5 163t-131.5 61q-84 0 -133 -61t-49 -163t49 -161.5z" />
    <glyph glyph-name="oslash" unicode="&#xf8;" horiz-adv-x="580" 
d="M560 499q0 -4 -4 -8l-57 -56q47 -72 47 -171q0 -80 -31 -142.5t-87.5 -97t-130.5 -34.5q-55 0 -100.5 19t-78.5 55l-60 -59q-4 -4 -11 -4q-5 0 -9 4l-13 14q-5 7 -5 11t5 11l64 62q-41 65 -41 159q0 81 31.5 144.5t88.5 98.5t130 35q51 0 94.5 -17.5t76.5 -50.5l52 51
q6 6 10 6t9 -5l16 -17q4 -4 4 -8zM137 150l289 281q-48 57 -128 57q-84 0 -133 -61t-49 -163q0 -66 21 -114zM453 390l-291 -283q50 -64 137 -64q84 0 131.5 59.5t47.5 161.5q0 71 -25 126z" />
    <glyph glyph-name="oslashacute" unicode="&#x1ff;" horiz-adv-x="580" 
d="M560 499q0 -4 -4 -8l-57 -56q47 -72 47 -171q0 -80 -31 -142.5t-87.5 -97t-130.5 -34.5q-55 0 -100.5 19t-78.5 55l-60 -59q-4 -4 -11 -4q-5 0 -9 4l-13 14q-5 7 -5 11t5 11l64 62q-41 65 -41 159q0 81 31.5 144.5t88.5 98.5t130 35q51 0 94.5 -17.5t76.5 -50.5l52 51
q6 6 10 6t9 -5l16 -17q4 -4 4 -8zM137 150l289 281q-48 57 -128 57q-84 0 -133 -61t-49 -163q0 -66 21 -114zM453 390l-291 -283q50 -64 137 -64q84 0 131.5 59.5t47.5 161.5q0 71 -25 126zM419 707q1 -2 1 -6q0 -6 -10 -10l-228 -73q-2 -1 -6 -1q-7 0 -8 7l-7 20l-1 4
q0 6 5 8l230 95h3q5 0 8 -4z" />
    <glyph glyph-name="otilde" unicode="&#xf5;" horiz-adv-x="598" 
d="M168.5 24.5q-56.5 34.5 -87.5 96t-31 141.5q0 81 31.5 144.5t88.5 98.5t130 35t129.5 -35t87.5 -98t31 -143t-31 -142.5t-87.5 -97t-130.5 -34.5t-130.5 34.5zM432.5 102.5q47.5 59.5 47.5 161.5t-48.5 163t-131.5 61q-84 0 -133 -61t-49 -163t49 -161.5t134 -59.5
q84 0 131.5 59.5zM364 663q-19 0 -34 3.5t-34 10.5q-3 1 -20 6t-34 5t-28 -4.5t-19.5 -9.5t-11.5 -7l-6 -3q-4 0 -7 8l-8 22q-2 5 -1.5 7t4.5 4q18 14 34 21.5t39 7.5q25 0 65 -14q4 -1 23 -7t38 -6q16 0 26.5 4t28.5 14q4 3 7 3q4 0 7 -7l9 -25l1 -4q0 -5 -7 -9
q-31 -20 -72 -20z" />
    <glyph glyph-name="oe" unicode="&#x153;" horiz-adv-x="1006" 
d="M168.5 24q-56.5 34 -87.5 95.5t-31 142.5q0 82 31.5 145t88.5 98t130 35q69 0 123 -32.5t83 -91.5q4 -6 8 -6t7 6q29 58 82.5 91t120.5 33q111 0 174.5 -72.5t63.5 -199.5q0 -18 -17 -18h-383q-15 0 -15 -18q0 -51 25 -94t67 -68.5t92 -25.5q108 0 164 86q4 5 6.5 5.5
t6.5 -1.5l34 -19q3 -2 4 -5t-2 -7q-38 -58 -91 -85.5t-126 -27.5q-68 0 -121.5 31t-84.5 86q-3 8 -7 8q-5 0 -11 -11q-31 -54 -83.5 -84t-120.5 -30q-74 0 -130.5 34zM636 463.5q-41 -24.5 -63.5 -67.5t-22.5 -98l329 -1q10 0 13.5 3t3.5 11q0 48 -21 88.5t-59.5 64.5
t-88.5 24t-91 -24.5zM431.5 103q48.5 60 48.5 161q0 67 -22.5 117.5t-63 78t-94.5 27.5t-95.5 -27.5t-64 -78t-22.5 -117.5q0 -101 50 -161t133 -60q82 0 130.5 60z" />
    <glyph glyph-name="p" unicode="p" horiz-adv-x="594" 
d="M147 517v-46q0 -9 4 -9t9 5l22.5 23t56 35t80.5 15q64 0 114.5 -30t79.5 -90t29 -146t-29 -150.5t-82 -99t-123 -34.5q-45 0 -81.5 14t-62.5 36q-8 6 -11 6q-4 0 -4 -13v-186q0 -12 -11 -12h-45q-10 0 -10 11v670q0 8 3 11t11 3h38q12 0 12 -13zM219 59q35 -18 75 -18
q81 0 130.5 60.5t49.5 169.5q0 108 -49.5 163t-123.5 55q-43 0 -77.5 -19t-54.5 -48.5t-20 -57.5v-252q35 -35 70 -53z" />
    <glyph glyph-name="thorn" unicode="&#xfe;" horiz-adv-x="592" 
d="M147 729v-258q0 -9 4 -9t9 5l22.5 23t56 35t80.5 15q64 0 114.5 -30t79.5 -90t29 -146t-29 -150.5t-82 -99t-123 -34.5q-45 0 -81.5 14t-62.5 36q-8 6 -11 6q-4 0 -4 -13v-186q0 -12 -11 -12h-45q-10 0 -10 11v882q0 8 3 11t11 3h38q12 0 12 -13zM219 59q35 -18 75 -18
q81 0 130.5 60.5t49.5 169.5q0 108 -49.5 163t-123.5 55q-43 0 -77.5 -19t-54.5 -48.5t-20 -57.5v-252q35 -35 70 -53z" />
    <glyph glyph-name="q" unicode="q" horiz-adv-x="597" 
d="M500 530q8 0 11 -3.5t3 -11.5v-668q0 -12 -11 -12h-46q-9 0 -9 12v186q0 14 -4 14q-3 0 -11 -6q-29 -22 -68 -36.5t-83 -14.5q-71 0 -123 34t-79.5 96.5t-27.5 146.5q0 125 61 199t169 74q48 0 80.5 -12t48 -24.5t36.5 -33.5q4 -4 6 -4q4 0 5 7l5 42q2 9 5 12t12 3h20z
M448 352q0 35 -20 67t-55 51.5t-78 19.5q-49 0 -89 -25t-63 -75t-23 -122q0 -106 49 -166.5t128 -60.5q42 0 82 18.5t69 51.5v241z" />
    <glyph glyph-name="r" unicode="r" horiz-adv-x="372" 
d="M83 12v507q0 11 10 11h43q9 0 9 -10v-66q0 -5 3 -6t7 3q41 46 79 67.5t77 21.5q19 0 27.5 -2.5t8.5 -9.5v-46q0 -7 -8 -7q-27 3 -39 3q-30 0 -66 -18.5t-60.5 -47.5t-24.5 -58v-342q0 -12 -13 -12h-41q-12 0 -12 12z" />
    <glyph glyph-name="racute" unicode="&#x155;" horiz-adv-x="372" 
d="M83 12v507q0 11 10 11h43q9 0 9 -10v-66q0 -5 3 -6t7 3q41 46 79 67.5t77 21.5q19 0 27.5 -2.5t8.5 -9.5v-46q0 -7 -8 -7q-27 3 -39 3q-30 0 -66 -18.5t-60.5 -47.5t-24.5 -58v-342q0 -12 -13 -12h-41q-12 0 -12 12zM337 707q1 -2 1 -6q0 -6 -10 -10l-228 -73
q-2 -1 -6 -1q-7 0 -8 7l-7 20l-1 4q0 6 5 8l230 95h3q5 0 8 -4z" />
    <glyph glyph-name="rcaron" unicode="&#x159;" horiz-adv-x="372" 
d="M83 12v507q0 11 10 11h43q9 0 9 -10v-66q0 -5 3 -6t7 3q41 46 79 67.5t77 21.5q19 0 27.5 -2.5t8.5 -9.5v-46q0 -7 -8 -7q-27 3 -39 3q-30 0 -66 -18.5t-60.5 -47.5t-24.5 -58v-342q0 -12 -13 -12h-41q-12 0 -12 12zM291 742h52q7 0 7 -3t-6 -8l-100 -88q-2 -1 -6.5 -5
t-11.5 -4h-31q-10 0 -22 10l-102 87q-4 4 -4 7q0 4 7 4h47q5 0 8.5 -1.5t8.5 -4.5l59 -49q8 -7 11 -7t10 7l56 49q9 6 17 6z" />
    <glyph glyph-name="rcommaaccent" unicode="&#x157;" horiz-adv-x="372" 
d="M83 12v507q0 11 10 11h43q9 0 9 -10v-66q0 -5 3 -6t7 3q41 46 79 67.5t77 21.5q19 0 27.5 -2.5t8.5 -9.5v-46q0 -7 -8 -7q-27 3 -39 3q-30 0 -66 -18.5t-60.5 -47.5t-24.5 -58v-342q0 -12 -13 -12h-41q-12 0 -12 12zM77.5 -234.5q-1.5 3.5 0.5 6.5l26 53q3 3 3 7
q0 5 -7 5h-9q-10 0 -10 11v65q0 10 9 10h53q8 0 8 -8v-78q0 -2 -1 -4t-1 -3l-35 -60q-2 -5 -6 -6.5t-11 -1.5h-14q-4 0 -5.5 3.5z" />
    <glyph glyph-name="uni0211" unicode="&#x211;" horiz-adv-x="372" 
d="M83 12v507q0 11 10 11h43q9 0 9 -10v-66q0 -5 3 -6t7 3q41 46 79 67.5t77 21.5q19 0 27.5 -2.5t8.5 -9.5v-46q0 -7 -8 -7q-27 3 -39 3q-30 0 -66 -18.5t-60.5 -47.5t-24.5 -58v-342q0 -12 -13 -12h-41q-12 0 -12 12zM46 750l121 -134q5 -7 -1 -12l-13 -17q-3 -5 -7 -5
q-2 0 -8 4l-127 114q-7 4 -7 9q0 2 4 8l26 32q6 6 12 1zM199 750l120 -134q7 -7 0 -12l-13 -17q-3 -5 -7 -5q-2 0 -8 4l-127 114q-7 4 -7 9q0 2 4 8l26 32q6 6 12 1z" />
    <glyph glyph-name="uni1E5B" unicode="&#x1e5b;" horiz-adv-x="372" 
d="M83 12v507q0 11 10 11h43q9 0 9 -10v-66q0 -5 3 -6t7 3q41 46 79 67.5t77 21.5q19 0 27.5 -2.5t8.5 -9.5v-46q0 -7 -8 -7q-27 3 -39 3q-30 0 -66 -18.5t-60.5 -47.5t-24.5 -58v-342q0 -12 -13 -12h-41q-12 0 -12 12zM148 -151q0 -8 -3 -11t-11 -3h-42q-7 0 -9.5 2.5
t-2.5 8.5v84q0 7 2 9.5t8 2.5h48q10 0 10 -11v-82z" />
    <glyph glyph-name="uni0213" unicode="&#x213;" horiz-adv-x="372" 
d="M83 12v507q0 11 10 11h43q9 0 9 -10v-66q0 -5 3 -6t7 3q41 46 79 67.5t77 21.5q19 0 27.5 -2.5t8.5 -9.5v-46q0 -7 -8 -7q-27 3 -39 3q-30 0 -66 -18.5t-60.5 -47.5t-24.5 -58v-342q0 -12 -13 -12h-41q-12 0 -12 12zM298 647q-4 0 -6.5 1.5t-4.5 5.5q-29 45 -81 45
q-30 0 -45.5 -11.5t-31.5 -32.5q-5 -8 -14 -8h-41q-8 0 -6 9q12 38 47.5 65t90.5 27q56 0 94 -27.5t48 -63.5q1 -2 1 -5q0 -5 -9 -5h-42z" />
    <glyph glyph-name="s" unicode="s" horiz-adv-x="508" 
d="M338.5 470q-38.5 19 -88.5 19q-59 0 -97 -25t-38 -67q0 -25 19.5 -45.5t68.5 -35.5l130 -40q63 -18 94 -52.5t31 -81.5q0 -44 -27.5 -78.5t-75.5 -54t-108 -19.5q-75 0 -134 30.5t-84 80.5q-2 4 -2 6q0 4 4 7l32 19q4 2 6 2q3 0 7 -4q55 -89 169 -89q64 0 106.5 25.5
t42.5 67.5q0 30 -25 51.5t-82 37.5l-102 30q-72 20 -102.5 52.5t-30.5 78.5t25.5 81t70.5 54.5t103 19.5q64 0 115.5 -24.5t79.5 -68.5q6 -7 -1 -11l-34 -20q-3 -2 -6.5 -1.5t-5.5 3.5q-22 33 -60.5 52z" />
    <glyph glyph-name="sacute" unicode="&#x15b;" horiz-adv-x="508" 
d="M338.5 470q-38.5 19 -88.5 19q-59 0 -97 -25t-38 -67q0 -25 19.5 -45.5t68.5 -35.5l130 -40q63 -18 94 -52.5t31 -81.5q0 -44 -27.5 -78.5t-75.5 -54t-108 -19.5q-75 0 -134 30.5t-84 80.5q-2 4 -2 6q0 4 4 7l32 19q4 2 6 2q3 0 7 -4q55 -89 169 -89q64 0 106.5 25.5
t42.5 67.5q0 30 -25 51.5t-82 37.5l-102 30q-72 20 -102.5 52.5t-30.5 78.5t25.5 81t70.5 54.5t103 19.5q64 0 115.5 -24.5t79.5 -68.5q6 -7 -1 -11l-34 -20q-3 -2 -6.5 -1.5t-5.5 3.5q-22 33 -60.5 52zM369 707q1 -2 1 -6q0 -6 -10 -10l-228 -73q-2 -1 -6 -1q-7 0 -8 7
l-7 20l-1 4q0 6 5 8l230 95h3q5 0 8 -4z" />
    <glyph glyph-name="scaron" unicode="&#x161;" horiz-adv-x="508" 
d="M338.5 470q-38.5 19 -88.5 19q-59 0 -97 -25t-38 -67q0 -25 19.5 -45.5t68.5 -35.5l130 -40q63 -18 94 -52.5t31 -81.5q0 -44 -27.5 -78.5t-75.5 -54t-108 -19.5q-75 0 -134 30.5t-84 80.5q-2 4 -2 6q0 4 4 7l32 19q4 2 6 2q3 0 7 -4q55 -89 169 -89q64 0 106.5 25.5
t42.5 67.5q0 30 -25 51.5t-82 37.5l-102 30q-72 20 -102.5 52.5t-30.5 78.5t25.5 81t70.5 54.5t103 19.5q64 0 115.5 -24.5t79.5 -68.5q6 -7 -1 -11l-34 -20q-3 -2 -6.5 -1.5t-5.5 3.5q-22 33 -60.5 52zM323 742h52q7 0 7 -3t-6 -8l-100 -88q-2 -1 -6.5 -5t-11.5 -4h-31
q-10 0 -22 10l-102 87q-4 4 -4 7q0 4 7 4h47q5 0 8.5 -1.5t8.5 -4.5l59 -49q8 -7 11 -7t10 7l56 49q9 6 17 6z" />
    <glyph glyph-name="scedilla" unicode="&#x15f;" horiz-adv-x="508" 
d="M245 -53q-1 -4 4 -4q43 -3 62 -24t19 -49q0 -37 -30 -57t-76 -20q-49 0 -81 21q-5 3 -4 8l10 23q3 5 8 2q13 -9 26.5 -14t33.5 -5q58 0 58 41q0 22 -19 33t-60 13q-8 0 -5 5l30 71q-67 5 -118 35t-74 75q-2 4 -2 6q0 4 4 7l32 19q4 2 6 2q3 0 7 -4q55 -89 169 -89
q64 0 106.5 25.5t42.5 67.5q0 30 -25 51.5t-82 37.5l-102 30q-72 20 -102.5 52.5t-30.5 78.5t25.5 81t70.5 54.5t103 19.5q64 0 115.5 -24.5t79.5 -68.5q6 -7 -1 -11l-34 -20q-3 -2 -6.5 -1.5t-5.5 3.5q-22 33 -60.5 52t-88.5 19q-59 0 -97 -25t-38 -67q0 -25 19.5 -45.5
t68.5 -35.5l130 -40q63 -18 94 -52.5t31 -81.5q0 -64 -55 -105.5t-140 -46.5z" />
    <glyph glyph-name="scircumflex" unicode="&#x15d;" horiz-adv-x="508" 
d="M338.5 470q-38.5 19 -88.5 19q-59 0 -97 -25t-38 -67q0 -25 19.5 -45.5t68.5 -35.5l130 -40q63 -18 94 -52.5t31 -81.5q0 -44 -27.5 -78.5t-75.5 -54t-108 -19.5q-75 0 -134 30.5t-84 80.5q-2 4 -2 6q0 4 4 7l32 19q4 2 6 2q3 0 7 -4q55 -89 169 -89q64 0 106.5 25.5
t42.5 67.5q0 30 -25 51.5t-82 37.5l-102 30q-72 20 -102.5 52.5t-30.5 78.5t25.5 81t70.5 54.5t103 19.5q64 0 115.5 -24.5t79.5 -68.5q6 -7 -1 -11l-34 -20q-3 -2 -6.5 -1.5t-5.5 3.5q-22 33 -60.5 52zM250 692q-7 7 -10 7t-11 -7l-59 -49q-5 -4 -8 -5.5t-9 -1.5h-47
q-6 0 -7 3t4 8l102 87q10 10 22 10h31q7 0 12 -4t6 -5l100 -88q13 -11 -1 -11h-52q-9 0 -17 7z" />
    <glyph glyph-name="scommaaccent" unicode="&#x219;" horiz-adv-x="508" 
d="M338.5 470q-38.5 19 -88.5 19q-59 0 -97 -25t-38 -67q0 -25 19.5 -45.5t68.5 -35.5l130 -40q63 -18 94 -52.5t31 -81.5q0 -44 -27.5 -78.5t-75.5 -54t-108 -19.5q-75 0 -134 30.5t-84 80.5q-2 4 -2 6q0 4 4 7l32 19q4 2 6 2q3 0 7 -4q55 -89 169 -89q64 0 106.5 25.5
t42.5 67.5q0 30 -25 51.5t-82 37.5l-102 30q-72 20 -102.5 52.5t-30.5 78.5t25.5 81t70.5 54.5t103 19.5q64 0 115.5 -24.5t79.5 -68.5q6 -7 -1 -11l-34 -20q-3 -2 -6.5 -1.5t-5.5 3.5q-22 33 -60.5 52zM210.5 -234.5q-1.5 3.5 0.5 6.5l26 53q3 3 3 7q0 5 -7 5h-9
q-10 0 -10 11v65q0 10 9 10h53q8 0 8 -8v-78q0 -2 -1 -4t-1 -3l-35 -60q-2 -5 -6 -6.5t-11 -1.5h-14q-4 0 -5.5 3.5z" />
    <glyph glyph-name="uni1E63" unicode="&#x1e63;" horiz-adv-x="508" 
d="M338.5 470q-38.5 19 -88.5 19q-59 0 -97 -25t-38 -67q0 -25 19.5 -45.5t68.5 -35.5l130 -40q63 -18 94 -52.5t31 -81.5q0 -44 -27.5 -78.5t-75.5 -54t-108 -19.5q-75 0 -134 30.5t-84 80.5q-2 4 -2 6q0 4 4 7l32 19q4 2 6 2q3 0 7 -4q55 -89 169 -89q64 0 106.5 25.5
t42.5 67.5q0 30 -25 51.5t-82 37.5l-102 30q-72 20 -102.5 52.5t-30.5 78.5t25.5 81t70.5 54.5t103 19.5q64 0 115.5 -24.5t79.5 -68.5q6 -7 -1 -11l-34 -20q-3 -2 -6.5 -1.5t-5.5 3.5q-22 33 -60.5 52zM280 -151q0 -8 -3 -11t-11 -3h-42q-7 0 -9.5 2.5t-2.5 8.5v84
q0 7 2 9.5t8 2.5h48q10 0 10 -11v-82z" />
    <glyph glyph-name="germandbls" unicode="&#xdf;" horiz-adv-x="597" 
d="M442 702q40 -40 40 -98q0 -37 -15.5 -61t-37.5 -38t-65 -36q-43 -23 -56.5 -35t-13.5 -33t13 -30t54 -22q57 -20 92.5 -37.5t64.5 -54.5t29 -96q0 -81 -55 -126t-139 -45q-36 0 -72 8t-60 23q-9 4 -5 12l20 35q3 4 12 1q24 -13 46 -20t52 -7q64 0 101 30t37 83
q0 38 -18.5 63t-47 38.5t-73.5 28.5q-35 12 -56.5 22.5t-37 31t-15.5 53.5q0 37 21.5 61.5t72.5 51.5l33.5 19t40 35t13.5 46q0 39 -29 62t-80 23q-66 0 -104.5 -39.5t-38.5 -115.5v-523v-3q0 -9 -9 -9h-47q-10 0 -10 10v453q0 10 -8 10h-56q-8 0 -8 8v35q0 8 9 8h55
q8 0 8 10q0 95 58 151.5t159 56.5q86 0 126 -40z" />
    <glyph glyph-name="uni0259" unicode="&#x259;" horiz-adv-x="579" 
d="M435 390.5q-25 44.5 -67.5 70.5t-92.5 26q-108 0 -164 -87q-3 -5 -6 -5.5t-7 1.5l-34 19q-3 2 -3.5 5t2.5 7q37 58 90 85.5t126 27.5t129.5 -34t88.5 -95.5t32 -140.5q0 -85 -32.5 -148.5t-89 -97.5t-127.5 -34q-109 0 -172.5 71.5t-63.5 197.5v6q0 7 2.5 11t11.5 4h395
q7 0 7 15q0 51 -25 95.5zM128 233q-10 0 -13.5 -3t-3.5 -11q0 -48 20.5 -89t58.5 -65t89 -24q56 0 97 27.5t62.5 71.5t20.5 93h-331z" />
    <glyph glyph-name="t" unicode="t" horiz-adv-x="375" 
d="M202 479q-8 0 -8 -8v-336q0 -49 14.5 -66t48.5 -17h73q10 0 10 -10v-27q0 -8 -10 -11q-24 -4 -87 -4q-62 0 -88.5 28.5t-26.5 92.5v349q0 9 -9 9h-85q-9 0 -9 8v35q0 8 8 8h89q5 0 7 8l10 160q0 12 9 12h36q11 0 11 -13v-159q0 -8 7 -8h132q8 0 8 -8v-35q0 -8 -9 -8h-131
z" />
    <glyph glyph-name="tbar" unicode="&#x167;" horiz-adv-x="375" 
d="M342 522v-35q0 -8 -9 -8h-131q-8 0 -8 -8v-152h96q6 0 6 -8v-28q0 -11 -13 -11h-89v-137q0 -49 14.5 -66t48.5 -17h73q10 0 10 -10v-27q0 -8 -10 -11q-24 -4 -87 -4q-62 0 -88.5 28.5t-26.5 92.5v151h-74q-6 0 -8 2.5t-2 7.5v28q0 9 7 9h77v151q0 9 -9 9h-85q-9 0 -9 8
v35q0 8 8 8h89q5 0 7 8l10 160q0 12 9 12h36q11 0 11 -13v-159q0 -8 7 -8h132q8 0 8 -8z" />
    <glyph glyph-name="tcaron" unicode="&#x165;" horiz-adv-x="375" 
d="M202 479q-8 0 -8 -8v-336q0 -49 14.5 -66t48.5 -17h73q10 0 10 -10v-27q0 -8 -10 -11q-24 -4 -87 -4q-62 0 -88.5 28.5t-26.5 92.5v349q0 9 -9 9h-85q-9 0 -9 8v35q0 8 8 8h89q5 0 7 8l10 160q0 12 9 12h36q11 0 11 -13v-159q0 -8 7 -8h132q8 0 8 -8v-35q0 -8 -9 -8h-131
zM283.5 581q-1.5 3 -0.5 6l30 71q2 6 1.5 8t-4.5 3l-7 1q-5 1 -7 3t-2 6v78q0 8 7 8h52q6 0 6 -7v-88l-1 -5l-34 -78q-3 -9 -16 -9h-19q-4 0 -5.5 3z" />
    <glyph glyph-name="uni0163" unicode="&#x163;" horiz-adv-x="375" 
d="M342 522v-35q0 -8 -9 -8h-131q-8 0 -8 -8v-336q0 -49 14.5 -66t48.5 -17h73q10 0 10 -10v-27q0 -8 -10 -11q-28 -4 -72 -4l-22 -53q-1 -4 4 -4q43 -3 62 -24t19 -49q0 -37 -30 -57t-76 -20q-49 0 -81 21q-5 3 -4 8l10 23q3 5 8 2q13 -9 26.5 -14t33.5 -5q58 0 58 41
q0 22 -19 33t-60 13q-8 0 -5 5l34 81q-47 6 -67.5 34.5t-20.5 85.5v349q0 9 -9 9h-85q-9 0 -9 8v35q0 8 8 8h89q5 0 7 8l10 160q0 12 9 12h36q11 0 11 -13v-159q0 -8 7 -8h132q8 0 8 -8z" />
    <glyph glyph-name="uni021B" unicode="&#x21b;" horiz-adv-x="375" 
d="M202 479q-8 0 -8 -8v-336q0 -49 14.5 -66t48.5 -17h73q10 0 10 -10v-27q0 -8 -10 -11q-24 -4 -87 -4q-62 0 -88.5 28.5t-26.5 92.5v349q0 9 -9 9h-85q-9 0 -9 8v35q0 8 8 8h89q5 0 7 8l10 160q0 12 9 12h36q11 0 11 -13v-159q0 -8 7 -8h132q8 0 8 -8v-35q0 -8 -9 -8h-131
zM201.5 -234.5q-1.5 3.5 0.5 6.5l26 53q3 3 3 7q0 5 -7 5h-9q-10 0 -10 11v65q0 10 9 10h53q8 0 8 -8v-78q0 -2 -1 -4t-1 -3l-35 -60q-2 -5 -6 -6.5t-11 -1.5h-14q-4 0 -5.5 3.5z" />
    <glyph glyph-name="uni1E6D" unicode="&#x1e6d;" horiz-adv-x="375" 
d="M202 479q-8 0 -8 -8v-336q0 -49 14.5 -66t48.5 -17h73q10 0 10 -10v-27q0 -8 -10 -11q-24 -4 -87 -4q-62 0 -88.5 28.5t-26.5 92.5v349q0 9 -9 9h-85q-9 0 -9 8v35q0 8 8 8h89q5 0 7 8l10 160q0 12 9 12h36q11 0 11 -13v-159q0 -8 7 -8h132q8 0 8 -8v-35q0 -8 -9 -8h-131
zM238 -151q0 -8 -3 -11t-11 -3h-42q-7 0 -9.5 2.5t-2.5 8.5v84q0 7 2 9.5t8 2.5h48q10 0 10 -11v-82z" />
    <glyph glyph-name="u" unicode="u" horiz-adv-x="576" 
d="M339.5 69q42.5 24 87.5 70v379q0 12 13 12h42q11 0 11 -12v-507q0 -11 -10 -11h-43q-10 0 -10 10v61q0 5 -2 6t-7 -3q-55 -47 -98 -65.5t-86 -18.5q-70 0 -116 41.5t-46 108.5v377q0 13 13 13h42q11 0 11 -12v-356q0 -53 30 -85t81 -32q45 0 87.5 24z" />
    <glyph glyph-name="uacute" unicode="&#xfa;" horiz-adv-x="576" 
d="M339.5 69q42.5 24 87.5 70v379q0 12 13 12h42q11 0 11 -12v-507q0 -11 -10 -11h-43q-10 0 -10 10v61q0 5 -2 6t-7 -3q-55 -47 -98 -65.5t-86 -18.5q-70 0 -116 41.5t-46 108.5v377q0 13 13 13h42q11 0 11 -12v-356q0 -53 30 -85t81 -32q45 0 87.5 24zM402 707q1 -2 1 -6
q0 -6 -10 -10l-228 -73q-2 -1 -6 -1q-7 0 -8 7l-7 20l-1 4q0 6 5 8l230 95h3q5 0 8 -4z" />
    <glyph glyph-name="ubreve" unicode="&#x16d;" horiz-adv-x="576" 
d="M339.5 69q42.5 24 87.5 70v379q0 12 13 12h42q11 0 11 -12v-507q0 -11 -10 -11h-43q-10 0 -10 10v61q0 5 -2 6t-7 -3q-55 -47 -98 -65.5t-86 -18.5q-70 0 -116 41.5t-46 108.5v377q0 13 13 13h42q11 0 11 -12v-356q0 -53 30 -85t81 -32q45 0 87.5 24zM413 740q2 -2 0 -8
q-10 -36 -48 -63.5t-94 -27.5q-55 0 -90.5 27t-47.5 65v3q0 6 6 6h41q9 0 14 -8q16 -21 31.5 -32.5t45.5 -11.5q52 0 81 45q2 4 4.5 5.5t6.5 1.5h42q6 0 8 -2z" />
    <glyph glyph-name="ucircumflex" unicode="&#xfb;" horiz-adv-x="576" 
d="M339.5 69q42.5 24 87.5 70v379q0 12 13 12h42q11 0 11 -12v-507q0 -11 -10 -11h-43q-10 0 -10 10v61q0 5 -2 6t-7 -3q-55 -47 -98 -65.5t-86 -18.5q-70 0 -116 41.5t-46 108.5v377q0 13 13 13h42q11 0 11 -12v-356q0 -53 30 -85t81 -32q45 0 87.5 24zM283 692q-7 7 -10 7
t-11 -7l-59 -49q-5 -4 -8 -5.5t-9 -1.5h-47q-6 0 -7 3t4 8l102 87q10 10 22 10h31q7 0 12 -4t6 -5l100 -88q13 -11 -1 -11h-52q-9 0 -17 7z" />
    <glyph glyph-name="uni0215" unicode="&#x215;" horiz-adv-x="576" 
d="M339.5 69q42.5 24 87.5 70v379q0 12 13 12h42q11 0 11 -12v-507q0 -11 -10 -11h-43q-10 0 -10 10v61q0 5 -2 6t-7 -3q-55 -47 -98 -65.5t-86 -18.5q-70 0 -116 41.5t-46 108.5v377q0 13 13 13h42q11 0 11 -12v-356q0 -53 30 -85t81 -32q45 0 87.5 24zM111 750l121 -134
q5 -7 -1 -12l-13 -17q-3 -5 -7 -5q-2 0 -8 4l-127 114q-7 4 -7 9q0 2 4 8l26 32q6 6 12 1zM264 750l120 -134q7 -7 0 -12l-13 -17q-3 -5 -7 -5q-2 0 -8 4l-127 114q-7 4 -7 9q0 2 4 8l26 32q6 6 12 1z" />
    <glyph glyph-name="udieresis" unicode="&#xfc;" horiz-adv-x="576" 
d="M339.5 69q42.5 24 87.5 70v379q0 12 13 12h42q11 0 11 -12v-507q0 -11 -10 -11h-43q-10 0 -10 10v61q0 5 -2 6t-7 -3q-55 -47 -98 -65.5t-86 -18.5q-70 0 -116 41.5t-46 108.5v377q0 13 13 13h42q11 0 11 -12v-356q0 -53 30 -85t81 -32q45 0 87.5 24zM242 651
q0 -8 -3 -11t-12 -3h-42q-8 0 -10.5 2.5t-2.5 9.5v81q0 12 10 12h50q10 0 10 -11v-80zM374 651q0 -8 -3.5 -11t-11.5 -3h-42q-8 0 -10.5 2.5t-2.5 9.5v81q0 12 10 12h49q11 0 11 -11v-80z" />
    <glyph glyph-name="uni1EE5" unicode="&#x1ee5;" horiz-adv-x="576" 
d="M339.5 69q42.5 24 87.5 70v379q0 12 13 12h42q11 0 11 -12v-507q0 -11 -10 -11h-43q-10 0 -10 10v61q0 5 -2 6t-7 -3q-55 -47 -98 -65.5t-86 -18.5q-70 0 -116 41.5t-46 108.5v377q0 13 13 13h42q11 0 11 -12v-356q0 -53 30 -85t81 -32q45 0 87.5 24zM307 -151
q0 -8 -3 -11t-11 -3h-42q-7 0 -9.5 2.5t-2.5 8.5v84q0 7 2 9.5t8 2.5h48q10 0 10 -11v-82z" />
    <glyph glyph-name="ugrave" unicode="&#xf9;" horiz-adv-x="576" 
d="M339.5 69q42.5 24 87.5 70v379q0 12 13 12h42q11 0 11 -12v-507q0 -11 -10 -11h-43q-10 0 -10 10v61q0 5 -2 6t-7 -3q-55 -47 -98 -65.5t-86 -18.5q-70 0 -116 41.5t-46 108.5v377q0 13 13 13h42q11 0 11 -12v-356q0 -53 30 -85t81 -32q45 0 87.5 24zM152 751l231 -95
q7 -3 4 -12l-7 -20q-2 -5 -5 -6.5t-9 0.5l-228 73q-7 3 -9 6.5t0 9.5l13 40q3 6 10 4z" />
    <glyph glyph-name="uhungarumlaut" unicode="&#x171;" horiz-adv-x="576" 
d="M339.5 69q42.5 24 87.5 70v379q0 12 13 12h42q11 0 11 -12v-507q0 -11 -10 -11h-43q-10 0 -10 10v61q0 5 -2 6t-7 -3q-55 -47 -98 -65.5t-86 -18.5q-70 0 -116 41.5t-46 108.5v377q0 13 13 13h42q11 0 11 -12v-356q0 -53 30 -85t81 -32q45 0 87.5 24zM316 717q4 -6 4 -8
q0 -5 -7 -9l-127 -114q-6 -4 -8 -4q-3 0 -8 5l-12 17q-4 3 -4 6.5t3 5.5l121 134q6 4 11 -1zM470 717q3 -4 3 -8q0 -5 -7 -9l-127 -114q-6 -4 -8 -4q-4 0 -7 5l-13 17q-7 5 0 12l120 134q6 5 12 -1z" />
    <glyph glyph-name="uni0217" unicode="&#x217;" horiz-adv-x="576" 
d="M339.5 69q42.5 24 87.5 70v379q0 12 13 12h42q11 0 11 -12v-507q0 -11 -10 -11h-43q-10 0 -10 10v61q0 5 -2 6t-7 -3q-55 -47 -98 -65.5t-86 -18.5q-70 0 -116 41.5t-46 108.5v377q0 13 13 13h42q11 0 11 -12v-356q0 -53 30 -85t81 -32q45 0 87.5 24zM363 647
q-4 0 -6.5 1.5t-4.5 5.5q-29 45 -81 45q-30 0 -45.5 -11.5t-31.5 -32.5q-5 -8 -14 -8h-41q-8 0 -6 9q12 38 47.5 65t90.5 27q56 0 94 -27.5t48 -63.5q1 -2 1 -5q0 -5 -9 -5h-42z" />
    <glyph glyph-name="umacron" unicode="&#x16b;" horiz-adv-x="576" 
d="M339.5 69q42.5 24 87.5 70v379q0 12 13 12h42q11 0 11 -12v-507q0 -11 -10 -11h-43q-10 0 -10 10v61q0 5 -2 6t-7 -3q-55 -47 -98 -65.5t-86 -18.5q-70 0 -116 41.5t-46 108.5v377q0 13 13 13h42q11 0 11 -12v-356q0 -53 30 -85t81 -32q45 0 87.5 24zM412 684
q0 -11 -13 -11h-256q-9 0 -9 11v32q0 9 7 9h264q7 0 7 -8v-33z" />
    <glyph glyph-name="uogonek" unicode="&#x173;" horiz-adv-x="576" 
d="M517 -117v-25q0 -7 -6 -10q-14 -6 -37 -11t-46 -5q-48 0 -72.5 21t-24.5 58q0 33 22.5 57t76.5 40v2v61q0 5 -2 6t-7 -3q-55 -47 -98 -65.5t-86 -18.5q-70 0 -116 41.5t-46 108.5v377q0 13 13 13h42q11 0 11 -12v-356q0 -53 30 -85t81 -32q45 0 87.5 24t87.5 70v379
q0 12 13 12h42q11 0 11 -12v-507q0 -11 -10 -11h-2q-48 -22 -69.5 -41.5t-21.5 -44.5q0 -40 53 -40q20 0 37 4t27 9q10 6 10 -4z" />
    <glyph glyph-name="uring" unicode="&#x16f;" horiz-adv-x="576" 
d="M339.5 69q42.5 24 87.5 70v379q0 12 13 12h42q11 0 11 -12v-507q0 -11 -10 -11h-43q-10 0 -10 10v61q0 5 -2 6t-7 -3q-55 -47 -98 -65.5t-86 -18.5q-70 0 -116 41.5t-46 108.5v377q0 13 13 13h42q11 0 11 -12v-356q0 -53 30 -85t81 -32q45 0 87.5 24zM346 626.5
q-30 -29.5 -73 -29.5q-44 0 -73.5 30t-29.5 74q0 41 30 70t73 29t73 -29t30 -72t-30 -72.5zM312 739q-16 16 -40 16q-23 0 -40.5 -16t-17.5 -41q0 -22 17.5 -39.5t40.5 -17.5q24 0 40 17t16 40q0 25 -16 41z" />
    <glyph glyph-name="utilde" unicode="&#x169;" horiz-adv-x="576" 
d="M339.5 69q42.5 24 87.5 70v379q0 12 13 12h42q11 0 11 -12v-507q0 -11 -10 -11h-43q-10 0 -10 10v61q0 5 -2 6t-7 -3q-55 -47 -98 -65.5t-86 -18.5q-70 0 -116 41.5t-46 108.5v377q0 13 13 13h42q11 0 11 -12v-356q0 -53 30 -85t81 -32q45 0 87.5 24zM336 663
q-19 0 -34 3.5t-34 10.5q-3 1 -20 6t-34 5t-28 -4.5t-19.5 -9.5t-11.5 -7l-6 -3q-4 0 -7 8l-8 22q-2 5 -1.5 7t4.5 4q18 14 34 21.5t39 7.5q25 0 65 -14q4 -1 23 -7t38 -6q16 0 26.5 4t28.5 14q4 3 7 3q4 0 7 -7l9 -25l1 -4q0 -5 -7 -9q-31 -20 -72 -20z" />
    <glyph glyph-name="v" unicode="v" horiz-adv-x="540" 
d="M509.5 526.5q2.5 -3.5 0.5 -8.5l-205 -505q-4 -13 -21 -13h-27q-17 0 -23 12l-204 505l-1 3q0 10 11 10h46q11 0 14 -10l168 -418q3 -10 7 -10t9 11l167 418q3 9 13 9h37q6 0 8.5 -3.5z" />
    <glyph glyph-name="w" unicode="w" horiz-adv-x="791" 
d="M756 526.5q3 -3.5 1 -8.5l-151 -506q-3 -12 -17 -12h-40q-16 0 -20 12l-127 399q-3 9 -6 9q-2 0 -5 -9l-121 -399q-3 -12 -17 -12h-42q-17 0 -20 12l-157 505l-1 4q0 4 3 6.5t8 2.5h44q11 0 14 -10l128 -416q3 -10 7 -10t7 11l126 417q3 8 13 8h37q11 0 14 -10l132 -416
q3 -10 7 -10t7 11l122 416q5 9 15 9h31q5 0 8 -3.5z" />
    <glyph glyph-name="wacute" unicode="&#x1e83;" horiz-adv-x="791" 
d="M756 526.5q3 -3.5 1 -8.5l-151 -506q-3 -12 -17 -12h-40q-16 0 -20 12l-127 399q-3 9 -6 9q-2 0 -5 -9l-121 -399q-3 -12 -17 -12h-42q-17 0 -20 12l-157 505l-1 4q0 4 3 6.5t8 2.5h44q11 0 14 -10l128 -416q3 -10 7 -10t7 11l126 417q3 8 13 8h37q11 0 14 -10l132 -416
q3 -10 7 -10t7 11l122 416q5 9 15 9h31q5 0 8 -3.5zM528 707q1 -2 1 -6q0 -6 -10 -10l-228 -73q-2 -1 -6 -1q-7 0 -8 7l-7 20l-1 4q0 6 5 8l230 95h3q5 0 8 -4z" />
    <glyph glyph-name="wcircumflex" unicode="&#x175;" horiz-adv-x="791" 
d="M756 526.5q3 -3.5 1 -8.5l-151 -506q-3 -12 -17 -12h-40q-16 0 -20 12l-127 399q-3 9 -6 9q-2 0 -5 -9l-121 -399q-3 -12 -17 -12h-42q-17 0 -20 12l-157 505l-1 4q0 4 3 6.5t8 2.5h44q11 0 14 -10l128 -416q3 -10 7 -10t7 11l126 417q3 8 13 8h37q11 0 14 -10l132 -416
q3 -10 7 -10t7 11l122 416q5 9 15 9h31q5 0 8 -3.5zM409 692q-7 7 -10 7t-11 -7l-59 -49q-5 -4 -8 -5.5t-9 -1.5h-47q-6 0 -7 3t4 8l102 87q10 10 22 10h31q7 0 12 -4t6 -5l100 -88q13 -11 -1 -11h-52q-9 0 -17 7z" />
    <glyph glyph-name="wdieresis" unicode="&#x1e85;" horiz-adv-x="791" 
d="M756 526.5q3 -3.5 1 -8.5l-151 -506q-3 -12 -17 -12h-40q-16 0 -20 12l-127 399q-3 9 -6 9q-2 0 -5 -9l-121 -399q-3 -12 -17 -12h-42q-17 0 -20 12l-157 505l-1 4q0 4 3 6.5t8 2.5h44q11 0 14 -10l128 -416q3 -10 7 -10t7 11l126 417q3 8 13 8h37q11 0 14 -10l132 -416
q3 -10 7 -10t7 11l122 416q5 9 15 9h31q5 0 8 -3.5zM368 651q0 -8 -3 -11t-12 -3h-42q-8 0 -10.5 2.5t-2.5 9.5v81q0 12 10 12h50q10 0 10 -11v-80zM500 651q0 -8 -3.5 -11t-11.5 -3h-42q-8 0 -10.5 2.5t-2.5 9.5v81q0 12 10 12h49q11 0 11 -11v-80z" />
    <glyph glyph-name="wgrave" unicode="&#x1e81;" horiz-adv-x="791" 
d="M756 526.5q3 -3.5 1 -8.5l-151 -506q-3 -12 -17 -12h-40q-16 0 -20 12l-127 399q-3 9 -6 9q-2 0 -5 -9l-121 -399q-3 -12 -17 -12h-42q-17 0 -20 12l-157 505l-1 4q0 4 3 6.5t8 2.5h44q11 0 14 -10l128 -416q3 -10 7 -10t7 11l126 417q3 8 13 8h37q11 0 14 -10l132 -416
q3 -10 7 -10t7 11l122 416q5 9 15 9h31q5 0 8 -3.5zM278 751l231 -95q7 -3 4 -12l-7 -20q-2 -5 -5 -6.5t-9 0.5l-228 73q-7 3 -9 6.5t0 9.5l13 40q3 6 10 4z" />
    <glyph glyph-name="x" unicode="x" horiz-adv-x="532" 
d="M503 5q0 -5 -9 -5h-56q-10 0 -17 7l-150 207q-4 7 -8 7q-3 0 -9 -7l-157 -207q-5 -7 -17 -7h-38q-13 0 -13 8q0 5 6 12l187 237q4 5 4 10t-4 10l-177 240q-2 2 -2 6q0 7 9 7h52q6 0 9.5 -1.5t6.5 -5.5l146 -196q3 -6 7 -6t8 6l142 196q3 4 6.5 5.5t9.5 1.5h42
q6 0 7.5 -3.5t-2.5 -7.5l-174 -232q-4 -5 -4 -10q0 -6 4 -11l185 -249q6 -9 6 -12z" />
    <glyph glyph-name="y" unicode="y" horiz-adv-x="521" 
d="M58 -163q-14 2 -14 10v29q0 7 5.5 9.5t23.5 2.5h62q24 0 44.5 19t32.5 47.5t12 54.5q0 16 -4 27l-190 479q-1 2 -1 6q0 9 11 9h45q11 0 14 -10l160 -411q3 -9 8 -9q6 0 10 13l156 408q5 9 13 9h36q6 0 8.5 -4t0.5 -8l-224 -577q-24 -60 -61.5 -83t-98.5 -23q-35 0 -49 2z
" />
    <glyph glyph-name="yacute" unicode="&#xfd;" horiz-adv-x="521" 
d="M58 -163q-14 2 -14 10v29q0 7 5.5 9.5t23.5 2.5h62q24 0 44.5 19t32.5 47.5t12 54.5q0 16 -4 27l-190 479q-1 2 -1 6q0 9 11 9h45q11 0 14 -10l160 -411q3 -9 8 -9q6 0 10 13l156 408q5 9 13 9h36q6 0 8.5 -4t0.5 -8l-224 -577q-24 -60 -61.5 -83t-98.5 -23q-35 0 -49 2z
M396 707q1 -2 1 -6q0 -6 -10 -10l-228 -73q-2 -1 -6 -1q-7 0 -8 7l-7 20l-1 4q0 6 5 8l230 95h3q5 0 8 -4z" />
    <glyph glyph-name="ycircumflex" unicode="&#x177;" horiz-adv-x="521" 
d="M58 -163q-14 2 -14 10v29q0 7 5.5 9.5t23.5 2.5h62q24 0 44.5 19t32.5 47.5t12 54.5q0 16 -4 27l-190 479q-1 2 -1 6q0 9 11 9h45q11 0 14 -10l160 -411q3 -9 8 -9q6 0 10 13l156 408q5 9 13 9h36q6 0 8.5 -4t0.5 -8l-224 -577q-24 -60 -61.5 -83t-98.5 -23q-35 0 -49 2z
M277 692q-7 7 -10 7t-11 -7l-59 -49q-5 -4 -8 -5.5t-9 -1.5h-47q-6 0 -7 3t4 8l102 87q10 10 22 10h31q7 0 12 -4t6 -5l100 -88q13 -11 -1 -11h-52q-9 0 -17 7z" />
    <glyph glyph-name="ydieresis" unicode="&#xff;" horiz-adv-x="521" 
d="M58 -163q-14 2 -14 10v29q0 7 5.5 9.5t23.5 2.5h62q24 0 44.5 19t32.5 47.5t12 54.5q0 16 -4 27l-190 479q-1 2 -1 6q0 9 11 9h45q11 0 14 -10l160 -411q3 -9 8 -9q6 0 10 13l156 408q5 9 13 9h36q6 0 8.5 -4t0.5 -8l-224 -577q-24 -60 -61.5 -83t-98.5 -23q-35 0 -49 2z
M236 651q0 -8 -3 -11t-12 -3h-42q-8 0 -10.5 2.5t-2.5 9.5v81q0 12 10 12h50q10 0 10 -11v-80zM368 651q0 -8 -3.5 -11t-11.5 -3h-42q-8 0 -10.5 2.5t-2.5 9.5v81q0 12 10 12h49q11 0 11 -11v-80z" />
    <glyph glyph-name="ygrave" unicode="&#x1ef3;" horiz-adv-x="521" 
d="M58 -163q-14 2 -14 10v29q0 7 5.5 9.5t23.5 2.5h62q24 0 44.5 19t32.5 47.5t12 54.5q0 16 -4 27l-190 479q-1 2 -1 6q0 9 11 9h45q11 0 14 -10l160 -411q3 -9 8 -9q6 0 10 13l156 408q5 9 13 9h36q6 0 8.5 -4t0.5 -8l-224 -577q-24 -60 -61.5 -83t-98.5 -23q-35 0 -49 2z
M146 751l231 -95q7 -3 4 -12l-7 -20q-2 -5 -5 -6.5t-9 0.5l-228 73q-7 3 -9 6.5t0 9.5l13 40q3 6 10 4z" />
    <glyph glyph-name="uni1EF9" unicode="&#x1ef9;" horiz-adv-x="521" 
d="M58 -163q-14 2 -14 10v29q0 7 5.5 9.5t23.5 2.5h62q24 0 44.5 19t32.5 47.5t12 54.5q0 16 -4 27l-190 479q-1 2 -1 6q0 9 11 9h45q11 0 14 -10l160 -411q3 -9 8 -9q6 0 10 13l156 408q5 9 13 9h36q6 0 8.5 -4t0.5 -8l-224 -577q-24 -60 -61.5 -83t-98.5 -23q-35 0 -49 2z
M330 663q-19 0 -34 3.5t-34 10.5q-3 1 -20 6t-34 5t-28 -4.5t-19.5 -9.5t-11.5 -7l-6 -3q-4 0 -7 8l-8 22q-2 5 -1.5 7t4.5 4q18 14 34 21.5t39 7.5q25 0 65 -14q4 -1 23 -7t38 -6q16 0 26.5 4t28.5 14q4 3 7 3q4 0 7 -7l9 -25l1 -4q0 -5 -7 -9q-31 -20 -72 -20z" />
    <glyph glyph-name="z" unicode="z" horiz-adv-x="472" 
d="M35 2q-2 2 -2 8v27q0 7 2 12t8 13l304 410q6 9 -4 9h-278q-10 0 -10 9v31q0 9 8 9h360q7 0 7 -8v-29q0 -14 -8 -25l-305 -410q-6 -9 3 -9h307q9 0 9 -8v-31q0 -10 -11 -10h-383q-5 0 -7 2z" />
    <glyph glyph-name="zacute" unicode="&#x17a;" horiz-adv-x="472" 
d="M35 2q-2 2 -2 8v27q0 7 2 12t8 13l304 410q6 9 -4 9h-278q-10 0 -10 9v31q0 9 8 9h360q7 0 7 -8v-29q0 -14 -8 -25l-305 -410q-6 -9 3 -9h307q9 0 9 -8v-31q0 -10 -11 -10h-383q-5 0 -7 2zM379 707q1 -2 1 -6q0 -6 -10 -10l-228 -73q-2 -1 -6 -1q-7 0 -8 7l-7 20l-1 4
q0 6 5 8l230 95h3q5 0 8 -4z" />
    <glyph glyph-name="zcaron" unicode="&#x17e;" horiz-adv-x="472" 
d="M35 2q-2 2 -2 8v27q0 7 2 12t8 13l304 410q6 9 -4 9h-278q-10 0 -10 9v31q0 9 8 9h360q7 0 7 -8v-29q0 -14 -8 -25l-305 -410q-6 -9 3 -9h307q9 0 9 -8v-31q0 -10 -11 -10h-383q-5 0 -7 2zM333 742h52q7 0 7 -3t-6 -8l-100 -88q-2 -1 -6.5 -5t-11.5 -4h-31q-10 0 -22 10
l-102 87q-4 4 -4 7q0 4 7 4h47q5 0 8.5 -1.5t8.5 -4.5l59 -49q8 -7 11 -7t10 7l56 49q9 6 17 6z" />
    <glyph glyph-name="zdotaccent" unicode="&#x17c;" horiz-adv-x="472" 
d="M35 2q-2 2 -2 8v27q0 7 2 12t8 13l304 410q6 9 -4 9h-278q-10 0 -10 9v31q0 9 8 9h360q7 0 7 -8v-29q0 -14 -8 -25l-305 -410q-6 -9 3 -9h307q9 0 9 -8v-31q0 -10 -11 -10h-383q-5 0 -7 2zM287 647q0 -8 -3 -11t-12 -3h-46q-7 0 -10 2.5t-3 9.5v85q0 7 2.5 9.5t8.5 2.5
h53q6 0 8 -2.5t2 -9.5v-83z" />
    <glyph glyph-name="uni1E93" unicode="&#x1e93;" horiz-adv-x="472" 
d="M35 2q-2 2 -2 8v27q0 7 2 12t8 13l304 410q6 9 -4 9h-278q-10 0 -10 9v31q0 9 8 9h360q7 0 7 -8v-29q0 -14 -8 -25l-305 -410q-6 -9 3 -9h307q9 0 9 -8v-31q0 -10 -11 -10h-383q-5 0 -7 2zM267 -151q0 -8 -3 -11t-11 -3h-42q-7 0 -9.5 2.5t-2.5 8.5v84q0 7 2 9.5t8 2.5
h48q10 0 10 -11v-82z" />
    <glyph glyph-name="ordfeminine" unicode="&#xaa;" horiz-adv-x="403" 
d="M286.5 719q32.5 -30 32.5 -83v-164q0 -15 1.5 -25t7.5 -26q1 -1 1 -3q0 -7 -10 -7h-33q-5 0 -7 1.5t-3 6.5l-6 33q-1 4 -2.5 4t-6.5 -4q-26 -25 -51 -36t-56 -11q-52 0 -81.5 24.5t-29.5 67.5q0 96 163 111l53 5q11 2 11 9v16q0 71 -83 71q-30 0 -51 -10t-37 -37
q-4 -5 -10 -3l-33 11q-3 3 -1 10q18 33 52.5 51t83.5 18q63 0 95.5 -30zM115 459q20 -15 54 -15q42 0 74 29q27 24 27 47v47q0 6 -2 8t-8 1l-44 -4q-121 -9 -121 -73q0 -25 20 -40z" />
    <glyph glyph-name="ordmasculine" unicode="&#xba;" horiz-adv-x="414" 
d="M321.5 703.5q42.5 -47.5 42.5 -126.5q0 -76 -42 -123t-115 -47t-115 47t-42 123q0 78 43 126t114 48q72 0 114.5 -47.5zM131 674.5q-26 -34.5 -26 -94.5q0 -63 26 -97.5t76 -34.5t76 35t26 97q0 60 -26.5 94.5t-75.5 34.5q-50 0 -76 -34.5z" />
    <glyph glyph-name="uni0394" unicode="&#x394;" horiz-adv-x="647" 
d="M36 36q0 24 8 45l237 650q5 12 15 12l57 -1q11 0 15 -13l236 -645q7 -22 7 -41v-29q0 -7 -2.5 -10.5t-9.5 -3.5h-549q-14 0 -14 16v20zM527 61q13 0 8 15l-204 568q-3 11 -7 11q-3 0 -8 -12l-204 -567q-1 -2 -1 -6q0 -9 13 -9h403z" />
    <glyph glyph-name="uni03A9" unicode="&#x3a9;" horiz-adv-x="767" 
d="M251.5 651q-54.5 -40 -82 -106t-27.5 -144q0 -84 31 -148.5t70.5 -105t88.5 -77.5q7 -4 10 -9.5t3 -16.5v-32q0 -12 -11 -12h-227q-4 0 -7 3t-3 7v44q0 4 3 6t7 2h138q7 0 9 3t-4 8l-53 42.5t-90 119.5t-42 175q0 91 37.5 169t110 125.5t171.5 47.5t171 -48t109 -126
t37 -167q0 -93 -36.5 -164t-57.5 -91.5t-91 -82.5q-4 -4 -4 -7q0 -4 9 -4h139q9 0 9 -9v-43q0 -4 -2.5 -7t-6.5 -3h-228q-11 0 -11 12v32q0 10 3 15.5t10 10.5q78 58 134 135t56 197q0 77 -27 143t-81 106t-132 40t-132.5 -40z" />
    <glyph glyph-name="uni03BC" unicode="&#x3bc;" horiz-adv-x="576" 
d="M427 139v379q0 12 13 12h42q11 0 11 -12v-507q0 -11 -10 -11h-43q-10 0 -10 10v62q0 5 -2 6t-7 -3q-57 -46 -95.5 -64.5t-81.5 -18.5q-32 0 -57 8t-46 27v-177q0 -9 -3 -12t-12 -3h-37q-8 0 -11 2.5t-3 9.5v670q0 13 13 13h42q11 0 11 -12v-374q0 -40 33 -69.5t79 -29.5
q82 0 174 94z" />
    <glyph glyph-name="pi" unicode="&#x3c0;" horiz-adv-x="661" 
d="M519 479q-11 0 -11 -11v-456q0 -12 -11 -12h-44q-5 0 -7 3t-2 11l-1 455q0 10 -11 10h-227q-10 0 -10 -9q0 -132 -16.5 -260.5t-40.5 -200.5q-3 -9 -11 -9h-38q-6 0 -8.5 3t-1.5 9q23 92 39 213.5t16 243.5q0 10 -9 10h-86q-12 0 -12 11v29q0 11 13 11h584q6 0 8 -3t2 -9
v-27q0 -12 -10 -12h-105z" />
    <glyph glyph-name="zero" unicode="0" horiz-adv-x="683" 
d="M480 708q61 -44 96 -130t35 -209q0 -122 -35 -207.5t-96 -128.5t-139 -43t-139 43t-96 127.5t-35 206.5q0 123 35 210t96.5 131t139.5 44q77 0 138 -44zM483.5 128.5q50.5 77.5 50.5 240.5q0 164 -51 243.5t-141 79.5t-141.5 -80t-51.5 -243q0 -162 52 -240t142 -78
t140.5 77.5z" />
    <glyph glyph-name="one" unicode="1" horiz-adv-x="454" 
d="M410 54v-45q0 -3 -2.5 -6t-7.5 -3h-338q-9 0 -9 8v46q0 8 8 8h133q7 0 7 5v583q0 11 -8 7l-130 -49l-4 -1q-7 0 -7 10v34q0 6 1 7.5t7 4.5l144 72q12 7 26 7h37q4 0 6.5 -3t2.5 -8v-662q0 -7 6 -7h119q9 0 9 -8z" />
    <glyph glyph-name="two" unicode="2" horiz-adv-x="588" 
d="M295 308q83 81 116.5 134.5t33.5 110.5q0 43 -22.5 74.5t-59 47.5t-76.5 16q-48 0 -96 -24.5t-80 -73.5q-3 -5 -9 -5q-5 0 -10 4l-32 20q-7 6 -7 11q0 4 4 9q42 60 105 90t133 30q61 0 112 -22.5t81.5 -68t30.5 -113.5q0 -65 -36 -122.5t-129 -148.5l-206 -200
q-5 -5 -5 -7q0 -5 11 -5h362q6 0 8.5 -2t2.5 -8v-45q0 -10 -11 -10h-449q-8 0 -11.5 3t-3.5 11v33q0 11 4 18.5t18 19.5z" />
    <glyph glyph-name="three" unicode="3" horiz-adv-x="634" 
d="M77 648q0 4 3 7q48 50 103 73.5t121 23.5q73 0 128 -24.5t84.5 -66.5t29.5 -95q0 -56 -34.5 -100t-94.5 -65q-11 -3 -11 -6t11 -6q65 -18 108.5 -67.5t43.5 -118.5q0 -61 -31.5 -109.5t-94.5 -76t-153 -27.5q-74 0 -133 24.5t-109 77.5q-4 4 -4 6q0 4 6 8l34 28
q5 4 8 3.5t6 -3.5q44 -45 91 -64t107 -19q93 0 145.5 40.5t52.5 107.5q0 50 -28.5 86t-74.5 54.5t-98 18.5l-89 1q-11 0 -11 8v42q0 4 3 6t8 2l72 1q54 0 99 19t71 52t26 74q0 36 -21.5 65.5t-59.5 46.5t-86 17q-102 0 -182 -78q-4 -4 -9 -4q-4 0 -8 4l-26 27q-3 3 -3 7z
" />
    <glyph glyph-name="four" unicode="4" horiz-adv-x="638" 
d="M412 742h53q11 0 11 -11v-458q0 -8 7 -8h98q12 0 12 -9v-39q0 -12 -13 -12h-96q-8 0 -8 -10v-183q0 -12 -14 -12h-51q-11 0 -11 12v186q0 7 -9 7h-330q-13 0 -13 12v43q0 11 13 28l331 446q7 8 20 8zM388 265q4 0 6.5 2t2.5 5v355q0 13 -4 13t-10 -9l-261 -353
q-3 -4 -3 -7q0 -6 10 -6h259z" />
    <glyph glyph-name="five" unicode="5" horiz-adv-x="649" 
d="M540 742q8 0 10.5 -2t1.5 -10l-4 -43q0 -2 -0.5 -5t-3 -3.5t-7.5 -0.5h-347q-10 0 -11 -10l-18 -241v-3q0 -5 3.5 -7.5t7.5 -0.5q47 26 83.5 38.5t87.5 12.5q67 0 122.5 -24t89 -74t33.5 -126q0 -78 -36 -135.5t-100 -87.5t-144 -30q-73 0 -137.5 25.5t-111.5 74.5
q-5 7 -5 9q0 4 6 8l34 29q1 1 4 1q5 0 9 -4q49 -44 89.5 -64t100.5 -20q101 0 159 53t58 139q0 82 -51 124.5t-128 42.5q-51 0 -93 -17t-90 -47q-6 -3 -9 -3q-1 0 -3 1.5t-5 2.5l-38 23q-2 2 -5 3.5t-3 3.5q0 1 1 4t1 8l27 343q1 9 3.5 10.5t15.5 1.5h403z" />
    <glyph glyph-name="six" unicode="6" horiz-adv-x="655" 
d="M553 664q2 -6 2.5 -8.5t-4.5 -5.5l-44 -21q-1 -1 -4 -1q-5 0 -10 7q-24 28 -53 42t-70 14q-113 0 -168.5 -78t-55.5 -207q0 -13 1.5 -18t5.5 -5t10 3q54 26 96.5 40t97.5 14q75 0 129.5 -28t82.5 -77t28 -112q0 -68 -33.5 -121t-91 -82.5t-126.5 -29.5q-85 0 -147 43.5
t-95 127t-33 200.5q0 121 35.5 209t102.5 135t160 47q115 0 184 -88zM255.5 367.5q-53.5 -13.5 -85.5 -34.5q-13 -9 -17.5 -18t-4.5 -28q0 -53 22.5 -108t67.5 -92.5t110 -37.5q49 0 88.5 23t62.5 62.5t23 86.5q0 44 -20.5 80.5t-59 58t-90.5 21.5q-43 0 -96.5 -13.5z" />
    <glyph glyph-name="seven" unicode="7" horiz-adv-x="594" 
d="M536 742q6 0 9 -3t2 -7v-31q0 -14 -12 -31q-65 -95 -125.5 -221.5t-102.5 -244t-53 -187.5q-2 -17 -14 -17h-58q-16 0 -11 16q32 130 105.5 304.5t182.5 344.5q4 6 4 8q0 5 -10 5h-401q-8 0 -8 10l5 45q1 5 3.5 7t9.5 2h474z" />
    <glyph glyph-name="eight" unicode="8" horiz-adv-x="665" 
d="M456 726.5q54 -25.5 83.5 -72t29.5 -106.5q0 -48 -23.5 -85.5t-78.5 -77.5q-8 -5 -8 -8t7 -7q66 -24 101 -69.5t35 -107.5q0 -61 -34 -107t-95.5 -71t-142.5 -25q-123 0 -193.5 51.5t-70.5 143.5q0 54 27 96.5t87 81.5q13 9 13 13q0 5 -13 11q-94 50 -94 154
q0 59 31.5 107t87.5 76t127 28q70 0 124 -25.5zM244.5 674q-39.5 -19 -62.5 -53t-23 -75q0 -100 111 -124l109 -24q19 -5 48.5 17.5t51 60t21.5 75.5q0 64 -45.5 103t-121.5 39q-49 0 -88.5 -19zM474.5 88q52.5 39 52.5 104q0 51 -26.5 81.5t-85.5 43.5l-138 33q-2 1 -8 1
q-23 0 -55.5 -22t-55.5 -58.5t-23 -79.5q0 -67 51.5 -104.5t146.5 -37.5q89 0 141.5 39z" />
    <glyph glyph-name="nine" unicode="9" horiz-adv-x="651" 
d="M95 78q-3 5 -3 8q0 4 5 6l43 21q2 1 5 1q5 0 10 -6q23 -28 54.5 -42.5t77.5 -14.5q108 0 162.5 78.5t54.5 206.5q0 13 -1 18t-5 5t-10 -3q-53 -27 -94.5 -40.5t-96.5 -13.5q-74 0 -128 28t-82 77.5t-28 111.5q0 68 33 121t90.5 82.5t126.5 29.5q84 0 145 -43.5t93.5 -127
t32.5 -200.5q0 -121 -35 -209t-101 -135t-157 -47q-121 0 -192 88zM398 376.5q52 15.5 84 38.5q14 9 18 18t4 28q0 51 -22 105t-66.5 90.5t-107.5 36.5q-49 0 -89 -22.5t-62.5 -62t-22.5 -86.5q0 -45 20.5 -81.5t58.5 -58t88 -21.5q45 0 97 15.5z" />
    <glyph glyph-name="zero.subs" horiz-adv-x="484" 
d="M315 275.5q38 -27.5 60 -82t22 -131.5q0 -115 -47 -176.5t-123 -61.5q-75 0 -122 61.5t-47 175.5q0 78 22 132.5t60.5 82t87.5 27.5t87 -27.5zM317 -89q32 49 32 151q0 103 -32 153t-89 50q-56 0 -88.5 -50t-32.5 -153q0 -102 32.5 -151t89.5 -49q56 0 88 49z" />
    <glyph glyph-name="one.subs" horiz-adv-x="367" 
d="M264 -131v-28q0 -6 -6 -6h-213q-3 0 -4.5 1.5t-1.5 3.5v29q0 5 5 5h84q4 0 4 3v367q0 7 -5 4l-81 -31q-7 -1 -7 6v21q0 4 1 5.5t4 2.5l90 45q9 5 17 5h23q2 0 4 -2t2 -5v-417q0 -4 3 -4h75q6 0 6 -5z" />
    <glyph glyph-name="two.subs" horiz-adv-x="452" 
d="M204 29q52 51 73 84.5t21 69.5q0 40 -30 63.5t-69 23.5q-30 0 -60.5 -15.5t-50.5 -46.5q-5 -5 -12 -1l-20 13q-4 3 -4.5 5.5t2.5 7.5q26 37 66 56t84 19q59 0 99.5 -33t40.5 -95q0 -41 -22.5 -77.5t-80.5 -93.5l-130 -126q-4 -3 -3 -5t7 -2h228q4 0 5 -1t1 -5v-29
q0 -6 -6 -6h-283q-5 0 -7 2t-2 7v21q0 6 2.5 11t11.5 12z" />
    <glyph glyph-name="three.subs" horiz-adv-x="467" 
d="M78 244q31 31 65.5 46t75.5 15q69 0 110.5 -33t41.5 -84q0 -35 -21.5 -63t-59.5 -41q-13 -4 0 -7q42 -12 69 -42.5t27 -74.5q0 -59 -45.5 -96.5t-130.5 -37.5q-46 0 -83.5 15.5t-68.5 48.5q-4 4 1 9l22 17q5 5 9 0q27 -28 56.5 -40t67.5 -12q58 0 91.5 25.5t33.5 67.5
q0 47 -37.5 73.5t-89.5 26.5l-56 1q-7 0 -7 5v26q0 2 2.5 3.5t4.5 1.5l46 1q52 1 87.5 26.5t35.5 64.5q0 35 -29.5 58t-75.5 23q-66 0 -115 -49q-6 -6 -10 0l-17 17q-4 4 0 9z" />
    <glyph glyph-name="four.subs" horiz-adv-x="483" 
d="M280 302h33q7 0 7 -7v-288q0 -5 5 -5h61q8 0 8 -6v-25q0 -7 -8 -7h-61q-5 0 -5 -6v-115q0 -8 -8 -8h-32q-7 0 -7 8v117q0 4 -6 4h-208q-8 0 -8 7v28q0 6 8 17l209 281q5 5 12 5zM265 2q2 0 4 1t2 3v223q0 8 -3 8q-2 0 -6 -5l-164 -222q-6 -8 4 -8h163z" />
    <glyph glyph-name="five.subs" horiz-adv-x="470" 
d="M365 299q5 0 6.5 -1.5t0.5 -6.5l-2 -27q0 -1 -0.5 -3t-2 -2.5t-4.5 -0.5h-218q-7 0 -7 -6l-12 -151v-2q0 -4 2 -5.5t5 0.5q30 16 53 24t55 8q65 0 109.5 -35.5t44.5 -105.5q0 -74 -49.5 -116.5t-126.5 -42.5q-47 0 -87.5 15.5t-69.5 47.5q-3 3 -3 5t4 5l21 19q5 2 8 -2
q31 -28 56.5 -40.5t63.5 -12.5q63 0 99.5 33.5t36.5 87.5q0 51 -32 78t-80 27q-33 0 -59.5 -11t-55.5 -30q-3 -2 -5 -2t-3.5 1t-2.5 2l-24 14q-5 3 -4.5 5t0.5 7l17 216q1 6 2.5 7t9.5 1h254z" />
    <glyph glyph-name="six.subs" horiz-adv-x="473" 
d="M361 248l1.5 -3.5t-2.5 -5.5l-28 -13q-4 -2 -9 3q-15 18 -33 27t-44 9q-71 0 -106 -49.5t-35 -130.5q0 -10 2 -13t9 1q35 17 61 25.5t61 8.5q70 0 110.5 -38.5t40.5 -98.5q0 -42 -21 -75.5t-57.5 -52t-79.5 -18.5q-81 0 -127 61.5t-46 171.5q0 115 49.5 180.5t137.5 65.5
q72 0 116 -55zM174 61q-33 -9 -54 -22q-8 -5 -11 -10.5t-3 -17.5q0 -33 14 -68t42.5 -58.5t69.5 -23.5q46 0 77.5 31.5t31.5 76.5q0 43 -29 72t-78 29q-27 0 -60 -9z" />
    <glyph glyph-name="seven.subs" horiz-adv-x="432" 
d="M371 302q4 0 6 -2t1 -5v-19q0 -10 -7 -20q-61 -89 -113.5 -214.5t-63.5 -195.5q-2 -11 -9 -11h-37q-9 0 -6 10q19 81 65.5 191t115.5 217q5 8 -4 8h-252q-5 0 -5 7l3 28q0 6 8 6h298z" />
    <glyph glyph-name="eight.subs" horiz-adv-x="469" 
d="M336 269.5q41 -35.5 41 -92.5q0 -31 -14.5 -54t-49.5 -49q-10 -6 -1 -9q42 -15 64 -44t22 -68q0 -58 -47 -92.5t-124 -34.5q-78 0 -122 32t-44 90q0 34 16.5 61t54.5 51q8 5 8 8q0 4 -8 7q-59 33 -59 97q0 37 20 67.5t55 48t80 17.5q67 0 108 -35.5zM150 241.5
q-31 -26.5 -31 -66.5q0 -62 70 -78l68 -15q12 -3 30.5 11.5t32.5 38t14 47.5q0 40 -29 64.5t-77 24.5q-47 0 -78 -26.5zM317 -112.5q33 24.5 33 65.5q0 32 -16.5 51t-53.5 27l-87 21q-13 3 -34.5 -10t-38 -37t-16.5 -53q0 -42 32.5 -65.5t91.5 -23.5q56 0 89 24.5z" />
    <glyph glyph-name="nine.subs" horiz-adv-x="473" 
d="M78 -121q-4 6 1 9l27 13q5 3 9 -3q15 -18 34.5 -27t49.5 -9q68 0 102 49t34 130q0 11 -2 14t-8 -1q-35 -17 -60.5 -25.5t-59.5 -8.5q-70 0 -110 38t-40 98q0 43 21 76.5t57 52t79 18.5q80 0 125.5 -61.5t45.5 -171.5q0 -115 -49 -180.5t-135 -65.5q-77 0 -121 55zM268 67
q33 10 53 24q9 6 11.5 11.5t2.5 17.5q0 32 -14 66t-41.5 57t-67.5 23q-47 0 -78.5 -31t-31.5 -77q0 -43 29 -72t76 -29q28 0 61 10z" />
    <glyph glyph-name="fraction" unicode="&#x2044;" horiz-adv-x="245" 
d="M-97 5q-4 -5 -7.5 -7t-10.5 -2h-21q-10 0 -10 8q0 5 3 9l486 731q3 4 6.5 5t7.5 1h28q5 0 7 -2.5t-2 -7.5z" />
    <glyph glyph-name="onehalf" unicode="&#xbd;" horiz-adv-x="939" 
d="M230 310v-28q0 -6 -6 -6h-213q-3 0 -4.5 1.5t-1.5 3.5v29q0 5 5 5h84q4 0 4 3v367q0 7 -5 4l-81 -31q-7 -1 -7 6v21q0 4 1 5.5t4 2.5l90 45q9 5 17 5h23q2 0 4 -2t2 -5v-417q0 -4 3 -4h75q6 0 6 -5zM256 5q-4 -5 -7.5 -7t-10.5 -2h-21q-10 0 -10 8q0 5 3 9l486 731
q3 4 6.5 5t7.5 1h28q5 0 7 -2.5t-2 -7.5zM742 194q52 51 73 84.5t21 69.5q0 40 -30 63.5t-69 23.5q-30 0 -60.5 -15.5t-50.5 -46.5q-5 -5 -12 -1l-20 13q-4 3 -4.5 5.5t2.5 7.5q26 37 66 56t84 19q59 0 99.5 -33t40.5 -95q0 -41 -22.5 -77.5t-80.5 -93.5l-130 -126
q-4 -3 -3 -5t7 -2h228q4 0 5 -1t1 -5v-29q0 -6 -6 -6h-283q-5 0 -7 2t-2 7v21q0 6 2.5 11t11.5 12z" />
    <glyph glyph-name="uni2153" unicode="&#x2153;" horiz-adv-x="956" 
d="M230 310v-28q0 -6 -6 -6h-213q-3 0 -4.5 1.5t-1.5 3.5v29q0 5 5 5h84q4 0 4 3v367q0 7 -5 4l-81 -31q-7 -1 -7 6v21q0 4 1 5.5t4 2.5l90 45q9 5 17 5h23q2 0 4 -2t2 -5v-417q0 -4 3 -4h75q6 0 6 -5zM246 5q-4 -5 -7.5 -7t-10.5 -2h-21q-10 0 -10 8q0 5 3 9l486 731
q3 4 6.5 5t7.5 1h28q5 0 7 -2.5t-2 -7.5zM594 409q31 31 65.5 46t75.5 15q69 0 110.5 -33t41.5 -84q0 -35 -21.5 -63t-59.5 -41q-13 -4 0 -7q42 -12 69 -42.5t27 -74.5q0 -59 -45.5 -96.5t-130.5 -37.5q-46 0 -83.5 15.5t-68.5 48.5q-4 4 1 9l22 17q5 5 9 0q27 -28 56.5 -40
t67.5 -12q58 0 91.5 25.5t33.5 67.5q0 47 -37.5 73.5t-89.5 26.5l-56 1q-7 0 -7 5v26q0 2 2.5 3.5t4.5 1.5l46 1q52 1 87.5 26.5t35.5 64.5q0 35 -29.5 58t-75.5 23q-66 0 -115 -49q-6 -6 -10 0l-17 17q-4 4 0 9z" />
    <glyph glyph-name="uni2154" unicode="&#x2154;" horiz-adv-x="968" 
d="M170 473q52 51 73 84.5t21 69.5q0 40 -30 63.5t-69 23.5q-30 0 -60.5 -15.5t-50.5 -46.5q-5 -5 -12 -1l-20 13q-4 3 -4.5 5.5t2.5 7.5q26 37 66 56t84 19q59 0 99.5 -33t40.5 -95q0 -41 -22.5 -77.5t-80.5 -93.5l-130 -126q-4 -3 -3 -5t7 -2h228q4 0 5 -1t1 -5v-29
q0 -6 -6 -6h-283q-5 0 -7 2t-2 7v21q0 6 2.5 11t11.5 12zM287 5q-4 -5 -7.5 -7t-10.5 -2h-21q-10 0 -10 8q0 5 3 9l486 731q3 4 6.5 5t7.5 1h28q5 0 7 -2.5t-2 -7.5zM613 409q31 31 65.5 46t75.5 15q69 0 110.5 -33t41.5 -84q0 -35 -21.5 -63t-59.5 -41q-13 -4 0 -7
q42 -12 69 -42.5t27 -74.5q0 -59 -45.5 -96.5t-130.5 -37.5q-46 0 -83.5 15.5t-68.5 48.5q-4 4 1 9l22 17q5 5 9 0q27 -28 56.5 -40t67.5 -12q58 0 91.5 25.5t33.5 67.5q0 47 -37.5 73.5t-89.5 26.5l-56 1q-7 0 -7 5v26q0 2 2.5 3.5t4.5 1.5l46 1q52 1 87.5 26.5t35.5 64.5
q0 35 -29.5 58t-75.5 23q-66 0 -115 -49q-6 -6 -10 0l-17 17q-4 4 0 9z" />
    <glyph glyph-name="onequarter" unicode="&#xbc;" horiz-adv-x="878" 
d="M230 310v-28q0 -6 -6 -6h-213q-3 0 -4.5 1.5t-1.5 3.5v29q0 5 5 5h84q4 0 4 3v367q0 7 -5 4l-81 -31q-7 -1 -7 6v21q0 4 1 5.5t4 2.5l90 45q9 5 17 5h23q2 0 4 -2t2 -5v-417q0 -4 3 -4h75q6 0 6 -5zM202 5q-4 -5 -7.5 -7t-10.5 -2h-21q-10 0 -10 8q0 5 3 9l486 731
q3 4 6.5 5t7.5 1h28q5 0 7 -2.5t-2 -7.5zM742 467h33q7 0 7 -7v-288q0 -5 5 -5h61q8 0 8 -6v-25q0 -7 -8 -7h-61q-5 0 -5 -6v-115q0 -8 -8 -8h-32q-7 0 -7 8v117q0 4 -6 4h-208q-8 0 -8 7v28q0 6 8 17l209 281q5 5 12 5zM727 167q2 0 4 1t2 3v223q0 8 -3 8q-2 0 -6 -5
l-164 -222q-6 -8 4 -8h163z" />
    <glyph glyph-name="threequarters" unicode="&#xbe;" horiz-adv-x="911" 
d="M44 691q31 31 65.5 46t75.5 15q69 0 110.5 -33t41.5 -84q0 -35 -21.5 -63t-59.5 -41q-13 -4 0 -7q42 -12 69 -42.5t27 -74.5q0 -59 -45.5 -96.5t-130.5 -37.5q-46 0 -83.5 15.5t-68.5 48.5q-4 4 1 9l22 17q5 5 9 0q27 -28 56.5 -40t67.5 -12q58 0 91.5 25.5t33.5 67.5
q0 47 -37.5 73.5t-89.5 26.5l-56 1q-7 0 -7 5v26q0 2 2.5 3.5t4.5 1.5l46 1q52 1 87.5 26.5t35.5 64.5q0 35 -29.5 58t-75.5 23q-66 0 -115 -49q-6 -6 -10 0l-17 17q-4 4 0 9zM302 5q-4 -5 -7.5 -7t-10.5 -2h-21q-10 0 -10 8q0 5 3 9l486 731q3 4 6.5 5t7.5 1h28q5 0 7 -2.5
t-2 -7.5zM773 467h33q7 0 7 -7v-288q0 -5 5 -5h61q8 0 8 -6v-25q0 -7 -8 -7h-61q-5 0 -5 -6v-115q0 -8 -8 -8h-32q-7 0 -7 8v117q0 4 -6 4h-208q-8 0 -8 7v28q0 6 8 17l209 281q5 5 12 5zM758 167q2 0 4 1t2 3v223q0 8 -3 8q-2 0 -6 -5l-164 -222q-6 -8 4 -8h163z" />
    <glyph glyph-name="oneeighth" unicode="&#x215b;" horiz-adv-x="965" 
d="M230 310v-28q0 -6 -6 -6h-213q-3 0 -4.5 1.5t-1.5 3.5v29q0 5 5 5h84q4 0 4 3v367q0 7 -5 4l-81 -31q-7 -1 -7 6v21q0 4 1 5.5t4 2.5l90 45q9 5 17 5h23q2 0 4 -2t2 -5v-417q0 -4 3 -4h75q6 0 6 -5zM202 5q-4 -5 -7.5 -7t-10.5 -2h-21q-10 0 -10 8q0 5 3 9l486 731
q3 4 6.5 5t7.5 1h28q5 0 7 -2.5t-2 -7.5zM847 433.5q41 -35.5 41 -92.5q0 -31 -14.5 -54t-49.5 -49q-10 -6 -1 -9q42 -15 64 -44t22 -68q0 -58 -47 -92.5t-124 -34.5q-78 0 -122 32t-44 90q0 34 16.5 61t54.5 51q8 5 8 8q0 4 -8 7q-59 33 -59 97q0 37 20 67.5t55 48t80 17.5
q67 0 108 -35.5zM661 405.5q-31 -26.5 -31 -66.5q0 -62 70 -78l68 -15q12 -3 30.5 11.5t32.5 38t14 47.5q0 40 -29 64.5t-77 24.5q-47 0 -78 -26.5zM828 51.5q33 24.5 33 65.5q0 32 -16.5 51t-53.5 27l-87 21q-13 3 -34.5 -10t-38 -37t-16.5 -53q0 -42 32.5 -65.5
t91.5 -23.5q56 0 89 24.5z" />
    <glyph glyph-name="threeeighths" unicode="&#x215c;" horiz-adv-x="998" 
d="M44 691q31 31 65.5 46t75.5 15q69 0 110.5 -33t41.5 -84q0 -35 -21.5 -63t-59.5 -41q-13 -4 0 -7q42 -12 69 -42.5t27 -74.5q0 -59 -45.5 -96.5t-130.5 -37.5q-46 0 -83.5 15.5t-68.5 48.5q-4 4 1 9l22 17q5 5 9 0q27 -28 56.5 -40t67.5 -12q58 0 91.5 25.5t33.5 67.5
q0 47 -37.5 73.5t-89.5 26.5l-56 1q-7 0 -7 5v26q0 2 2.5 3.5t4.5 1.5l46 1q52 1 87.5 26.5t35.5 64.5q0 35 -29.5 58t-75.5 23q-66 0 -115 -49q-6 -6 -10 0l-17 17q-4 4 0 9zM302 5q-4 -5 -7.5 -7t-10.5 -2h-21q-10 0 -10 8q0 5 3 9l486 731q3 4 6.5 5t7.5 1h28q5 0 7 -2.5
t-2 -7.5zM879 433.5q41 -35.5 41 -92.5q0 -31 -14.5 -54t-49.5 -49q-10 -6 -1 -9q42 -15 64 -44t22 -68q0 -58 -47 -92.5t-124 -34.5q-78 0 -122 32t-44 90q0 34 16.5 61t54.5 51q8 5 8 8q0 4 -8 7q-59 33 -59 97q0 37 20 67.5t55 48t80 17.5q67 0 108 -35.5zM693 405.5
q-31 -26.5 -31 -66.5q0 -62 70 -78l68 -15q12 -3 30.5 11.5t32.5 38t14 47.5q0 40 -29 64.5t-77 24.5q-47 0 -78 -26.5zM860 51.5q33 24.5 33 65.5q0 32 -16.5 51t-53.5 27l-87 21q-13 3 -34.5 -10t-38 -37t-16.5 -53q0 -42 32.5 -65.5t91.5 -23.5q56 0 89 24.5z" />
    <glyph glyph-name="fiveeighths" unicode="&#x215d;" horiz-adv-x="1000" 
d="M330 743q5 0 6.5 -1.5t0.5 -6.5l-2 -27q0 -1 -0.5 -3t-2 -2.5t-4.5 -0.5h-218q-7 0 -7 -6l-12 -151v-2q0 -4 2 -5.5t5 0.5q30 16 53 24t55 8q65 0 109.5 -35.5t44.5 -105.5q0 -74 -49.5 -116.5t-126.5 -42.5q-47 0 -87.5 15.5t-69.5 47.5q-3 3 -3 5t4 5l21 19q4 2 8 -2
q31 -28 56.5 -40.5t63.5 -12.5q63 0 99.5 33.5t36.5 87.5q0 51 -32 78t-80 27q-33 0 -59.5 -11t-55.5 -30q-3 -2 -5 -2t-3.5 1t-2.5 2l-24 14q-5 3 -4.5 5t0.5 7l17 216q1 6 2.5 7t9.5 1h254zM304 5q-4 -5 -7.5 -7t-10.5 -2h-21q-10 0 -10 8q0 5 3 9l486 731q3 4 6.5 5
t7.5 1h28q5 0 7 -2.5t-2 -7.5zM882 433.5q41 -35.5 41 -92.5q0 -31 -14.5 -54t-49.5 -49q-10 -6 -1 -9q42 -15 64 -44t22 -68q0 -58 -47 -92.5t-124 -34.5q-78 0 -122 32t-44 90q0 34 16.5 61t54.5 51q8 5 8 8q0 4 -8 7q-59 33 -59 97q0 37 20 67.5t55 48t80 17.5
q67 0 108 -35.5zM696 405.5q-31 -26.5 -31 -66.5q0 -62 70 -78l68 -15q12 -3 30.5 11.5t32.5 38t14 47.5q0 40 -29 64.5t-77 24.5q-47 0 -78 -26.5zM863 51.5q33 24.5 33 65.5q0 32 -16.5 51t-53.5 27l-87 21q-13 3 -34.5 -10t-38 -37t-16.5 -53q0 -42 32.5 -65.5
t91.5 -23.5q56 0 89 24.5z" />
    <glyph glyph-name="seveneighths" unicode="&#x215e;" horiz-adv-x="918" 
d="M338 742q4 0 6 -2t1 -5v-19q0 -10 -7 -20q-61 -89 -113.5 -214.5t-63.5 -195.5q-2 -11 -9 -11h-37q-9 0 -6 10q19 81 65.5 191t115.5 217q5 8 -4 8h-252q-5 0 -5 7l3 28q0 6 8 6h298zM268 5q-4 -5 -7.5 -7t-10.5 -2h-21q-10 0 -10 8q0 5 3 9l486 731q3 4 6.5 5t7.5 1h28
q5 0 7 -2.5t-2 -7.5zM800 433.5q41 -35.5 41 -92.5q0 -31 -14.5 -54t-49.5 -49q-10 -6 -1 -9q42 -15 64 -44t22 -68q0 -58 -47 -92.5t-124 -34.5q-78 0 -122 32t-44 90q0 34 16.5 61t54.5 51q8 5 8 8q0 4 -8 7q-59 33 -59 97q0 37 20 67.5t55 48t80 17.5q67 0 108 -35.5z
M614 405.5q-31 -26.5 -31 -66.5q0 -62 70 -78l68 -15q12 -3 30.5 11.5t32.5 38t14 47.5q0 40 -29 64.5t-77 24.5q-47 0 -78 -26.5zM781 51.5q33 24.5 33 65.5q0 32 -16.5 51t-53.5 27l-87 21q-13 3 -34.5 -10t-38 -37t-16.5 -53q0 -42 32.5 -65.5t91.5 -23.5q56 0 89 24.5z
" />
    <glyph glyph-name="zero.dnom" horiz-adv-x="416" 
d="M281 440.5q38 -27.5 60 -82t22 -131.5q0 -115 -47 -176.5t-123 -61.5q-75 0 -122 61.5t-47 175.5q0 78 22 132.5t60.5 82t87.5 27.5t87 -27.5zM283 76q32 49 32 151q0 103 -32 153t-89 50q-56 0 -88.5 -50t-32.5 -153q0 -102 32.5 -151t89.5 -49q56 0 88 49z" />
    <glyph glyph-name="one.dnom" horiz-adv-x="299" 
d="M230 34v-28q0 -6 -6 -6h-213q-3 0 -4.5 1.5t-1.5 3.5v29q0 5 5 5h84q4 0 4 3v367q0 7 -5 4l-81 -31q-7 -1 -7 6v21q0 4 1 5.5t4 2.5l90 45q9 5 17 5h23q2 0 4 -2t2 -5v-417q0 -4 3 -4h75q6 0 6 -5z" />
    <glyph glyph-name="two.dnom" horiz-adv-x="384" 
d="M170 194q52 51 73 84.5t21 69.5q0 40 -30 63.5t-69 23.5q-30 0 -60.5 -15.5t-50.5 -46.5q-5 -5 -12 -1l-20 13q-4 3 -4.5 5.5t2.5 7.5q26 37 66 56t84 19q59 0 99.5 -33t40.5 -95q0 -41 -22.5 -77.5t-80.5 -93.5l-130 -126q-4 -3 -3 -5t7 -2h228q4 0 5 -1t1 -5v-29
q0 -6 -6 -6h-283q-5 0 -7 2t-2 7v21q0 6 2.5 11t11.5 12z" />
    <glyph glyph-name="three.dnom" horiz-adv-x="399" 
d="M44 409q31 31 65.5 46t75.5 15q69 0 110.5 -33t41.5 -84q0 -35 -21.5 -63t-59.5 -41q-13 -4 0 -7q42 -12 69 -42.5t27 -74.5q0 -59 -45.5 -96.5t-130.5 -37.5q-46 0 -83.5 15.5t-68.5 48.5q-4 4 1 9l22 17q5 5 9 0q27 -28 56.5 -40t67.5 -12q58 0 91.5 25.5t33.5 67.5
q0 47 -37.5 73.5t-89.5 26.5l-56 1q-7 0 -7 5v26q0 2 2.5 3.5t4.5 1.5l46 1q52 1 87.5 26.5t35.5 64.5q0 35 -29.5 58t-75.5 23q-66 0 -115 -49q-6 -6 -10 0l-17 17q-4 4 0 9z" />
    <glyph glyph-name="four.dnom" horiz-adv-x="416" 
d="M247 467h33q7 0 7 -7v-288q0 -5 5 -5h61q8 0 8 -6v-25q0 -7 -8 -7h-61q-5 0 -5 -6v-115q0 -8 -8 -8h-32q-7 0 -7 8v117q0 4 -6 4h-208q-8 0 -8 7v28q0 6 8 17l209 281q5 5 12 5zM232 167q2 0 4 1t2 3v223q0 8 -3 8q-2 0 -6 -5l-164 -222q-6 -8 4 -8h163z" />
    <glyph glyph-name="five.dnom" horiz-adv-x="401" 
d="M330 464q5 0 6.5 -1.5t0.5 -6.5l-2 -27q0 -1 -0.5 -3t-2 -2.5t-4.5 -0.5h-218q-7 0 -7 -6l-12 -151v-2q0 -4 2 -5.5t5 0.5q30 16 53 24t55 8q65 0 109.5 -35.5t44.5 -105.5q0 -74 -49.5 -116.5t-126.5 -42.5q-47 0 -87.5 15.5t-69.5 47.5q-3 3 -3 5t4 5l21 19q5 2 8 -2
q31 -28 56.5 -40.5t63.5 -12.5q63 0 99.5 33.5t36.5 87.5q0 51 -32 78t-80 27q-33 0 -59.5 -11t-55.5 -30q-3 -2 -5 -2t-3.5 1t-2.5 2l-24 14q-5 3 -4.5 5t0.5 7l17 216q1 6 2.5 7t9.5 1h254z" />
    <glyph glyph-name="six.dnom" horiz-adv-x="404" 
d="M326 413l1.5 -3.5t-2.5 -5.5l-28 -13q-4 -2 -9 3q-15 18 -33 27t-44 9q-71 0 -106 -49.5t-35 -130.5q0 -10 2 -13t9 1q35 17 61 25.5t61 8.5q70 0 110.5 -38.5t40.5 -98.5q0 -42 -21 -75.5t-57.5 -52t-79.5 -18.5q-81 0 -127 61.5t-46 171.5q0 115 49.5 180.5t137.5 65.5
q72 0 116 -55zM139 226q-33 -9 -54 -22q-8 -5 -11 -10.5t-3 -17.5q0 -33 14 -68t42.5 -58.5t69.5 -23.5q46 0 77.5 31.5t31.5 76.5q0 43 -29 72t-78 29q-27 0 -60 -9z" />
    <glyph glyph-name="seven.dnom" horiz-adv-x="365" 
d="M338 467q4 0 6 -2t1 -5v-19q0 -10 -7 -20q-61 -89 -113.5 -214.5t-63.5 -195.5q-2 -11 -9 -11h-37q-9 0 -6 10q19 81 65.5 191t115.5 217q5 8 -4 8h-252q-5 0 -5 7l3 28q0 6 8 6h298z" />
    <glyph glyph-name="eight.dnom" horiz-adv-x="401" 
d="M302 433.5q41 -35.5 41 -92.5q0 -31 -14.5 -54t-49.5 -49q-10 -6 -1 -9q42 -15 64 -44t22 -68q0 -58 -47 -92.5t-124 -34.5q-78 0 -122 32t-44 90q0 34 16.5 61t54.5 51q8 5 8 8q0 4 -8 7q-59 33 -59 97q0 37 20 67.5t55 48t80 17.5q67 0 108 -35.5zM116 405.5
q-31 -26.5 -31 -66.5q0 -62 70 -78l68 -15q12 -3 30.5 11.5t32.5 38t14 47.5q0 40 -29 64.5t-77 24.5q-47 0 -78 -26.5zM283 51.5q33 24.5 33 65.5q0 32 -16.5 51t-53.5 27l-87 21q-13 3 -34.5 -10t-38 -37t-16.5 -53q0 -42 32.5 -65.5t91.5 -23.5q56 0 89 24.5z" />
    <glyph glyph-name="nine.dnom" horiz-adv-x="404" 
d="M43 44q-4 6 1 9l27 13q5 3 9 -3q15 -18 34.5 -27t49.5 -9q68 0 102 49t34 130q0 11 -2 14t-8 -1q-35 -17 -60.5 -25.5t-59.5 -8.5q-70 0 -110 38t-40 98q0 43 21 76.5t57 52t79 18.5q80 0 125.5 -61.5t45.5 -171.5q0 -115 -49 -180.5t-135 -65.5q-77 0 -121 55zM233 232
q33 10 53 24q9 6 11.5 11.5t2.5 17.5q0 32 -14 66t-41.5 57t-67.5 23q-47 0 -78.5 -31t-31.5 -77q0 -43 29 -72t76 -29q28 0 61 10z" />
    <glyph glyph-name="zero.numr" horiz-adv-x="416" 
d="M281 724.5q38 -27.5 60 -82t22 -131.5q0 -115 -47 -176.5t-123 -61.5q-75 0 -122 61.5t-47 175.5q0 78 22 132.5t60.5 82t87.5 27.5t87 -27.5zM283 360q32 49 32 151q0 103 -32 153t-89 50q-56 0 -88.5 -50t-32.5 -153q0 -102 32.5 -151t89.5 -49q56 0 88 49z" />
    <glyph glyph-name="one.numr" horiz-adv-x="299" 
d="M230 310v-28q0 -6 -6 -6h-213q-3 0 -4.5 1.5t-1.5 3.5v29q0 5 5 5h84q4 0 4 3v367q0 7 -5 4l-81 -31q-7 -1 -7 6v21q0 4 1 5.5t4 2.5l90 45q9 5 17 5h23q2 0 4 -2t2 -5v-417q0 -4 3 -4h75q6 0 6 -5z" />
    <glyph glyph-name="two.numr" horiz-adv-x="384" 
d="M170 473q52 51 73 84.5t21 69.5q0 40 -30 63.5t-69 23.5q-30 0 -60.5 -15.5t-50.5 -46.5q-5 -5 -12 -1l-20 13q-4 3 -4.5 5.5t2.5 7.5q26 37 66 56t84 19q59 0 99.5 -33t40.5 -95q0 -41 -22.5 -77.5t-80.5 -93.5l-130 -126q-4 -3 -3 -5t7 -2h228q4 0 5 -1t1 -5v-29
q0 -6 -6 -6h-283q-5 0 -7 2t-2 7v21q0 6 2.5 11t11.5 12z" />
    <glyph glyph-name="three.numr" horiz-adv-x="399" 
d="M44 691q31 31 65.5 46t75.5 15q69 0 110.5 -33t41.5 -84q0 -35 -21.5 -63t-59.5 -41q-13 -4 0 -7q42 -12 69 -42.5t27 -74.5q0 -59 -45.5 -96.5t-130.5 -37.5q-46 0 -83.5 15.5t-68.5 48.5q-4 4 1 9l22 17q5 5 9 0q27 -28 56.5 -40t67.5 -12q58 0 91.5 25.5t33.5 67.5
q0 47 -37.5 73.5t-89.5 26.5l-56 1q-7 0 -7 5v26q0 2 2.5 3.5t4.5 1.5l46 1q52 1 87.5 26.5t35.5 64.5q0 35 -29.5 58t-75.5 23q-66 0 -115 -49q-6 -6 -10 0l-17 17q-4 4 0 9z" />
    <glyph glyph-name="four.numr" horiz-adv-x="416" 
d="M247 743h33q7 0 7 -7v-288q0 -5 5 -5h61q8 0 8 -6v-25q0 -7 -8 -7h-61q-5 0 -5 -6v-115q0 -8 -8 -8h-32q-7 0 -7 8v117q0 4 -6 4h-208q-8 0 -8 7v28q0 6 8 17l209 281q5 5 12 5zM232 443q2 0 4 1t2 3v223q0 8 -3 8q-2 0 -6 -5l-164 -222q-6 -8 4 -8h163z" />
    <glyph glyph-name="five.numr" horiz-adv-x="401" 
d="M330 743q5 0 6.5 -1.5t0.5 -6.5l-2 -27q0 -1 -0.5 -3t-2 -2.5t-4.5 -0.5h-218q-7 0 -7 -6l-12 -151v-2q0 -4 2 -5.5t5 0.5q30 16 53 24t55 8q65 0 109.5 -35.5t44.5 -105.5q0 -74 -49.5 -116.5t-126.5 -42.5q-47 0 -87.5 15.5t-69.5 47.5q-3 3 -3 5t4 5l21 19q4 2 8 -2
q31 -28 56.5 -40.5t63.5 -12.5q63 0 99.5 33.5t36.5 87.5q0 51 -32 78t-80 27q-33 0 -59.5 -11t-55.5 -30q-3 -2 -5 -2t-3.5 1t-2.5 2l-24 14q-5 3 -4.5 5t0.5 7l17 216q1 6 2.5 7t9.5 1h254z" />
    <glyph glyph-name="six.numr" horiz-adv-x="404" 
d="M326 698l1.5 -3.5t-2.5 -5.5l-28 -13q-4 -2 -9 3q-15 18 -33 27t-44 9q-71 0 -106 -49.5t-35 -130.5q0 -10 2 -13t9 1q35 17 61 25.5t61 8.5q70 0 110.5 -38.5t40.5 -98.5q0 -42 -21 -75.5t-57.5 -52t-79.5 -18.5q-81 0 -127 61.5t-46 171.5q0 115 49.5 180.5t137.5 65.5
q72 0 116 -55zM139 511q-33 -9 -54 -22q-8 -5 -11 -10.5t-3 -17.5q0 -33 14 -68t42.5 -58.5t69.5 -23.5q46 0 77.5 31.5t31.5 76.5q0 43 -29 72t-78 29q-27 0 -60 -9z" />
    <glyph glyph-name="seven.numr" horiz-adv-x="365" 
d="M338 742q4 0 6 -2t1 -5v-19q0 -10 -7 -20q-61 -89 -113.5 -214.5t-63.5 -195.5q-2 -11 -9 -11h-37q-9 0 -6 10q19 81 65.5 191t115.5 217q5 8 -4 8h-252q-5 0 -5 7l3 28q0 6 8 6h298z" />
    <glyph glyph-name="eight.numr" horiz-adv-x="401" 
d="M302 716.5q41 -35.5 41 -92.5q0 -31 -14.5 -54t-49.5 -49q-10 -6 -1 -9q42 -15 64 -44t22 -68q0 -58 -47 -92.5t-124 -34.5q-78 0 -122 32t-44 90q0 34 16.5 61t54.5 51q8 5 8 8q0 4 -8 7q-59 33 -59 97q0 37 20 67.5t55 48t80 17.5q67 0 108 -35.5zM116 688.5
q-31 -26.5 -31 -66.5q0 -62 70 -78l68 -15q12 -3 30.5 11.5t32.5 38t14 47.5q0 40 -29 64.5t-77 24.5q-47 0 -78 -26.5zM283 334.5q33 24.5 33 65.5q0 32 -16.5 51t-53.5 27l-87 21q-13 3 -34.5 -10t-38 -37t-16.5 -53q0 -42 32.5 -65.5t91.5 -23.5q56 0 89 24.5z" />
    <glyph glyph-name="nine.numr" horiz-adv-x="404" 
d="M43 329q-4 6 1 9l27 13q5 3 9 -3q15 -18 34.5 -27t49.5 -9q68 0 102 49t34 130q0 11 -2 14t-8 -1q-35 -17 -60.5 -25.5t-59.5 -8.5q-70 0 -110 38t-40 98q0 43 21 76.5t57 52t79 18.5q80 0 125.5 -61.5t45.5 -171.5q0 -115 -49 -180.5t-135 -65.5q-77 0 -121 55zM233 517
q33 10 53 24q9 6 11.5 11.5t2.5 17.5q0 32 -14 66t-41.5 57t-67.5 23q-47 0 -78.5 -31t-31.5 -77q0 -43 29 -72t76 -29q28 0 61 10z" />
    <glyph glyph-name="uni2070" unicode="&#x2070;" horiz-adv-x="484" 
d="M315 828.5q38 -27.5 60 -82t22 -131.5q0 -115 -47 -176.5t-123 -61.5q-75 0 -122 61.5t-47 175.5q0 78 22 132.5t60.5 82t87.5 27.5t87 -27.5zM317 464q32 49 32 151q0 103 -32 153t-89 50q-56 0 -88.5 -50t-32.5 -153q0 -102 32.5 -151t89.5 -49q56 0 88 49z" />
    <glyph glyph-name="uni00B9" unicode="&#xb9;" horiz-adv-x="367" 
d="M264 414v-28q0 -6 -6 -6h-213q-3 0 -4.5 1.5t-1.5 3.5v29q0 5 5 5h84q4 0 4 3v367q0 7 -5 4l-81 -31q-7 -1 -7 6v21q0 4 1 5.5t4 2.5l90 45q9 5 17 5h23q2 0 4 -2t2 -5v-417q0 -4 3 -4h75q6 0 6 -5z" />
    <glyph glyph-name="uni00B2" unicode="&#xb2;" horiz-adv-x="452" 
d="M204 578q52 51 73 84.5t21 69.5q0 40 -30 63.5t-69 23.5q-30 0 -60.5 -15.5t-50.5 -46.5q-5 -5 -12 -1l-20 13q-4 3 -4.5 5.5t2.5 7.5q26 37 66 56t84 19q59 0 99.5 -33t40.5 -95q0 -41 -22.5 -77.5t-80.5 -93.5l-130 -126q-4 -3 -3 -5t7 -2h228q4 0 5 -1t1 -5v-29
q0 -6 -6 -6h-283q-5 0 -7 2t-2 7v21q0 6 2.5 11t11.5 12z" />
    <glyph glyph-name="uni00B3" unicode="&#xb3;" horiz-adv-x="467" 
d="M78 796q31 31 65.5 46t75.5 15q69 0 110.5 -33t41.5 -84q0 -35 -21.5 -63t-59.5 -41q-13 -4 0 -7q42 -12 69 -42.5t27 -74.5q0 -59 -45.5 -96.5t-130.5 -37.5q-46 0 -83.5 15.5t-68.5 48.5q-4 4 1 9l22 17q5 5 9 0q27 -28 56.5 -40t67.5 -12q58 0 91.5 25.5t33.5 67.5
q0 47 -37.5 73.5t-89.5 26.5l-56 1q-7 0 -7 5v26q0 2 2.5 3.5t4.5 1.5l46 1q52 1 87.5 26.5t35.5 64.5q0 35 -29.5 58t-75.5 23q-66 0 -115 -49q-6 -6 -10 0l-17 17q-4 4 0 9z" />
    <glyph glyph-name="uni2074" unicode="&#x2074;" horiz-adv-x="483" 
d="M280 847h33q7 0 7 -7v-288q0 -5 5 -5h61q8 0 8 -6v-25q0 -7 -8 -7h-61q-5 0 -5 -6v-115q0 -8 -8 -8h-32q-7 0 -7 8v117q0 4 -6 4h-208q-8 0 -8 7v28q0 6 8 17l209 281q5 5 12 5zM265 547q2 0 4 1t2 3v223q0 8 -3 8q-2 0 -6 -5l-164 -222q-6 -8 4 -8h163z" />
    <glyph glyph-name="uni2075" unicode="&#x2075;" horiz-adv-x="470" 
d="M365 847q5 0 6.5 -1.5t0.5 -6.5l-2 -27q0 -1 -0.5 -3t-2 -2.5t-4.5 -0.5h-218q-7 0 -7 -6l-12 -151v-2q0 -4 2 -5.5t5 0.5q30 16 53 24t55 8q65 0 109.5 -35.5t44.5 -105.5q0 -74 -49.5 -116.5t-126.5 -42.5q-47 0 -87.5 15.5t-69.5 47.5q-3 3 -3 5t4 5l21 19q4 2 8 -2
q31 -28 56.5 -40.5t63.5 -12.5q63 0 99.5 33.5t36.5 87.5q0 51 -32 78t-80 27q-33 0 -59.5 -11t-55.5 -30q-3 -2 -5 -2t-3.5 1t-2.5 2l-24 14q-5 3 -4.5 5t0.5 7l17 216q1 6 2.5 7t9.5 1h254z" />
    <glyph glyph-name="uni2076" unicode="&#x2076;" horiz-adv-x="473" 
d="M361 803l1.5 -3.5t-2.5 -5.5l-28 -13q-4 -2 -9 3q-15 18 -33 27t-44 9q-71 0 -106 -49.5t-35 -130.5q0 -10 2 -13t9 1q35 17 61 25.5t61 8.5q70 0 110.5 -38.5t40.5 -98.5q0 -42 -21 -75.5t-57.5 -52t-79.5 -18.5q-81 0 -127 61.5t-46 171.5q0 115 49.5 180.5t137.5 65.5
q72 0 116 -55zM174 616q-33 -9 -54 -22q-8 -5 -11 -10.5t-3 -17.5q0 -33 14 -68t42.5 -58.5t69.5 -23.5q46 0 77.5 31.5t31.5 76.5q0 43 -29 72t-78 29q-27 0 -60 -9z" />
    <glyph glyph-name="uni2077" unicode="&#x2077;" horiz-adv-x="432" 
d="M371 847q4 0 6 -2t1 -5v-19q0 -10 -7 -20q-61 -89 -113.5 -214.5t-63.5 -195.5q-2 -11 -9 -11h-37q-9 0 -6 10q19 81 65.5 191t115.5 217q5 8 -4 8h-252q-5 0 -5 7l3 28q0 6 8 6h298z" />
    <glyph glyph-name="uni2078" unicode="&#x2078;" horiz-adv-x="469" 
d="M336 821.5q41 -35.5 41 -92.5q0 -31 -14.5 -54t-49.5 -49q-10 -6 -1 -9q42 -15 64 -44t22 -68q0 -58 -47 -92.5t-124 -34.5q-78 0 -122 32t-44 90q0 34 16.5 61t54.5 51q8 5 8 8q0 4 -8 7q-59 33 -59 97q0 37 20 67.5t55 48t80 17.5q67 0 108 -35.5zM150 793.5
q-31 -26.5 -31 -66.5q0 -62 70 -78l68 -15q12 -3 30.5 11.5t32.5 38t14 47.5q0 40 -29 64.5t-77 24.5q-47 0 -78 -26.5zM317 439.5q33 24.5 33 65.5q0 32 -16.5 51t-53.5 27l-87 21q-13 3 -34.5 -10t-38 -37t-16.5 -53q0 -42 32.5 -65.5t91.5 -23.5q56 0 89 24.5z" />
    <glyph glyph-name="uni2079" unicode="&#x2079;" horiz-adv-x="473" 
d="M78 434q-4 6 1 9l27 13q5 3 9 -3q15 -18 34.5 -27t49.5 -9q68 0 102 49t34 130q0 11 -2 14t-8 -1q-35 -17 -60.5 -25.5t-59.5 -8.5q-70 0 -110 38t-40 98q0 43 21 76.5t57 52t79 18.5q80 0 125.5 -61.5t45.5 -171.5q0 -115 -49 -180.5t-135 -65.5q-77 0 -121 55zM268 622
q33 10 53 24q9 6 11.5 11.5t2.5 17.5q0 32 -14 66t-41.5 57t-67.5 23q-47 0 -78.5 -31t-31.5 -77q0 -43 29 -72t76 -29q28 0 61 10z" />
    <glyph glyph-name="asterisk" unicode="*" horiz-adv-x="359" 
d="M187 547q-3 3 -5 0l-75 -118q-1 -2 -4.5 -2t-6.5 2l-29 20q-7 4 -1 10l83 107q2 2 1 3.5t-4 2.5l-113 33q-6 2 -3 10l11 31q2 6 9 3l107 -41q3 -1 5 0t2 4l-8 123q0 7 8 7h40q7 0 7 -7l-7 -123q0 -7 5 -5l111 47q6 3 9 -3l9 -30q3 -9 -3 -10l-112 -38q-6 -1 -2 -7
l80 -100q2 -2 2 -6t-5 -7l-27 -20q-4 -3 -7.5 -2.5t-5.5 3.5z" />
    <glyph glyph-name="backslash" unicode="\" horiz-adv-x="336" 
d="M262 -39l-247 767l-2 8q0 6 9 6h37q9 0 11 -8l251 -777l1 -3q0 -4 -8 -4h-38q-12 0 -14 11z" />
    <glyph glyph-name="periodcentered" unicode="&#xb7;" horiz-adv-x="189" 
d="M144 339q0 -7 -3.5 -10t-12.5 -3h-71q-7 0 -9.5 3t-2.5 9v72q0 11 8 11h82q9 0 9 -9v-73z" />
    <glyph glyph-name="bullet" unicode="&#x2022;" horiz-adv-x="304" 
d="M91 317q-25 25 -25 60t25 60t61 25q35 0 60 -25t25 -60t-25 -60t-60 -25q-36 0 -61 25z" />
    <glyph glyph-name="colon" unicode=":" horiz-adv-x="198" 
d="M142 420q0 -8 -3.5 -11t-13.5 -3h-57q-13 0 -13 12v75q0 11 9 11h69q9 0 9 -10v-74zM142 17q0 -8 -3.5 -11t-13.5 -3h-57q-7 0 -10 3t-3 10v74q0 11 9 11h69q9 0 9 -10v-74z" />
    <glyph glyph-name="comma" unicode="," horiz-adv-x="202" 
d="M45.5 -135.5q-1.5 3.5 0.5 8.5l44 113l2 8q0 6 -10 6h-11q-11 0 -11 10v80q0 8 8 8h70q8 0 8 -8v-71q0 -8 -3 -13l-66 -136q-4 -9 -17 -9h-9q-4 0 -5.5 3.5z" />
    <glyph glyph-name="ellipsis" unicode="&#x2026;" horiz-adv-x="714" 
d="M641 14q0 -8 -3.5 -11t-13.5 -3h-57q-13 0 -13 12v76q0 11 9 11h69q9 0 9 -10v-75zM142 14q0 -8 -3.5 -11t-13.5 -3h-57q-13 0 -13 12v76q0 11 9 11h69q9 0 9 -10v-75zM392 14q0 -8 -3.5 -11t-13.5 -3h-57q-13 0 -13 12v76q0 11 9 11h69q9 0 9 -10v-75z" />
    <glyph glyph-name="exclam" unicode="!" horiz-adv-x="239" 
d="M143 178q0 -11 -13 -11h-23q-6 0 -8.5 2.5t-2.5 7.5l-17 555q0 10 8 10h65q4 0 6.5 -2.5t1.5 -5.5zM162 14q0 -8 -3.5 -11t-12.5 -3h-57q-13 0 -13 12v75q0 11 9 11h68q9 0 9 -10v-74z" />
    <glyph glyph-name="exclamdown" unicode="&#xa1;" horiz-adv-x="239" 
d="M154 432h-68q-9 0 -9 11v75q0 12 12 12h58q9 0 12.5 -3t3.5 -11v-74q0 -10 -9 -10zM159 -162.5q-2 -2.5 -6 -2.5h-66q-3 0 -5.5 2.5t-1.5 7.5l16 508q1 6 3 8t8 2h23q14 0 14 -11l17 -509q0 -3 -2 -5.5z" />
    <glyph glyph-name="numbersign" unicode="#" horiz-adv-x="603" 
d="M565 495v-28q0 -12 -14 -12h-104l-25 -162h101q9 0 9 -8v-28q0 -12 -14 -12h-103l-36 -234q-1 -13 -12 -11l-26 4q-6 1 -8 2.5t-2 6.5l35 232h-158l-36 -234q-1 -12 -11 -11l-27 4q-10 1 -9 9l35 232h-111q-6 0 -8 2.5t-2 7.5v28q0 10 7 10h122l25 162h-111q-6 0 -8 2.5
t-2 7.5v28q0 10 7 10h121l35 230q2 10 9 9l30 -4q9 -2 8 -13l-34 -222h158l35 230q1 5 3.5 7.5t5.5 1.5l30 -4q10 -1 9 -13l-34 -222h101q9 0 9 -8zM399 455h-159l-25 -162h159z" />
    <glyph glyph-name="period" unicode="." horiz-adv-x="198" 
d="M142 14q0 -8 -3.5 -11t-13.5 -3h-57q-13 0 -13 12v76q0 11 9 11h69q9 0 9 -10v-75z" />
    <glyph glyph-name="question" unicode="?" horiz-adv-x="519" 
d="M33 615.5q-1 3.5 1 6.5q31 61 93 95.5t138 34.5q66 0 115 -22.5t76 -63.5t27 -94q0 -40 -14 -73.5t-34.5 -59.5t-54.5 -62q-35 -37 -55.5 -63t-34.5 -59.5t-14 -74.5q0 -4 -3 -7.5t-7 -3.5h-40q-11 0 -11 13q0 47 15 86t36.5 67.5t57.5 67.5q46 51 67.5 86t21.5 81
q0 58 -40.5 92t-107.5 34q-54 0 -104 -28.5t-66 -68.5q-2 -3 -4.5 -4t-6.5 0l-46 16q-4 1 -5 4.5zM288 14q0 -8 -3.5 -11t-12.5 -3h-57q-13 0 -13 12v75q0 11 9 11h69q8 0 8 -10v-74z" />
    <glyph glyph-name="questiondown" unicode="&#xbf;" horiz-adv-x="512" 
d="M224 516q0 8 3.5 11t12.5 3h57q13 0 13 -12v-75q0 -11 -9 -11h-68q-9 0 -9 10v74zM479 -38.5q1 -3.5 -1 -6.5q-32 -61 -93.5 -95.5t-137.5 -34.5q-101 0 -159.5 49.5t-58.5 130.5q0 37 13.5 66t33.5 50t53 50q35 29 56.5 51.5t36 55t14.5 74.5q0 4 3 7t7 3h40
q11 0 11 -12q0 -49 -15.5 -86t-38 -61.5t-58.5 -56.5q-44 -38 -65 -67t-21 -72q0 -57 40.5 -91t108.5 -34q53 0 103 28t67 68q3 6 10 4l46 -16q4 -1 5 -4.5z" />
    <glyph glyph-name="quotedbl" unicode="&#x22;" horiz-adv-x="393" 
d="M298 540q-1 -7 -3.5 -10t-9.5 -3h-22q-6 0 -8 2t-3 8l-23 196q0 9 8 9h77q8 0 8 -8zM142 540q-1 -7 -3.5 -10t-9.5 -3h-22q-6 0 -8 2t-3 8l-23 196q0 9 8 9h77q8 0 8 -8z" />
    <glyph glyph-name="quotesingle" unicode="'" horiz-adv-x="238" 
d="M142 540q-1 -7 -3.5 -10t-9.5 -3h-22q-6 0 -8 2t-3 8l-23 196q0 9 8 9h77q8 0 8 -8z" />
    <glyph glyph-name="semicolon" unicode=";" horiz-adv-x="221" 
d="M55 417v75q0 12 9 12h69q9 0 9 -10v-75q0 -8 -3.5 -11t-13.5 -3h-57q-13 0 -13 12zM45.5 -136.5q-1.5 3.5 0.5 9.5l44 113l2 8q0 6 -10 6h-11q-11 0 -11 10v80q0 8 8 8h70q8 0 8 -8v-71q0 -8 -3 -13l-66 -137q-4 -9 -17 -9h-9q-4 0 -5.5 3.5z" />
    <glyph glyph-name="slash" unicode="/" horiz-adv-x="336" 
d="M14 -43l251 777q3 8 11 8h38q11 0 7 -14l-247 -767q-4 -11 -15 -11h-38q-9 0 -7 7z" />
    <glyph glyph-name="underscore" unicode="_" horiz-adv-x="511" 
d="M446 -99q0 -7 -3 -9.5t-11 -2.5h-356q-11 0 -11 9v37q0 10 7 10l365 1q9 0 9 -9v-36z" />
    <glyph glyph-name="braceleft" unicode="{" horiz-adv-x="290" 
d="M148 715.5q32 26.5 88 26.5h30q9 0 9 -6v-35q0 -7 -9 -7h-23q-35 0 -49.5 -13t-14.5 -40v-226q-1 -56 -28.5 -87t-69.5 -35q-6 -1 -6.5 -3.5t6.5 -3.5q42 -3 69.5 -32.5t28.5 -87.5v-228q0 -29 14 -42t51 -13h21q10 0 10 -9v-29q0 -6 -2.5 -8t-7.5 -2h-28q-58 0 -89.5 27
t-31.5 72v229q0 40 -29.5 71.5t-81.5 31.5q-5 0 -5 8v31q0 8 5 8q54 1 82.5 30.5t28.5 76.5v225q0 44 32 70.5z" />
    <glyph glyph-name="braceright" unicode="}" horiz-adv-x="290" 
d="M174 420q0 -47 28.5 -76.5t82.5 -30.5q5 0 5 -8v-31q0 -8 -5 -8q-52 0 -81.5 -31.5t-29.5 -71.5v-229q0 -45 -31.5 -72t-89.5 -27h-28q-5 0 -7.5 2t-2.5 8v29q0 9 10 9h21q37 0 51 13t14 42v228q1 58 28.5 87.5t69.5 32.5q7 1 6.5 3.5t-6.5 3.5q-42 4 -69.5 35t-28.5 87
v226q0 27 -14.5 40t-49.5 13h-23q-9 0 -9 7v35q0 6 9 6h30q56 0 88 -26.5t32 -70.5v-225z" />
    <glyph glyph-name="bracketleft" unicode="[" horiz-adv-x="279" 
d="M107 742h149q5 0 6.5 -1t1.5 -5v-35q0 -7 -8 -7h-87q-10 0 -10 -11l-1 -791q0 -5 2 -7t7 -2h87q9 0 9 -9v-29q0 -6 -2 -8t-7 -2h-145q-12 0 -12 11l-1 887q0 9 11 9z" />
    <glyph glyph-name="bracketright" unicode="]" horiz-adv-x="279" 
d="M182 -154q0 -11 -12 -11h-145q-5 0 -7 2t-2 8v29q0 9 9 9h87q5 0 7 2t2 7l-1 791q0 11 -10 11h-87q-8 0 -8 7v35q0 4 1.5 5t6.5 1h149q11 0 11 -9z" />
    <glyph glyph-name="parenleft" unicode="(" horiz-adv-x="278" 
d="M258.5 739.5q1.5 -2.5 -0.5 -5.5q-53 -105 -84.5 -221t-31.5 -229q0 -111 26.5 -218t80.5 -222q1 -1 1 -4q0 -5 -7 -5h-26q-7 0 -11 6q-66 114 -99.5 218.5t-33.5 225.5q0 120 38.5 235.5t103.5 214.5q4 7 14 7h23q5 0 6.5 -2.5z" />
    <glyph glyph-name="parenright" unicode=")" horiz-adv-x="278" 
d="M49 742q10 0 14 -7q65 -99 103.5 -214.5t38.5 -235.5q0 -121 -33.5 -225.5t-99.5 -218.5q-4 -6 -11 -6h-26q-5 0 -6.5 3t0.5 6q54 115 80.5 222t26.5 218q0 113 -31.5 229t-84.5 221q-1 1 -1 3q0 5 7 5h23z" />
    <glyph glyph-name="emdash" unicode="&#x2014;" horiz-adv-x="873" 
d="M808 242q0 -11 -14 -11l-718 -1q-11 0 -11 10v37q0 9 7 9l727 1q9 0 9 -8v-37z" />
    <glyph glyph-name="endash" unicode="&#x2013;" horiz-adv-x="551" 
d="M486 242q0 -11 -14 -11l-396 -1q-11 0 -11 10v37q0 9 7 9l405 1q9 0 9 -8v-37z" />
    <glyph glyph-name="hyphen" unicode="-" horiz-adv-x="381" 
d="M316 249q0 -12 -14 -12h-226q-11 0 -11 9v37q0 10 8 10l234 1q9 0 9 -9v-36z" />
    <glyph glyph-name="uni00AD" unicode="&#xad;" horiz-adv-x="381" 
d="M316 249q0 -12 -14 -12h-226q-11 0 -11 9v37q0 10 8 10l234 1q9 0 9 -9v-36z" />
    <glyph glyph-name="guillemotleft" unicode="&#xab;" horiz-adv-x="436" 
d="M211 81l1 -2q0 -4 -9 -4h-22q-7 0 -9 5l-131 168q-4 4 -4 9t3 8l132 178q2 3 4 4t5 1h24q4 0 6 -2.5t0 -6.5l-105 -175q-3 -8 0 -14zM385 81l1 -2q0 -4 -10 -4h-21q-7 0 -10 5l-130 168q-4 4 -4 9t3 8l132 178q3 5 9 5h24q4 0 6 -2.5t0 -6.5l-105 -175q-3 -8 0 -14z" />
    <glyph glyph-name="guillemotright" unicode="&#xbb;" horiz-adv-x="435" 
d="M155 264l-105 175q-1 1 -1 3q0 3 2.5 4.5t4.5 1.5h24q6 0 9 -5l132 -178q3 -3 3 -8t-4 -9l-130 -168q-2 -5 -9 -5h-22q-12 0 -9 6l105 169q4 7 0 14zM329 264l-105 175q-1 1 -1 4q0 5 7 5h24q3 0 5 -1t4 -4l132 -178q4 -4 4 -8t-5 -9l-130 -168q-3 -5 -10 -5h-22
q-11 0 -8 6l105 169q4 7 0 14z" />
    <glyph glyph-name="guilsinglleft" unicode="&#x2039;" horiz-adv-x="261" 
d="M211 81l1 -2q0 -4 -9 -4h-22q-7 0 -9 5l-131 168q-4 4 -4 9t3 8l132 178q2 3 4 4t5 1h24q4 0 6 -2.5t0 -6.5l-105 -175q-3 -8 0 -14z" />
    <glyph glyph-name="guilsinglright" unicode="&#x203a;" horiz-adv-x="262" 
d="M156 264l-105 175q-1 1 -1 4q0 5 7 5h24q6 0 9 -5l132 -178q3 -3 3 -7q0 -6 -4 -10l-130 -168q-3 -5 -10 -5h-22q-11 0 -8 6l105 169q4 7 0 14z" />
    <glyph glyph-name="quotedblbase" unicode="&#x201e;" horiz-adv-x="382" 
d="M213 -117.5q-2 3.5 0 6.5l44 94q3 6 3 10q0 5 -8 7h-17q-10 0 -10 10v79q0 8 8 8h85q8 0 8 -8v-72q0 -3 -1 -4.5t-2 -3.5l-71 -122q-4 -8 -16 -8h-17q-4 0 -6 3.5zM49 -117.5q-2 3.5 0 6.5l44 94q3 6 3 10q0 5 -8 7h-17q-10 0 -10 10v79q0 8 8 8h85q8 0 8 -8v-72
q0 -3 -1 -4.5t-2 -3.5l-71 -122q-4 -8 -16 -8h-17q-4 0 -6 3.5z" />
    <glyph glyph-name="quotedblleft" unicode="&#x201c;" horiz-adv-x="381" 
d="M55 532v73q0 1 3 7l71 122q4 8 16 8h17q4 0 6 -3t0 -6l-44 -95q-3 -6 -3 -10q0 -6 8 -6l17 -1q10 0 10 -9v-79q0 -9 -8 -9h-85q-8 0 -8 8zM219 532v73q0 4 3 7l71 122q4 8 16 8h17q4 0 6 -3t0 -6l-44 -95q-3 -6 -3 -10q0 -6 8 -6l16 -1q11 0 11 -9v-79q0 -9 -8 -9h-85
q-8 0 -8 8z" />
    <glyph glyph-name="quotedblright" unicode="&#x201d;" horiz-adv-x="382" 
d="M49 527q-2 3 0 7l44 94q3 6 3 10q0 6 -8 6l-17 1q-10 0 -10 9v80q0 8 8 8h85q8 0 8 -8v-73q0 -1 -3 -7l-71 -122q-4 -8 -16 -8h-17q-4 0 -6 3zM213 527q-2 3 -1 7l45 94l2 9q0 7 -7 7l-17 1q-10 0 -10 9v80q0 8 8 8h85q7 0 7 -8v-73q0 -3 -2 -7l-71 -122q-5 -8 -16 -8
h-17q-4 0 -6 3z" />
    <glyph glyph-name="quoteleft" unicode="&#x2018;" horiz-adv-x="217" 
d="M168 739q2 -3 0 -7l-44 -94q-3 -6 -3 -10q0 -6 8 -6l17 -1q10 0 10 -9v-80q0 -8 -8 -8h-85q-8 0 -8 8v73q0 1 3 7l71 122q4 8 16 8h17q4 0 6 -3z" />
    <glyph glyph-name="quoteright" unicode="&#x2019;" horiz-adv-x="217" 
d="M49 527q-2 3 0 7l44 94q3 6 3 10q0 6 -8 6l-17 1q-10 0 -10 9v80q0 8 8 8h85q8 0 8 -8v-73q0 -1 -3 -7l-71 -122q-4 -8 -16 -8h-17q-4 0 -6 3z" />
    <glyph glyph-name="quotesinglbase" unicode="&#x201a;" horiz-adv-x="217" 
d="M49 -117.5q-2 3.5 0 6.5l44 94q3 6 3 10q0 5 -8 7h-17q-10 0 -10 10v79q0 8 8 8h85q8 0 8 -8v-72q0 -3 -1 -4.5t-2 -3.5l-71 -122q-4 -8 -16 -8h-17q-4 0 -6 3.5z" />
    <glyph glyph-name="uni00A0" unicode="&#xa0;" horiz-adv-x="214" 
 />
    <glyph glyph-name="cent" unicode="&#xa2;" horiz-adv-x="558" 
d="M507 226q-30 -54 -79 -87t-113 -37v-86q0 -8 -3.5 -12t-12.5 -4h-24q-14 0 -14 14v89q-63 8 -110.5 44t-74 94.5t-26.5 132.5q0 73 26.5 132.5t74.5 96.5t110 46v81q0 12 12 12h31q11 0 11 -11v-81q120 -8 184 -116q3 -6 2.5 -8.5t-5.5 -4.5l-42 -14q-1 -1 -4 -1
q-4 0 -8 6q-36 46 -68.5 66.5t-72.5 20.5q-83 0 -133 -60.5t-50 -162.5t50 -162.5t134 -60.5q49 0 86.5 24t68.5 73q6 8 12 4l35 -16q6 -3 3 -12z" />
    <glyph glyph-name="colonmonetary" unicode="&#x20a1;" horiz-adv-x="600" 
d="M508 218q-29 -50 -73 -82t-101 -40l-23 -87q-1 -6 -4.5 -7.5t-10.5 -1.5h-27q-12 1 -8 14l21 79q-28 1 -55 9l-25 -93q-1 -6 -4.5 -7.5t-10.5 -1.5h-27q-12 1 -8 14l28 107q-60 32 -94.5 96.5t-34.5 148.5q0 105 53 178.5t139 92.5l25 95q3 10 16 10h26q11 0 9 -14
l-23 -85h1q30 0 55 -6l25 95q3 10 16 10h26q11 0 9 -14l-29 -107q60 -28 101 -95q3 -6 2.5 -8.5t-5.5 -4.5l-42 -14q-1 -1 -4 -1q-4 0 -8 6q-36 46 -68.5 66.5t-72.5 20.5q-83 0 -133 -60.5t-50 -162.5t50 -162.5t134 -60.5q49 0 86.5 24t68.5 73q6 8 12 4l35 -16
q6 -3 3 -12z" />
    <glyph glyph-name="currency" unicode="&#xa4;" horiz-adv-x="527" 
d="M161 223q-4 2 -6 2q-4 0 -7 -4l-43 -43q-4 -4 -9 -4t-10 4l-19 20q-4 4 -4 9q0 4 4 8l43 43q3 5 3 8q0 4 -3 8q-29 47 -29 99q0 55 31 101q5 8 -1 13l-42 43q-4 5 -4 10t4 9l19 19q5 5 9 5q3 0 8 -5l44 -43q5 -7 12 -1q46 30 101 30q57 0 101 -32q8 -3 13 1l47 48
q7 5 13 0l25 -26q5 -6 0 -12l-48 -48q-5 -5 -1 -11q31 -46 31 -101q0 -57 -31 -100q-2 -3 -2 -6.5t3 -6.5l48 -46q6 -7 0 -13l-25 -25q-6 -6 -11 0l-47 46q-6 6 -12 3q-49 -34 -103 -34q-58 0 -102 32zM327.5 265.5q28.5 17.5 45 46t16.5 61.5t-16.5 61.5t-45 46t-63.5 17.5
t-63.5 -17.5t-45 -46t-16.5 -61.5t16.5 -61.5t45 -46t63.5 -17.5t63.5 17.5z" />
    <glyph glyph-name="dollar" unicode="$" horiz-adv-x="592" 
d="M528 82.5q-26 -41.5 -73.5 -66t-108.5 -25.5q-6 0 -8 -1.5t-2 -6.5v-61q0 -7 -2.5 -9.5t-8.5 -2.5h-31q-10 0 -10 9v64q0 5 -1.5 6.5t-5.5 1.5q-84 1 -139 29.5t-96 86.5q-5 5 -5 11q0 5 4 8l26 23q6 4 9 4q5 0 10 -5q38 -49 81 -73t108 -25q5 0 7 1.5t2 6.5v263
q0 9 -5 15t-16 11q-77 30 -120 58.5t-62 63t-19 83.5q0 80 58.5 134t153.5 63q4 0 7 2.5t3 6.5v52q0 9 7 9h34q10 0 10 -12v-51q0 -6 9 -8q57 -6 102 -28.5t84 -61.5q5 -3 5 -8q0 -4 -4 -8l-30 -29q-3 -3 -6 -3q-4 0 -10 7q-23 27 -60 46t-80 25l-4 1q-6 0 -6 -9v-271
q0 -7 2 -9.5t9 -5.5l34 -12q86 -34 130 -84.5t44 -121.5q0 -52 -26 -93.5zM284 682q0 5 -3 7t-8 1q-65 -6 -104 -43t-39 -92q0 -41 29.5 -72t104.5 -64l8 -2q12 0 12 15v250zM344 50q64 1 103 36t39 88q0 49 -31 81.5t-103 62.5q-3 1 -8 1q-8 0 -8 -10v-253q0 -6 8 -6z" />
    <glyph glyph-name="dong" unicode="&#x20ab;" horiz-adv-x="500" 
d="M488 666v-26q0 -9 -12 -9h-52v-485q0 -12 -11 -12h-36q-10 0 -10 11v38q0 11 -10 4q-17 -18 -29.5 -29t-38.5 -21.5t-62 -10.5q-53 0 -95 25t-66.5 74.5t-24.5 119.5q0 69 24.5 121.5t69 81.5t101.5 29q41 0 67 -12.5t50 -34.5q7 -5 8 -5q4 0 4 10v96h-136q-6 0 -7.5 2
t-1.5 7v26q0 7 6 7h139v59q0 9 9 9h42q8 0 8 -9v-59h57q7 0 7 -7zM363 473q-51 53 -115 53q-63 0 -102 -47t-39 -132t39 -128.5t98 -43.5q33 0 60.5 15t43 38.5t15.5 45.5v199zM428 36v-27q0 -5 -2.5 -7t-8.5 -2h-345q-5 0 -7 2t-2 7v27q0 8 7 8h352q6 0 6 -8z" />
    <glyph glyph-name="Euro" unicode="&#x20ac;" horiz-adv-x="586" 
d="M547.5 51.5q0.5 -3.5 -1.5 -4.5q-34 -27 -77 -42t-91 -15q-122 0 -199.5 72.5t-99.5 205.5h-82q-7 0 -9 2.5t-2 7.5v28q0 10 7 10h80q-2 36 -2 54q0 21 2 59h-76q-7 0 -9 2.5t-2 7.5v29q0 10 7 10h87q23 130 99.5 202t193.5 72q45 0 88 -15t78 -42q3 -3 3 -6q0 -4 -4 -8
l-30 -31q-8 -8 -16 -2q-56 43 -114 43q-90 0 -146 -53.5t-74 -159.5h210q9 0 9 -8v-29q0 -11 -14 -11l-211 -1q-2 -38 -2 -60q0 -19 2 -53l216 1q9 0 9 -9v-28q0 -6 -3.5 -8.5t-10.5 -2.5l-205 -1q17 -106 74.5 -160.5t152.5 -54.5q69 0 122 40q5 4 9 0l29 -36
q2 -2 2.5 -5.5z" />
    <glyph glyph-name="florin" unicode="&#x192;" horiz-adv-x="430" 
d="M355 521l-6 -34q-1 -8 -11 -8h-121q-7 0 -9 -8l-89 -510q-11 -63 -47 -97t-97 -34h-60q-6 0 -8.5 3t-0.5 8l4 30q2 8 10 8l50 1q38 1 57 20t27 65l88 506q2 8 -5 8h-71q-8 0 -7 8l6 34q2 9 11 9h69q5 0 6.5 2t2.5 7l13 76q11 62 47.5 94.5t95.5 32.5h79q10 0 7 -10
l-4 -31q-3 -9 -12 -9h-68q-30 0 -51.5 -21.5t-28.5 -57.5l-13 -75v-2q0 -6 7 -6h123q8 0 6 -9z" />
    </font>
</defs>
</svg>
